<svg width="479" height="615" viewBox="0 0 479 615" fill="none" xmlns="http://www.w3.org/2000/svg">
<g style="mix-blend-mode:multiply" opacity="0.2">
<ellipse cx="267" cy="585" rx="212" ry="30" fill="url(#paint0_radial)"/>
</g>
<g filter="url(#filter0_i)">
<path d="M422.804 333.25L401.036 338.043L311.57 317.274C280.017 330.055 247.865 310.085 243.871 291.513C239.877 273.14 260.047 246.58 293.996 238.591C318.16 233 340.726 239.39 352.908 249.775C362.494 257.763 375.474 260.958 388.455 257.763L440.977 245.781C425.6 180.678 352.309 142.934 276.422 159.909C199.736 178.281 149.811 244.982 164.988 310.085C180.365 375.188 253.656 412.932 329.543 395.957C363.492 387.969 393.248 403.146 397.242 421.718L476.324 403.346C468.935 373.39 449.564 348.428 422.804 333.25Z" fill="url(#paint1_radial)"/>
</g>
<g filter="url(#filter1_i)">
<path d="M476.126 403.346C461.148 338.243 387.258 299.7 311.371 317.074C306.978 318.073 302.584 319.271 298.391 320.669C345.321 330.255 384.862 366.401 396.444 416.127C396.644 417.325 396.844 418.324 397.044 419.522C397.243 420.121 397.443 420.92 397.643 421.519C398.042 422.917 398.042 424.514 398.242 425.912C398.641 436.896 391.452 449.477 379.07 459.462C366.889 466.052 353.908 471.644 340.128 475.638C336.134 476.836 332.34 477.835 328.146 478.833C323.154 480.031 318.161 480.83 313.368 481.629C312.37 481.829 311.371 482.029 310.373 482.029C305.58 482.628 300.787 483.227 295.994 483.426C295.195 483.426 294.397 483.426 293.598 483.626C289.005 483.826 284.412 484.026 279.818 483.826C279.419 483.826 279.02 483.826 278.62 483.826C273.827 483.626 268.835 483.426 264.042 483.027C263.243 483.027 262.245 482.827 261.446 482.827C256.653 482.228 251.86 481.629 247.067 480.83C246.668 480.83 246.468 480.631 246.069 480.631C241.475 479.832 236.882 478.634 232.289 477.435C231.89 477.236 231.291 477.236 230.891 477.036C226.298 475.838 221.505 474.24 217.112 472.842C216.513 472.643 215.914 472.443 215.315 472.243C210.721 470.645 206.128 468.848 201.735 466.851C140.226 439.692 93.0967 382.177 83.1116 308.887C70.131 213.229 128.644 120.368 220.507 90.6121C266.838 75.6344 313.768 78.2305 355.106 94.2067C369.884 99.9981 386.06 100.797 401.637 97.4019L464.144 83.0234C470.534 81.6255 472.531 73.238 467.538 69.0442C395.446 6.93682 293.997 -18.026 194.945 13.9264C63.9402 56.2633 -18.1374 190.264 3.4304 326.261C29.3917 489.617 187.556 594.261 346.119 557.716C349.315 556.917 352.51 555.918 355.705 555.12C359.1 554.52 362.295 553.921 365.69 553.122C441.577 535.549 491.103 468.449 476.126 403.346Z" fill="url(#paint2_radial)"/>
</g>
<g style="mix-blend-mode:multiply" opacity="0.25">
<path opacity="0.0196078" d="M298.389 320.869C309.173 329.456 317.161 340.839 321.754 353.62C323.951 359.611 325.349 366.002 325.748 372.592C326.347 379.781 325.748 387.37 323.951 394.759C323.751 395.358 323.551 395.957 323.351 396.556C325.548 396.157 327.545 395.757 329.742 395.358C335.334 394.16 340.925 393.56 346.118 393.361C356.702 393.161 366.287 395.358 374.276 398.753C380.466 401.549 385.659 404.943 389.453 408.938C393.247 412.732 395.843 417.125 396.842 421.718H397.241C397.042 421.119 396.842 420.52 396.642 419.921C396.443 418.723 396.243 417.724 396.043 416.526C393.247 404.145 388.454 392.562 382.463 381.978C376.472 371.393 368.884 362.007 360.296 353.82C351.709 345.632 341.924 338.642 331.539 333.051C321.155 327.459 309.971 323.265 298.389 320.869Z" fill="#273152"/>
<path opacity="0.0392157" d="M298.389 320.869C309.173 329.256 317.36 340.639 321.954 353.221C324.15 359.212 325.548 365.602 326.147 371.993C326.746 379.182 326.347 386.571 324.749 393.96C324.55 394.559 324.35 395.158 324.35 395.757C326.547 395.358 328.544 395.158 330.74 394.759C336.332 393.56 341.724 393.161 346.916 393.161C357.301 393.161 366.887 395.358 374.875 398.952C381.065 401.748 386.058 405.343 389.852 409.137C393.647 412.932 396.043 417.325 397.042 421.718H397.441C397.241 421.119 397.042 420.52 396.842 419.921C396.642 418.723 396.442 417.724 396.243 416.526C393.447 404.145 388.654 392.562 382.663 381.978C376.672 371.393 369.083 362.007 360.496 353.82C351.909 345.632 342.123 338.642 331.739 333.051C321.354 327.459 309.971 323.265 298.389 320.869Z" fill="#273152"/>
<path opacity="0.0588235" d="M298.389 320.869C309.173 329.256 317.36 340.24 322.153 352.821C324.35 358.812 325.948 365.003 326.547 371.393C327.346 378.583 326.946 385.772 325.548 393.161C325.348 393.76 325.149 394.359 325.149 394.958C327.346 394.759 329.343 394.359 331.539 393.96C337.131 392.961 342.523 392.562 347.515 392.562C357.9 392.762 367.286 394.958 375.074 398.753C381.265 401.748 386.058 405.343 389.852 409.137C393.647 412.932 396.043 417.325 397.042 421.718H397.441C397.241 421.119 397.042 420.52 396.842 419.921C396.642 418.723 396.442 417.724 396.243 416.526C393.447 404.145 388.654 392.562 382.663 381.978C376.672 371.393 369.083 362.007 360.496 353.82C351.909 345.632 342.123 338.642 331.739 333.051C321.354 327.459 309.971 323.265 298.389 320.869Z" fill="#273152"/>
<path opacity="0.0784314" d="M298.389 320.869C309.173 329.057 317.56 340.04 322.353 352.422C324.749 358.213 326.347 364.404 326.946 370.794C327.745 377.784 327.545 385.173 326.147 392.362C325.948 392.961 325.948 393.56 325.748 394.16C327.745 393.96 329.942 393.56 331.939 393.361C337.331 392.362 342.723 392.163 347.915 392.163C358.1 392.562 367.486 394.759 375.274 398.553C381.265 401.549 386.258 405.343 389.852 408.938C393.647 412.732 396.043 417.125 397.042 421.519H397.441C397.241 420.92 397.042 420.321 396.842 419.721C396.642 418.523 396.442 417.525 396.243 416.326C393.447 403.945 388.654 392.362 382.663 381.778C376.672 371.194 369.083 361.808 360.496 353.62C351.909 345.432 342.123 338.443 331.739 332.851C321.354 327.259 309.971 323.265 298.389 320.869Z" fill="#273152"/>
<path opacity="0.0980392" d="M298.389 320.869C309.372 329.057 317.56 339.841 322.553 352.022C324.949 357.814 326.547 364.004 327.345 370.195C328.344 377.185 328.144 384.374 326.946 391.563C326.746 392.163 326.746 392.762 326.547 393.361C328.544 393.161 330.74 392.961 332.737 392.562C338.129 391.763 343.521 391.563 348.514 391.763C358.699 392.362 367.885 394.759 375.474 398.553C381.465 401.748 386.258 405.543 389.852 409.137C393.647 412.932 396.043 417.325 397.042 421.718H397.441C397.241 421.119 397.042 420.52 396.842 419.921C396.642 418.723 396.442 417.724 396.243 416.526C393.447 404.145 388.654 392.562 382.663 381.978C376.672 371.393 369.083 362.007 360.496 353.82C351.909 345.632 342.123 338.642 331.739 333.051C321.354 327.459 309.971 323.265 298.389 320.869Z" fill="#273152"/>
<path opacity="0.1176" d="M298.389 320.869C309.372 328.857 317.76 339.641 322.752 351.623C325.149 357.414 326.946 363.405 327.745 369.596C328.743 376.586 328.743 383.575 327.745 390.765C327.745 391.364 327.545 391.963 327.345 392.562C329.343 392.362 331.539 392.163 333.536 391.963C338.928 391.164 344.121 390.964 349.113 391.364C359.098 391.963 368.284 394.559 375.673 398.553C381.665 401.748 386.457 405.742 389.852 409.137C393.647 412.932 396.043 417.325 397.042 421.718H397.441C397.241 421.119 397.042 420.52 396.842 419.921C396.642 418.723 396.442 417.724 396.243 416.526C393.447 404.145 388.654 392.562 382.663 381.978C376.672 371.393 369.083 362.007 360.496 353.82C351.909 345.632 342.123 338.642 331.739 333.051C321.354 327.459 309.971 323.265 298.389 320.869Z" fill="#273152"/>
<path opacity="0.1373" d="M298.389 320.869C309.372 328.857 317.76 339.441 322.952 351.224C325.548 356.815 327.146 362.806 328.144 368.997C329.343 375.787 329.343 382.976 328.344 389.966C328.344 390.565 328.144 391.164 327.945 391.563C329.942 391.364 331.939 391.164 334.135 390.964C339.527 390.365 344.72 390.165 349.512 390.765C359.498 391.563 368.484 394.16 375.873 398.154C381.864 401.549 386.457 405.543 389.852 408.938C393.447 412.732 396.043 416.926 397.042 421.519H397.441C397.241 420.92 397.042 420.321 396.842 419.721C396.642 418.523 396.442 417.525 396.243 416.326C393.447 403.945 388.654 392.362 382.663 381.778C376.672 371.194 369.083 361.808 360.496 353.62C351.909 345.432 342.123 338.443 331.739 332.851C321.354 327.259 309.971 323.265 298.389 320.869Z" fill="#273152"/>
<path opacity="0.1569" d="M298.389 320.869C309.372 328.657 317.76 339.042 323.152 350.824C325.748 356.416 327.545 362.407 328.544 368.398C329.742 375.188 329.942 382.177 329.143 389.167C329.143 389.766 328.943 390.365 328.943 390.765C330.94 390.565 332.937 390.565 334.934 390.365C340.126 389.766 345.319 389.766 350.311 390.365C360.097 391.364 369.083 393.96 376.273 398.154C382.264 401.549 386.657 405.543 390.052 408.938C393.647 412.732 396.243 416.926 397.241 421.519H397.641C397.441 420.92 397.241 420.321 397.042 419.721C396.842 418.523 396.642 417.525 396.442 416.326C393.647 403.945 388.854 392.362 382.863 381.778C376.872 371.194 369.283 361.808 360.696 353.62C352.109 345.432 342.323 338.443 331.939 332.851C321.554 327.259 309.971 323.265 298.389 320.869Z" fill="#273152"/>
<path opacity="0.1765" d="M298.389 320.869C309.372 328.657 317.959 338.842 323.351 350.425C325.948 356.016 327.945 361.808 328.943 367.799C330.341 374.589 330.541 381.578 329.742 388.368C329.742 388.967 329.542 389.566 329.542 389.966C331.539 389.966 333.536 389.766 335.533 389.566C340.726 389.167 345.918 389.167 350.711 389.766C360.496 390.964 369.283 393.76 376.472 397.954C382.463 401.549 386.857 405.543 390.052 408.938C393.647 412.732 396.243 416.926 397.042 421.319H397.441C397.241 420.72 397.042 420.121 396.842 419.522C396.642 418.324 396.442 417.325 396.243 416.127C393.447 403.745 388.654 392.163 382.663 381.578C376.672 370.994 369.083 361.608 360.496 353.42C351.909 345.232 342.123 338.243 331.739 332.651C321.354 327.06 309.971 323.265 298.389 320.869Z" fill="#273152"/>
<path opacity="0.1961" d="M298.389 320.869C309.372 328.457 317.96 338.642 323.551 350.025C326.147 355.617 328.144 361.408 329.542 367.2C330.94 373.99 331.34 380.779 330.74 387.569C330.74 388.168 330.541 388.768 330.541 389.167C332.538 389.167 334.535 389.167 336.532 388.967C341.724 388.568 346.717 388.768 351.509 389.566C361.095 390.964 369.882 393.76 376.872 397.954C382.863 401.549 387.056 405.742 390.252 408.938C393.846 412.732 396.243 416.926 397.241 421.319H397.641C397.441 420.72 397.241 420.121 397.042 419.522C396.842 418.324 396.642 417.325 396.442 416.127C393.647 403.745 388.854 392.163 382.863 381.578C376.872 370.994 369.283 361.608 360.696 353.42C352.109 345.232 342.323 338.243 331.939 332.651C321.554 327.06 309.971 323.265 298.389 320.869Z" fill="#273152"/>
<path opacity="0.2157" d="M298.389 320.869C309.572 328.258 318.159 338.443 323.751 349.626C326.547 355.018 328.544 360.809 329.942 366.601C331.34 373.191 331.939 379.981 331.539 386.97C331.539 387.569 331.34 387.969 331.34 388.568C333.337 388.568 335.334 388.568 337.331 388.568C342.523 388.368 347.515 388.568 352.109 389.367C361.694 390.765 370.282 393.76 377.071 398.154C382.863 401.948 387.256 406.142 390.252 409.337C393.846 413.131 396.243 417.325 397.241 421.718H397.641C397.441 421.119 397.241 420.52 397.042 419.921C396.842 418.723 396.642 417.724 396.442 416.526C393.647 404.145 388.854 392.562 382.863 381.978C376.872 371.393 369.283 362.007 360.696 353.82C352.109 345.632 342.323 338.642 331.939 333.051C321.554 327.459 309.971 323.265 298.389 320.869Z" fill="#273152"/>
<path opacity="0.2353" d="M298.389 320.869C309.572 328.258 318.159 338.243 323.951 349.227C326.746 354.618 328.943 360.21 330.341 366.002C331.939 372.592 332.538 379.382 332.138 386.171C332.138 386.771 331.939 387.17 331.939 387.769C333.936 387.769 335.933 387.769 337.73 387.769C342.922 387.569 347.715 387.969 352.508 388.768C361.894 390.365 370.481 393.56 377.271 397.954C383.062 401.748 387.256 406.142 390.252 409.137C393.846 412.932 396.243 417.125 397.241 421.519H397.641C397.441 420.92 397.241 420.321 397.042 419.721C396.842 418.523 396.642 417.525 396.442 416.326C393.647 403.945 388.854 392.362 382.863 381.778C376.872 371.194 369.283 361.808 360.696 353.62C352.109 345.432 342.323 338.443 331.939 332.851C321.554 327.259 309.971 323.265 298.389 320.869Z" fill="#273152"/>
<path opacity="0.2549" d="M298.389 320.869C309.572 328.058 318.359 337.843 324.15 348.827C326.946 354.219 329.143 359.811 330.74 365.402C332.338 371.993 333.137 378.583 332.937 385.373C332.937 385.972 332.937 386.371 332.737 386.97C334.735 386.97 336.532 387.17 338.529 387.17C343.521 387.17 348.514 387.569 353.107 388.568C362.493 390.365 370.881 393.56 377.471 397.954C383.262 401.948 387.256 406.341 390.252 409.337C393.846 413.131 396.243 417.325 397.241 421.718H397.641C397.441 421.119 397.241 420.52 397.042 419.921C396.842 418.723 396.642 417.724 396.442 416.526C393.647 404.145 388.854 392.562 382.863 381.978C376.872 371.393 369.283 362.007 360.696 353.82C352.109 345.632 342.323 338.642 331.939 333.051C321.554 327.459 309.971 323.265 298.389 320.869Z" fill="#273152"/>
<path opacity="0.2745" d="M298.389 320.869C309.572 328.058 318.359 337.644 324.35 348.428C327.346 353.62 329.542 359.212 331.14 364.803C332.937 371.194 333.736 377.784 333.736 384.574C333.736 385.173 333.736 385.572 333.736 386.171C335.733 386.371 337.53 386.371 339.527 386.371C344.52 386.371 349.313 386.97 353.906 387.969C363.092 389.966 371.48 393.161 378.07 397.754C383.861 401.748 387.855 406.341 390.651 409.137C394.246 412.932 396.642 417.125 397.641 421.519H398.04C397.84 420.92 397.641 420.321 397.441 419.721C397.241 418.523 397.042 417.525 396.842 416.326C394.046 403.945 389.253 392.362 383.262 381.778C377.271 371.194 369.682 361.808 361.095 353.62C352.508 345.432 342.723 338.443 332.338 332.851C321.954 327.259 309.971 323.265 298.389 320.869Z" fill="#273152"/>
<path opacity="0.2941" d="M298.389 320.869C309.572 327.858 318.359 337.444 324.55 348.028C327.545 353.221 329.742 358.613 331.539 364.204C333.337 370.595 334.335 377.185 334.335 383.775C334.335 384.374 334.335 384.774 334.335 385.373C336.332 385.572 338.129 385.572 339.927 385.772C344.919 385.972 349.712 386.571 354.106 387.569C363.292 389.766 371.48 393.161 377.87 397.754C383.662 401.948 387.456 406.541 390.252 409.337C393.846 413.131 396.243 417.325 397.241 421.718H397.641C397.441 421.119 397.241 420.52 397.042 419.921C396.842 418.723 396.642 417.724 396.442 416.526C393.647 404.145 388.854 392.562 382.863 381.978C376.872 371.393 369.283 362.007 360.696 353.82C352.109 345.632 342.323 338.642 331.939 333.051C321.554 327.459 309.971 323.265 298.389 320.869Z" fill="#273152"/>
<path opacity="0.3137" d="M298.389 320.869C309.772 327.858 318.559 337.244 324.749 347.629C327.745 352.821 330.141 358.213 331.939 363.605C333.936 369.996 334.934 376.386 335.134 382.976C335.134 383.575 335.134 383.975 335.134 384.574C336.931 384.774 338.928 384.973 340.726 384.973C345.718 385.173 350.311 385.972 354.705 387.17C363.691 389.566 371.879 392.961 378.07 397.554C383.861 401.948 387.656 406.341 390.252 409.137C393.846 412.932 396.243 417.125 397.042 421.319H397.441C397.241 420.72 397.042 420.121 396.842 419.522C396.642 418.324 396.442 417.325 396.243 416.127C393.447 403.745 388.654 392.163 382.663 381.578C376.672 370.994 369.083 361.608 360.496 353.42C351.909 345.232 342.123 338.243 331.739 332.651C321.354 327.06 309.971 323.265 298.389 320.869Z" fill="#273152"/>
<path opacity="0.3333" d="M298.389 320.869C309.772 327.659 318.559 337.045 324.949 347.229C327.945 352.222 330.541 357.614 332.338 363.006C334.335 369.197 335.533 375.787 335.933 382.177C335.933 382.777 335.933 383.176 335.933 383.775C337.73 383.975 339.727 384.174 341.524 384.374C346.317 384.774 351.11 385.572 355.504 386.771C364.49 389.167 372.478 392.762 378.669 397.554C384.261 401.948 388.055 406.541 390.651 409.337C394.246 412.932 396.642 417.325 397.441 421.519H397.84C397.641 420.92 397.441 420.321 397.241 419.721C397.042 418.523 396.842 417.525 396.642 416.326C393.846 403.945 389.054 392.362 383.062 381.778C377.071 371.194 369.483 361.808 360.895 353.62C352.308 345.432 342.523 338.443 332.138 332.851C321.754 327.259 309.971 323.265 298.389 320.869Z" fill="#273152"/>
<path opacity="0.3529" d="M298.389 320.869C309.772 327.659 318.758 336.645 325.149 346.83C328.344 351.823 330.74 357.015 332.737 362.407C334.934 368.598 336.132 374.988 336.532 381.379C336.532 381.978 336.532 382.377 336.532 382.976C338.329 383.176 340.326 383.376 342.123 383.575C346.916 383.975 351.509 384.973 355.903 386.171C364.69 388.768 372.678 392.562 378.669 397.355C384.261 401.948 387.855 406.541 390.451 409.137C394.046 412.732 396.243 416.926 397.241 421.319H397.641C397.441 420.72 397.241 420.121 397.042 419.522C396.842 418.324 396.642 417.325 396.442 416.127C393.647 403.745 388.854 392.163 382.863 381.578C376.872 370.994 369.283 361.608 360.696 353.42C352.109 345.232 342.323 338.243 331.939 332.651C321.554 327.06 309.971 323.265 298.389 320.869Z" fill="#273152"/>
<path opacity="0.3725" d="M298.389 320.869C309.772 327.459 318.758 336.446 325.348 346.431C328.544 351.423 331.14 356.616 333.137 361.808C335.334 367.999 336.732 374.189 337.331 380.58C337.331 381.179 337.331 381.578 337.331 382.177C339.128 382.377 340.925 382.777 342.723 382.976C347.515 383.575 352.109 384.574 356.302 385.972C365.089 388.768 372.878 392.562 378.669 397.554C384.261 402.148 387.855 406.94 390.252 409.537C393.846 413.131 396.043 417.325 397.042 421.718H397.441C397.241 421.119 397.042 420.52 396.842 419.921C396.642 418.723 396.442 417.724 396.243 416.526C393.447 404.145 388.654 392.562 382.663 381.978C376.672 371.393 369.083 362.007 360.496 353.82C351.909 345.632 342.123 338.642 331.739 333.051C321.354 327.459 309.971 323.265 298.389 320.869Z" fill="#273152"/>
<path opacity="0.3922" d="M298.389 320.869C309.772 327.459 318.958 336.246 325.548 346.031C328.743 350.824 331.539 356.016 333.536 361.408C335.933 367.599 337.331 373.79 337.93 379.981C337.93 380.58 337.93 380.979 338.129 381.578C339.927 381.978 341.724 382.177 343.521 382.377C348.314 382.976 352.708 384.174 356.901 385.572C365.489 388.568 373.277 392.562 379.068 397.355C384.66 402.148 388.055 406.94 390.451 409.337C394.046 412.932 396.243 417.125 397.241 421.519H397.641C397.441 420.92 397.241 420.321 397.042 419.721C396.842 418.523 396.642 417.525 396.442 416.326C393.647 403.945 388.854 392.362 382.863 381.778C376.872 371.194 369.283 361.808 360.696 353.62C352.109 345.432 342.323 338.443 331.939 332.851C321.554 327.259 309.971 323.265 298.389 320.869Z" fill="#273152"/>
<path opacity="0.4118" d="M298.389 320.869C309.772 327.259 318.958 336.046 325.548 345.632C328.943 350.425 331.539 355.617 333.736 360.809C336.132 366.8 337.73 372.991 338.529 379.182C338.529 379.781 338.529 380.18 338.729 380.779C340.526 381.179 342.323 381.379 344.121 381.778C348.714 382.577 353.307 383.775 357.501 385.173C366.088 388.368 373.676 392.362 379.268 397.355C384.86 402.347 388.255 407.14 390.451 409.537C394.046 413.131 396.243 417.325 397.241 421.718H397.641C397.441 421.119 397.241 420.52 397.042 419.921C396.842 418.723 396.642 417.724 396.442 416.526C393.647 404.145 388.854 392.562 382.863 381.978C376.872 371.393 369.283 362.007 360.696 353.82C352.109 345.632 342.323 338.642 331.939 333.051C321.554 327.459 309.971 323.265 298.389 320.869Z" fill="#273152"/>
<path opacity="0.4314" d="M298.389 320.869C309.971 327.259 319.158 335.846 325.748 345.232C329.143 350.025 331.939 355.018 334.135 360.21C336.732 366.201 338.529 372.392 339.328 378.383C339.328 378.982 339.527 379.382 339.527 379.981C341.325 380.38 343.122 380.779 344.919 381.179C349.512 381.978 353.906 383.376 358.1 384.973C366.687 388.168 374.076 392.362 379.668 397.554C385.259 402.547 388.454 407.54 390.651 409.736C394.246 413.331 396.443 417.525 397.441 421.918H397.84C397.641 421.319 397.441 420.72 397.241 420.121C397.042 418.923 396.842 417.924 396.642 416.726C393.846 404.344 389.054 392.762 383.062 382.177C377.071 371.593 369.483 362.207 360.895 354.019C352.308 345.832 342.523 338.842 332.138 333.25C321.754 327.659 309.971 323.265 298.389 320.869Z" fill="#273152"/>
<path opacity="0.451" d="M298.389 320.869C309.971 327.06 319.158 335.447 325.948 344.833C329.343 349.626 332.138 354.419 334.535 359.611C337.131 365.602 339.128 371.593 339.927 377.784C339.927 378.383 340.126 378.782 340.126 379.382C341.924 379.781 343.721 380.18 345.319 380.58C349.912 381.578 354.305 382.976 358.299 384.574C366.687 387.969 374.076 392.362 379.468 397.355C384.86 402.547 388.055 407.54 390.252 409.736C393.647 413.331 396.043 417.525 397.042 421.718H397.441C397.241 421.119 397.042 420.52 396.842 419.921C396.642 418.723 396.442 417.724 396.243 416.526C393.447 404.145 388.654 392.562 382.663 381.978C376.672 371.393 369.083 362.007 360.496 353.82C351.909 345.632 342.123 338.642 331.739 333.051C321.354 327.459 309.971 323.265 298.389 320.869Z" fill="#273152"/>
<path opacity="0.4706" d="M298.389 320.869C309.971 326.86 319.357 335.247 326.147 344.434C329.542 349.027 332.538 354.019 334.934 359.012C337.73 364.803 339.727 370.794 340.726 376.985C340.726 377.584 340.925 377.984 340.925 378.383C342.723 378.782 344.52 379.382 346.118 379.781C350.711 380.779 354.904 382.177 358.898 383.975C367.286 387.569 374.475 391.963 379.668 397.155C385.059 402.547 388.255 407.34 390.252 409.537C393.647 413.131 396.043 417.325 396.842 421.519H397.241C397.042 420.92 396.842 420.321 396.642 419.721C396.443 418.523 396.243 417.525 396.043 416.326C393.247 403.945 388.454 392.362 382.463 381.778C376.472 371.194 368.884 361.808 360.296 353.62C351.709 345.432 341.924 338.443 331.539 332.851C321.155 327.259 309.971 323.265 298.389 320.869Z" fill="#273152"/>
<path opacity="0.4902" d="M298.389 320.869C309.971 326.86 319.357 335.048 326.347 344.034C329.942 348.627 332.937 353.42 335.334 358.413C338.129 364.204 340.326 370.195 341.524 376.186C341.724 376.785 341.724 377.185 341.724 377.584C343.521 377.984 345.119 378.583 346.916 378.982C351.31 380.18 355.703 381.578 359.697 383.575C367.885 387.37 375.074 391.963 380.267 397.155C385.659 402.547 388.654 407.54 390.651 409.736C394.046 413.331 396.442 417.525 397.241 421.718H397.641C397.441 421.119 397.241 420.52 397.042 419.921C396.842 418.723 396.642 417.724 396.442 416.526C393.647 404.145 388.854 392.562 382.863 381.978C376.872 371.393 369.283 362.007 360.696 353.82C352.109 345.632 342.323 338.642 331.939 333.051C321.554 327.459 309.971 323.265 298.389 320.869Z" fill="#273152"/>
<path opacity="0.5098" d="M298.389 320.869C309.971 326.66 319.357 334.848 326.547 343.635C330.141 348.228 333.137 352.821 335.733 357.814C338.729 363.605 340.925 369.396 342.123 375.388C342.323 375.787 342.323 376.386 342.323 376.785C344.12 377.385 345.718 377.784 347.515 378.383C351.909 379.781 356.103 381.179 360.097 383.176C368.284 387.17 375.274 391.763 380.267 396.955C385.659 402.547 388.454 407.54 390.451 409.537C393.846 413.131 396.043 417.325 397.042 421.519H397.441C397.241 420.92 397.042 420.321 396.842 419.721C396.642 418.523 396.442 417.525 396.243 416.326C393.447 403.945 388.654 392.362 382.663 381.778C376.672 371.194 369.083 361.808 360.496 353.62C351.909 345.432 342.123 338.443 331.739 332.851C321.354 327.259 309.971 323.265 298.389 320.869Z" fill="#273152"/>
<path opacity="0.5294" d="M298.389 320.869C310.171 326.66 319.557 334.449 326.746 343.235C330.341 347.629 333.536 352.422 336.132 357.215C339.128 362.806 341.524 368.797 342.922 374.589C343.122 374.988 343.122 375.587 343.322 375.987C345.119 376.586 346.717 377.185 348.314 377.584C352.708 378.982 356.901 380.58 360.696 382.577C368.684 386.771 375.673 391.563 380.666 396.756C386.058 402.347 388.854 407.54 390.651 409.537C394.046 413.131 396.243 417.325 397.241 421.519H397.641C397.441 420.92 397.241 420.321 397.042 419.721C396.842 418.523 396.642 417.525 396.442 416.326C393.647 403.945 388.854 392.362 382.863 381.778C376.872 371.194 369.283 361.808 360.696 353.62C352.109 345.432 342.323 338.443 331.939 332.851C321.554 327.259 309.971 323.265 298.389 320.869Z" fill="#273152"/>
<path opacity="0.549" d="M298.389 320.869C310.171 326.46 319.557 334.249 326.946 342.836C330.74 347.229 333.936 351.823 336.532 356.616C339.727 362.207 342.123 367.999 343.721 373.79C343.921 374.189 343.921 374.788 344.121 375.188C345.918 375.787 347.515 376.386 349.113 376.985C353.507 378.583 357.501 380.18 361.295 382.377C369.283 386.571 376.073 391.563 380.866 396.955C386.058 402.747 388.854 407.939 390.651 409.736C394.046 413.331 396.243 417.525 397.241 421.718H397.641C397.441 421.119 397.241 420.52 397.042 419.921C396.842 418.723 396.642 417.724 396.442 416.526C393.647 404.145 388.854 392.562 382.863 381.978C376.872 371.393 369.283 362.007 360.696 353.82C352.109 345.632 342.323 338.642 331.939 333.051C321.554 327.459 309.971 323.265 298.389 320.869Z" fill="#273152"/>
<path opacity="0.5686" d="M298.389 320.869C310.171 326.46 319.757 334.049 327.146 342.636C330.94 347.03 334.135 351.423 336.931 356.216C340.126 361.808 342.723 367.399 344.32 373.191C344.52 373.59 344.52 374.189 344.72 374.589C346.317 375.188 348.115 375.787 349.712 376.386C354.106 377.984 358.1 379.781 361.894 381.978C369.682 386.371 376.472 391.563 381.065 396.756C386.258 402.747 389.054 407.939 390.651 409.736C394.046 413.331 396.243 417.325 397.241 421.519H397.641C397.441 420.92 397.241 420.321 397.042 419.721C396.842 418.523 396.642 417.525 396.442 416.326C393.647 403.945 388.854 392.362 382.863 381.778C376.872 371.194 369.283 361.808 360.696 353.62C352.109 345.432 342.323 338.443 331.939 332.851C321.554 327.259 309.971 323.265 298.389 320.869Z" fill="#273152"/>
<path opacity="0.5882" d="M298.389 320.869C310.171 326.261 319.757 333.849 327.346 342.237C331.14 346.431 334.535 351.024 337.331 355.617C340.726 361.009 343.322 366.8 345.119 372.392C345.319 372.791 345.319 373.39 345.518 373.79C347.116 374.389 348.913 375.188 350.511 375.787C354.705 377.584 358.699 379.382 362.493 381.578C370.282 386.171 376.872 391.364 381.465 396.756C386.657 402.747 389.253 408.139 390.851 409.736C394.246 413.331 396.443 417.325 397.441 421.519H397.84C397.641 420.92 397.441 420.321 397.241 419.721C397.042 418.523 396.842 417.525 396.642 416.326C393.846 403.945 389.054 392.362 383.062 381.778C377.071 371.194 369.483 361.808 360.895 353.62C352.308 345.432 342.523 338.443 332.138 332.851C321.754 327.259 309.971 323.265 298.389 320.869Z" fill="#273152"/>
<path opacity="0.6078" d="M298.389 320.869C310.171 326.261 319.957 333.65 327.545 341.838C331.539 346.031 334.934 350.425 337.73 355.018C341.125 360.41 343.921 366.002 345.718 371.593C345.918 371.993 346.118 372.592 346.118 372.991C347.715 373.79 349.313 374.389 350.91 374.988C355.104 376.785 359.098 378.782 362.693 381.179C370.282 385.972 376.872 391.364 381.265 396.756C386.457 402.946 388.854 408.338 390.451 409.936C393.846 413.531 396.043 417.525 396.842 421.718H397.241C397.042 421.119 396.842 420.52 396.642 419.921C396.443 418.723 396.243 417.724 396.043 416.526C393.247 404.145 388.454 392.562 382.463 381.978C376.472 371.393 368.884 362.007 360.296 353.82C351.709 345.632 341.924 338.642 331.539 333.051C321.155 327.459 309.971 323.265 298.389 320.869Z" fill="#273152"/>
<path opacity="0.6275" d="M298.389 320.869C310.171 326.061 319.957 333.25 327.745 341.438C331.739 345.632 335.134 349.826 338.129 354.419C341.724 359.811 344.52 365.203 346.517 370.794C346.717 371.194 346.916 371.793 346.916 372.192C348.514 372.991 350.112 373.59 351.709 374.389C355.903 376.386 359.697 378.383 363.292 380.779C370.881 385.772 377.071 391.164 381.665 396.756C386.857 403.146 389.253 408.538 390.651 409.936C394.046 413.531 396.243 417.525 397.042 421.718H397.441C397.241 421.119 397.042 420.52 396.842 419.921C396.642 418.723 396.442 417.724 396.243 416.526C393.447 404.145 388.654 392.562 382.663 381.978C376.672 371.393 369.083 362.007 360.496 353.82C351.909 345.632 342.123 338.642 331.739 333.051C321.354 327.459 309.971 323.265 298.389 320.869Z" fill="#273152"/>
<path opacity="0.6471" d="M298.389 320.869C310.371 326.061 320.156 333.051 327.945 341.039C331.939 345.033 335.533 349.426 338.529 353.82C342.123 359.212 345.119 364.604 347.316 369.996C347.515 370.395 347.715 370.994 347.915 371.393C349.512 372.192 351.11 372.991 352.708 373.79C356.901 375.787 360.696 377.984 364.29 380.38C371.679 385.572 377.87 390.964 382.264 396.556C387.256 403.146 389.653 408.338 391.051 409.936C394.445 413.531 396.642 417.525 397.441 421.718H397.84C397.641 421.119 397.441 420.52 397.241 419.921C397.042 418.723 396.842 417.724 396.642 416.526C393.846 404.145 389.054 392.562 383.062 381.978C377.071 371.393 369.483 362.007 360.895 353.82C352.308 345.632 342.523 338.642 332.138 333.051C321.754 327.459 309.971 323.265 298.389 320.869Z" fill="#273152"/>
<path opacity="0.6667" d="M298.389 320.869C310.371 325.861 320.156 332.851 328.144 340.639C332.338 344.633 335.733 348.827 338.928 353.221C342.723 358.413 345.718 363.805 347.915 369.197C348.115 369.596 348.314 370.195 348.514 370.595C350.112 371.393 351.709 372.192 353.307 372.991C357.301 375.188 361.095 377.385 364.69 379.981C372.079 385.373 378.07 390.964 382.264 396.556C387.256 403.146 389.453 408.538 390.851 409.936C394.246 413.531 396.243 417.525 397.241 421.718H397.641C397.441 421.119 397.241 420.52 397.042 419.921C396.842 418.723 396.642 417.724 396.442 416.526C393.647 404.145 388.854 392.562 382.863 381.978C376.872 371.393 369.283 362.007 360.696 353.82C352.109 345.632 342.323 338.642 331.939 333.051C321.554 327.459 309.971 323.265 298.389 320.869Z" fill="#273152"/>
<path opacity="0.6863" d="M298.389 320.869C310.371 325.861 320.356 332.651 328.344 340.24C332.538 344.234 336.132 348.428 339.328 352.621C343.122 357.814 346.317 363.206 348.714 368.598C348.913 368.997 349.113 369.596 349.313 369.996C350.91 370.794 352.508 371.593 353.906 372.592C357.9 374.788 361.694 377.185 365.089 379.781C372.279 385.173 378.27 390.964 382.463 396.756C387.456 403.546 389.653 408.938 390.851 410.335C394.246 413.93 396.243 417.924 397.241 422.118H397.641C397.441 421.519 397.241 420.92 397.042 420.321C396.842 419.122 396.642 418.124 396.442 416.926C393.647 404.544 388.854 392.961 382.863 382.377C376.872 371.793 369.283 362.407 360.696 354.219C352.109 346.031 342.323 339.042 331.939 333.45C321.554 327.858 309.971 323.265 298.389 320.869Z" fill="#273152"/>
<path opacity="0.7059" d="M298.389 320.869C310.371 325.662 320.356 332.252 328.544 339.841C332.737 343.635 336.532 347.829 339.727 352.022C343.721 357.215 346.916 362.407 349.512 367.799C349.712 368.198 349.912 368.598 350.112 369.197C351.709 369.996 353.307 370.994 354.705 371.793C358.699 374.189 362.293 376.586 365.688 379.182C372.878 384.774 378.669 390.765 382.663 396.356C387.456 403.346 389.653 408.738 390.851 409.936C394.246 413.531 396.243 417.525 397.241 421.519H397.641C397.441 420.92 397.241 420.321 397.042 419.721C396.842 418.523 396.642 417.525 396.442 416.326C393.647 403.945 388.854 392.362 382.863 381.778C376.872 371.194 369.283 361.808 360.696 353.62C352.109 345.432 342.323 338.443 331.939 332.851C321.554 327.259 309.971 323.265 298.389 320.869Z" fill="#273152"/>
<path opacity="0.7255" d="M298.389 320.869C310.371 325.462 320.556 332.052 328.743 339.441C332.937 343.235 336.732 347.23 340.126 351.423C344.121 356.416 347.515 361.608 350.112 367C350.311 367.399 350.511 367.799 350.711 368.398C352.308 369.396 353.706 370.195 355.304 371.194C359.298 373.59 362.893 376.186 366.088 378.982C373.077 384.774 378.869 390.765 382.663 396.556C387.456 403.546 389.653 409.137 390.651 410.335C394.046 413.93 396.043 417.924 397.042 421.918H397.441C397.241 421.319 397.042 420.72 396.842 420.121C396.642 418.923 396.442 417.924 396.243 416.726C393.447 404.344 388.654 392.762 382.663 382.177C376.672 371.593 369.083 362.207 360.496 354.019C351.909 345.832 342.123 338.842 331.739 333.25C321.354 327.659 309.971 323.265 298.389 320.869Z" fill="#273152"/>
<path opacity="0.7451" d="M298.389 320.869C310.571 325.462 320.556 331.852 328.943 339.042C333.337 342.836 337.131 346.83 340.526 350.824C344.72 355.817 348.115 361.009 350.91 366.201C351.11 366.601 351.31 367 351.509 367.599C353.107 368.598 354.505 369.596 356.103 370.395C359.897 372.991 363.492 375.587 366.887 378.383C373.876 384.374 379.468 390.565 383.262 396.356C388.055 403.546 390.052 409.137 391.051 410.136C394.246 413.531 396.442 417.724 397.241 421.718H397.641C397.441 421.119 397.241 420.52 397.042 419.921C396.842 418.723 396.642 417.724 396.442 416.526C393.647 404.145 388.854 392.562 382.863 381.978C376.872 371.393 369.283 362.007 360.696 353.82C352.109 345.632 342.323 338.642 331.939 333.051C321.554 327.459 309.971 323.265 298.389 320.869Z" fill="#273152"/>
<path opacity="0.7647" d="M298.389 320.869C310.571 325.262 320.755 331.653 329.143 338.642C333.536 342.237 337.53 346.231 340.925 350.225C345.119 355.218 348.714 360.21 351.709 365.402C351.909 365.802 352.109 366.201 352.508 366.8C354.106 367.799 355.504 368.797 356.901 369.796C360.696 372.392 364.29 375.188 367.486 377.984C374.276 384.174 379.867 390.365 383.462 396.157C388.255 403.546 390.052 409.137 391.051 410.136C394.246 413.531 396.442 417.724 397.241 421.718H397.641C397.441 421.119 397.241 420.52 397.042 419.921C396.842 418.723 396.642 417.724 396.442 416.526C393.647 404.145 388.854 392.562 382.863 381.978C376.872 371.393 369.283 362.007 360.696 353.82C352.109 345.632 342.323 338.642 331.939 333.051C321.554 327.459 309.971 323.265 298.389 320.869Z" fill="#273152"/>
<path opacity="0.7843" d="M298.389 320.869C310.571 325.262 320.755 331.253 329.343 338.243C333.736 341.838 337.73 345.632 341.325 349.626C345.718 354.419 349.313 359.411 352.308 364.604C352.508 365.003 352.907 365.402 353.107 365.802C354.705 366.8 356.103 367.799 357.501 368.797C361.295 371.593 364.69 374.389 367.885 377.385C374.675 383.775 379.867 390.166 383.662 395.957C388.255 403.346 390.252 409.137 391.051 409.936C394.246 413.331 396.442 417.325 397.241 421.519H397.641C397.441 420.92 397.241 420.321 397.042 419.721C396.842 418.523 396.642 417.525 396.442 416.326C393.647 403.945 388.854 392.362 382.863 381.778C376.872 371.194 369.283 361.808 360.696 353.62C352.109 345.432 342.323 338.443 331.939 332.851C321.554 327.259 309.971 323.265 298.389 320.869Z" fill="#273152"/>
<path opacity="0.8039" d="M298.389 320.869C310.571 325.063 320.955 331.054 329.542 337.843C334.135 341.438 338.129 345.232 341.724 349.027C346.118 353.82 349.912 358.812 353.107 363.805C353.307 364.204 353.706 364.604 353.906 365.003C355.304 366.002 356.901 367.2 358.299 368.198C362.094 370.994 365.489 373.99 368.484 376.985C375.074 383.376 380.267 389.966 383.861 395.957C388.454 403.546 390.252 409.337 391.051 410.136C394.246 413.531 396.442 417.525 397.241 421.718H397.641C397.441 421.119 397.241 420.52 397.042 419.921C396.842 418.723 396.642 417.724 396.442 416.526C393.647 404.145 388.854 392.562 382.863 381.978C376.872 371.393 369.283 362.007 360.696 353.82C352.109 345.632 342.323 338.642 331.939 333.051C321.554 327.459 309.971 323.265 298.389 320.869Z" fill="#273152"/>
<path opacity="0.8235" d="M298.389 320.869C310.571 325.063 320.955 330.854 329.742 337.444C334.335 340.839 338.529 344.633 342.123 348.428C346.717 353.221 350.511 358.013 353.706 363.006C353.906 363.405 354.305 363.805 354.505 364.204C355.903 365.203 357.501 366.401 358.699 367.399C362.493 370.395 365.688 373.39 368.884 376.386C375.474 382.976 380.466 389.766 383.861 395.557C388.454 403.346 390.252 408.937 390.851 409.736C394.046 413.131 396.043 417.125 397.042 421.319H397.441C397.241 420.72 397.042 420.121 396.842 419.522C396.642 418.324 396.442 417.325 396.243 416.127C393.447 403.745 388.654 392.163 382.663 381.578C376.672 370.994 369.083 361.608 360.496 353.42C351.909 345.232 342.123 338.243 331.739 332.651C321.354 327.06 309.971 323.265 298.389 320.869Z" fill="#273152"/>
<path opacity="0.8431" d="M298.389 320.869C310.571 324.863 321.155 330.654 329.942 337.045C334.535 340.44 338.729 344.034 342.523 347.829C347.116 352.422 351.11 357.414 354.505 362.207C354.705 362.607 355.104 363.006 355.304 363.405C356.702 364.604 358.1 365.602 359.498 366.8C363.092 369.796 366.487 372.991 369.483 376.186C375.873 382.976 380.866 389.766 384.261 395.757C388.654 403.745 390.451 409.337 391.051 410.136C394.246 413.531 396.243 417.525 397.241 421.519H397.641C397.441 420.92 397.241 420.321 397.042 419.721C396.842 418.523 396.642 417.525 396.442 416.326C393.647 403.945 388.854 392.362 382.863 381.778C376.872 371.194 369.283 361.808 360.696 353.62C352.109 345.432 342.323 338.443 331.939 332.851C321.554 327.259 309.971 323.265 298.389 320.869Z" fill="#273152"/>
<path opacity="0.8627" d="M298.389 320.869C310.77 324.863 321.155 330.255 329.942 336.645C334.734 340.04 338.928 343.635 342.723 347.229C347.515 351.823 351.509 356.616 355.104 361.408C355.304 361.808 355.703 362.207 355.903 362.607C357.301 363.805 358.699 365.003 360.097 366.201C363.691 369.396 366.887 372.592 369.882 375.787C376.273 382.777 381.065 389.766 384.261 395.757C388.654 403.745 390.252 409.537 390.851 410.136C394.046 413.531 396.043 417.525 397.042 421.519H397.441C397.241 420.92 397.042 420.321 396.842 419.721C396.642 418.523 396.442 417.525 396.243 416.326C393.447 403.945 388.654 392.362 382.663 381.778C376.672 371.194 369.083 361.808 360.496 353.62C351.909 345.432 342.123 338.443 331.739 332.851C321.354 327.259 309.971 323.265 298.389 320.869Z" fill="#273152"/>
<path opacity="0.8824" d="M298.389 320.869C310.77 324.663 321.354 330.055 330.141 336.246C334.934 339.441 339.328 343.036 343.122 346.63C347.915 351.224 352.109 355.817 355.703 360.61C356.103 361.009 356.302 361.408 356.702 361.808C358.1 363.006 359.498 364.204 360.895 365.402C364.49 368.598 367.685 371.993 370.481 375.188C376.672 382.377 381.465 389.367 384.66 395.358C389.054 403.546 390.651 409.337 391.051 409.936C394.246 413.331 396.243 417.325 397.241 421.319H397.641C397.441 420.72 397.241 420.121 397.042 419.522C396.842 418.324 396.642 417.325 396.442 416.127C393.647 403.745 388.854 392.163 382.863 381.578C376.872 370.994 369.283 361.608 360.696 353.42C352.109 345.232 342.323 338.243 331.939 332.651C321.554 327.06 309.971 323.265 298.389 320.869Z" fill="#273152"/>
<path opacity="0.902" d="M298.389 320.869C310.77 324.663 321.354 329.855 330.341 335.846C335.134 339.042 339.527 342.437 343.521 346.031C348.514 350.425 352.708 355.218 356.502 360.01C356.901 360.41 357.101 360.809 357.501 361.209C358.898 362.407 360.296 363.605 361.495 365.003C365.089 368.398 368.085 371.793 371.08 375.188C377.071 382.577 381.665 389.766 384.86 395.757C389.053 404.145 390.651 409.936 391.051 410.335C394.246 413.73 396.243 417.724 397.042 421.718H397.441C397.241 421.119 397.042 420.52 396.842 419.921C396.642 418.723 396.442 417.724 396.243 416.526C393.447 404.145 388.654 392.562 382.663 381.978C376.672 371.393 369.083 362.007 360.496 353.82C351.909 345.632 342.123 338.642 331.739 333.051C321.354 327.459 309.971 323.265 298.389 320.869Z" fill="#273152"/>
<path opacity="0.9216" d="M298.389 320.869C310.77 324.463 321.554 329.656 330.541 335.447C335.533 338.642 339.927 342.037 343.921 345.432C348.913 349.826 353.307 354.419 357.301 359.212C357.7 359.611 357.9 360.01 358.299 360.41C359.697 361.608 361.095 363.006 362.293 364.204C365.688 367.599 368.884 371.194 371.679 374.589C377.67 382.177 382.064 389.367 385.059 395.557C389.253 403.945 390.651 409.936 391.051 410.335C394.246 413.73 396.243 417.724 397.042 421.718H397.441C397.241 421.119 397.042 420.52 396.842 419.921C396.642 418.723 396.442 417.724 396.243 416.526C393.447 404.145 388.654 392.562 382.663 381.978C376.672 371.393 369.083 362.007 360.496 353.82C351.909 345.632 342.123 338.642 331.739 333.051C321.354 327.459 309.971 323.265 298.389 320.869Z" fill="#273152"/>
<path opacity="0.9412" d="M298.389 320.869C310.77 324.463 321.554 329.256 330.74 335.048C335.733 338.043 340.326 341.438 344.32 344.833C349.512 349.227 354.106 353.62 357.9 358.413C358.299 358.812 358.499 359.212 358.898 359.611C360.296 361.009 361.694 362.207 362.893 363.605C366.287 367.2 369.283 370.794 372.079 374.189C377.87 381.778 382.264 389.367 385.259 395.557C389.253 404.145 390.851 410.136 391.051 410.335C394.246 413.73 396.243 417.724 397.042 421.718H397.441C397.241 421.119 397.042 420.52 396.842 419.921C396.642 418.723 396.442 417.724 396.243 416.526C393.447 404.145 388.654 392.562 382.663 381.978C376.672 371.393 369.083 362.007 360.496 353.82C351.909 345.632 342.123 338.642 331.739 333.051C321.354 327.459 309.971 323.265 298.389 320.869Z" fill="#273152"/>
<path opacity="0.9608" d="M298.389 320.869C310.97 324.264 321.754 329.057 330.94 334.648C335.933 337.644 340.526 340.839 344.72 344.234C349.912 348.428 354.705 353.021 358.699 357.614C359.098 358.013 359.298 358.413 359.697 358.812C361.095 360.21 362.293 361.408 363.691 362.806C367.086 366.401 370.082 370.195 372.678 373.79C378.469 381.578 382.663 389.167 385.459 395.358C389.453 404.145 390.851 410.136 391.051 410.335C394.246 413.73 396.243 417.724 397.042 421.718H397.441C397.241 421.119 397.042 420.52 396.842 419.921C396.642 418.723 396.442 417.724 396.243 416.526C393.447 404.145 388.654 392.562 382.663 381.978C376.672 371.393 369.083 362.007 360.496 353.82C351.909 345.632 342.123 338.642 331.739 333.051C321.354 327.459 309.971 323.265 298.389 320.869Z" fill="#273152"/>
<path opacity="0.9804" d="M298.389 320.869C310.97 324.064 321.754 328.857 331.14 334.249C336.332 337.244 340.925 340.44 345.119 343.635C350.511 347.829 355.304 352.222 359.498 356.815C359.897 357.215 360.296 357.614 360.496 358.013C361.894 359.411 363.092 360.809 364.29 362.207C367.685 366.002 370.481 369.796 373.277 373.391C378.869 381.379 383.062 389.167 385.858 395.358C389.852 404.344 391.25 410.335 391.25 410.335C394.445 413.73 396.243 417.724 397.241 421.519H397.641C397.441 420.92 397.241 420.321 397.042 419.721C396.842 418.523 396.642 417.525 396.442 416.326C393.647 403.945 388.854 392.362 382.863 381.778C376.872 371.194 369.283 361.808 360.696 353.62C352.109 345.432 342.323 338.443 331.939 332.851C321.554 327.259 309.971 323.265 298.389 320.869Z" fill="#273152"/>
<path opacity="0.3" d="M391.052 410.335C394.048 413.73 396.045 417.525 397.043 421.519H397.442C397.243 420.92 397.043 420.321 396.843 419.721C396.644 418.523 396.444 417.525 396.244 416.326C393.448 403.945 388.656 392.362 382.664 381.778C376.673 371.194 369.085 361.808 360.498 353.62C351.91 345.432 342.125 338.443 331.74 332.851C321.356 327.259 309.973 323.265 298.19 320.869C317.562 325.861 333.138 333.849 345.32 343.235C357.702 352.621 366.888 363.206 373.678 372.991C387.258 392.961 391.052 410.335 391.052 410.335Z" fill="#273152"/>
</g>
<g style="mix-blend-mode:multiply" opacity="0.7">
<ellipse cx="185.5" cy="460" rx="41.5" ry="11" fill="url(#paint3_radial)"/>
</g>
<path d="M240.132 498.547C240.22 498.812 250.156 510.046 250.156 510.046L243.522 512.64L235.532 502.911L240.132 498.547Z" fill="white"/>
<path d="M240.132 498.547C240.22 498.812 250.156 510.046 250.156 510.046L243.522 512.64L235.532 502.911L240.132 498.547Z" stroke="#273152" stroke-width="1.5" stroke-miterlimit="10" stroke-linecap="round" stroke-linejoin="round"/>
<path d="M243.405 508.07C243.671 507.51 244.113 506.861 244.85 506.449C246 505.83 247.415 506.036 248.418 506.861C250.924 508.955 257.705 514.822 261.538 520.454C262.894 522.459 262.098 524.994 258.885 524.817C253.607 524.523 245.263 522.046 238.452 515.707C237.685 514.97 237.302 513.908 237.508 512.847C237.656 511.992 237.921 510.93 238.364 509.898C238.776 508.925 239.808 508.424 240.84 508.66L241.754 508.866C242.403 509.073 243.11 508.719 243.405 508.07Z" fill="white"/>
<path d="M243.405 508.07C243.671 507.51 244.113 506.861 244.85 506.449C246 505.83 247.415 506.036 248.418 506.861C250.924 508.955 257.705 514.822 261.538 520.454C262.894 522.459 262.098 524.994 258.885 524.817C253.607 524.523 245.263 522.046 238.452 515.707C237.685 514.97 237.302 513.908 237.508 512.847C237.656 511.992 237.921 510.93 238.364 509.898C238.776 508.925 239.808 508.424 240.84 508.66L241.754 508.866C242.403 509.073 243.11 508.719 243.405 508.07Z" stroke="#273152" stroke-width="1.5" stroke-miterlimit="10" stroke-linecap="round" stroke-linejoin="round"/>
<path d="M260.447 522.223C260.359 522.282 259.504 522.695 257.764 522.695C254.727 522.695 248.949 521.397 239.838 514.468" stroke="#273152" stroke-width="1.5" stroke-miterlimit="10" stroke-linecap="round" stroke-linejoin="round"/>
<path d="M249.538 514.409L252.575 511.314" stroke="#273152" stroke-width="1.5" stroke-miterlimit="10" stroke-linecap="round" stroke-linejoin="round"/>
<path d="M251.897 516.385L254.787 513.377" stroke="#273152" stroke-width="1.5" stroke-miterlimit="10" stroke-linecap="round" stroke-linejoin="round"/>
<path d="M219.404 504.532L216.338 517.948L211.325 514.115L213.654 501.23L219.404 504.532Z" fill="white"/>
<path d="M219.404 504.532L216.338 517.948L211.325 514.115L213.654 501.23L219.404 504.532Z" stroke="#273152" stroke-width="1.5" stroke-miterlimit="10" stroke-linecap="round" stroke-linejoin="round"/>
<path d="M218.077 515.53C217.782 519.687 217.045 528.09 213.89 534.046C213.035 535.638 209.733 535.52 208.553 533.338C206.047 528.798 202.863 521.102 204.75 511.785C204.897 511.048 205.369 510.429 206.047 510.134C206.843 509.78 208.082 509.309 209.851 508.984C210.735 508.837 211.561 509.456 211.679 510.341L212.062 513.613L212.475 513.083C213.094 512.257 214.214 511.992 215.158 512.405C215.659 512.64 216.219 512.876 216.75 513.112C217.693 513.495 218.136 514.468 218.077 515.53Z" fill="white"/>
<path d="M218.077 515.53C217.782 519.687 217.045 528.09 213.89 534.046C213.035 535.638 209.733 535.52 208.553 533.338C206.047 528.798 202.863 521.102 204.75 511.785C204.897 511.048 205.369 510.429 206.047 510.134C206.843 509.78 208.082 509.309 209.851 508.984C210.735 508.837 211.561 509.456 211.679 510.341L212.062 513.613L212.475 513.083C213.094 512.257 214.214 511.992 215.158 512.405C215.659 512.64 216.219 512.876 216.75 513.112C217.693 513.495 218.136 514.468 218.077 515.53Z" stroke="#273152" stroke-width="1.5" stroke-miterlimit="10" stroke-linecap="round" stroke-linejoin="round"/>
<path d="M210.735 532.719C204.897 523.55 206.253 512.67 206.283 512.552" stroke="#273152" stroke-width="1.5" stroke-miterlimit="10" stroke-linecap="round" stroke-linejoin="round"/>
<path d="M213.123 520.1L217.044 521.161" stroke="#273152" stroke-width="1.5" stroke-miterlimit="10" stroke-linecap="round" stroke-linejoin="round"/>
<path d="M212.563 523.196L216.337 524.611" stroke="#273152" stroke-width="1.5" stroke-miterlimit="10" stroke-linecap="round" stroke-linejoin="round"/>
<path d="M185.379 443.323C185.379 443.323 204.072 441.112 220.878 450.635C225.124 453.023 227.719 457.564 227.689 462.429C227.63 472.1 226.598 489.79 220.672 505.151C220.348 506.036 219.345 506.449 218.49 506.065L210.913 502.675C210.412 502.439 210.058 501.997 209.969 501.436C209.409 497.898 207.522 484.394 209.409 474.606C211.591 463.254 175.001 451.225 175.001 451.225L185.379 443.323Z" fill="#273152"/>
<path d="M242.166 500.906L235.414 505.328C234.972 505.623 234.353 505.564 233.999 505.151C229.842 500.611 206.402 475.019 200.505 471.687C194.048 468.001 181.989 462.458 171.021 462.547C160.053 462.606 157.753 454.999 157.753 454.999L173.38 444.886C173.38 444.886 200.417 447.952 211.856 457.24C222.176 465.643 239.277 494.006 242.52 499.431C242.815 499.933 242.667 500.581 242.166 500.906Z" fill="#273152"/>
<path d="M190.775 448.188C198.353 450.134 206.697 453.053 211.827 457.24C216.25 460.837 221.911 468.09 227.218 475.667" stroke="#21BB91" stroke-width="1.5" stroke-miterlimit="10" stroke-linecap="round" stroke-linejoin="round"/>
<path d="M173.144 420.266L175.149 424.394C177.537 429.288 181.193 433.475 185.763 436.453L187.62 437.662C188.8 438.429 190.215 438.812 191.63 438.694L191.837 438.664C193.989 438.488 196.141 439.136 197.851 440.434L193.016 441.996C190.068 442.94 186.854 442.733 184.082 441.318C181.429 439.962 178.185 437.78 175.473 434.242C169.812 426.871 168.515 422.33 168.515 422.33L173.144 420.266Z" fill="white"/>
<path d="M173.144 420.266L175.149 424.394C177.537 429.288 181.193 433.475 185.763 436.453L187.62 437.662C188.8 438.429 190.215 438.812 191.63 438.694L191.837 438.664C193.989 438.488 196.141 439.136 197.851 440.434L193.016 441.996C190.068 442.94 186.854 442.733 184.082 441.318C181.429 439.962 178.185 437.78 175.473 434.242C169.812 426.871 168.515 422.33 168.515 422.33L173.144 420.266Z" stroke="#273152" stroke-width="1.5" stroke-miterlimit="10" stroke-linecap="round" stroke-linejoin="round"/>
<path d="M166.952 459.775C166.952 459.775 160.82 464.463 157.429 463.107C154.038 461.751 159.876 455.972 161.586 455.765C163.296 455.559 166.952 459.775 166.952 459.775Z" fill="#273152"/>
<path d="M168.043 390.605C170.814 390.222 173.969 392.64 173.645 396.767C173.38 400.129 169.871 401.161 168.249 402.959C163.001 408.767 168.043 415.107 163.915 420.915C159.994 426.458 154.038 422.625 146.077 428.994C139.797 434.006 162.588 426.399 154.628 431.677C148.259 435.893 136.318 435.539 129.595 427.785C123.168 420.443 121.694 409.387 128.269 404.079C134.165 399.303 138.352 404.876 144.632 400.394C150.854 395.971 149.143 391.667 153.006 389.809C158.313 387.244 160.2 391.696 168.043 390.605Z" fill="#273152"/>
<path d="M135.345 431.795C135.699 429.731 136.2 427.284 136.73 425.691C138.352 420.738 139.443 417.524 144.957 414.605C145.782 414.163 146.637 413.809 147.522 413.514L150.853 412.394C150.853 412.394 164.593 408.473 170.107 413.78C170.549 414.222 171.109 414.694 171.492 415.254L175.089 420.679H175.06C171.876 421.976 170.549 425.809 172.229 428.787C174.205 432.237 176.888 436.247 179.571 437.927C180.426 438.458 187.266 441.259 187.266 441.259C187.266 441.259 188.947 446.389 178.421 450.782C167.895 455.176 160.2 456.768 157.989 462.193C156.691 465.407 151.355 450.016 147.934 435.598C147.286 432.827 144.691 430.94 141.831 431.205L135.345 431.795Z" fill="#F8AD9E"/>
<path d="M135.345 431.795C135.699 429.731 136.2 427.284 136.73 425.691C138.352 420.738 139.443 417.524 144.957 414.605C145.782 414.163 146.637 413.809 147.522 413.514L150.853 412.394C150.853 412.394 164.593 408.473 170.107 413.78C170.549 414.222 171.109 414.694 171.492 415.254L175.089 420.679H175.06C171.876 421.976 170.549 425.809 172.229 428.787C174.205 432.237 176.888 436.247 179.571 437.927C180.426 438.458 187.266 441.259 187.266 441.259C187.266 441.259 188.947 446.389 178.421 450.782C167.895 455.176 160.2 456.768 157.989 462.193C156.691 465.407 151.355 450.016 147.934 435.598C147.286 432.827 144.691 430.94 141.831 431.205L135.345 431.795Z" stroke="#273152" stroke-width="1.5" stroke-miterlimit="10" stroke-linecap="round" stroke-linejoin="round"/>
<path d="M176.416 444.738L171.315 443.293C170.548 443.087 169.752 443.264 169.163 443.795L166.951 445.859C166.538 446.242 165.978 446.448 165.389 446.448C162.882 446.419 151.295 443.736 150.027 441.819C149.408 440.876 148.435 437.544 147.727 434.773C147.138 432.473 144.926 430.94 142.568 431.146L137.438 431.618C137.438 431.618 139.619 443.883 144.042 447.598C147.462 450.488 155.216 451.579 166.303 450.311C166.303 450.311 168.602 449.927 170.43 447.48C171.58 445.918 174.676 446.537 176.445 445.977C177.035 445.829 177.035 444.915 176.416 444.738Z" fill="white"/>
<path d="M176.416 444.738L171.315 443.293C170.548 443.087 169.752 443.264 169.163 443.795L166.951 445.859C166.538 446.242 165.978 446.448 165.389 446.448C162.882 446.419 151.295 443.736 150.027 441.819C149.408 440.876 148.435 437.544 147.727 434.773C147.138 432.473 144.926 430.94 142.568 431.146L137.438 431.618C137.438 431.618 139.619 443.883 144.042 447.598C147.462 450.488 155.216 451.579 166.303 450.311C166.303 450.311 168.602 449.927 170.43 447.48C171.58 445.918 174.676 446.537 176.445 445.977C177.035 445.829 177.035 444.915 176.416 444.738Z" stroke="#273152" stroke-width="1.5" stroke-miterlimit="10" stroke-linecap="round" stroke-linejoin="round"/>
<path d="M151.443 412.453C151.443 412.453 154.303 403.195 154.421 402.075C154.421 402.075 153.507 401.603 153.566 400.188C153.655 397.504 156.338 398.831 156.338 398.831L156.603 398.89C158.136 399.244 159.728 399.185 161.203 398.654L164.328 397.563C164.328 397.563 164.977 398.713 164.21 400.925C163.856 401.986 163.915 403.195 164.121 404.463C164.18 404.787 163.945 405.111 163.591 405.17L162.765 405.288C162.323 406.291 161.94 406.88 161.232 407.529C161.026 407.706 160.79 407.794 160.524 407.794C160.171 407.765 159.61 407.706 158.991 407.441L158.519 411.362L160.583 411.303C160.583 411.303 161.32 413.78 157.429 415.549C155.276 416.522 152.21 416.345 149.91 415.962C148.731 415.755 148.436 414.193 149.468 413.603L151.443 412.453Z" fill="white"/>
<path d="M151.443 412.453C151.443 412.453 154.303 403.195 154.421 402.075C154.421 402.075 153.507 401.603 153.566 400.188C153.655 397.504 156.338 398.831 156.338 398.831L156.603 398.89C158.136 399.244 159.728 399.185 161.203 398.654L164.328 397.563C164.328 397.563 164.977 398.713 164.21 400.925C163.856 401.986 163.915 403.195 164.121 404.463C164.18 404.787 163.945 405.111 163.591 405.17L162.765 405.288C162.323 406.291 161.94 406.88 161.232 407.529C161.026 407.706 160.79 407.794 160.524 407.794C160.171 407.765 159.61 407.706 158.991 407.441L158.519 411.362L160.583 411.303C160.583 411.303 161.32 413.78 157.429 415.549C155.276 416.522 152.21 416.345 149.91 415.962C148.731 415.755 148.436 414.193 149.468 413.603L151.443 412.453Z" stroke="#273152" stroke-width="1.5" stroke-miterlimit="10" stroke-linecap="round" stroke-linejoin="round"/>
<path d="M158.932 407.47L157.959 407.028" stroke="#273152" stroke-width="1.5" stroke-miterlimit="10" stroke-linecap="round" stroke-linejoin="round"/>
<path d="M201.006 439.903L177.448 447.067L185.321 420.325C185.615 419.323 186.411 418.527 187.443 418.202L206.579 412.394C207.788 412.011 208.937 413.102 208.584 414.31L201.006 439.903Z" fill="#273152"/>
<path d="M194.722 430.59C195.487 429.68 195.713 428.611 195.227 428.202C194.741 427.794 193.726 428.2 192.962 429.11C192.197 430.021 191.971 431.089 192.457 431.498C192.944 431.907 193.958 431.5 194.722 430.59Z" fill="white"/>
<path d="M200.181 441.701L163.207 452.935C162.441 453.171 161.645 452.728 161.409 451.962L161.291 451.755L201.006 439.667L201.124 439.873C201.39 440.669 200.947 441.495 200.181 441.701Z" fill="#273152"/>
<g style="mix-blend-mode:multiply" opacity="0.7">
<ellipse cx="292.5" cy="320" rx="46.5" ry="11" fill="url(#paint4_radial)"/>
</g>
<path d="M278.307 361.673C277.687 361.024 274.031 349.673 274.031 349.673L266.808 354.833L274.739 365.476L278.307 361.673Z" fill="white"/>
<path d="M278.307 361.673C277.687 361.024 274.031 349.673 274.031 349.673L266.808 354.833L274.739 365.476L278.307 361.673Z" stroke="#273152" stroke-width="1.5" stroke-miterlimit="10" stroke-linecap="round" stroke-linejoin="round"/>
<path d="M277.187 355.923L281.934 361.054C282.907 362.115 282.936 363.707 282.022 364.828C278.366 369.162 269.669 379.275 267.899 378.715C263.742 377.447 271.025 361.732 271.025 361.732C272.617 362.41 274.474 361.702 275.241 360.14L277.187 355.923Z" fill="#21BB91"/>
<path d="M277.187 355.923L281.934 361.054C282.907 362.115 282.936 363.707 282.022 364.828C278.366 369.162 269.669 379.275 267.899 378.715C263.742 377.447 271.025 361.732 271.025 361.732C272.617 362.41 274.474 361.702 275.241 360.14L277.187 355.923Z" stroke="#273152" stroke-width="1.5" stroke-miterlimit="10" stroke-linecap="round" stroke-linejoin="round"/>
<path d="M277.776 365.683L267.368 377.83" stroke="#273152" stroke-width="1.5" stroke-miterlimit="10" stroke-linecap="round" stroke-linejoin="round"/>
<path d="M253.689 359.52L249.296 363.943C248.5 364.739 248.028 365.771 247.911 366.862L247.468 370.99L239.36 367.923L248.618 355.54L253.689 359.52Z" fill="white"/>
<path d="M253.689 359.52L249.296 363.943C248.5 364.739 248.028 365.771 247.911 366.862L247.468 370.99L239.36 367.923L248.618 355.54L253.689 359.52Z" stroke="#273152" stroke-width="1.5" stroke-miterlimit="10" stroke-linecap="round" stroke-linejoin="round"/>
<path d="M248.793 365.476L250.208 372.287C250.061 373.82 248.822 375 247.289 375.059C241.245 375.265 226.974 375.53 226.149 373.732C224.203 369.516 241.893 364.091 241.893 364.091C242.483 365.801 244.311 366.774 246.051 366.272L248.793 365.476Z" fill="#21BB91"/>
<path d="M248.793 365.476L250.208 372.287C250.061 373.82 248.822 375 247.289 375.059C241.245 375.265 226.974 375.53 226.149 373.732C224.203 369.516 241.893 364.091 241.893 364.091C242.483 365.801 244.311 366.774 246.051 366.272L248.793 365.476Z" stroke="#273152" stroke-width="1.5" stroke-miterlimit="10" stroke-linecap="round" stroke-linejoin="round"/>
<path d="M244.843 372.523L226.739 372.494" stroke="#273152" stroke-width="1.5" stroke-miterlimit="10" stroke-linecap="round" stroke-linejoin="round"/>
<path d="M298.033 300.611C298.033 300.611 259.733 296.159 248.352 306.007C236.971 315.854 266.338 358.253 266.338 358.253L275.625 351.353L266.809 321.397L302.19 311.343L298.033 300.611Z" fill="#273152"/>
<path d="M319.114 320.13C313.542 321.899 303.606 324.169 289.689 323.992C285.738 323.933 282.082 326.115 280.284 329.653C276.156 337.732 267.252 352.267 252.716 361.702L245.787 357.958L263.507 318.095C265.129 314.469 268.136 311.638 271.881 310.252L306.967 297.368C306.967 297.368 317.847 294.331 323.183 304.031C324.127 305.771 325.896 302.675 326.338 304.061C327.783 308.896 323.891 318.596 319.114 320.13Z" fill="#273152"/>
<path d="M269.197 345.987C268.608 346.724 263.3 353.27 261.472 355.186" stroke="#DAF6EC" stroke-width="1.5" stroke-miterlimit="10" stroke-linecap="round" stroke-linejoin="round"/>
<path d="M253.04 341.004L263.595 318.066C265.275 314.439 268.312 311.668 272.086 310.341L277.246 308.542" stroke="#DAF6EC" stroke-width="1.5" stroke-miterlimit="10" stroke-linecap="round" stroke-linejoin="round"/>
<path d="M248.852 244.945L256.784 248.601C258.081 249.191 259.083 250.252 259.614 251.579C261.354 256.001 266.13 266.144 272.941 266.911C281.698 267.884 290.366 255.766 290.366 255.766L296.204 268.178C296.204 268.178 287.683 281.358 274.15 279.235C262.533 277.407 258.169 262.164 257.167 257.888C257.02 257.269 256.518 256.797 255.899 256.68C254.779 256.473 253.01 255.795 252.214 253.761C251.742 252.522 251.565 251.49 251.536 250.783C251.506 249.987 251.093 249.25 250.445 248.807C249.295 247.982 247.585 247.186 247.821 245.505C247.879 245.033 248.41 244.738 248.852 244.945Z" fill="white"/>
<path d="M248.852 244.945L256.784 248.601C258.081 249.191 259.083 250.252 259.614 251.579C261.354 256.001 266.13 266.144 272.941 266.911C281.698 267.884 290.366 255.766 290.366 255.766L296.204 268.178C296.204 268.178 287.683 281.358 274.15 279.235C262.533 277.407 258.169 262.164 257.167 257.888C257.02 257.269 256.518 256.797 255.899 256.68C254.779 256.473 253.01 255.795 252.214 253.761C251.742 252.522 251.565 251.49 251.536 250.783C251.506 249.987 251.093 249.25 250.445 248.807C249.295 247.982 247.585 247.186 247.821 245.505C247.879 245.033 248.41 244.738 248.852 244.945Z" stroke="#273152" stroke-width="1.5" stroke-miterlimit="10" stroke-linecap="round" stroke-linejoin="round"/>
<path d="M257.05 250.842L254.308 249.603C253.983 249.456 253.6 249.485 253.305 249.692C253.01 249.898 252.833 250.222 252.833 250.576C252.833 251.195 253.335 251.726 254.396 252.227C254.632 252.345 254.868 252.552 254.986 253.318C255.222 254.94 257.05 255.53 257.109 255.559C257.138 255.559 257.197 255.589 257.227 255.589" stroke="#273152" stroke-width="1.5" stroke-miterlimit="10" stroke-linecap="round" stroke-linejoin="round"/>
<path d="M320.41 249.81C320.41 249.81 315.309 249.191 299.358 249.78C295.466 249.928 290.837 254.822 290.365 258.684C291.604 262.399 297.323 280.739 287.328 295.068C285.913 297.102 280.665 302.262 280.665 302.262C280.665 302.262 283.377 304.444 300.095 305.152C311.063 305.476 315.073 317.682 322.179 316.149C323.329 315.913 324.714 315.265 326.13 313.673C328.488 311.078 329.461 307.54 328.99 304.09C328.37 299.844 326.896 294.655 327.338 290.999C329.137 276.228 330.994 267.884 328.37 260.159C327.604 257.77 320.41 249.81 320.41 249.81Z" fill="#596CD9"/>
<path d="M282.552 261.309C282.552 261.309 290.926 250.753 298.326 249.928L294.7 277.879L282.552 261.309Z" fill="#596CD9"/>
<path d="M296.439 280.532C297.56 280.031 298.798 279.795 300.007 279.825C301.54 279.884 303.84 280.031 306.464 280.532L323.388 284.483C325.216 284.247 326.484 282.508 326.071 280.709L323.86 270.567C323.801 270.331 323.889 270.065 324.036 269.888L333.619 259.304C334.032 258.832 334.828 259.038 334.946 259.657C335.919 264.228 343.054 284.336 338.218 292.591C335.919 296.483 330.7 296.926 325.599 296.247C320.646 295.569 314.778 289.967 309.707 287.343C307.643 286.282 305.196 286.341 303.221 287.55L301.452 288.64C297.353 290.763 294.346 289.171 294.139 287.815C293.874 286.046 299.506 283.097 299.506 283.097C300.095 282.685 299.948 282.272 299.24 282.183C298.444 282.095 297.501 282.124 297.294 282.242C295.761 282.979 294.7 281.417 296.439 280.532Z" fill="white"/>
<path d="M296.439 280.532C297.56 280.031 298.798 279.795 300.007 279.825C301.54 279.884 303.84 280.031 306.464 280.532L323.388 284.483C325.216 284.247 326.484 282.508 326.071 280.709L323.86 270.567C323.801 270.331 323.889 270.065 324.036 269.888L333.619 259.304C334.032 258.832 334.828 259.038 334.946 259.657C335.919 264.228 343.054 284.336 338.218 292.591C335.919 296.483 330.7 296.926 325.599 296.247C320.646 295.569 314.778 289.967 309.707 287.343C307.643 286.282 305.196 286.341 303.221 287.55L301.452 288.64C297.353 290.763 294.346 289.171 294.139 287.815C293.874 286.046 299.506 283.097 299.506 283.097C300.095 282.685 299.948 282.272 299.24 282.183C298.444 282.095 297.501 282.124 297.294 282.242C295.761 282.979 294.7 281.417 296.439 280.532Z" stroke="#273152" stroke-width="1.5" stroke-miterlimit="10" stroke-linecap="round" stroke-linejoin="round"/>
<path d="M341.314 271.097C341.314 271.097 338.543 264.286 336.715 259.775C332.676 249.751 319.968 249.751 319.968 249.751L322.857 276.198L341.314 271.097Z" fill="#596CD9"/>
<path d="M308.647 240.552L308.116 248.1C307.998 249.073 307.291 249.898 306.347 250.134L303.694 250.812L305.404 252.109C309.207 254.999 314.485 255.618 318.318 252.699L321.03 250.635L317.728 249.898C316.785 249.692 316.047 248.336 315.871 247.392L314.426 237.397L308.647 240.552Z" fill="white"/>
<path d="M308.647 240.552L308.116 248.1C307.998 249.073 307.291 249.898 306.347 250.134L303.694 250.812L305.404 252.109C309.207 254.999 314.485 255.618 318.318 252.699L321.03 250.635L317.728 249.898C316.785 249.692 316.047 248.336 315.871 247.392L314.426 237.397L308.647 240.552Z" stroke="#273152" stroke-width="1.5" stroke-miterlimit="10" stroke-linecap="round" stroke-linejoin="round"/>
<path d="M300.067 230.055C301.895 229.082 300.421 232.09 306.377 226.93C308.765 224.866 308.824 228.699 309.443 228.168C311.714 226.193 311.655 226.281 313.07 226.016C314.013 225.839 315.311 227.166 315.664 228.404C316.166 230.055 315.075 231.028 315.458 234.802C315.723 237.456 316.549 238.753 315.782 239.52C315.016 240.286 313.748 239.343 312.834 240.109C311.655 241.112 313.011 243.323 312.126 244.886C311.566 245.888 309.768 247.038 305.994 246.95C305.374 246.95 304.873 246.478 304.755 245.888C304.637 245.122 304.46 244.119 304.401 243.176C304.077 238.635 305.05 237.131 304.077 236.365C302.603 235.186 300.097 237.397 299.035 236.335C298.003 235.303 297.591 231.382 300.067 230.055Z" fill="#273152"/>
<path d="M309.089 232.62L309.001 233.859C308.971 234.448 308.971 235.038 309.001 235.598C309.089 236.689 309.207 238.576 309.207 239.638C309.207 241.2 304.372 241.495 304.372 241.495L303.752 240.817L303.192 240.847C303.074 240.847 302.986 240.847 302.868 240.788C302.632 240.67 302.514 240.404 302.544 240.139C302.779 238.753 303.163 235.716 302.721 233.358C302.779 233.358 305.463 231.205 309.089 232.62Z" fill="white"/>
<path d="M309.089 232.62L309.001 233.859C308.971 234.448 308.971 235.038 309.001 235.598C309.089 236.689 309.207 238.576 309.207 239.638C309.207 241.2 304.372 241.495 304.372 241.495L303.752 240.817L303.192 240.847C303.074 240.847 302.986 240.847 302.868 240.788C302.632 240.67 302.514 240.404 302.544 240.139C302.779 238.753 303.163 235.716 302.721 233.358C302.779 233.358 305.463 231.205 309.089 232.62Z" stroke="#273152" stroke-width="1.5" stroke-miterlimit="10" stroke-linecap="round" stroke-linejoin="round"/>
<path d="M309.945 236.424C309.945 236.424 310.122 233.446 311.448 233.829C312.775 234.213 312.51 237.485 309.945 236.424Z" fill="white"/>
<path d="M243.661 285.721H262.354L253.716 258.92H235.023L243.661 285.721Z" fill="white"/>
<path d="M243.661 285.721H262.354L253.716 258.92H235.023L243.661 285.721Z" stroke="#273152" stroke-width="1.5" stroke-miterlimit="10" stroke-linecap="round" stroke-linejoin="round"/>
<path d="M246.05 305.387H297.648C298.798 305.387 299.741 304.444 299.741 303.294V302.41H243.957V303.294C243.957 304.473 244.901 305.387 246.05 305.387Z" fill="#21BB91"/>
<path d="M246.05 305.387H297.648C298.798 305.387 299.741 304.444 299.741 303.294V302.41H243.957V303.294C243.957 304.473 244.901 305.387 246.05 305.387Z" stroke="#273152" stroke-width="1.5" stroke-miterlimit="10" stroke-linecap="round" stroke-linejoin="round"/>
<path d="M243.956 302.469H275.858L265.716 272.601C265.097 271.658 264.065 271.097 262.915 271.097H235.937C234.698 271.097 233.932 272.277 234.315 273.338C234.463 273.751 234.639 274.164 234.787 274.606L243.956 302.469Z" fill="#21BB91"/>
<path d="M243.956 302.469H275.858L265.716 272.601C265.097 271.658 264.065 271.097 262.915 271.097H235.937C234.698 271.097 233.932 272.277 234.315 273.338C234.463 273.751 234.639 274.164 234.787 274.606L243.956 302.469Z" stroke="#273152" stroke-width="1.5" stroke-miterlimit="10" stroke-linecap="round" stroke-linejoin="round"/>
<path d="M255.779 286.37C256.163 287.638 255.573 288.935 254.482 289.26C253.391 289.584 252.182 288.847 251.799 287.579C251.416 286.311 252.005 285.014 253.096 284.69C254.217 284.365 255.426 285.102 255.779 286.37Z" fill="white"/>
<defs>
<filter id="filter0_i" x="157.271" y="155.851" width="319.054" height="265.868" filterUnits="userSpaceOnUse" color-interpolation-filters="sRGB">
<feFlood flood-opacity="0" result="BackgroundImageFix"/>
<feBlend mode="normal" in="SourceGraphic" in2="BackgroundImageFix" result="shape"/>
<feColorMatrix in="SourceAlpha" type="matrix" values="0 0 0 0 0 0 0 0 0 0 0 0 0 0 0 0 0 0 127 0" result="hardAlpha"/>
<feOffset dx="-5"/>
<feGaussianBlur stdDeviation="2.5"/>
<feComposite in2="hardAlpha" operator="arithmetic" k2="-1" k3="1"/>
<feColorMatrix type="matrix" values="0 0 0 0 1 0 0 0 0 1 0 0 0 0 1 0 0 0 0.25 0"/>
<feBlend mode="normal" in2="shape" result="effect1_innerShadow"/>
</filter>
<filter id="filter1_i" x="-5" y="0" width="483.797" height="565" filterUnits="userSpaceOnUse" color-interpolation-filters="sRGB">
<feFlood flood-opacity="0" result="BackgroundImageFix"/>
<feBlend mode="normal" in="SourceGraphic" in2="BackgroundImageFix" result="shape"/>
<feColorMatrix in="SourceAlpha" type="matrix" values="0 0 0 0 0 0 0 0 0 0 0 0 0 0 0 0 0 0 127 0" result="hardAlpha"/>
<feOffset dx="-5"/>
<feGaussianBlur stdDeviation="2.5"/>
<feComposite in2="hardAlpha" operator="arithmetic" k2="-1" k3="1"/>
<feColorMatrix type="matrix" values="0 0 0 0 1 0 0 0 0 1 0 0 0 0 1 0 0 0 0.25 0"/>
<feBlend mode="normal" in2="shape" result="effect1_innerShadow"/>
</filter>
<radialGradient id="paint0_radial" cx="0" cy="0" r="1" gradientUnits="userSpaceOnUse" gradientTransform="translate(267 585) rotate(90) scale(30 212)">
<stop stop-color="#273152"/>
<stop offset="1" stop-color="#273152" stop-opacity="0"/>
</radialGradient>
<radialGradient id="paint1_radial" cx="0" cy="0" r="1" gradientUnits="userSpaceOnUse" gradientTransform="translate(298.278 278.225) scale(121.781 121.212)">
<stop stop-color="#8490A5"/>
<stop offset="1" stop-color="#273152"/>
</radialGradient>
<radialGradient id="paint2_radial" cx="0" cy="0" r="1" gradientUnits="userSpaceOnUse" gradientTransform="translate(282.474 282.47) scale(279.971)">
<stop offset="0.7047" stop-color="#5AD9AC"/>
<stop offset="1" stop-color="#21BB91"/>
</radialGradient>
<radialGradient id="paint3_radial" cx="0" cy="0" r="1" gradientUnits="userSpaceOnUse" gradientTransform="translate(185.5 460) rotate(90) scale(11 41.5)">
<stop stop-color="#273152"/>
<stop offset="1" stop-color="#273152" stop-opacity="0"/>
</radialGradient>
<radialGradient id="paint4_radial" cx="0" cy="0" r="1" gradientUnits="userSpaceOnUse" gradientTransform="translate(292.5 320) rotate(90) scale(11 46.5)">
<stop stop-color="#273152"/>
<stop offset="1" stop-color="#273152" stop-opacity="0"/>
</radialGradient>
</defs>
</svg>
