<svg width="950" height="218" viewBox="0 0 950 218" fill="none" xmlns="http://www.w3.org/2000/svg">
<mask id="mask0" mask-type="alpha" maskUnits="userSpaceOnUse" x="0" y="0" width="950" height="218">
<rect width="950" height="218" transform="matrix(-1 0 0 1 950 0)" fill="white"/>
</mask>
<g mask="url(#mask0)">
<path d="M-76.2282 4.38182C-110.206 4.38182 -142.467 12.0174 -169.764 26.7159C-189.235 37.0239 -204.887 50.1952 -216.723 65.8481C-228.939 82.2646 -236.193 100.59 -238.102 120.252C-242.493 167.974 -230.657 209.778 -202.597 244.52C-178.927 274.108 -143.039 299.305 -96.2716 319.349C-11.5168 355.809 90.0362 368.789 157.229 377.188C166.392 378.334 174.982 379.479 182.427 380.433C239.502 388.26 291.233 440.945 346.209 496.685C405.385 557.006 466.66 619.426 543.589 637.37C581.957 646.342 616.699 638.324 650.105 613.127C679.502 590.793 703.935 558.342 727.797 526.845C754.903 490.958 780.673 456.98 810.833 441.327C856.265 418.038 894.824 382.533 919.64 341.301C932.239 320.494 941.02 298.924 945.792 276.781C950.755 253.874 951.328 231.158 947.51 209.206C943.501 186.108 934.529 164.156 920.976 143.922C906.469 122.351 886.807 102.881 862.373 85.7006C807.97 47.7137 731.233 21.9436 633.879 9.53585C496.439 -8.02595 409.394 24.807 339.528 51.3405C306.123 63.9392 277.298 74.8199 249.429 77.4923C183.19 83.7917 128.787 84.3644 32.9603 32.2516C-0.254358 14.1172 -37.4777 4.3818 -74.5102 4.00002C-74.7011 4.3818 -75.4647 4.38182 -76.2282 4.38182ZM-235.048 120.442C-231.612 83.219 -207.178 50.0043 -168.428 29.3883C-109.443 -2.1084 -32.5146 0.182284 32.0059 35.3059C128.596 87.8004 183.381 87.4186 250.192 80.9283C278.444 78.2559 307.459 67.1843 341.055 54.5856C410.539 28.2429 497.203 -4.39908 633.879 12.9718C730.66 25.3796 807.016 50.7679 860.846 88.5639C907.423 121.206 936.438 163.202 944.647 209.969C959.727 296.06 904.178 390.169 809.497 438.654C778.573 454.498 752.803 488.667 725.315 524.936C677.402 588.312 627.771 653.977 544.161 634.316C468.187 616.563 407.103 554.524 348.118 494.394C292.951 438.273 240.839 385.206 182.617 377.188C174.982 376.234 166.392 375.088 157.42 373.943C90.418 365.353 -10.9441 352.563 -95.3171 316.295C-196.107 272.963 -243.256 207.106 -235.048 120.442Z" fill="#84EECA"/>
<path d="M-59.0486 13.3539C-91.4997 13.3539 -122.615 20.7986 -148.766 34.7335C-167.283 44.6597 -182.554 57.2584 -193.816 72.3387C-205.651 88.1825 -212.523 105.744 -214.241 124.642C-218.441 170.265 -206.988 210.351 -180.072 243.948C-157.356 272.2 -122.996 296.442 -78.1375 315.722C3.18125 350.655 100.344 363.063 164.864 371.271C173.645 372.416 181.853 373.371 188.916 374.325C243.702 381.77 293.333 432.355 345.827 485.804C402.712 543.644 461.315 603.201 534.998 620.572C571.84 629.353 605.436 621.717 637.887 597.284C666.33 575.904 690 544.598 712.907 514.438C738.868 480.269 763.493 448.008 792.126 432.928C835.458 410.594 872.108 376.425 895.779 336.911C907.614 317.058 916.013 296.252 920.594 275.063C925.366 253.111 925.748 231.349 922.121 210.351C918.304 188.208 909.714 167.211 896.733 147.74C882.989 127.124 864.091 108.226 840.612 92.0002C788.499 55.5404 715.007 30.9157 621.853 19.0806C490.139 2.28238 406.721 33.7791 339.91 59.1673C307.84 71.1933 280.352 81.6922 253.628 84.3647C190.443 90.4731 138.713 90.8549 45.9404 40.4602C14.2528 23.2801 -21.4434 13.9266 -56.9488 13.5448C-57.7124 13.3539 -58.285 13.3539 -59.0486 13.3539ZM564.013 620.954C555.042 620.954 545.688 619.809 535.762 617.518C463.033 600.338 404.621 540.971 348.118 483.514C295.242 429.683 245.229 378.907 189.489 371.271C182.235 370.317 174.027 369.171 165.246 368.217C101.107 360.009 3.9448 347.792 -76.8013 312.859C-173.582 271.245 -218.632 208.061 -210.996 125.024C-207.751 89.3278 -184.463 57.4493 -147.239 37.5968C-91.6906 8.00902 -16.4803 10.1088 44.4133 43.1326C88.3178 66.9937 125.541 80.7378 161.619 86.6553C195.597 92.1911 224.613 90.0913 254.009 87.4189C281.116 84.7464 308.986 74.2476 341.055 62.0307C407.675 36.8333 490.521 5.52745 621.662 22.1348C714.243 33.9699 787.354 58.2129 838.894 94.4818C883.562 125.788 911.241 166.065 919.258 210.924C933.766 293.388 881.08 383.488 790.98 430.065C761.584 445.336 736.959 477.978 710.616 512.529C669.766 565.787 627.961 620.954 564.013 620.954Z" fill="#84EECA"/>
<path d="M-41.6773 22.3253C-72.7923 22.3253 -102.38 29.3882 -127.577 42.7504C-145.33 52.2949 -159.838 64.5118 -170.527 78.8284C-181.79 93.9087 -188.28 110.898 -189.998 129.032C-194.007 172.746 -183.126 211.115 -157.356 243.184C-135.595 270.29 -102.762 293.388 -59.8118 311.904C17.8801 345.31 110.843 357.145 172.5 364.971C180.899 366.116 188.726 367.071 195.598 368.025C247.901 375.088 295.433 423.383 345.637 474.542C400.04 529.708 456.161 586.975 526.6 603.583C562.105 611.982 594.365 604.728 625.671 581.248C652.968 560.632 676.066 530.663 698.209 501.648C723.024 469.197 746.504 438.463 773.61 424.147C814.651 402.767 849.775 369.934 872.109 332.138C895.397 292.815 903.987 251.01 896.734 211.115C888.907 167.401 861.801 128.078 818.469 97.7265C768.647 62.7938 698.4 39.3144 609.445 28.0519C483.459 12.0173 403.667 42.1777 339.719 66.2298C309.177 77.874 282.643 87.8002 257.255 90.2818C199.225 95.8176 147.685 96.1993 58.1577 47.9044C27.8063 31.4879 -6.17196 22.7071 -39.9593 22.3253C-40.532 22.3253 -41.1047 22.3253 -41.6773 22.3253ZM554.469 603.773C545.879 603.773 536.717 602.628 527.172 600.528C457.689 584.112 401.758 527.227 347.736 472.442C297.151 420.902 249.238 372.225 195.789 364.971C188.917 364.017 181.09 363.062 172.691 361.917C111.225 354.09 18.4527 342.255 -58.6665 309.041C-151.057 269.145 -194.198 208.824 -186.944 129.605C-183.699 95.4358 -161.556 64.8936 -126.05 45.8047C-101.044 32.4424 -72.0287 25.7613 -42.0591 25.7613C-8.46264 25.7613 26.0883 34.1604 56.8215 50.7677C147.112 99.4444 199.034 99.0627 257.637 93.5269C283.598 91.0454 310.131 80.9282 341.055 69.284C404.812 45.232 484.031 15.2624 609.254 31.2971C697.636 42.5595 767.311 65.848 816.751 100.399C859.319 130.368 886.044 168.737 893.679 211.687C907.805 290.334 857.792 376.425 772.083 421.283C744.404 436.173 720.734 466.906 695.536 499.739C656.213 550.897 615.745 603.773 554.469 603.773Z" fill="#84EECA"/>
<path d="M-24.3068 31.4879C-54.0855 31.4879 -82.3371 38.3599 -106.389 51.1495C-123.378 60.3122 -137.122 71.9564 -147.43 85.7004C-158.12 100.208 -164.419 116.434 -166.137 133.804C-169.955 175.609 -159.456 212.26 -134.832 242.802C-114.025 268.572 -82.7188 290.715 -41.6777 308.277C32.3873 340.156 121.151 351.418 179.945 358.863C187.962 359.817 195.407 360.772 201.897 361.726C251.719 368.598 297.15 414.602 345.254 463.47C397.176 516.155 450.625 570.75 517.818 586.593C551.796 594.611 583.102 587.739 613.072 565.214C639.414 545.552 661.558 516.728 683.128 488.858C706.798 458.125 729.132 429.301 754.711 415.175C793.653 394.559 826.868 363.444 848.056 327.175C870.008 289.57 878.026 249.674 871.154 211.687C863.518 169.882 837.748 132.468 796.325 103.453C748.794 70.0475 681.792 47.7135 597.037 36.8328C573.558 33.7786 551.605 32.4424 531.371 32.4424C447.571 32.4424 388.777 54.7764 339.719 73.2926C310.513 84.3642 285.315 93.9087 261.072 96.1993C206.096 101.544 157.229 101.735 70.756 55.3491C41.9317 39.6962 9.48058 31.4879 -22.7797 31.1061C-23.3523 31.4879 -23.925 31.4879 -24.3068 31.4879ZM544.924 586.593C536.525 586.593 527.744 585.639 518.582 583.348C452.343 567.504 399.085 513.483 347.545 460.988C299.059 411.739 253.437 365.353 202.469 358.29C195.788 357.336 188.344 356.381 180.517 355.427C121.914 347.982 33.5326 336.72 -40.3415 305.032C-128.532 267.045 -169.764 209.396 -162.701 133.804C-159.647 101.162 -138.649 71.9564 -104.671 53.8219C-54.2764 26.7157 13.871 28.6246 69.2288 58.4033C156.465 105.362 205.905 104.98 261.454 99.6353C286.27 97.3446 311.658 87.6093 341.055 76.5377C401.758 53.631 477.541 24.9977 597.037 40.2688C681.219 50.9586 747.649 73.2926 794.798 106.316C835.457 134.759 860.846 171.6 868.29 212.451C881.844 287.279 834.694 369.552 753.566 412.312C727.414 426.628 704.889 455.834 681.028 486.758C642.66 536.008 603.718 586.593 544.924 586.593Z" fill="#84EECA"/>
<path d="M-6.9351 40.46C-35.3776 40.46 -62.2929 46.9503 -85.1996 59.1672C-101.425 67.9481 -114.597 79.0196 -124.332 92.191C-134.64 106.126 -140.557 121.397 -142.085 138.004C-145.711 177.709 -135.594 212.642 -112.306 241.848C-92.4534 266.473 -62.6747 287.47 -23.5425 304.269C47.0865 334.62 131.459 345.501 187.39 352.564C195.026 353.518 202.088 354.473 208.388 355.236C255.919 361.726 299.06 405.631 344.873 452.208C394.314 502.412 445.281 554.333 509.229 569.605C541.871 577.431 571.841 570.75 600.856 549.179C626.244 530.281 647.623 502.793 668.239 476.069C690.764 447.245 711.762 419.947 735.814 406.394C772.656 386.733 803.962 356.954 824.005 322.594C844.812 286.898 852.257 248.911 845.575 212.642C838.322 172.746 813.506 137.05 774.183 109.371C728.942 77.6834 665.185 56.3038 584.63 45.9958C562.296 43.1325 541.489 41.7963 522.019 41.7963C442.227 41.7963 386.296 62.9849 339.529 80.7376C311.85 91.2365 287.798 100.399 264.7 102.499C214.496 107.271 166.201 107.653 82.9736 63.1758C55.4856 48.4773 24.7525 40.46 -5.78977 40.2691C-6.17155 40.46 -6.55332 40.46 -6.9351 40.46ZM535.381 569.605C527.363 569.605 518.964 568.65 510.183 566.55C447.19 551.47 396.414 499.93 347.355 450.108C301.16 403.149 257.637 358.863 208.96 352.182C202.661 351.418 195.598 350.464 187.963 349.509C132.223 342.447 48.0409 331.757 -22.2062 301.596C-106.007 265.518 -145.33 210.542 -138.839 138.577C-135.976 106.889 -116.505 79.7832 -83.6725 62.2214C-35.9502 36.4513 28.9521 38.1694 81.2557 66.23C165.438 111.089 214.114 110.707 264.891 105.935C288.561 103.644 312.613 94.4817 340.674 83.9828C398.513 62.0305 470.478 34.9243 584.248 49.4318C664.231 59.5489 727.415 80.7376 772.274 112.234C811.025 139.341 835.267 174.273 842.33 213.406C855.311 284.607 811.025 362.872 734.287 403.722C709.662 417.466 688.283 444.954 665.567 474.16C629.107 521.119 591.502 569.605 535.381 569.605Z" fill="#84EECA"/>
<path d="M10.2447 49.6226C-16.6706 49.6226 -42.4407 55.731 -64.202 67.5661C-79.6641 75.7744 -92.0719 86.4642 -101.425 99.0629C-111.161 112.234 -116.887 126.933 -118.224 142.776C-121.66 180.572 -112.115 213.787 -89.7812 241.466C-70.8832 264.945 -42.6316 284.798 -5.59908 300.833C61.403 329.657 141.767 339.965 194.834 346.646C201.897 347.6 208.769 348.364 214.687 349.318C259.737 355.427 300.969 397.232 344.301 441.327C391.259 489.049 439.745 538.299 500.448 552.806C531.563 560.251 560.387 553.952 588.257 533.336C612.691 515.201 633.307 488.858 653.159 463.47C674.348 436.364 694.391 410.785 716.916 397.804C751.658 379.097 781.246 350.655 799.762 318.013C819.233 284.034 826.105 247.956 819.614 213.596C812.552 175.609 789.072 141.631 751.658 115.479C708.708 85.3188 648.196 65.0846 571.84 55.3492C550.461 52.6768 530.799 51.5314 512.283 51.5314C436.5 51.5314 383.433 71.5748 338.956 88.564C312.613 98.4902 289.897 107.08 267.754 109.18C220.605 113.761 174.982 113.952 94.8086 71.3839C68.8477 57.449 39.8325 50.0043 10.8174 49.8134C10.8174 49.6225 10.6265 49.6226 10.2447 49.6226ZM525.836 552.424C518.201 552.424 509.992 551.47 501.593 549.37C441.845 535.054 393.741 485.995 347.164 438.655C303.26 393.986 261.837 351.991 215.641 345.692C209.724 344.928 202.852 343.974 195.789 343.019C142.913 336.338 62.9301 326.221 -3.69019 297.397C-83.2909 263.037 -120.514 211.115 -114.406 142.776C-111.733 112.616 -93.2172 86.8459 -62.1023 70.2386C-40.5318 58.5944 -15.5253 52.8676 10.2447 52.8676C38.6872 52.8676 67.8932 59.9306 94.045 73.8655C130.887 93.3362 161.811 104.98 191.78 110.325C220.795 115.479 245.993 114.143 268.899 112.043C291.424 109.944 314.331 101.163 340.865 91.2364C395.841 70.4295 464.179 44.6594 572.222 58.4034C648.005 68.1388 707.944 88.1822 750.513 117.961C787.163 143.731 810.261 176.946 817.133 213.978C829.732 281.362 788.118 355.618 715.962 394.75C692.864 407.921 672.63 433.882 651.25 461.179C615.745 506.229 579.476 552.424 525.836 552.424Z" fill="#84EECA"/>
<path d="M27.6156 58.5944C2.03643 58.5944 -22.3974 64.5119 -43.0134 75.5835C-57.521 83.4099 -69.3561 93.5271 -78.137 105.553C-87.2996 118.152 -92.6445 132.087 -93.9808 147.167C-97.2259 183.054 -88.0632 214.36 -66.8745 240.703C-49.1218 262.846 -22.2065 281.744 12.9171 297.015C76.4832 324.312 152.457 334.047 202.661 340.347C209.342 341.301 215.832 342.065 221.368 342.828C264.127 348.746 303.069 388.26 344.301 430.065C388.778 475.114 434.591 521.882 492.049 535.817C521.827 543.071 549.315 536.962 576.231 517.301C599.71 500.121 619.563 474.923 638.652 450.681C658.695 425.292 677.593 401.431 698.4 389.023C767.311 351.227 806.825 279.453 794.417 214.36C787.545 178.282 765.211 146.212 729.706 121.206C689.046 92.5727 631.78 73.4837 559.623 64.1301C539.389 61.4577 520.682 60.5033 503.311 60.5033C431.537 60.5033 381.142 79.5922 338.956 95.436C313.949 104.79 292.379 112.998 271.572 115.098C229.004 119.106 184.336 119.488 107.216 78.8286C82.5916 65.6573 55.2945 58.7853 27.8065 58.5944C27.9974 58.5944 27.8065 58.5944 27.6156 58.5944ZM516.292 535.435C508.847 535.435 501.211 534.481 493.003 532.572C436.5 518.828 390.877 472.633 346.782 427.774C305.168 385.396 265.845 345.501 221.941 339.583C216.214 338.82 209.915 338.056 203.043 337.102C153.03 330.802 77.2467 321.067 14.2533 293.961C-61.1478 261.509 -96.2714 212.26 -90.5448 147.549C-88.0632 118.915 -70.5014 94.4815 -41.2954 78.6377C-20.8703 67.5662 2.8 62.2212 27.2338 62.2212C53.9583 62.2212 81.4463 68.7115 105.88 81.8829C140.813 100.399 170.401 111.471 198.652 116.625C226.713 121.779 250.574 120.633 272.144 118.534C293.333 116.434 315.095 108.226 340.292 98.6811C392.214 79.0195 457.116 54.5857 559.242 67.5662C630.825 76.7289 687.519 95.6269 727.797 124.069C762.539 148.503 784.491 180 790.981 215.123C803.007 278.689 764.257 349.128 696.491 386.16C674.921 398.759 655.832 423.002 635.788 448.581C602.192 491.34 567.45 535.435 516.292 535.435Z" fill="#84EECA"/>
<path d="M44.9862 67.566C20.7433 67.566 -2.35427 73.1018 -21.6341 83.7915C-35.3781 91.2362 -46.6405 100.781 -54.8488 112.234C-63.6297 124.069 -68.5928 137.431 -69.929 151.748C-72.9832 185.535 -64.3932 215.314 -44.3499 240.13C-27.5516 261.128 -2.16338 278.88 31.0513 293.197C90.9905 318.967 162.765 328.13 210.105 334.238C216.405 335.002 222.513 335.765 227.858 336.529C268.136 342.064 304.977 379.479 343.919 418.993C385.914 461.561 429.246 505.466 483.459 518.828C511.901 525.7 538.244 519.973 563.823 501.266C586.348 484.85 605.246 460.988 623.762 437.891C642.469 414.411 660.222 392.077 679.502 380.433C743.831 344.546 780.673 276.78 768.838 215.314C762.347 181.336 741.159 150.794 707.562 127.314C669.194 100.208 615.172 82.0736 547.215 73.4835C528.127 71.002 510.565 70.0475 493.957 70.0475C426.192 70.0475 378.66 87.9911 338.765 103.071C315.285 112.043 294.86 119.679 275.198 121.588C227.476 126.169 186.626 121.969 119.433 86.8458C96.3354 74.6289 70.5654 68.1386 44.7953 67.9477C45.1771 67.5659 44.9862 67.566 44.9862 67.566ZM506.556 518.255C499.493 518.255 492.049 517.301 484.222 515.392C430.964 502.411 387.823 458.698 346.209 416.511C306.886 376.615 269.663 338.819 228.24 333.093C222.895 332.329 216.786 331.566 210.487 330.802C163.147 324.884 91.7541 315.722 32.3875 290.143C-38.6232 259.6 -72.0288 213.023 -66.493 152.13C-64.2023 125.024 -47.595 101.926 -20.107 86.8458C-0.827161 76.3469 21.5069 71.1928 44.6045 71.1928C69.6109 71.1928 95.3809 77.3013 118.288 89.5182C186.244 125.024 227.476 129.414 275.962 124.642C296.005 122.733 316.621 114.906 340.292 105.935C389.35 87.4184 450.435 64.3208 547.025 76.5377C614.408 85.1277 667.666 103.071 705.653 129.796C738.486 152.893 759.102 182.481 765.593 215.696C777.046 275.635 741.159 342.064 677.974 377.188C658.122 389.214 640.178 411.739 621.28 435.6C588.829 476.259 555.424 518.255 506.556 518.255Z" fill="#84EECA"/>
<path d="M62.3575 76.7288C39.4508 76.7288 17.6895 82.0737 -0.444965 92C-27.3603 106.698 -43.5859 129.605 -45.8766 156.33C-51.0306 215.314 -18.9612 260.173 49.3771 289.57C105.689 313.813 173.264 322.403 217.932 328.13C223.85 328.893 229.576 329.657 234.539 330.23C272.526 335.384 307.077 370.507 343.728 407.731C383.242 447.817 424.092 489.24 475.06 501.839C535.381 516.728 574.704 467.861 609.255 424.911C626.626 403.149 643.233 382.724 660.986 371.462C720.925 337.483 754.903 273.535 743.641 215.887C737.341 183.818 717.298 154.993 685.801 132.85C649.532 107.462 598.947 90.2819 535.381 82.2646C517.437 79.9739 500.83 79.0195 485.368 79.0195C421.611 79.0195 376.752 96.0086 339.338 110.134C317.194 118.534 298.106 125.787 279.589 127.505C236.448 131.705 196.743 127.505 132.605 94.0997C110.652 82.6464 86.4096 76.7288 62.3575 76.7288ZM496.439 501.075C489.758 501.075 482.886 500.312 475.632 498.403C425.619 485.995 385.151 444.954 346.019 405.249C308.986 367.644 273.863 331.948 234.73 326.603C229.767 325.839 224.041 325.266 218.123 324.503C173.646 318.776 106.453 310.377 50.5224 286.134C-16.2888 257.31 -47.5946 213.787 -42.6314 156.33C-40.5317 130.75 -25.0697 108.989 0.891253 94.8633C38.3055 74.4382 89.2729 75.2017 130.505 97.154C195.407 130.941 235.685 135.141 279.398 130.941C298.296 129.032 317.576 121.779 340.101 113.38C386.296 96.0086 443.754 74.2473 534.426 85.7006C597.611 93.718 647.623 110.516 683.32 135.714C714.053 157.475 733.714 185.345 739.823 216.651C750.894 272.772 717.68 335.193 658.886 368.407C640.561 379.861 623.953 400.668 606.201 422.62C576.613 459.652 543.398 501.075 496.439 501.075Z" fill="#84EECA"/>
<path d="M79.7279 85.7008C79.537 85.7008 79.537 85.7008 79.3461 85.7008C57.9665 85.7008 37.7323 90.6639 20.7431 100.208C-4.64511 114.143 -19.7254 135.714 -21.8251 160.911C-26.5974 216.269 3.56312 258.264 67.511 285.943C120.387 308.659 183.572 316.677 225.376 322.021C230.912 322.785 236.257 323.358 241.029 324.121C276.534 328.893 308.986 361.917 343.537 396.85C380.569 434.455 418.747 473.206 466.469 485.041C523.736 499.357 561.341 452.971 594.556 412.121C610.781 392.269 626.052 373.371 642.278 362.872C668.621 347.601 690.764 325.076 704.508 299.306C718.824 272.39 723.597 243.948 718.061 217.032C711.952 186.872 693.245 159.957 663.657 139.15C629.488 114.907 582.148 98.8721 522.59 91.4274C436.69 80.5468 382.478 100.972 338.764 117.579C317.957 125.406 300.014 132.278 282.834 133.805C243.129 137.623 206.096 133.614 144.439 101.926C124.587 91.2365 102.062 85.7008 79.7279 85.7008ZM487.085 484.086C480.786 484.086 474.105 483.323 467.233 481.605C420.465 469.96 382.478 431.592 345.827 394.368C310.894 359.054 278.062 325.648 241.411 320.494C236.639 319.922 231.485 319.158 225.758 318.395C184.144 313.05 121.342 305.032 68.8472 282.507C6.42645 255.592 -22.9705 214.742 -18.3891 161.102C-16.4802 137.05 -1.97269 116.625 22.2702 103.263C57.2029 84.1736 104.543 84.7463 142.912 104.981C205.142 137.05 242.747 141.059 283.216 137.241C300.968 135.523 319.103 128.651 340.101 120.824C383.432 104.408 437.263 84.1736 522.209 95.0543C581.193 102.499 627.961 118.343 661.367 141.822C690.191 162.056 708.516 188.399 714.434 217.605C724.933 270.1 694.391 328.512 640.369 359.817C623.762 370.698 608.3 389.596 591.883 409.83C563.25 444.763 531.371 484.086 487.085 484.086Z" fill="#84EECA"/>
<path d="M96.9083 94.8634C96.7175 94.8634 96.5266 94.8634 96.3357 94.8634C76.4832 95.0543 57.5852 99.6356 41.7414 108.417C18.0712 121.397 3.94539 141.631 2.0365 165.301C-2.35395 217.032 25.7067 256.356 85.6459 282.126C134.895 303.314 193.88 310.95 232.821 315.913C237.975 316.486 242.938 317.249 247.329 317.822C280.544 322.403 310.895 353.136 342.964 385.778C377.515 420.711 413.212 456.98 457.689 468.242C511.901 481.987 547.979 438.082 579.858 399.332C594.747 381.197 608.682 364.208 623.38 354.282C647.623 339.965 667.858 318.776 680.456 294.724C693.437 269.718 697.636 242.993 692.482 217.987C686.565 189.735 669.003 164.538 641.324 145.067C609.636 122.733 565.541 107.844 510.374 100.781C430.201 90.473 379.615 109.753 338.956 125.024C319.676 132.278 302.878 138.577 286.843 140.295C251.528 143.731 215.832 139.913 157.229 109.944C138.331 99.8265 117.715 94.8634 96.9083 94.8634ZM477.541 466.906C471.433 466.906 465.133 466.143 458.643 464.425C415.12 453.544 379.806 417.657 345.637 382.915C312.995 349.891 282.262 318.585 247.902 314.004C243.511 313.431 238.548 312.859 233.394 312.095C194.644 307.132 136.041 299.687 87.173 278.69C28.9518 253.492 1.65472 215.505 5.85428 165.492C7.76317 142.967 21.1254 123.879 43.6503 111.28C75.9106 93.5272 119.815 93.909 155.511 112.616C215.069 142.967 251.147 146.785 287.225 143.349C303.832 141.822 320.63 135.332 340.292 127.887C380.569 112.616 430.773 93.7181 509.992 103.835C564.777 110.898 608.3 125.597 639.415 147.549C666.33 166.447 683.51 190.881 689.046 218.178C699.163 266.854 671.293 321.449 621.662 350.846C606.582 361.154 592.456 378.334 577.376 396.659C549.888 429.874 519.537 466.906 477.541 466.906Z" fill="#84EECA"/>
<path d="M114.279 103.835C113.897 103.835 113.706 103.835 113.325 103.835C94.9993 104.026 77.6284 108.416 62.9299 116.434C40.9777 128.651 27.9972 147.549 26.0883 169.692C22.0796 217.796 48.2315 254.256 103.78 278.117C149.594 297.778 204.188 304.841 240.266 309.422C245.038 309.995 249.619 310.568 253.628 311.14C284.361 315.34 312.613 343.973 342.582 374.325C374.652 406.776 407.676 440.372 449.099 450.871C500.257 464.043 534.808 422.429 565.35 385.778C578.903 369.553 591.502 354.281 604.482 345.119C626.625 331.566 645.142 311.904 656.404 289.57C668.239 266.282 671.675 241.657 666.712 218.368C661.176 192.026 644.569 168.546 618.99 150.603C589.593 129.796 548.743 116.052 497.775 109.562C483.268 107.653 469.715 106.889 457.116 106.889C405.385 106.889 368.925 120.633 338.574 132.087C320.63 138.959 305.168 144.685 290.279 146.212C258.209 149.267 225.376 145.64 169.255 117.388C152.266 108.416 133.368 103.835 114.279 103.835ZM467.997 449.726C462.27 449.726 456.352 448.962 450.053 447.435C409.775 437.127 376.942 403.913 345.255 371.843C314.904 341.11 286.27 312.095 254.392 307.704C250.383 307.132 245.802 306.559 240.839 305.986C204.951 301.405 150.548 294.533 105.307 275.062C51.2857 251.774 25.8974 216.459 29.7152 170.264C31.4332 149.267 43.841 131.514 64.6479 119.87C94.4266 103.453 134.704 103.644 167.537 120.633C193.498 133.614 215.832 142.204 236.066 146.594C254.201 150.603 271.572 151.557 290.47 149.839C305.932 148.312 321.585 142.395 339.719 135.523C377.133 121.397 423.71 103.835 497.203 113.189C547.788 119.679 587.875 133.232 616.89 153.657C641.706 171.219 657.74 193.935 663.085 219.323C672.63 264.182 647.623 314.958 602.382 342.446C602.382 342.446 602.382 342.446 602.192 342.446C588.829 351.991 575.849 367.453 562.296 383.869C536.717 414.984 507.511 449.726 467.997 449.726Z" fill="#84EECA"/>
<path d="M131.65 112.807C131.268 112.807 130.886 112.807 130.314 112.807C113.516 112.998 97.4808 117.007 84.1186 124.642C63.8844 136.095 51.8583 153.657 50.1403 174.273C46.5134 218.75 70.7564 252.347 122.106 274.49C164.292 292.624 214.687 299.115 248.092 303.314C252.483 303.887 256.682 304.46 260.5 304.841C288.752 308.659 314.904 335.193 342.582 363.063C372.17 393.032 402.712 423.956 440.699 433.692C488.994 446.29 522.018 406.967 551.224 372.416C563.25 358.099 574.513 344.737 585.966 336.147C606.009 323.549 622.617 305.223 632.734 284.607C643.233 263.037 646.287 240.321 641.515 218.75C636.17 194.507 620.899 172.746 597.228 155.948C570.122 136.859 532.517 124.069 485.749 117.961C472.387 116.243 459.788 115.479 448.144 115.479C400.422 115.479 366.825 128.078 338.765 138.768C322.157 145.067 308.031 150.412 294.287 151.748C260.309 154.993 227.667 147.167 181.854 124.451C166.201 117.006 148.83 112.807 131.65 112.807ZM458.452 432.737C452.916 432.737 447.381 431.973 441.463 430.446C404.43 420.902 374.27 390.36 345.064 360.772C317.003 332.329 290.47 305.414 260.882 301.405C257.064 300.833 252.865 300.451 248.474 299.878C215.259 295.679 165.246 289.379 123.633 271.245C74.0015 249.865 50.5221 217.414 53.9581 174.655C55.4852 155.184 66.7477 138.577 86.0275 127.887C113.134 112.616 150.166 112.807 180.136 128.269C226.713 151.367 259.737 159.384 294.478 155.948C308.795 154.612 323.112 149.076 339.91 142.777C374.461 129.796 417.411 113.571 485.177 122.161C531.372 128.078 568.404 140.677 595.129 159.384C618.035 175.609 632.925 196.607 638.079 219.896C647.05 261.128 624.907 307.705 584.248 333.284C584.248 333.284 584.248 333.284 584.057 333.284C572.413 342.065 560.769 355.809 548.552 370.125C523.545 399.904 495.675 432.737 458.452 432.737Z" fill="#84EECA"/>
<path d="M148.829 121.969C133.367 121.969 118.096 125.596 105.307 132.85C86.5996 143.349 75.7189 159.765 74.1918 178.854C70.9467 219.705 93.2807 250.629 140.239 270.863C178.99 287.47 224.994 293.388 255.536 297.206C259.545 297.778 263.554 298.16 266.799 298.733C292.76 302.36 316.621 326.602 342.009 352.182C369.115 379.67 397.176 407.921 431.918 417.084C452.152 422.429 471.623 418.42 491.284 404.676C508.274 392.841 522.781 375.852 536.907 359.435C547.406 347.218 557.332 335.574 567.067 327.748C585.011 316.104 599.71 299.114 608.681 280.216C617.844 260.364 620.326 239.557 615.935 219.895C610.781 197.561 596.655 177.518 574.894 162.247C550.078 144.685 515.718 133.041 473.15 127.505C460.742 125.978 449.48 125.214 438.79 125.214C395.076 125.214 364.343 136.859 338.573 146.594C323.493 152.321 310.322 157.284 297.723 158.429C267.753 161.293 237.784 153.848 194.07 132.468C179.944 125.596 164.101 121.969 148.829 121.969ZM449.098 415.748C443.944 415.748 438.599 414.984 433.063 413.648C399.276 404.867 371.597 376.806 344.873 349.7C319.102 323.548 294.669 298.924 267.562 295.106C264.126 294.724 260.309 294.151 256.3 293.579C225.949 289.761 180.135 283.843 141.957 267.427C96.5258 247.765 75.1463 218.177 78.2005 179.045C79.5367 161.102 89.8447 145.831 107.407 136.095C132.031 122.16 165.437 122.16 192.734 135.904C237.02 157.475 267.753 165.11 298.486 162.056C311.467 160.72 324.829 155.757 340.291 150.03C371.788 138.004 411.111 123.306 473.15 131.132C515.146 136.477 548.933 147.93 573.176 165.11C594.174 180 607.727 199.089 612.69 220.659C621.471 258.837 602.382 300.451 565.54 324.503C565.54 324.503 565.349 324.503 565.349 324.694C555.423 332.711 545.306 344.355 534.616 356.954C510.564 384.633 484.031 415.748 449.098 415.748Z" fill="#84EECA"/>
<path d="M166.201 130.941C152.075 130.941 138.141 134.377 126.496 141.059C109.507 150.794 99.5809 165.683 98.2447 183.436C95.5722 220.468 115.806 248.72 158.375 267.236C193.498 282.316 235.303 287.661 262.982 291.288C266.8 291.67 270.236 292.243 273.29 292.624C296.769 295.87 318.722 317.822 341.819 341.301C366.444 366.117 391.832 391.887 423.329 400.286C442.418 405.44 460.934 401.622 479.641 388.451C495.867 377.188 510.374 360.39 523.164 345.692C531.945 335.575 540.344 325.839 548.361 318.967C564.205 308.087 577.185 292.624 584.63 275.444C592.457 257.501 594.556 238.603 590.166 220.659C585.203 200.234 572.222 182.1 552.561 167.974C530.036 151.939 499.112 141.44 460.552 136.477C403.285 129.223 367.207 142.777 338.192 153.848C324.448 159.002 312.613 163.583 301.16 164.538C275.199 167.019 247.711 159.957 206.097 140.104C193.88 134.187 179.754 130.941 166.201 130.941ZM439.745 398.568C434.782 398.568 429.819 397.995 424.474 396.468C393.932 388.26 368.925 362.872 344.683 338.438C321.203 314.577 298.869 292.052 274.054 288.616C270.999 288.234 267.563 287.661 263.746 287.28C236.258 283.844 194.835 278.499 160.093 263.609C119.052 245.857 99.5809 218.941 102.062 183.627C103.208 167.21 112.561 153.275 128.405 144.304C150.357 131.705 180.327 131.514 204.761 143.731C247.138 163.774 275.199 171.028 301.732 168.547C313.568 167.401 325.594 162.82 339.719 157.475C368.353 146.594 404.049 133.232 460.361 140.295C498.157 145.067 528.509 155.566 550.652 171.219C569.741 184.581 582.149 202.143 586.921 221.614C595.129 255.974 578.903 293.77 546.452 315.913C546.452 315.913 546.261 315.913 546.261 316.104C538.053 323.167 529.654 332.902 520.682 343.21C497.776 369.362 472.387 398.568 439.745 398.568Z" fill="#84EECA"/>
<path d="M183.572 139.913C170.782 139.913 158.183 142.967 147.494 149.076C132.222 157.857 123.251 171.601 122.296 187.826C120.006 221.232 138.14 246.62 176.7 263.227C208.196 276.781 245.801 281.744 270.617 284.798C274.053 285.18 277.107 285.561 279.78 285.943C300.968 288.807 320.63 308.659 341.437 329.848C363.58 352.182 386.487 375.279 414.738 383.106C455.016 394.177 485.367 359.436 509.992 331.375C517.055 323.357 523.545 315.913 529.653 310.186C558.859 289.188 572.985 253.492 564.777 221.423C560.005 202.906 548.17 186.49 530.417 173.891C510.183 159.575 482.504 150.03 448.144 145.64C438.027 144.304 428.673 143.731 420.083 143.731C384.196 143.731 359.189 153.275 338.192 161.102C325.784 165.683 315.285 169.883 304.977 170.837C283.216 172.937 258.209 166.256 218.695 147.93C207.624 142.586 195.407 139.913 183.572 139.913ZM430.009 381.388C425.428 381.388 420.656 380.815 415.884 379.479C388.586 372.034 366.062 349.318 344.3 327.366C322.921 305.796 302.877 285.561 280.352 282.507C277.489 282.125 274.435 281.744 271.19 281.362C246.565 278.308 209.342 273.535 178.227 259.982C141.385 244.138 123.823 219.896 126.114 188.208C127.068 173.319 135.468 160.72 149.593 152.512C169.064 141.249 195.407 140.868 217.168 151.557C257.446 170.264 283.025 176.946 305.55 174.846C316.239 173.891 327.12 169.692 339.719 164.92C365.489 155.184 397.558 143.158 447.953 149.458C533.28 160.338 555.614 199.852 561.341 222.377C569.167 252.919 555.614 287.089 527.554 307.132L527.363 307.323C521.063 313.24 514.382 320.876 507.319 328.893C486.322 352.754 461.124 381.388 430.009 381.388Z" fill="#84EECA"/>
<path d="M200.942 149.076C189.489 149.076 178.226 151.939 168.682 157.475C155.129 165.492 147.112 177.9 146.348 192.599C144.439 222.377 160.665 245.093 194.834 259.791C222.895 271.817 256.109 276.208 278.252 278.88C281.116 279.262 283.979 279.644 286.461 280.026C305.168 282.507 322.73 300.26 341.246 318.967C360.907 338.82 381.142 359.245 406.148 366.308C423.137 371.08 440.126 367.453 457.879 355.045C472.959 344.546 486.131 329.466 497.584 316.295C502.356 310.759 506.937 305.605 510.946 301.405C535.571 282.316 547.024 250.438 539.389 222.186C534.998 205.77 524.118 191.071 508.274 179.809C490.139 167.019 465.896 158.62 435.927 154.802C390.113 148.885 361.289 159.956 338.192 168.737C327.311 172.937 317.766 176.373 308.795 177.327C288.179 179.236 264.699 171.028 231.103 155.948C221.558 151.176 211.059 149.076 200.942 149.076ZM420.656 364.399C416.265 364.399 411.875 363.826 407.103 362.49C383.05 355.809 363.198 335.574 343.727 316.104C324.638 296.824 306.695 278.689 286.651 276.017C284.17 275.635 281.497 275.253 278.443 274.872C235.302 269.336 145.584 257.883 149.784 192.599C150.548 179.236 157.801 167.974 170.209 160.72C187.007 150.794 210.105 150.221 228.812 159.193C263.172 174.464 287.033 183.054 308.604 180.954C318.148 180 327.884 176.373 338.955 172.173C361.671 163.583 390.113 152.894 434.972 158.62C509.419 168.165 529.844 203.288 535.189 223.332C542.443 250.247 531.562 280.407 508.083 298.542L507.892 298.733C503.692 303.123 499.111 308.277 494.148 313.813C474.677 336.72 450.434 364.399 420.656 364.399Z" fill="#84EECA"/>
<path d="M218.314 158.048C208.197 158.048 198.27 160.529 189.871 165.683C178.036 172.746 171.164 184.008 170.4 197.18C168.873 223.332 183.19 243.184 213.16 256.164C237.593 266.663 266.609 270.481 285.888 272.963C288.37 273.345 290.851 273.535 292.951 273.917C309.368 276.208 324.639 291.67 341.055 308.086C358.235 325.457 375.988 343.21 397.749 349.509C434.973 360.581 466.469 323.548 487.276 298.924C489.185 296.824 490.903 294.724 492.621 292.815C512.855 275.635 521.445 247.575 514.192 223.141C509.801 208.633 500.257 195.844 486.513 185.917C470.669 174.655 449.671 167.401 423.901 164.156C416.075 163.202 408.821 162.629 401.949 162.629C374.079 162.629 354.608 170.074 338.383 176.182C328.838 179.809 320.63 182.863 312.804 183.627C294.478 185.345 270.999 175.418 243.702 163.774C235.494 159.766 226.713 158.048 218.314 158.048ZM411.112 347.409C407.103 347.409 402.903 346.837 398.704 345.501C377.897 339.392 360.526 321.83 343.728 305.032C326.929 288.043 311.086 272.199 293.333 269.718C291.233 269.336 288.752 269.145 286.27 268.763C248.856 263.991 170.782 254.065 174.218 197.18C174.791 185.345 181.09 175.418 191.78 168.928C206.097 160.338 225.567 159.575 241.602 167.019C269.472 178.854 293.333 189.162 312.613 187.254C321.012 186.49 329.411 183.245 339.146 179.618C358.999 172.173 383.814 162.82 422.756 167.783C486.513 175.991 504.647 206.533 509.801 224.095C516.673 247.193 508.465 273.726 489.376 289.761L489.185 289.952C487.467 291.861 485.749 294.151 483.84 296.251C466.279 317.058 440.699 347.409 411.112 347.409Z" fill="#84EECA"/>
<path d="M235.685 167.019C226.904 167.019 218.123 169.31 211.06 173.7C200.943 180 195.025 189.926 194.453 201.379C193.307 223.904 205.715 240.893 231.294 252.156C252.292 261.128 276.917 264.373 293.333 266.473C295.433 266.663 297.533 267.045 299.251 267.236C313.185 269.145 326.548 282.507 340.483 296.633C355.181 311.332 370.261 326.603 388.778 332.329C414.548 340.347 443.754 323.548 473.341 283.653C489.376 268.191 495.103 244.52 488.04 223.332C483.84 210.924 475.441 199.852 463.415 191.262C449.862 181.718 432.109 175.418 410.73 172.746C404.049 171.982 397.749 171.601 392.023 171.601C368.162 171.601 351.554 177.9 337.428 183.245C329.22 186.299 322.348 188.972 315.667 189.544C303.068 190.69 286.461 184.009 267.181 175.991C263.363 174.464 259.355 172.746 255.155 171.028C249.238 168.356 242.366 167.019 235.685 167.019ZM401.949 330.42C398.131 330.42 394.122 329.848 390.305 328.702C372.743 323.358 357.854 308.468 343.537 293.961C329.029 279.262 315.285 265.518 300.014 263.418C298.296 263.227 296.196 262.846 293.906 262.655C262.027 258.646 195.789 250.056 198.27 201.761C198.652 191.453 203.997 182.863 212.969 177.137C224.613 169.883 240.648 168.928 254.01 174.846C258.209 176.564 262.218 178.091 266.036 179.809C285.697 187.826 302.687 194.889 316.24 193.553C323.493 192.789 330.747 190.117 338.955 186.872C355.945 180.382 376.942 172.555 410.348 176.755C463.224 183.436 479.45 209.588 484.413 224.668C490.903 244.52 485.558 266.663 470.669 280.98L470.478 281.171C453.298 304.65 428.101 330.42 401.949 330.42Z" fill="#84EECA"/>
<path d="M253.056 175.991C245.611 175.991 238.166 178.091 232.058 181.909C223.659 187.444 218.696 196.034 218.505 205.961C217.741 224.859 228.24 239.175 249.62 248.338C266.99 255.973 287.416 258.455 301.16 260.173C302.878 260.364 304.596 260.555 306.123 260.746C317.767 262.273 328.839 273.535 340.674 285.37C352.891 297.587 365.489 310.186 380.569 315.149C393.741 319.54 408.821 316.485 424.283 306.559C436.309 298.733 447.762 286.707 455.207 274.49C466.66 260.937 469.715 240.893 463.034 223.522C457.879 210.351 442.799 187.253 398.895 181.718C370.452 178.091 352.318 184.963 338.001 190.308C331.32 192.789 325.403 195.08 320.058 195.653C311.468 196.416 299.823 191.644 286.461 185.917C280.734 183.436 274.626 180.954 268.327 178.663C263.173 176.945 258.019 175.991 253.056 175.991ZM392.595 313.24C388.969 313.24 385.151 312.668 381.524 311.522C367.207 306.941 354.99 294.533 343.155 282.698C330.747 270.29 319.294 258.646 306.314 256.928C304.787 256.737 303.069 256.546 301.351 256.355C275.199 252.919 220.604 246.047 222.322 206.151C222.704 197.371 226.713 190.117 234.158 185.345C243.32 179.427 255.919 178.282 266.418 182.672C272.717 184.963 278.635 187.444 284.361 189.926C298.296 195.843 310.322 200.807 319.867 199.852C325.784 199.279 331.893 196.989 338.956 194.316C353.081 188.971 370.452 182.481 397.94 185.917C439.745 191.262 454.062 212.833 458.834 225.24C465.133 241.466 462.27 259.982 451.58 272.39L451.389 272.581C440.318 291.097 416.266 313.24 392.595 313.24Z" fill="#84EECA"/>
<path d="M270.427 184.963C264.128 184.963 258.019 186.872 253.056 190.308C246.375 194.889 242.557 202.143 242.557 210.733C242.175 226.004 250.765 237.457 267.754 244.902C281.498 251.01 297.915 252.919 308.605 254.446C309.941 254.637 311.277 254.828 312.422 255.019C321.585 256.355 330.748 265.327 340.292 274.871C350.028 284.416 359.954 294.533 371.98 298.733C395.65 307.323 426.574 287.852 436.691 266.091C443.945 254.255 444.327 238.221 437.455 224.095C432.492 213.596 419.13 195.462 386.487 191.262C363.772 188.399 349.264 193.744 337.811 198.134C332.466 200.234 327.884 201.952 323.685 202.334C317.958 202.906 309.368 199.089 300.397 194.889C293.906 192.026 287.225 188.971 280.544 186.872C277.108 185.345 273.672 184.963 270.427 184.963ZM383.815 296.442C380.188 296.442 376.561 295.869 373.125 294.724C362.054 290.715 352.318 281.171 342.965 271.817C332.848 261.7 323.303 252.347 312.804 250.819C311.659 250.629 310.323 250.438 308.987 250.247C288.37 247.574 245.802 242.229 246.375 210.733C246.566 201.57 251.338 196.225 255.156 193.553C261.646 188.971 271 187.635 278.635 190.308C285.316 192.407 291.806 195.271 298.106 198.134C308.032 202.715 316.622 206.533 323.494 205.961C328.266 205.579 333.229 203.67 338.765 201.57C349.837 197.371 363.772 192.217 385.533 194.889C416.266 198.898 428.674 215.696 433.255 225.431C439.364 238.412 439.173 253.11 432.492 263.8C432.492 263.8 432.492 263.991 432.301 263.991C425.047 280.98 403.095 296.442 383.815 296.442Z" fill="#84EECA"/>
<path d="M287.988 193.744C282.834 193.744 277.68 195.462 273.862 198.516C270.426 201.188 266.417 206.342 266.608 215.123C266.799 241.657 300.205 246.047 316.239 247.956C317.194 248.147 318.148 248.147 319.103 248.338C325.975 249.292 332.847 256.164 340.291 263.418C347.354 270.481 354.799 277.735 363.389 281.362C372.742 285.18 385.914 284.034 397.558 278.499C408.057 273.345 415.502 265.518 418.174 256.546C421.037 246.62 418.556 233.64 411.493 222.95C403.094 210.16 389.922 201.952 374.27 199.852C357.28 197.752 346.4 201.761 337.81 205.006C333.992 206.533 330.556 207.679 327.502 208.06C324.066 208.442 318.148 205.388 312.04 202.143C306.122 199.089 299.25 195.462 292.76 194.126C290.851 193.744 289.324 193.744 287.988 193.744ZM375.606 279.644C371.597 279.644 367.779 279.071 364.534 277.735C356.708 274.49 349.645 267.427 342.773 260.746C334.946 252.919 327.502 245.666 319.294 244.52C318.53 244.329 317.576 244.329 316.43 244.138C301.541 242.23 270.617 238.221 270.426 215.314C270.426 209.588 272.335 205.006 276.153 201.952C280.161 198.707 286.079 197.371 291.233 198.325C297.15 199.661 303.641 203.097 309.367 205.961C316.43 209.588 322.539 212.833 327.12 212.451C330.747 212.069 334.374 210.733 338.573 209.206C346.782 206.152 356.899 202.334 372.933 204.243C387.25 206.152 399.467 213.596 407.102 225.431C413.593 235.167 415.883 246.811 413.402 255.783C411.111 263.418 404.43 270.481 394.886 275.063C388.968 277.926 381.905 279.644 375.606 279.644Z" fill="#84EECA"/>
</g>
</svg>
