<svg width="550" height="521" viewBox="0 0 550 521" fill="none" xmlns="http://www.w3.org/2000/svg">
<mask id="mask0" mask-type="alpha" maskUnits="userSpaceOnUse" x="0" y="0" width="550" height="521">
<rect width="550" height="521" fill="white"/>
</mask>
<g mask="url(#mask0)">
<path d="M834.11 3.56146C861.727 3.56146 887.948 9.76764 910.135 21.7144C925.961 30.0927 938.683 40.7983 948.303 53.5208C958.233 66.864 964.129 81.7587 965.68 97.7395C969.249 136.528 959.629 170.506 936.822 198.744C917.583 222.793 888.414 243.273 850.401 259.564C781.513 289.199 698.972 299.749 644.358 306.576C636.91 307.507 629.929 308.438 623.878 309.213C577.487 315.575 535.44 358.397 490.756 403.702C442.659 452.73 392.854 503.465 330.328 518.05C299.142 525.342 270.904 518.825 243.752 498.345C219.859 480.192 199.999 453.816 180.605 428.216C158.573 399.047 137.627 371.43 113.113 358.707C76.1868 339.779 44.8458 310.92 24.6759 277.407C14.4358 260.495 7.29871 242.963 3.41986 224.965C-0.614075 206.347 -1.07953 187.884 2.02356 170.041C5.2818 151.267 12.5739 133.425 23.5898 116.978C35.3815 99.4462 51.3622 83.6205 71.2219 69.6568C115.441 38.7813 177.812 17.8356 256.94 7.75067C368.651 -6.52344 439.4 20.1629 496.186 41.7292C523.338 51.9693 546.766 60.813 569.419 62.9851C623.257 68.1052 667.476 68.5707 745.363 26.2139C772.359 11.4743 802.614 3.56146 832.714 3.25116C832.869 3.56146 833.49 3.56146 834.11 3.56146ZM963.198 97.8946C960.405 67.6397 940.545 40.6431 909.049 23.8866C861.107 -1.71368 798.58 0.148132 746.138 28.6963C667.631 71.3635 623.102 71.0531 568.798 65.7779C545.836 63.6058 522.252 54.6069 494.945 44.3668C438.469 22.9556 368.03 -3.57556 256.94 10.5434C178.278 20.6284 116.216 41.2637 72.4631 71.9841C34.6057 98.5153 11.0225 132.649 4.35083 170.661C-7.90625 240.636 37.2433 317.126 114.199 356.535C139.334 369.413 160.28 397.185 182.622 426.664C221.565 478.175 261.905 531.548 329.862 515.567C391.613 501.138 441.262 450.713 489.205 401.84C534.044 356.225 576.401 313.092 623.722 306.576C629.929 305.8 636.91 304.869 644.203 303.938C698.661 296.956 781.048 286.561 849.625 257.082C931.546 221.862 969.869 168.334 963.198 97.8946Z" fill="#F4F5FA"/>
<path d="M820.146 10.8538C846.522 10.8538 871.812 16.9047 893.068 28.2309C908.118 36.2989 920.53 46.539 929.684 58.7961C939.304 71.6738 944.889 85.9479 946.285 101.308C949.699 138.39 940.39 170.972 918.513 198.279C900.05 221.242 872.122 240.946 835.661 256.616C769.566 285.01 690.593 295.094 638.151 301.766C631.014 302.697 624.343 303.473 618.602 304.249C574.073 310.299 533.733 351.415 491.066 394.858C444.83 441.869 397.198 490.277 337.309 504.396C307.365 511.533 280.058 505.327 253.682 485.467C230.564 468.09 211.325 442.645 192.706 418.131C171.605 390.359 151.591 364.138 128.318 351.881C93.0979 333.728 63.3085 305.955 44.0695 273.838C34.45 257.703 27.6232 240.791 23.8996 223.569C20.0208 205.726 19.7104 188.039 22.6584 170.972C25.7614 152.974 32.7433 135.907 43.2937 120.082C54.4648 103.325 69.825 87.9649 88.9088 74.7769C131.266 45.1426 191 25.1279 266.714 15.5084C373.77 1.85488 441.572 27.4552 495.876 48.0905C521.941 57.8652 544.283 66.3986 566.005 68.5707C617.361 73.5356 659.407 73.846 734.812 32.8855C760.567 18.9217 789.581 11.3192 818.439 11.0089C819.06 10.8537 819.525 10.8538 820.146 10.8538ZM313.726 504.706C321.018 504.706 328.62 503.776 336.688 501.914C395.802 487.95 443.279 439.697 489.204 392.996C532.181 349.243 572.832 307.972 618.136 301.766C624.032 300.99 630.704 300.059 637.841 299.284C689.972 292.612 768.945 282.682 834.575 254.289C913.238 220.466 949.854 169.11 943.648 101.618C941.01 72.6048 922.082 46.6941 891.827 30.5582C846.677 6.50945 785.547 8.21612 736.053 35.0576C700.368 54.4518 670.113 65.6229 640.789 70.4326C613.171 74.9321 589.588 73.2254 565.695 71.0532C543.663 68.8811 521.01 60.3476 494.945 50.4178C440.796 29.9376 373.46 4.49245 266.87 17.9908C191.62 27.6103 132.196 47.3148 90.3051 76.7939C53.9993 102.239 31.5021 134.976 24.9857 171.437C13.194 238.464 56.0163 311.696 129.249 349.553C153.142 361.966 173.157 388.497 194.568 416.579C227.771 459.867 261.749 504.706 313.726 504.706Z" fill="#F4F5FA"/>
<path d="M806.026 18.146C831.316 18.146 855.365 23.8867 875.845 34.7474C890.275 42.505 902.066 52.4348 910.755 64.0713C919.909 76.3284 925.184 90.1371 926.58 104.877C929.839 140.407 920.995 171.592 900.049 197.658C882.362 219.69 855.675 238.464 820.766 253.513C757.618 280.665 682.059 290.285 631.944 296.646C625.118 297.577 618.756 298.353 613.171 299.128C570.659 304.869 532.026 344.123 491.22 385.704C447.002 430.543 401.387 477.089 344.135 490.588C315.277 497.414 289.056 491.518 263.611 472.435C241.424 455.678 222.65 431.319 204.652 407.736C184.482 381.36 165.399 356.38 143.367 344.743C110.009 327.366 81.4608 300.68 63.3078 269.96C44.3792 237.998 37.3972 204.02 43.293 171.592C49.6543 136.062 71.686 104.101 106.906 79.4315C147.401 51.0385 204.497 31.9546 276.799 22.8006C379.2 9.7677 444.054 34.2819 496.03 53.8312C520.855 63.2955 542.421 71.3635 563.056 73.3805C610.223 77.8799 652.114 78.1902 724.881 38.9365C749.551 25.5933 777.168 18.4563 804.63 18.146C805.095 18.146 805.561 18.146 806.026 18.146ZM321.483 490.743C328.465 490.743 335.912 489.812 343.67 488.105C400.146 474.762 445.605 428.526 489.514 383.997C530.629 342.106 569.573 302.542 613.016 296.646C618.601 295.87 624.962 295.094 631.789 294.164C681.749 287.802 757.153 278.183 819.835 251.186C894.929 218.759 929.994 169.731 924.098 105.342C921.46 77.5697 903.463 52.7451 874.604 37.2298C854.279 26.3691 830.696 20.9387 806.337 20.9387C779.03 20.9387 750.947 27.7654 725.967 41.2638C652.58 80.8278 610.378 80.5176 562.746 76.0181C541.645 74.0012 520.079 65.778 494.944 56.3137C443.123 36.7643 378.734 12.4053 276.954 25.4382C205.118 34.5922 148.487 53.5209 108.302 81.6036C73.7031 105.963 51.9816 137.148 45.7755 172.058C34.2941 235.981 74.9443 305.955 144.608 342.416C167.105 354.518 186.344 379.498 206.825 406.184C238.786 447.765 271.679 490.743 321.483 490.743Z" fill="#F4F5FA"/>
<path d="M791.909 25.5933C816.113 25.5933 839.075 31.1788 858.625 41.5741C872.433 49.0214 883.604 58.4858 891.983 69.6568C900.671 81.4484 905.791 94.6364 907.188 108.755C910.291 142.734 901.757 172.523 881.742 197.348C864.831 218.294 839.386 236.291 806.028 250.565C745.828 276.476 673.682 285.63 625.895 291.681C619.378 292.457 613.327 293.233 608.052 294.008C567.557 299.594 530.631 336.986 491.532 376.705C449.331 419.527 405.888 463.901 351.274 476.779C323.656 483.295 298.211 477.71 273.852 459.402C252.441 443.421 234.443 419.993 216.911 397.34C197.672 372.361 179.519 348.933 158.729 337.451C127.077 320.695 100.081 295.405 82.8586 265.926C65.016 235.36 58.4996 202.933 64.0851 172.058C70.2913 138.079 91.2369 107.669 124.905 84.086C163.538 56.9342 217.997 38.7813 286.885 29.9375C305.969 27.4551 323.812 26.3691 340.258 26.3691C408.37 26.3691 456.157 44.522 496.032 59.5718C519.77 68.5707 540.25 76.3284 559.955 78.1902C604.639 82.5345 644.358 82.6897 714.642 44.9874C738.071 32.2649 764.447 25.5933 790.668 25.283C791.133 25.5933 791.598 25.5933 791.909 25.5933ZM329.242 476.779C336.069 476.779 343.206 476.003 350.653 474.141C404.491 461.264 447.779 417.355 489.67 374.688C529.079 334.658 566.161 296.956 607.587 291.216C613.017 290.44 619.068 289.664 625.429 288.888C673.061 282.837 744.897 273.683 804.942 247.928C876.622 217.052 910.136 170.196 904.395 108.755C901.912 82.2242 884.846 58.4857 857.228 43.7462C816.268 21.7144 760.878 23.2659 715.884 47.4699C644.979 85.6376 604.794 85.3273 559.644 80.983C539.474 79.1211 518.839 71.2083 494.946 62.2094C445.607 43.591 384.011 20.318 286.885 32.7303C218.463 41.4189 164.469 59.5718 126.146 86.4133C93.0988 109.531 72.4634 139.476 66.4124 172.679C55.3965 233.499 93.7194 300.37 159.659 335.124C180.915 346.76 199.224 370.499 218.618 395.634C249.804 435.663 281.455 476.779 329.242 476.779Z" fill="#F4F5FA"/>
<path d="M777.79 32.8855C800.908 32.8855 822.784 38.1608 841.402 48.0906C854.591 55.2276 865.296 64.2265 873.209 74.9321C881.587 86.2582 886.397 98.6705 887.638 112.169C890.586 144.441 882.363 172.834 863.434 196.572C847.298 216.587 823.094 233.654 791.288 247.307C733.881 271.977 665.304 280.82 619.844 286.561C613.638 287.337 607.897 288.113 602.777 288.733C564.144 294.008 529.079 329.694 491.842 367.551C451.658 408.356 410.232 450.558 358.255 462.97C331.724 469.331 307.365 463.901 283.782 446.369C263.147 431.009 245.769 408.667 229.013 386.945C210.705 363.517 193.638 341.33 174.089 330.314C144.144 314.333 118.699 290.13 102.408 262.202C85.4961 233.188 79.4451 202.313 84.8755 172.834C90.7713 140.407 110.941 111.393 142.903 88.8958C179.674 63.1404 231.495 45.7632 296.97 37.3849C315.123 35.0577 332.035 33.9716 347.86 33.9716C412.714 33.9716 458.174 51.1936 496.187 65.6229C518.684 74.1563 538.233 81.6036 557.007 83.3103C597.812 87.1891 637.066 87.4994 704.713 51.3487C727.055 39.4019 752.034 32.8855 776.859 32.7304C777.169 32.8855 777.479 32.8855 777.79 32.8855ZM336.999 462.97C343.516 462.97 350.343 462.194 357.48 460.488C408.68 448.231 449.951 406.339 489.825 365.844C527.372 327.677 562.747 291.681 602.311 286.251C607.431 285.63 613.172 284.854 619.378 284.079C664.683 278.338 733.106 269.649 790.202 245.135C858.314 215.811 890.276 171.127 885.001 112.634C882.673 86.8788 866.848 64.8471 840.161 50.573C801.373 29.6273 748.621 31.0237 706.109 53.8312C637.686 90.2922 598.122 89.9819 556.852 86.1031C537.613 84.2413 518.063 76.7939 495.256 68.2605C448.244 50.4179 389.752 28.3861 297.28 40.1777C232.271 48.4009 180.915 65.6229 144.454 91.2231C112.958 113.255 93.2538 141.648 87.5131 173.454C76.9626 231.326 112.958 294.939 175.33 328.142C195.345 339.313 212.722 361.655 231.185 385.394C260.819 423.561 291.384 462.97 336.999 462.97Z" fill="#F4F5FA"/>
<path d="M763.828 40.3328C785.704 40.3328 806.65 45.2977 824.338 54.9172C836.905 61.5888 846.99 70.2774 854.592 80.5175C862.505 91.2231 867.16 103.17 868.246 116.048C871.039 146.768 863.281 173.765 845.128 196.262C829.768 215.346 806.805 231.482 776.706 244.514C722.247 267.943 656.927 276.321 613.795 281.751C608.054 282.527 602.468 283.148 597.659 283.923C561.043 288.888 527.529 322.867 492.31 358.707C454.142 397.496 414.733 437.525 365.394 449.317C340.104 455.368 316.676 450.248 294.024 433.491C274.164 418.752 257.408 397.34 241.272 376.705C224.05 354.673 207.759 333.883 189.451 323.332C161.213 308.127 137.164 285.009 122.114 258.478C106.288 230.861 100.703 201.537 105.978 173.609C111.719 142.734 130.803 115.117 161.213 93.8607C196.122 69.3465 245.306 52.9002 307.367 44.9874C324.744 42.8152 340.725 41.8843 355.775 41.8843C417.371 41.8843 460.503 58.1754 496.654 71.9841C518.065 80.052 536.528 87.0339 554.526 88.7406C592.849 92.4642 629.931 92.6194 695.095 58.0203C716.196 46.6941 739.779 40.6431 763.362 40.4879C763.362 40.3327 763.518 40.3328 763.828 40.3328ZM344.759 449.006C350.965 449.006 357.637 448.231 364.463 446.524C413.026 434.887 452.125 395.013 489.982 356.535C525.668 320.229 559.336 286.096 596.883 280.975C601.693 280.355 607.278 279.579 613.019 278.803C655.996 273.373 721.006 265.15 775.154 241.722C839.853 213.794 870.108 171.592 865.143 116.048C862.971 91.5333 847.921 70.5877 822.631 57.0893C805.099 47.625 784.774 42.9704 763.828 42.9704C740.71 42.9704 716.972 48.711 695.716 60.0372C665.771 75.8629 640.636 85.3272 616.277 89.6715C592.694 93.8606 572.214 92.7746 553.595 91.0679C535.287 89.3612 516.669 82.2242 495.102 74.1562C450.418 57.2445 394.873 36.2988 307.057 47.4698C245.461 55.3826 196.743 71.6738 162.144 95.8776C132.354 116.823 113.581 143.82 107.995 173.92C97.755 228.689 131.578 289.043 190.226 320.85C209 331.555 225.446 352.656 242.823 374.843C271.682 411.459 301.161 449.006 344.759 449.006Z" fill="#F4F5FA"/>
<path d="M749.706 47.625C770.497 47.625 790.356 52.4347 807.113 61.4336C818.904 67.7949 828.524 76.0181 835.661 85.7927C843.108 96.0328 847.452 107.359 848.539 119.616C851.176 148.785 843.729 174.23 826.507 195.641C812.078 213.639 790.201 228.999 761.653 241.411C709.987 263.598 648.236 271.511 607.43 276.631C602 277.407 596.725 278.028 592.225 278.648C557.471 283.458 525.82 315.575 492.307 349.553C456.156 386.169 418.919 424.182 372.218 435.508C348.014 441.404 325.672 436.439 303.796 420.458C284.712 406.494 268.576 386.014 253.06 366.31C236.769 345.674 221.409 326.28 204.497 316.195C148.487 285.475 116.37 227.137 126.455 174.23C132.041 144.906 150.194 118.84 179.052 98.5153C212.1 75.2423 258.646 59.7269 317.294 52.1244C333.74 49.9523 348.945 49.1765 363.064 49.1765C421.402 49.1765 462.362 64.6919 496.651 77.5696C516.976 85.1721 534.508 91.8437 551.42 93.5503C586.019 96.8086 622.325 97.1189 685.007 64.0712C705.022 53.3657 727.209 47.7801 749.551 47.625C749.396 47.625 749.551 47.625 749.706 47.625ZM352.514 435.198C358.565 435.198 364.771 434.422 371.442 432.87C417.368 421.699 454.449 384.152 490.29 347.691C524.113 313.247 556.075 280.82 591.76 276.011C596.415 275.39 601.535 274.769 607.12 273.994C647.77 268.873 709.366 260.961 760.567 238.929C821.852 212.553 850.4 172.523 845.746 119.926C843.729 96.6534 829.455 76.7938 805.716 63.9161C789.115 54.9172 769.876 50.5729 750.016 50.5729C728.295 50.5729 705.953 55.8481 686.093 66.5537C657.7 81.6036 633.651 90.6024 610.689 94.7915C587.881 98.9807 568.487 98.0498 550.955 96.3431C533.733 94.6364 516.045 87.9648 495.565 80.2072C453.363 64.2264 400.611 44.3668 317.604 54.9172C259.422 62.3646 213.341 77.7247 180.604 100.843C152.366 120.702 134.523 146.302 129.248 174.851C119.474 226.517 150.97 283.768 206.049 313.868C223.581 324.108 239.097 343.812 255.388 364.603C282.695 399.357 310.933 435.198 352.514 435.198Z" fill="#F4F5FA"/>
<path d="M735.588 54.9172C755.292 54.9172 774.066 59.4166 789.736 68.1052C800.907 74.1562 810.061 81.9138 816.733 91.223C823.87 100.843 827.904 111.703 828.99 123.34C831.472 150.802 824.49 175.006 808.199 195.176C794.546 212.243 773.91 226.672 746.914 238.308C698.196 259.254 639.858 266.701 601.38 271.666C596.26 272.287 591.295 272.907 586.951 273.528C554.213 278.028 524.269 308.438 492.618 340.554C458.484 375.153 423.264 410.839 379.201 421.699C356.083 427.285 334.672 422.63 313.881 407.425C295.573 394.082 280.213 374.688 265.163 355.914C249.958 336.831 235.529 318.678 219.858 309.213C167.572 280.045 137.627 224.965 147.247 175.006C152.522 147.389 169.744 122.564 197.051 103.48C228.237 81.4484 272.145 66.7089 327.379 59.727C342.895 57.71 357.169 56.9342 370.667 56.9342C425.747 56.9342 464.38 71.5186 496.807 83.7757C515.891 91.0679 532.492 97.274 548.473 98.8256C587.261 102.549 620.464 99.1359 675.078 70.5877C693.851 60.6579 714.797 55.3826 735.743 55.2275C735.432 54.9172 735.588 54.9172 735.588 54.9172ZM360.427 421.234C366.168 421.234 372.219 420.458 378.58 418.907C421.868 408.356 456.932 372.826 490.756 338.537C522.717 306.11 552.972 275.39 586.64 270.735C590.985 270.115 595.95 269.494 601.07 268.873C639.548 264.064 697.575 256.616 745.828 235.826C803.545 211.001 830.696 173.144 826.197 123.65C824.335 101.618 810.837 82.8448 788.495 70.5877C772.824 62.0543 754.671 57.8651 735.898 57.8651C715.573 57.8651 694.627 62.83 676.009 72.7598C620.774 101.618 587.261 105.187 547.852 101.308C531.561 99.7565 514.805 93.3952 495.566 86.103C455.691 71.0532 406.042 52.2796 327.535 62.2094C272.766 69.1913 229.478 83.7757 198.602 105.497C171.916 124.271 155.159 148.319 149.884 175.316C140.575 224.034 169.744 278.028 221.099 306.576C237.235 316.35 251.82 334.658 267.18 354.053C293.556 387.1 320.708 421.234 360.427 421.234Z" fill="#F4F5FA"/>
<path d="M721.47 62.3646C740.088 62.3646 757.776 66.7089 772.515 74.7769C794.392 86.7237 807.58 105.342 809.442 127.064C813.631 175.006 787.565 211.467 732.02 235.36C686.25 255.065 631.326 262.047 595.02 266.701C590.21 267.322 585.556 267.943 581.522 268.408C550.646 272.597 522.563 301.145 492.774 331.4C460.657 363.983 427.454 397.651 386.029 407.891C337 419.993 305.039 380.274 276.956 345.364C262.837 327.677 249.339 311.075 234.909 301.921C186.191 274.304 158.574 222.328 167.728 175.471C172.848 149.406 189.139 125.977 214.739 107.98C244.219 87.3443 285.334 73.3805 337 66.8641C351.585 65.0022 365.083 64.2265 377.65 64.2265C429.471 64.2265 465.932 78.0351 496.342 89.5165C514.34 96.3432 529.856 102.239 544.905 103.635C579.97 107.049 612.242 103.635 664.373 76.4836C682.216 67.1744 701.92 62.3646 721.47 62.3646ZM368.651 407.27C374.082 407.27 379.667 406.65 385.563 405.098C426.213 395.013 459.106 361.655 490.912 329.383C521.012 298.818 549.56 269.805 581.366 265.46C585.4 264.84 590.055 264.374 594.865 263.754C631.015 259.099 685.629 252.272 731.089 232.568C785.393 209.14 810.838 173.765 806.804 127.064C805.097 106.273 792.53 88.5855 771.429 77.1042C741.019 60.5028 699.593 61.1234 666.08 78.966C613.328 106.428 580.591 109.841 545.061 106.428C529.7 104.877 514.03 98.9808 495.722 92.1541C458.175 78.0351 411.474 60.3477 337.776 69.6568C286.42 76.1733 245.77 89.8267 216.756 110.307C191.777 127.994 175.796 150.647 170.831 176.092C161.832 221.707 188.829 272.442 236.616 299.439C251.511 308.748 265.009 325.66 279.438 343.502C303.487 373.602 330.484 407.27 368.651 407.27Z" fill="#F4F5FA"/>
<path d="M707.35 69.6568C707.505 69.6568 707.505 69.6568 707.66 69.6568C725.037 69.6568 741.484 73.6908 755.292 81.4485C775.928 92.7747 788.185 110.307 789.891 130.787C793.77 175.782 769.256 209.915 717.28 232.413C674.302 250.876 622.947 257.392 588.968 261.736C584.469 262.357 580.124 262.823 576.245 263.443C547.387 267.322 521.011 294.164 492.928 322.557C462.828 353.122 431.798 384.618 393.009 394.237C346.464 405.874 315.898 368.172 288.902 334.969C275.714 318.833 263.301 303.473 250.113 294.939C228.702 282.527 210.704 264.219 199.533 243.273C187.897 221.397 184.018 198.279 188.518 176.402C193.482 151.888 208.688 130.011 232.736 113.1C260.509 93.3953 298.987 80.3624 347.394 74.3114C417.213 65.4677 461.277 82.0691 496.807 95.5674C513.719 101.929 528.303 107.514 542.267 108.755C574.539 111.858 604.638 108.6 654.753 82.8448C670.889 74.1563 689.197 69.6568 707.35 69.6568ZM376.253 393.462C381.373 393.462 386.803 392.841 392.389 391.445C430.401 381.98 461.277 350.794 491.066 320.54C519.459 291.836 546.146 264.684 575.935 260.495C579.814 260.03 584.003 259.409 588.658 258.789C622.481 254.444 673.526 247.928 716.194 229.62C766.929 207.743 790.822 174.54 787.099 130.942C785.547 111.393 773.755 94.7916 754.051 83.9309C725.658 68.4156 687.18 68.8811 655.994 85.3273C605.414 111.393 574.849 114.651 541.957 111.548C527.527 110.152 512.788 104.566 495.721 98.205C460.501 84.8618 416.748 68.4156 347.705 77.2593C299.762 83.3103 261.75 96.188 234.598 115.272C211.17 131.718 196.275 153.129 191.465 176.868C182.932 219.535 207.757 267.012 251.665 292.457C265.163 301.301 277.731 316.661 291.074 333.107C314.347 361.5 340.257 393.462 376.253 393.462Z" fill="#F4F5FA"/>
<path d="M693.386 77.104C693.541 77.104 693.696 77.104 693.851 77.104C709.987 77.2592 725.348 80.9829 738.225 88.1199C757.464 98.6703 768.946 115.117 770.497 134.356C774.066 176.402 751.258 208.364 702.54 229.309C662.511 246.531 614.568 252.738 582.917 256.771C578.728 257.237 574.694 257.858 571.125 258.323C544.129 262.047 519.459 287.026 493.394 313.558C465.311 341.951 436.297 371.43 400.146 380.584C356.083 391.755 326.759 356.07 300.848 324.573C288.746 309.834 277.42 296.025 265.474 287.957C245.769 276.321 229.323 259.099 219.083 239.549C208.532 219.224 205.119 197.503 209.308 177.178C214.118 154.215 228.392 133.735 250.889 117.909C276.645 99.7564 312.485 87.6544 357.324 81.9138C422.489 73.5355 463.604 89.206 496.652 101.618C512.322 107.514 525.976 112.634 539.009 114.031C567.712 116.823 596.726 113.72 644.358 89.3611C659.718 81.138 676.474 77.104 693.386 77.104ZM384.011 379.498C388.975 379.498 394.095 378.877 399.371 377.481C434.746 368.637 463.449 339.468 491.221 311.23C517.753 284.389 542.732 258.944 570.66 255.22C574.228 254.754 578.262 254.289 582.451 253.668C613.948 249.634 661.58 243.583 701.299 226.517C748.621 206.036 770.807 175.161 767.394 134.511C765.843 116.203 754.982 100.687 736.674 90.4472C710.453 76.018 674.768 76.3283 645.754 91.5333C597.346 116.203 568.022 119.306 538.698 116.513C525.2 115.272 511.546 109.997 495.566 103.946C462.828 91.5333 422.023 76.1731 357.634 84.3962C313.106 90.1369 277.731 102.084 252.441 119.926C230.564 135.286 216.6 155.146 212.101 177.333C203.878 216.897 226.53 261.271 266.87 285.165C279.127 293.543 290.608 307.507 302.865 322.401C325.207 349.398 349.877 379.498 384.011 379.498Z" fill="#F4F5FA"/>
<path d="M679.268 84.3964C679.578 84.3964 679.733 84.3964 680.043 84.3964C694.938 84.5515 709.057 88.1201 721.004 94.6365C738.847 104.566 749.397 119.926 750.948 137.924C754.207 177.023 732.951 206.657 687.801 226.051C650.564 242.032 606.19 247.773 576.867 251.496C572.988 251.962 569.264 252.427 566.006 252.893C541.026 256.306 518.063 279.579 493.704 304.248C467.639 330.625 440.797 357.931 407.129 366.465C365.548 377.17 337.465 343.347 312.641 313.558C301.625 300.37 291.385 287.957 280.834 280.51C262.836 269.494 247.787 253.513 238.633 235.36C229.013 216.432 226.22 196.417 230.254 177.488C234.754 156.077 248.252 136.993 269.043 122.409C292.936 105.497 326.139 94.3262 367.565 89.051C379.356 87.4995 390.372 86.8789 400.612 86.8789C442.659 86.8789 472.293 98.0499 496.963 107.359C511.547 112.945 524.114 117.599 536.216 118.84C562.282 121.323 588.969 118.375 634.584 95.4123C648.392 88.1201 663.752 84.3964 679.268 84.3964ZM391.769 365.534C396.423 365.534 401.233 364.913 406.353 363.672C439.09 355.294 465.777 328.297 491.532 302.231C516.202 277.252 539.475 253.669 565.385 250.1C568.643 249.635 572.367 249.169 576.401 248.704C605.57 244.98 649.789 239.394 686.56 223.569C730.468 204.64 751.104 175.937 748.001 138.39C746.604 121.323 736.519 106.894 719.607 97.4293C695.404 84.0861 662.666 84.2412 635.98 98.0499C614.879 108.6 596.726 115.582 580.28 119.151C565.54 122.409 551.421 123.185 536.061 121.788C523.494 120.547 510.771 115.737 496.032 110.152C465.622 98.6705 427.764 84.3964 368.03 91.9989C326.915 97.2741 294.333 108.29 270.749 124.891C250.579 139.165 237.546 157.629 233.202 178.264C225.444 214.725 245.77 255.996 282.541 278.338C282.541 278.338 282.541 278.338 282.696 278.338C293.557 286.096 304.107 298.663 315.123 312.006C335.914 337.296 359.652 365.534 391.769 365.534Z" fill="#F4F5FA"/>
<path d="M665.149 91.6885C665.459 91.6885 665.77 91.6885 666.235 91.6885C679.889 91.8437 692.922 95.1019 703.782 101.308C720.229 110.617 730.003 124.891 731.4 141.648C734.348 177.799 714.643 205.106 672.907 223.103C638.618 237.843 597.658 243.118 570.506 246.531C566.937 246.997 563.524 247.462 560.421 247.773C537.458 250.876 516.202 272.442 493.705 295.094C469.656 319.453 444.832 344.588 413.956 352.501C374.702 362.741 347.861 330.78 324.122 302.697C314.348 291.06 305.194 280.2 295.885 273.218C279.593 262.978 266.095 248.083 257.872 231.326C249.339 213.794 246.856 195.331 250.735 177.799C255.079 158.094 267.491 140.407 286.73 126.753C308.762 111.238 339.327 100.843 377.34 95.8777C388.201 94.4813 398.441 93.8607 407.905 93.8607C446.693 93.8607 474 104.101 496.808 112.789C510.306 117.909 521.788 122.254 532.959 123.34C560.576 125.977 587.107 119.616 624.344 101.153C637.066 95.1019 651.185 91.6885 665.149 91.6885ZM399.527 351.725C404.026 351.725 408.526 351.105 413.336 349.863C443.435 342.106 467.949 317.281 491.688 293.233C514.495 270.115 536.062 248.238 560.11 244.98C563.214 244.514 566.627 244.204 570.195 243.739C597.192 240.325 637.842 235.205 671.666 220.466C712.005 203.089 731.089 176.712 728.297 141.958C727.055 126.133 717.901 112.634 702.231 103.946C680.199 91.5334 650.099 91.6885 625.74 104.256C587.883 123.029 561.041 129.546 532.803 126.753C521.167 125.667 509.531 121.168 495.877 116.048C467.794 105.497 432.885 92.3091 377.805 99.291C340.258 104.101 310.159 114.341 288.437 129.546C269.819 142.734 257.717 159.801 253.528 178.729C246.236 212.243 264.233 250.1 297.281 270.891C297.281 270.891 297.281 270.891 297.436 270.891C306.9 278.028 316.365 289.199 326.295 300.835C346.62 325.039 369.272 351.725 399.527 351.725Z" fill="#F4F5FA"/>
<path d="M651.184 99.1359C663.751 99.1359 676.163 102.084 686.558 107.98C701.764 116.513 710.607 129.856 711.848 145.372C714.486 178.574 696.333 203.709 658.165 220.155C626.669 233.654 589.277 238.463 564.453 241.566C561.195 242.032 557.936 242.342 555.299 242.808C534.198 245.756 514.804 265.46 494.169 286.251C472.137 308.593 449.329 331.555 421.091 339.003C404.645 343.347 388.819 340.089 372.839 328.918C359.03 319.298 347.238 305.49 335.757 292.146C327.224 282.217 319.156 272.752 311.243 266.391C296.658 256.927 284.712 243.118 277.419 227.758C269.972 211.622 267.955 194.71 271.524 178.729C275.713 160.577 287.194 144.285 304.882 131.873C325.051 117.599 352.979 108.135 387.578 103.635C397.663 102.394 406.817 101.773 415.506 101.773C451.036 101.773 476.016 111.238 496.961 119.151C509.218 123.805 519.924 127.839 530.164 128.77C554.523 131.097 578.882 125.046 614.412 107.669C625.894 102.084 638.771 99.1359 651.184 99.1359ZM407.128 337.917C411.317 337.917 415.661 337.296 420.16 336.21C447.623 329.073 470.12 306.265 491.841 284.234C512.787 262.978 532.646 242.963 554.678 239.86C557.471 239.549 560.574 239.084 563.832 238.619C588.502 235.516 625.738 230.706 656.769 217.363C693.696 201.382 711.073 177.333 708.59 145.527C707.504 130.942 699.126 118.53 684.852 110.617C664.837 99.291 637.685 99.291 615.498 110.462C579.503 127.994 554.523 134.2 529.543 131.718C518.993 130.632 508.132 126.598 495.565 121.943C469.965 112.169 438.003 100.222 387.578 106.583C353.445 110.927 325.982 120.237 306.278 134.2C289.211 146.302 278.195 161.818 274.161 179.35C267.024 210.381 282.539 244.204 312.484 263.753C312.484 263.753 312.639 263.753 312.639 263.909C320.707 270.425 328.93 279.889 337.619 290.129C357.168 312.627 378.734 337.917 407.128 337.917Z" fill="#F4F5FA"/>
<path d="M637.066 106.428C648.547 106.428 659.873 109.221 669.337 114.651C683.146 122.564 691.214 134.666 692.3 149.095C694.472 179.195 678.026 202.158 643.427 217.208C614.879 229.465 580.9 233.809 558.403 236.757C555.3 237.067 552.507 237.533 550.025 237.843C530.941 240.481 513.098 258.323 494.325 277.407C474.31 297.577 453.674 318.523 428.074 325.349C412.559 329.539 397.509 326.435 382.304 315.73C369.116 306.576 357.324 292.922 346.929 280.976C339.792 272.752 332.965 264.84 326.449 259.254C313.571 250.41 303.021 237.843 296.97 223.879C290.608 209.295 288.902 193.935 292.47 179.35C296.504 162.749 307.055 148.009 323.035 136.528C341.343 123.495 366.478 114.962 397.819 110.928C444.365 105.032 473.689 116.048 497.272 125.047C508.443 129.236 518.063 132.959 527.372 133.735C548.473 135.752 570.815 130.011 604.639 113.876C614.568 109.066 626.05 106.428 637.066 106.428ZM414.731 323.953C418.765 323.953 422.799 323.488 427.143 322.246C451.968 315.575 472.293 294.939 491.997 275.08C511.081 255.686 529.234 237.378 549.404 234.585C551.886 234.274 554.679 233.809 557.782 233.499C580.124 230.706 613.793 226.362 642.03 214.26C675.388 199.83 691.214 177.954 689.197 149.25C688.266 135.907 680.664 124.581 667.786 117.289C649.943 107.049 625.584 106.894 605.725 116.823C571.281 133.115 548.473 139.01 526.907 136.993C517.287 136.062 507.513 132.339 496.031 127.994C472.758 119.151 443.745 108.29 397.974 114.031C367.254 117.91 342.585 126.443 324.587 139.166C309.072 150.026 298.987 164.3 295.108 180.126C288.436 208.054 301.624 238.774 328 256.772C328 256.772 328.155 256.772 328.155 256.927C334.827 262.667 341.654 270.58 348.946 278.959C367.564 300.215 388.2 323.953 414.731 323.953Z" fill="#F4F5FA"/>
<path d="M622.947 113.72C633.343 113.72 643.583 116.203 652.271 121.168C664.684 128.305 671.976 139.476 672.752 152.664C674.613 179.816 659.874 200.451 628.533 213.949C602.933 224.965 572.367 228.999 552.198 231.482C549.405 231.792 546.922 232.102 544.75 232.413C527.528 234.74 511.547 250.876 494.636 268.098C476.638 286.251 458.02 305.024 435.057 311.385C402.32 320.384 377.65 292.147 357.635 269.339C351.895 262.823 346.62 256.772 341.655 252.117C317.916 235.05 306.435 206.036 313.106 179.971C316.985 164.921 326.605 151.578 341.034 141.338C357.48 129.701 379.978 121.943 407.905 118.375C416.128 117.289 423.731 116.823 430.713 116.823C459.881 116.823 480.206 124.581 497.273 130.942C507.358 134.666 515.892 138.079 524.27 138.855C541.957 140.562 562.283 135.131 594.399 120.237C603.398 115.892 613.328 113.72 622.947 113.72ZM422.645 309.989C426.368 309.989 430.247 309.524 434.126 308.438C456.313 302.387 474.621 283.923 492.308 266.081C509.686 248.548 525.977 232.102 544.285 229.62C546.612 229.309 549.095 228.999 551.732 228.689C571.747 226.206 602.002 222.328 627.292 211.312C657.236 198.434 671.51 178.729 669.649 152.974C668.873 140.872 662.046 130.632 650.565 123.96C634.739 114.806 613.328 114.496 595.64 123.185C562.903 138.39 542.113 143.82 523.805 142.113C515.116 141.338 506.272 137.924 496.032 134.045C475.086 126.133 449.021 116.358 408.06 121.478C338.707 130.322 320.554 162.438 315.899 180.746C309.538 205.571 320.554 233.343 343.361 249.635L343.517 249.79C348.637 254.599 354.067 260.806 359.808 267.322C376.874 286.716 397.355 309.989 422.645 309.989Z" fill="#F4F5FA"/>
<path d="M608.828 121.168C618.137 121.168 627.291 123.495 635.049 127.995C646.065 134.511 652.581 144.596 653.202 156.543C654.753 180.747 641.565 199.21 613.793 211.157C590.985 220.931 563.989 224.5 545.991 226.672C543.664 226.982 541.336 227.293 539.319 227.603C524.114 229.62 509.84 244.049 494.79 259.254C478.809 275.39 462.363 291.992 442.038 297.732C428.23 301.611 414.421 298.663 399.992 288.578C387.735 280.045 377.029 267.788 367.72 257.082C363.841 252.583 360.117 248.393 356.859 244.98C336.844 229.465 327.535 203.554 333.741 180.592C337.31 167.248 346.153 155.302 359.031 146.147C373.771 135.752 393.475 128.926 417.834 125.822C455.071 121.013 478.499 130.012 497.273 137.149C506.116 140.562 513.874 143.355 521.166 144.131C537.923 145.682 557.007 139.01 584.314 126.753C592.071 122.875 600.605 121.168 608.828 121.168ZM430.246 296.181C433.815 296.181 437.384 295.715 441.262 294.629C460.812 289.199 476.948 272.753 492.773 256.927C508.289 241.256 522.873 226.517 539.164 224.345C541.181 224.034 543.353 223.724 545.836 223.414C580.9 218.914 653.822 209.605 650.409 156.543C649.788 145.682 643.893 136.528 633.808 130.632C620.154 122.564 601.381 122.099 586.175 129.391C558.248 141.803 538.854 148.785 521.321 147.078C513.564 146.303 505.651 143.355 496.652 139.941C478.189 132.959 455.071 124.271 418.61 128.926C358.1 136.683 341.499 165.231 337.155 181.522C331.259 203.399 340.102 227.913 359.186 242.653L359.341 242.808C362.755 246.376 366.479 250.566 370.513 255.065C386.338 273.683 406.043 296.181 430.246 296.181Z" fill="#F4F5FA"/>
<path d="M594.709 128.46C602.932 128.46 611 130.477 617.827 134.666C627.446 140.407 633.032 149.561 633.652 160.266C634.894 181.522 623.257 197.658 598.898 208.208C579.039 216.742 555.455 219.845 539.785 221.862C537.768 222.172 535.751 222.327 534.044 222.638C520.701 224.5 508.289 237.067 494.945 250.41C480.982 264.529 466.552 278.958 448.865 284.078C418.61 293.077 393.01 262.978 376.098 242.963C374.547 241.256 373.15 239.549 371.754 237.998C355.308 224.034 348.326 201.227 354.221 181.367C357.79 169.575 365.548 159.18 376.719 151.112C389.596 141.958 406.663 136.062 427.609 133.425C433.97 132.649 439.866 132.183 445.452 132.183C468.104 132.183 483.93 138.234 497.118 143.199C504.875 146.147 511.547 148.63 517.908 149.25C532.803 150.647 551.887 142.579 574.074 133.114C580.745 129.856 587.882 128.46 594.709 128.46ZM438.004 282.372C441.262 282.372 444.676 281.906 448.089 280.82C465.001 275.855 479.12 261.581 492.773 247.928C506.427 234.119 519.305 221.241 533.734 219.224C535.44 218.914 537.457 218.759 539.474 218.449C569.884 214.57 633.342 206.502 630.549 160.266C630.084 150.647 624.964 142.579 616.275 137.303C604.639 130.322 588.813 129.701 575.78 135.752C553.128 145.371 533.734 153.75 518.063 152.198C511.237 151.578 504.41 148.94 496.497 145.992C480.361 139.941 460.191 132.339 428.54 136.373C376.719 143.044 361.979 167.869 357.79 182.143C352.205 200.916 358.876 222.483 374.391 235.515L374.547 235.671C375.943 237.222 377.339 239.084 378.891 240.791C393.165 257.702 413.955 282.372 438.004 282.372Z" fill="#F4F5FA"/>
<path d="M580.59 135.752C587.727 135.752 594.864 137.614 600.605 141.182C608.828 146.302 613.638 154.37 614.103 163.68C615.034 181.988 604.949 195.796 584.159 204.95C567.092 212.243 547.077 214.88 533.734 216.587C532.027 216.742 530.32 217.052 528.924 217.207C517.598 218.759 506.737 229.62 495.411 241.101C483.464 253.048 471.207 265.46 456.157 270.115C435.211 276.631 411.473 262.978 387.424 230.551C374.391 217.983 369.737 198.744 375.477 181.522C378.891 171.437 385.718 162.438 395.492 155.456C406.508 147.699 420.937 142.579 438.315 140.407C443.745 139.786 448.865 139.476 453.52 139.476C472.914 139.476 486.412 144.596 497.893 148.94C504.565 151.423 510.15 153.595 515.581 154.06C525.821 154.991 539.319 149.561 554.99 143.044C558.093 141.803 561.351 140.407 564.764 139.01C569.574 136.838 575.16 135.752 580.59 135.752ZM445.452 268.563C448.555 268.563 451.813 268.098 454.916 267.167C469.19 262.823 481.292 250.721 492.928 238.929C504.72 226.982 515.891 215.811 528.303 214.104C529.7 213.949 531.406 213.639 533.268 213.484C559.179 210.226 613.017 203.244 611 163.99C610.69 155.612 606.345 148.63 599.053 143.975C589.589 138.079 576.556 137.304 565.695 142.113C562.282 143.51 559.024 144.751 555.921 146.147C539.94 152.664 526.131 158.404 515.115 157.318C509.22 156.698 503.324 154.526 496.652 151.888C482.844 146.613 465.777 140.251 438.625 143.665C395.647 149.095 382.459 170.351 378.425 182.608C373.15 198.744 377.494 216.742 389.596 228.379L389.752 228.534C403.715 247.618 424.196 268.563 445.452 268.563Z" fill="#F4F5FA"/>
<path d="M566.472 143.044C572.523 143.044 578.574 144.751 583.538 147.854C590.365 152.353 594.399 159.335 594.554 167.403C595.175 182.763 586.642 194.4 569.264 201.847C555.145 208.053 538.544 210.07 527.373 211.467C525.977 211.622 524.58 211.777 523.339 211.932C513.875 213.173 504.876 222.327 495.256 231.947C485.326 241.877 475.086 252.117 462.829 256.151C452.124 259.719 439.867 257.237 427.299 249.169C417.525 242.808 408.215 233.033 402.164 223.103C392.855 212.087 390.373 195.796 395.803 181.677C399.992 170.972 412.249 152.198 447.935 147.699C471.052 144.751 485.792 150.336 497.428 154.681C502.859 156.698 507.669 158.56 512.013 159.025C518.995 159.646 528.459 155.767 539.32 151.112C543.974 149.095 548.939 147.078 554.059 145.216C558.249 143.82 562.438 143.044 566.472 143.044ZM453.055 254.599C456.003 254.599 459.106 254.134 462.054 253.203C473.69 249.479 483.62 239.394 493.239 229.775C503.324 219.69 512.633 210.226 523.184 208.829C524.425 208.674 525.821 208.519 527.218 208.364C548.474 205.571 592.848 199.985 591.451 167.558C591.141 160.421 587.883 154.526 581.832 150.647C574.384 145.837 564.144 144.906 555.611 148.475C550.491 150.336 545.681 152.353 541.026 154.37C529.7 159.18 519.926 163.214 512.168 162.438C507.358 161.973 502.393 160.111 496.653 157.939C485.171 153.595 471.052 148.319 448.71 151.112C414.732 155.456 403.095 172.989 399.216 183.074C394.096 196.262 396.424 211.312 405.112 221.397L405.267 221.552C414.266 236.602 433.816 254.599 453.055 254.599Z" fill="#F4F5FA"/>
<path d="M552.353 150.336C557.473 150.336 562.438 151.888 566.472 154.681C571.903 158.404 575.006 164.3 575.006 171.282C575.316 183.694 568.334 193.004 554.525 199.055C543.354 204.019 530.011 205.571 521.323 206.812C520.237 206.967 519.151 207.123 518.22 207.278C510.772 208.364 503.325 215.656 495.567 223.414C487.654 231.171 479.586 239.394 469.812 242.808C450.573 249.79 425.438 233.964 417.215 216.277C411.319 206.657 411.009 193.624 416.594 182.143C420.628 173.609 431.489 158.87 458.02 155.457C476.483 153.129 488.275 157.474 497.584 161.042C501.929 162.749 505.652 164.145 509.066 164.455C513.72 164.921 520.702 161.818 527.994 158.404C533.27 156.077 538.7 153.595 544.13 151.888C546.923 150.647 549.716 150.336 552.353 150.336ZM460.192 240.946C463.14 240.946 466.088 240.48 468.881 239.55C477.88 236.291 485.793 228.534 493.395 220.931C501.618 212.708 509.376 205.106 517.909 203.864C518.84 203.709 519.926 203.554 521.012 203.399C537.769 201.227 572.368 196.882 571.903 171.282C571.747 163.835 567.869 159.491 564.766 157.318C559.49 153.595 551.888 152.509 545.682 154.681C540.251 156.387 534.976 158.715 529.856 161.042C521.788 164.766 514.806 167.869 509.221 167.403C505.342 167.093 501.308 165.541 496.808 163.835C487.81 160.421 476.483 156.232 458.796 158.404C433.816 161.663 423.731 175.316 420.008 183.229C415.043 193.779 415.198 205.726 420.628 214.415C420.628 214.415 420.628 214.57 420.783 214.57C426.679 228.379 444.522 240.946 460.192 240.946Z" fill="#F4F5FA"/>
<path d="M538.078 157.473C542.268 157.473 546.457 158.87 549.56 161.352C552.353 163.524 555.611 167.714 555.456 174.851C555.3 196.417 528.149 199.985 515.116 201.537C514.34 201.692 513.564 201.692 512.788 201.847C507.203 202.623 501.617 208.209 495.566 214.104C489.826 219.845 483.775 225.741 476.793 228.689C469.19 231.792 458.485 230.861 449.021 226.362C440.487 222.172 434.436 215.811 432.264 208.519C429.937 200.451 431.954 189.901 437.694 181.212C444.521 170.817 455.227 164.145 467.949 162.438C481.758 160.732 490.602 163.99 497.583 166.628C500.686 167.869 503.479 168.8 505.962 169.11C508.755 169.42 513.564 166.938 518.529 164.3C523.339 161.818 528.924 158.87 534.2 157.784C535.751 157.473 536.992 157.473 538.078 157.473ZM466.863 227.292C470.121 227.292 473.224 226.827 475.862 225.741C482.223 223.103 487.964 217.363 493.549 211.932C499.911 205.571 505.962 199.675 512.633 198.744C513.254 198.589 514.03 198.589 514.961 198.434C527.063 196.882 552.197 193.624 552.353 175.006C552.353 170.351 550.801 166.628 547.698 164.145C544.44 161.507 539.63 160.421 535.441 161.197C530.631 162.283 525.356 165.076 520.701 167.403C514.961 170.351 509.996 172.989 506.272 172.679C503.324 172.368 500.376 171.282 496.963 170.041C490.291 167.558 482.068 164.455 469.035 166.007C457.399 167.558 447.469 173.609 441.263 183.229C435.988 191.142 434.126 200.606 436.143 207.898C438.005 214.104 443.435 219.845 451.193 223.569C456.002 225.896 461.743 227.292 466.863 227.292Z" fill="#F4F5FA"/>
</g>
</svg>
