<svg width="131" height="333" viewBox="0 0 131 333" fill="none" xmlns="http://www.w3.org/2000/svg">
<path d="M24.675 299.154L23.0716 315.909H17.139L16.8184 299.394L24.675 299.154Z" fill="white"/>
<path d="M24.675 299.154L23.0716 315.909H17.139L16.8184 299.394L24.675 299.154Z" stroke="#273152" stroke-width="1.5" stroke-miterlimit="10" stroke-linecap="round" stroke-linejoin="round"/>
<path d="M23.3119 331.943C20.8267 332.184 16.3371 332.344 11.6873 331.542C10.1641 331.302 9.20202 329.699 9.60287 328.255C10.6451 324.407 12.5692 317.433 15.2949 313.504C15.6156 313.023 16.4173 313.023 16.738 313.584L17.219 314.466L18.5017 312.382C18.6621 312.141 18.9026 311.981 19.2233 311.901H21.3879C21.8689 311.821 22.3499 312.221 22.4301 312.702L22.7507 314.466L24.1136 313.264C24.4343 313.023 24.8352 313.183 24.8352 313.584L24.6748 320.399C24.5947 321.922 24.755 323.445 24.9955 324.968L25.717 328.977C25.7972 330.5 24.755 331.863 23.3119 331.943Z" fill="white"/>
<path d="M23.3119 331.943C20.8267 332.184 16.3371 332.344 11.6873 331.542C10.1641 331.302 9.20202 329.699 9.60287 328.255C10.6451 324.407 12.5692 317.433 15.2949 313.504C15.6156 313.023 16.4173 313.023 16.738 313.584L17.219 314.466L18.5017 312.382C18.6621 312.141 18.9026 311.981 19.2233 311.901H21.3879C21.8689 311.821 22.3499 312.221 22.4301 312.702L22.7507 314.466L24.1136 313.264C24.4343 313.023 24.8352 313.183 24.8352 313.584L24.6748 320.399C24.5947 321.922 24.755 323.445 24.9955 324.968L25.717 328.977C25.7972 330.5 24.755 331.863 23.3119 331.943Z" stroke="#273152" stroke-width="1.5" stroke-miterlimit="10" stroke-linecap="round" stroke-linejoin="round"/>
<path d="M10.9648 328.496C15.3742 329.618 18.4206 329.779 23.5515 328.496" stroke="#273152" stroke-width="1.5" stroke-miterlimit="10" stroke-linecap="round" stroke-linejoin="round"/>
<path d="M14.252 322.804H21.1466" stroke="#273152" stroke-width="1.5" stroke-miterlimit="10" stroke-linecap="round" stroke-linejoin="round"/>
<path d="M68.9297 301.399L71.0943 320.96L79.3518 322.724L78.7906 299.795L68.9297 301.399Z" fill="white"/>
<path d="M68.9297 301.399L71.0943 320.96L79.3518 322.724L78.7906 299.795L68.9297 301.399Z" stroke="#273152" stroke-width="1.5" stroke-miterlimit="10" stroke-linecap="round" stroke-linejoin="round"/>
<path d="M67.486 329.057C67.4058 326.011 67.486 320.559 69.5704 317.593L76.1443 319.918V318.475C76.1443 317.994 76.465 317.673 76.8659 317.593L80.5537 317.352C81.9166 317.272 83.2795 317.593 84.5622 318.154C88.25 319.998 96.0265 324.247 98.1911 328.656C98.8324 329.939 97.9506 331.382 96.5877 331.542C93.0602 331.943 84.8829 332.505 69.8109 331.302C68.5282 331.302 67.5662 330.34 67.486 329.057Z" fill="white"/>
<path d="M67.486 329.057C67.4058 326.011 67.486 320.559 69.5704 317.593L76.1443 319.918V318.475C76.1443 317.994 76.465 317.673 76.8659 317.593L80.5537 317.352C81.9166 317.272 83.2795 317.593 84.5622 318.154C88.25 319.998 96.0265 324.247 98.1911 328.656C98.8324 329.939 97.9506 331.382 96.5877 331.542C93.0602 331.943 84.8829 332.505 69.8109 331.302C68.5282 331.302 67.5662 330.34 67.486 329.057Z" stroke="#273152" stroke-width="1.5" stroke-miterlimit="10" stroke-linecap="round" stroke-linejoin="round"/>
<path d="M95.3045 328.897C95.2243 328.897 89.7728 329.859 81.5954 329.859C78.068 329.859 74.1396 329.699 69.8906 329.218" stroke="#273152" stroke-width="1.5" stroke-miterlimit="10" stroke-linecap="round" stroke-linejoin="round"/>
<path d="M80.4727 319.757L86.6457 324.327" stroke="#273152" stroke-width="1.5" stroke-miterlimit="10" stroke-linecap="round" stroke-linejoin="round"/>
<path d="M77.1062 191.566L69.5702 186.755L56.0215 194.051C56.0215 194.051 62.1144 197.979 69.1694 199.903C81.0345 203.19 77.1062 191.566 77.1062 191.566Z" fill="#273152"/>
<path d="M75.1092 175.415C75.1092 175.415 87.0545 256.788 84.4891 310.822L71.7421 311.143C71.7421 311.143 57.1511 228.648 50.1763 215.019C50.1763 215.019 30.9356 290.218 30.1339 310.02C30.1339 310.02 21.6358 310.902 18.2687 309.62C16.4248 290.539 16.1041 268.573 16.0239 256.146C15.7834 220.631 19.1506 204.517 20.9945 196.901C22.678 189.846 24.522 184.154 25.8848 180.305L30.3744 167.558L75.1092 175.415Z" fill="#5AD9AC"/>
<path d="M71.494 173.608C71.494 173.608 83.4393 254.98 80.8738 309.015L68.1268 309.335C68.1268 309.335 53.5359 226.84 46.5611 213.212C46.5611 213.212 27.3203 288.411 26.5186 308.213C26.5186 308.213 18.0206 309.095 14.6535 307.812C12.8096 288.732 12.4889 266.765 12.4087 254.339C12.1682 218.824 15.5353 202.709 17.3792 195.093C19.0628 188.038 20.9067 182.346 22.2696 178.498L26.7591 165.751L71.494 173.608Z" stroke="#273152" stroke-width="1.5" stroke-miterlimit="10" stroke-linecap="round" stroke-linejoin="round"/>
<path d="M56.3439 80.851L56.5844 93.3575C56.7447 94.8807 57.8671 96.1634 59.3903 96.5643L60.0317 96.9651C61.0739 97.2057 61.6351 97.4462 62.2764 99.7711L39.5082 97.1255C39.1875 96.4841 39.2677 95.6824 40.3099 95.6023L41.4323 95.3617C42.9555 95.0411 44.0779 93.8385 44.3184 92.3153L45.6813 76.3615L56.3439 80.851Z" fill="white"/>
<path d="M56.3439 80.851L56.5844 93.3575C56.7447 94.8807 57.8671 96.1634 59.3903 96.5643L60.0317 96.9651C61.0739 97.2057 61.6351 97.4462 62.2764 99.7711L39.5082 97.1255C39.1875 96.4841 39.2677 95.6824 40.3099 95.6023L41.4323 95.3617C42.9555 95.0411 44.0779 93.8385 44.3184 92.3153L45.6813 76.3615L56.3439 80.851Z" stroke="#273152" stroke-width="1.5" stroke-miterlimit="10" stroke-linecap="round" stroke-linejoin="round"/>
<path d="M62.5965 56.7198C59.4699 56.3992 61.9552 60.087 50.9719 56.0785C46.4824 54.3949 48.4866 59.9266 47.3642 59.5258C43.035 58.0026 41.3515 59.4456 40.3093 60.087C39.1067 60.8887 37.824 62.9731 37.9843 64.8972C38.2248 67.4626 41.592 68.4247 43.1954 73.9564C44.3178 77.8045 43.9169 80.1295 45.36 80.7708C46.8832 81.4122 48.1659 79.4079 49.8495 79.9691C52.0943 80.6907 51.4529 84.5388 53.5373 86.3026C54.9002 87.4249 58.0268 88.0663 63.318 85.8215C64.1999 85.4207 64.6809 84.5388 64.4404 83.657C64.1999 82.4544 63.8792 81.0113 63.3982 79.6485C61.3138 73.0745 59.069 71.5513 60.0311 69.8677C61.4741 67.3825 66.2042 69.066 67.1662 67.0618C68.0481 64.9774 66.7654 57.2009 62.5965 56.7198Z" fill="#273152"/>
<path d="M51.6129 71.2306C52.0138 72.0323 52.3345 72.834 52.575 73.7159C53.056 75.3193 53.9379 78.0451 54.5792 79.4881C55.3008 81.332 60.6722 79.889 62.3557 79.4079C62.5962 79.3278 62.7566 79.0071 62.6764 78.7666L62.1954 77.1632L63.4781 76.9227C63.6384 76.8425 63.7988 76.7623 63.8789 76.6822C64.1195 76.3615 64.1996 75.9606 63.9591 75.64C62.9169 73.9564 61.073 71.0703 60.2713 67.7031C60.1911 67.3824 59.8705 67.0618 59.5498 66.9816C58.3472 66.7411 55.4611 66.5006 52.575 68.2643C51.4526 68.8255 51.1319 70.1082 51.6129 71.2306Z" fill="white"/>
<path d="M51.6129 71.2306C52.0138 72.0323 52.3345 72.834 52.575 73.7159C53.056 75.3193 53.9379 78.0451 54.5792 79.4881C55.3008 81.332 60.6722 79.889 62.3557 79.4079C62.5962 79.3278 62.7566 79.0071 62.6764 78.7666L62.1954 77.1632L63.4781 76.9227C63.6384 76.8425 63.7988 76.7623 63.8789 76.6822C64.1195 76.3615 64.1996 75.9606 63.9591 75.64C62.9169 73.9564 61.073 71.0703 60.2713 67.7031C60.1911 67.3824 59.8705 67.0618 59.5498 66.9816C58.3472 66.7411 55.4611 66.5006 52.575 68.2643C51.4526 68.8255 51.1319 70.1082 51.6129 71.2306Z" stroke="#273152" stroke-width="1.5" stroke-miterlimit="10" stroke-linecap="round" stroke-linejoin="round"/>
<path d="M50.6512 77.083C47.3643 78.2054 46.3221 75.1589 47.0436 73.3952C47.3643 72.6737 48.4065 72.5935 48.8073 73.2349L50.8918 76.5218C50.9719 76.7623 50.8918 77.0028 50.6512 77.083Z" fill="white"/>
<path d="M123.525 68.3445C126.492 57.5215 131.142 58.0026 130.019 60.568C128.897 63.1334 126.251 72.0323 126.251 72.0323L123.525 68.3445Z" fill="white"/>
<path d="M123.525 68.3445C126.492 57.5215 131.142 58.0026 130.019 60.568C128.897 63.1334 126.251 72.0323 126.251 72.0323L123.525 68.3445Z" stroke="#273152" stroke-width="1.5" stroke-miterlimit="10" stroke-linecap="round" stroke-linejoin="round"/>
<path d="M127.053 70.5893C127.454 71.1504 128.336 72.353 128.015 73.5555C127.694 74.8383 125.209 79.0873 124.006 81.0915C123.605 81.8131 123.285 82.5346 123.205 83.3363C122.884 85.5009 122.243 94.0791 117.112 93.6782C114.947 93.5179 115.348 89.5094 116.23 84.5388C117.112 79.5683 115.989 81.6527 114.867 76.4417C113.745 71.2306 116.23 66.9816 117.272 66.5006C118.314 66.0196 119.677 67.7031 119.677 67.7031C119.677 67.7031 120.8 64.6567 122.563 64.9774C123.365 65.0575 123.926 66.2601 124.888 67.8635C125.77 69.3867 126.892 70.4289 127.053 70.5893Z" fill="white"/>
<path d="M127.053 70.5893C127.454 71.1504 128.336 72.353 128.015 73.5555C127.694 74.8383 125.209 79.0873 124.006 81.0915C123.605 81.8131 123.285 82.5346 123.205 83.3363C122.884 85.5009 122.243 94.0791 117.112 93.6782C114.947 93.5179 115.348 89.5094 116.23 84.5388C117.112 79.5683 115.989 81.6527 114.867 76.4417C113.745 71.2306 116.23 66.9816 117.272 66.5006C118.314 66.0196 119.677 67.7031 119.677 67.7031C119.677 67.7031 120.8 64.6567 122.563 64.9774C123.365 65.0575 123.926 66.2601 124.888 67.8635C125.77 69.3867 126.892 70.4289 127.053 70.5893Z" stroke="#273152" stroke-width="1.5" stroke-miterlimit="10" stroke-linecap="round" stroke-linejoin="round"/>
<path d="M119.677 67.8635C118.795 70.6694 118.073 73.315 119.837 75.8003C121.601 78.2856 123.364 77.0029 123.525 75.8003C123.765 74.6779 123.284 73.4754 122.082 72.1927" stroke="#273152" stroke-width="1.5" stroke-miterlimit="10" stroke-linecap="round" stroke-linejoin="round"/>
<path d="M28.3633 98.2479C28.3633 98.2479 43.9964 91.3533 67.9672 98.5686C91.8579 105.784 67.4862 145.548 67.4862 145.548H31.8106L28.3633 98.2479Z" fill="white"/>
<path d="M53.6971 108.109L59.0684 133.924L45.3594 133.763L50.0894 108.189L46.8826 101.856L50.5704 97.6065L53.2962 97.5264L56.5832 102.016L53.6971 108.109Z" fill="#5AD9AC"/>
<path d="M75.7436 99.9315C71.5747 97.9272 66.3637 96.1635 61.0725 95.1213C60.9121 95.1213 60.9121 95.2816 60.9923 95.6825C61.6337 98.8893 61.5535 102.096 60.6716 105.223L59.8699 108.109L52.4943 130.877L42.6334 107.868L41.8317 106.105C40.1481 102.417 39.6671 98.3281 40.1481 94.3196C40.1481 94.0791 40.1481 93.9187 40.1481 93.9187C36.2198 94.2394 32.532 94.8006 29.5657 95.6023C3.99146 102.417 -2.34197 119.333 0.704491 142.181C2.78891 157.814 16.3376 167.435 16.3376 167.435C16.3376 167.435 8.08013 193.65 11.7679 197.338C15.6161 201.186 28.6838 205.114 47.6841 196.777C49.528 195.975 53.6968 186.515 53.6968 186.515L53.777 186.836C54.4985 188.92 55.5407 190.844 56.9036 192.528L57.545 193.329C57.545 193.329 77.828 188.359 77.9082 195.975L75.9039 181.865C73.9798 168.477 73.3385 154.928 74.06 141.459L74.4609 134.004L108.613 130.476C108.613 130.396 97.5498 110.434 75.7436 99.9315Z" fill="#273152"/>
<path d="M125.69 88.1465L112.863 84.2181C112.863 84.2181 100.677 114.843 94.9051 118.371C89.1329 121.818 63.4785 129.675 63.4785 129.675C63.4785 129.675 76.466 143.624 92.6604 146.991C118.475 152.282 125.69 88.1465 125.69 88.1465Z" fill="#273152"/>
<path d="M42.2322 107.868C39.6667 103.299 37.5823 97.4462 40.3882 93.7584L44.3166 89.5895C44.3166 89.5895 46.401 96.0031 51.612 97.6065L42.2322 107.868Z" fill="white"/>
<path d="M42.2322 107.868C39.6667 103.299 37.5823 97.4462 40.3882 93.7584L44.3166 89.5895C44.3166 89.5895 46.401 96.0031 51.612 97.6065L42.2322 107.868Z" stroke="#273152" stroke-width="1.5" stroke-miterlimit="10" stroke-linecap="round" stroke-linejoin="round"/>
<path d="M52.4941 97.4462C56.0216 95.6023 56.663 89.9904 56.663 89.9904C56.663 89.9904 60.7516 93.0368 61.6335 97.4462C62.9162 104.02 60.2706 108.429 60.2706 108.429L52.4941 97.4462Z" fill="white"/>
<path d="M52.4941 97.4462C56.0216 95.6023 56.663 89.9904 56.663 89.9904C56.663 89.9904 60.7516 93.0368 61.6335 97.4462C62.9162 104.02 60.2706 108.429 60.2706 108.429L52.4941 97.4462Z" stroke="#273152" stroke-width="1.5" stroke-miterlimit="10" stroke-linecap="round" stroke-linejoin="round"/>
<path d="M121.441 177.536L118.715 186.114C117.913 188.76 114.065 190.363 107.331 190.443C93.9425 190.604 74.1405 184.431 62.6762 176.574C62.5158 176.414 62.2753 176.333 62.115 176.173C56.3427 172.084 54.0178 168.397 54.8195 165.671L57.5453 157.093C56.6634 159.818 59.0685 163.506 64.8408 167.595C65.0011 167.755 65.2416 167.835 65.402 167.996C76.8663 175.852 96.6682 182.025 110.057 181.865C116.791 181.785 120.639 180.101 121.441 177.536Z" fill="#5AD9AC"/>
<path d="M121.441 177.536L118.715 186.114C117.913 188.76 114.065 190.363 107.331 190.443C93.9425 190.604 74.1405 184.431 62.6762 176.574C62.5158 176.414 62.2753 176.333 62.115 176.173C56.3427 172.084 54.0178 168.397 54.8195 165.671L57.5453 157.093C56.6634 159.818 59.0685 163.506 64.8408 167.595C65.0011 167.755 65.2416 167.835 65.402 167.996C76.8663 175.852 96.6682 182.025 110.057 181.865C116.791 181.785 120.639 180.101 121.441 177.536Z" stroke="#273152" stroke-width="1.5" stroke-miterlimit="10" stroke-linecap="round" stroke-linejoin="round"/>
<path d="M113.664 166.633C113.824 166.793 114.064 166.873 114.225 167.034C125.609 175.051 123.765 181.705 110.136 181.865C96.7478 182.025 76.9458 175.852 65.4815 167.996C65.3211 167.835 65.0806 167.755 64.9203 167.595C53.5362 159.578 55.3801 152.924 69.009 152.763C82.3973 152.683 102.199 158.776 113.664 166.633Z" fill="white"/>
<path d="M113.664 166.633C113.824 166.793 114.064 166.873 114.225 167.034C125.609 175.051 123.765 181.705 110.136 181.865C96.7478 182.025 76.9458 175.852 65.4815 167.996C65.3211 167.835 65.0806 167.755 64.9203 167.595C53.5362 159.578 55.3801 152.924 69.009 152.763C82.3973 152.683 102.199 158.776 113.664 166.633Z" stroke="#273152" stroke-width="1.5" stroke-miterlimit="10" stroke-linecap="round" stroke-linejoin="round"/>
<path d="M109.496 169.519L110.137 171.203L106.129 170.481C106.449 171.603 106.129 172.245 105.648 172.726L100.276 171.363C100.597 171.042 101.318 170.401 100.837 169.118C100.597 168.637 100.196 168.236 99.7151 167.916C99.1539 167.595 98.3522 167.354 97.7108 167.194C96.1876 166.954 95.4661 167.354 94.5842 168.557C93.4618 170.241 91.2973 170.641 87.2086 169.92C84.4828 169.439 81.9174 168.557 79.9131 167.435C78.9511 166.873 78.0692 166.152 77.508 165.43L72.8582 164.629L72.2168 162.945L76.546 163.667C76.2253 162.544 76.6261 161.582 77.3477 161.101L82.8794 162.544C82.1579 163.105 81.5967 163.907 81.9975 165.029C82.238 165.51 82.6389 165.991 83.2803 166.392C83.8414 166.713 84.6431 167.034 85.4448 167.194C87.2086 167.515 88.0904 167.114 88.6516 166.072C89.5335 164.548 91.2972 163.667 95.7868 164.388C98.4324 164.869 100.918 165.671 102.762 166.793C103.724 167.354 104.525 167.996 105.086 168.637L109.496 169.519Z" fill="#5AD9AC"/>
<path d="M58.5867 180.582C58.5867 180.582 56.1816 180.502 51.6921 178.819C48.2448 177.536 50.6499 166.553 54.5782 170.08C57.8652 173.046 59.9496 173.608 59.9496 173.608L70.9329 170.641C72.0553 170.321 73.2578 170.962 73.5785 172.084C73.8992 173.207 73.2578 174.409 72.0553 174.73L67.1649 176.093C66.5236 176.253 66.2029 177.135 66.6839 177.616C67.4054 178.418 68.2873 179.139 69.2493 179.62C71.0131 180.582 74.0595 182.025 77.2663 183.228C78.7896 183.789 79.0301 185.713 77.5068 186.194L67.0848 185.713C64.4391 185.553 61.9539 184.431 60.2703 182.426L58.5867 180.582Z" fill="white"/>
<path d="M77.5075 186.916C77.4273 186.916 77.4273 186.916 77.5075 186.916L67.0854 186.435C64.2794 186.274 61.6338 184.992 59.7899 182.907L58.3469 181.304C57.5452 181.224 55.2202 180.903 51.5324 179.54C50.2497 179.059 49.5282 177.616 49.448 175.612C49.3678 173.046 50.3299 169.92 52.1738 169.038C52.735 168.797 53.8573 168.477 55.1401 169.679C57.7055 172.004 59.5494 172.806 60.0304 172.966L70.7732 170.08C72.2163 169.679 73.8197 170.561 74.2205 172.004C74.461 172.726 74.3007 173.527 73.98 174.169C73.5792 174.81 73.018 175.291 72.2964 175.532L67.4061 176.895C67.2457 176.895 67.2457 177.055 67.2457 177.055C67.2457 177.135 67.2457 177.215 67.3259 177.295C67.9673 178.097 68.769 178.658 69.6508 179.139C71.2542 179.941 74.3809 181.544 77.5877 182.667C78.6299 183.068 79.3514 183.95 79.3514 184.992C79.3514 185.874 78.7902 186.675 77.9083 186.916C77.6678 186.916 77.5876 186.916 77.5075 186.916ZM53.0556 170.08C52.8953 170.08 52.735 170.16 52.6548 170.16C51.5324 170.641 50.6505 173.207 50.7307 175.452C50.8109 176.895 51.2117 177.857 51.9333 178.177C56.2624 179.781 58.5874 179.861 58.6675 179.861C58.8279 179.861 59.0684 179.941 59.1486 180.101L60.752 181.945C62.3554 183.789 64.6803 184.912 67.0854 184.992L77.3471 185.473C77.6678 185.312 77.748 185.152 77.748 184.831C77.748 184.511 77.5075 184.03 76.9463 183.869C73.8197 182.747 70.7732 181.304 68.769 180.262C67.7267 179.701 66.8449 178.979 66.0432 178.097C65.6423 177.696 65.5622 177.055 65.7225 176.574C65.8828 176.013 66.2837 175.612 66.8449 175.452L71.7352 174.089C72.1361 174.008 72.4568 173.768 72.6171 173.367C72.7775 173.046 72.8576 172.646 72.7775 172.245C72.5369 171.523 71.7352 171.042 71.0137 171.203L60.1106 174.329C60.0304 174.329 59.8701 174.329 59.7097 174.329C59.6296 174.329 57.465 173.688 54.0979 170.641C53.6168 170.24 53.2961 170.08 53.0556 170.08Z" fill="#273152"/>
<path d="M14.4941 166.553C15.7769 167.595 34.9375 178.338 45.8406 178.979" stroke="#DAF6EC" stroke-width="1.5" stroke-miterlimit="10" stroke-linecap="round" stroke-linejoin="round"/>
<path d="M21.3887 136.729C27.4014 151.32 41.7518 162.544 53.2161 168.557" stroke="#DAF6EC" stroke-width="1.5" stroke-miterlimit="10" stroke-linecap="round" stroke-linejoin="round"/>
<path d="M11.7676 197.258C15.6157 201.106 28.6834 205.034 47.6837 196.697C49.5276 195.895 53.6965 186.435 53.6965 186.435L53.7766 186.755C54.4982 188.84 55.5404 190.764 56.9033 192.448L57.5446 193.249C57.5446 193.249 77.8276 188.279 77.9078 195.895" stroke="#DAF6EC" stroke-width="1.5" stroke-miterlimit="10" stroke-linecap="round" stroke-linejoin="round"/>
<path d="M47.0645 212.569C48.3297 207.78 53.029 205.34 55.469 204.888" stroke="#273152" stroke-width="1.5" stroke-miterlimit="10" stroke-linecap="round" stroke-linejoin="round"/>
<path d="M51.017 11.1512H50.9368C49.4136 11.1512 48.0507 10.5098 47.0085 9.38744C44.9241 7.14268 44.9241 3.6152 47.0887 1.53078C48.1309 0.48857 49.4938 -0.0726143 51.017 0.0075556C52.5402 0.0075556 53.9031 0.648913 54.9453 1.77129C57.0298 4.01605 57.0298 7.54353 54.8652 9.62795C53.7428 10.59 52.4601 11.1512 51.017 11.1512ZM50.8567 1.37044C49.8145 1.37044 48.7723 1.7713 48.0507 2.49283C46.4473 4.09623 46.3672 6.74183 47.9706 8.4254C48.7723 9.2271 49.8145 9.70812 50.9368 9.70812C51.9791 9.70812 53.0213 9.30727 53.823 8.58574C55.4264 6.98234 55.5065 4.33674 53.9031 2.65317C53.1014 1.85147 52.0592 1.37044 50.8567 1.37044C50.8567 1.37044 50.9368 1.37044 50.8567 1.37044Z" fill="#273152"/>
<path d="M58.1519 24.6198C57.0295 24.6198 56.0674 24.1387 55.3459 23.4172C53.9029 21.894 53.9029 19.4087 55.4261 17.9656C56.1476 17.2441 57.1097 16.8433 58.0717 16.9234C59.1139 16.9234 60.0759 17.4045 60.7975 18.126C62.2405 19.6492 62.2405 22.1345 60.7173 23.5775C60.0759 24.2189 59.1139 24.6198 58.1519 24.6198ZM58.0717 18.2863C57.4303 18.2863 56.8691 18.5268 56.3881 18.9277C55.4261 19.8897 55.4261 21.413 56.3881 22.4552C56.8691 22.9362 57.4303 23.1767 58.1519 23.2569C58.1519 23.2569 58.1519 23.2569 58.232 23.2569C58.8734 23.2569 59.4346 23.0164 59.9156 22.6155C60.8776 21.6535 60.8776 20.1302 59.9156 19.088C59.3544 18.607 58.7932 18.2863 58.0717 18.2863Z" fill="#273152"/>
</svg>
