<svg width="151" height="350" viewBox="0 0 151 350" fill="none" xmlns="http://www.w3.org/2000/svg">
<path d="M70.3346 122.705C67.3683 119.499 70.495 108.275 70.7355 104.266C70.976 99.5363 71.6975 94.7261 74.1026 90.6374C77.7102 84.5445 84.3643 83.1014 90.9383 84.2238C97.6726 85.3462 107.614 89.2745 108.255 97.2113C108.255 97.2113 108.816 103.785 116.192 105.95C123.567 108.114 134.39 107.874 138.319 115.731C142.247 123.587 134.15 127.676 138.158 132.085C142.087 136.495 149.062 138.499 148.661 145.233C148.099 154.132 118.437 161.427 96.7907 151.486C96.7907 151.647 70.4148 122.786 70.3346 122.705Z" fill="#273152"/>
<path d="M78.3504 309.822L70.9747 331.227L60.6328 330.666L68.0085 307.016L78.3504 309.822Z" fill="white"/>
<path d="M78.3504 309.822L70.9747 331.227L60.6328 330.666L68.0085 307.016L78.3504 309.822Z" stroke="#273152" stroke-width="1.5" stroke-miterlimit="10" stroke-linecap="round" stroke-linejoin="round"/>
<path d="M74.4221 341.97C74.4221 341.97 75.7048 331.468 72.0972 326.738L64.0802 329.384V327.78C64.0802 327.299 63.6793 326.898 63.1983 326.818L58.7088 326.578C57.0252 326.497 55.3417 326.818 53.8184 327.459C48.447 329.865 36.1009 336.038 36.5017 342.05C36.5017 342.05 46.2023 344.215 74.4221 341.97Z" fill="#5AD9AC"/>
<path d="M74.4221 341.97C74.4221 341.97 75.7048 331.468 72.0972 326.738L64.0802 329.384V327.78C64.0802 327.299 63.6794 326.898 63.1983 326.818L58.7088 326.578C57.0252 326.497 55.3417 326.818 53.8184 327.459C48.447 329.865 36.1009 336.038 36.5017 342.05C36.5017 342.05 46.2023 344.215 74.4221 341.97Z" stroke="#273152" stroke-width="1.5" stroke-miterlimit="10" stroke-linecap="round" stroke-linejoin="round"/>
<path d="M72.8194 339.886C68.6505 340.287 64.5619 340.527 60.7939 340.527C48.8485 340.527 39.629 338.844 39.5488 338.844" stroke="#273152" stroke-width="1.5" stroke-miterlimit="10" stroke-linecap="round" stroke-linejoin="round"/>
<path d="M50.6113 334.595L59.5102 328.822" stroke="#273152" stroke-width="1.5" stroke-miterlimit="10" stroke-linecap="round" stroke-linejoin="round"/>
<path d="M121.242 312.548L123.888 330.666H129.42L129.74 312.868L121.242 312.548Z" fill="white"/>
<path d="M121.242 312.548L123.888 330.666H129.42L129.74 312.868L121.242 312.548Z" stroke="#273152" stroke-width="1.5" stroke-miterlimit="10" stroke-linecap="round" stroke-linejoin="round"/>
<path d="M78.5103 193.095C78.5103 193.095 69.9322 248.572 69.6115 261.8C69.2908 275.028 66.084 308.619 66.084 308.619C66.084 308.619 73.5398 312.227 78.9112 312.147C78.9112 312.147 104.245 244.884 106.169 223.158C108.093 201.432 101.76 191.411 101.76 191.411L78.5103 193.095Z" fill="#273152"/>
<path d="M86.9277 189.567C86.9277 189.567 116.029 278.395 116.51 314.552C116.51 314.552 122.924 316.075 132.144 314.552C132.144 314.552 138.076 215.382 121 187.563L86.9277 189.567Z" fill="#273152"/>
<path d="M123.647 348.063C126.292 348.384 130.702 348.544 135.832 347.662C137.516 347.342 138.558 345.738 138.077 344.055C136.794 339.485 134.069 330.827 130.541 326.898L129.82 329.143L128.617 327.139C128.457 326.898 128.136 326.658 127.815 326.658L125.33 326.417C124.769 326.337 124.288 326.738 124.208 327.219L123.887 329.143L122.925 326.658L121.161 344.936C120.921 346.54 122.043 347.903 123.647 348.063Z" fill="#5AD9AC"/>
<path d="M123.647 348.063C126.292 348.384 130.702 348.544 135.832 347.662C137.516 347.342 138.558 345.738 138.077 344.055C136.794 339.485 134.069 330.827 130.541 326.898L129.82 329.143L128.617 327.139C128.457 326.898 128.136 326.658 127.815 326.658L125.33 326.417C124.769 326.337 124.288 326.738 124.208 327.219L123.887 329.143L122.925 326.658L121.161 344.936C120.921 346.54 122.043 347.903 123.647 348.063Z" stroke="#273152" stroke-width="1.5" stroke-miterlimit="10" stroke-linecap="round" stroke-linejoin="round"/>
<path d="M136.394 345.097C134.149 345.658 131.985 345.899 129.981 345.899C126.132 345.899 123.166 345.177 123.006 345.097" stroke="#273152" stroke-width="1.5" stroke-miterlimit="10" stroke-linecap="round" stroke-linejoin="round"/>
<path d="M125.57 338.122H132.946" stroke="#273152" stroke-width="1.5" stroke-miterlimit="10" stroke-linecap="round" stroke-linejoin="round"/>
<path d="M76.8137 194.538C76.8137 194.538 75.8516 212.736 79.4593 215.863C79.4593 215.863 89.0797 203.116 88.759 194.538H76.8137Z" fill="white"/>
<path d="M74.1027 194.538C74.1027 194.538 73.1407 212.736 76.7483 215.863C76.7483 215.863 86.3687 203.116 86.0481 194.538H74.1027Z" stroke="#273152" stroke-width="1.5" stroke-miterlimit="10" stroke-linecap="round" stroke-linejoin="round"/>
<path d="M91.6445 193.335C91.6445 193.335 96.3746 207.445 100.624 210.732C104.953 213.939 114.252 196.782 120.265 195.901C126.278 195.019 134.295 208.888 134.295 208.888C134.295 208.888 130.928 190.85 125.556 187.483L91.6445 193.335Z" fill="white"/>
<path d="M88.9336 193.335C88.9336 193.335 93.6636 207.445 97.9126 210.732C102.242 213.939 111.542 196.782 117.554 195.901C123.567 195.019 131.584 208.888 131.584 208.888C131.584 208.888 128.217 190.85 122.845 187.483L88.9336 193.335Z" stroke="#273152" stroke-width="1.5" stroke-miterlimit="10" stroke-linecap="round" stroke-linejoin="round"/>
<path d="M30.4093 115.089C30.0887 114.448 29.6077 113.807 28.8861 113.326L21.1898 106.19C21.1898 106.19 20.2278 109.638 21.4303 111.642C19.0252 111.722 17.1813 112.123 17.1813 112.123C17.1813 112.123 13.6538 108.996 12.772 108.515C11.8901 107.954 10.7677 107.152 9.56516 107.152C8.36261 107.152 7.24023 108.034 7.24023 108.034L13.9745 116.612L26.3207 119.98L28.8861 141.225L37.8652 132.887L30.4093 115.089Z" fill="white"/>
<path d="M30.4093 115.089C30.0887 114.448 29.6077 113.807 28.8861 113.326L21.1898 106.19C21.1898 106.19 20.2278 109.638 21.4303 111.642C19.0252 111.722 17.1813 112.123 17.1813 112.123C17.1813 112.123 13.6538 108.996 12.772 108.515C11.8901 107.954 10.7677 107.152 9.56516 107.152C8.36261 107.152 7.24023 108.034 7.24023 108.034L13.9745 116.612L26.3207 119.98L28.8861 141.225L37.8652 132.887L30.4093 115.089Z" stroke="#273152" stroke-width="1.5" stroke-miterlimit="10" stroke-linecap="round" stroke-linejoin="round"/>
<path d="M39.3087 128.237L17.0215 149.642L28.8065 159.744L47.7266 140.744L39.3087 128.237Z" fill="white"/>
<path d="M39.3087 128.237L17.0215 149.642L28.8065 159.744L47.7266 140.744L39.3087 128.237Z" stroke="#273152" stroke-width="1.5" stroke-miterlimit="10" stroke-linecap="round" stroke-linejoin="round"/>
<path d="M20.3086 158.862L46.0431 134.811C46.0431 134.811 49.4904 139.14 54.5412 139.14C59.5919 139.14 70.5751 124.068 70.5751 124.068L73.2208 155.174C73.1406 155.174 57.1868 182.673 20.3086 158.862Z" fill="#21BB91"/>
<path d="M70.5738 124.148C70.5738 124.148 77.2279 117.895 107.612 123.828C107.612 123.828 109.296 141.625 115.389 157.339C121.482 173.052 128.857 182.753 127.815 193.255C124.528 191.812 120.92 191.251 117.393 191.732L74.8228 197.424C72.0168 197.825 69.2911 195.901 68.7299 193.095C67.9282 189.166 67.2066 182.111 67.6876 169.685C67.9282 162.39 64.8817 136.334 70.5738 124.148Z" fill="#21BB91"/>
<path d="M125.01 164.073L117.955 176.74L110.82 172.812L98.5539 176.259C98.5539 176.259 100.638 178.985 106.571 176.58L97.5117 181.39C97.5117 181.39 100.238 183.154 105.689 179.706L100.478 183.955C100.478 183.955 104.647 182.673 106.892 182.432C109.136 182.191 109.136 182.192 109.136 182.192C109.136 182.192 111.622 182.272 113.546 182.993C115.47 183.715 118.276 184.116 121.162 183.154C124.048 182.111 124.048 182.111 124.048 182.111L132.786 168.803L125.01 164.073Z" fill="white"/>
<path d="M125.01 164.073L117.955 176.74L110.82 172.812L98.5539 176.259C98.5539 176.259 100.638 178.985 106.571 176.58L97.5117 181.39C97.5117 181.39 100.238 183.154 105.689 179.706L100.478 183.955C100.478 183.955 104.647 182.673 106.892 182.432C109.136 182.191 109.136 182.192 109.136 182.192C109.136 182.192 111.622 182.272 113.546 182.993C115.47 183.715 118.276 184.116 121.162 183.154C124.048 182.111 124.048 182.111 124.048 182.111L132.787 168.803L125.01 164.073Z" stroke="#273152" stroke-width="1.5" stroke-miterlimit="10" stroke-linecap="round" stroke-linejoin="round"/>
<path d="M125.01 154.854L121.402 163.672L142.006 177.141C142.006 177.141 146.255 165.436 146.496 160.706L125.01 154.854Z" fill="white"/>
<path d="M125.01 154.854L121.402 163.672L142.006 177.141C142.006 177.141 146.255 165.436 146.496 160.706L125.01 154.854Z" stroke="#273152" stroke-width="1.5" stroke-miterlimit="10" stroke-linecap="round" stroke-linejoin="round"/>
<path d="M105.127 142.748L118.756 148.44C121.642 149.642 123.085 152.849 122.203 155.816L121.882 156.778L148.98 166.879C148.98 166.879 152.748 154.132 146.575 142.748C140.402 131.364 107.612 123.748 107.612 123.748L105.127 142.748Z" fill="#21BB91"/>
<path d="M80.9965 106.11L83.9627 119.258L75.5449 122.224C75.5449 122.224 86.6886 128.959 103.043 122.866L94.465 118.296L88.7729 102.182L80.9965 106.11Z" fill="white"/>
<path d="M80.9965 106.11L83.9627 119.258L75.5449 122.224C75.5449 122.224 86.6886 128.959 103.043 122.866L94.465 118.296L88.7729 102.182L80.9965 106.11Z" stroke="#273152" stroke-width="1.5" stroke-miterlimit="10" stroke-linecap="round" stroke-linejoin="round"/>
<path d="M89.2534 106.11C89.2534 106.11 92.4602 106.992 93.0214 104.266C93.5826 101.54 90.9369 101.941 90.9369 101.941C90.9369 101.941 93.1817 95.8484 88.7723 95.6881C84.363 95.5278 80.9959 94.245 80.9959 94.245C80.9959 94.245 78.3503 100.178 77.7089 104.908C77.3882 107.794 77.7891 110.279 79.9536 110.84C86.0466 112.203 89.2534 106.11 89.2534 106.11Z" fill="white"/>
<path d="M89.2534 106.11C89.2534 106.11 92.4602 106.992 93.0214 104.266C93.5826 101.54 90.9369 101.941 90.9369 101.941C90.9369 101.941 93.1817 95.8484 88.7723 95.6881C84.363 95.5278 80.9959 94.245 80.9959 94.245C80.9959 94.245 78.3503 100.178 77.7089 104.908C77.3882 107.794 77.7891 110.279 79.9536 110.84C86.0466 112.203 89.2534 106.11 89.2534 106.11Z" stroke="#273152" stroke-width="1.5" stroke-miterlimit="10" stroke-linecap="round" stroke-linejoin="round"/>
<path d="M67.3676 160.465C67.1271 155.094 66.8866 148.44 67.2073 141.946" stroke="#273152" stroke-width="1.5" stroke-miterlimit="10" stroke-linecap="round" stroke-linejoin="round"/>
<path d="M75.0044 68.2955C80.4511 50.307 70.284 31.3089 52.2955 25.8622C34.307 20.4155 15.3089 30.5826 9.86219 48.5711C4.41545 66.5596 14.5826 85.5576 32.5711 91.0044C50.5596 96.4511 69.5577 86.284 75.0044 68.2955Z" fill="#273152"/>
<path d="M43.8847 90.4458C62.1305 90.4458 76.9217 75.6546 76.9217 57.4088C76.9217 39.163 62.1305 24.3718 43.8847 24.3718C25.6388 24.3718 10.8477 39.163 10.8477 57.4088C10.8477 75.6546 25.6388 90.4458 43.8847 90.4458Z" fill="#21BB91"/>
<path d="M43.882 85.1248C59.1891 85.1248 71.598 72.7159 71.598 57.4088C71.598 42.1017 59.1891 29.6928 43.882 29.6928C28.5749 29.6928 16.166 42.1017 16.166 57.4088C16.166 72.7159 28.5749 85.1248 43.882 85.1248Z" fill="white"/>
<path d="M43.882 85.1248C28.5622 85.1248 16.166 72.7286 16.166 57.4088C16.166 52.3217 17.5694 47.527 19.9667 43.4339" stroke="#273152" stroke-width="1.5" stroke-miterlimit="10" stroke-linecap="round" stroke-linejoin="round"/>
<path d="M70.6037 64.7763C69.7851 67.7 68.5572 70.3897 66.9199 72.8456" stroke="#273152" stroke-width="1.5" stroke-miterlimit="10" stroke-linecap="round" stroke-linejoin="round"/>
<path d="M21.2539 41.4458C26.2825 34.3121 34.5272 29.6928 43.8828 29.6928C55.051 29.6928 64.6406 36.3002 69.026 45.7728" stroke="#273152" stroke-width="1.5" stroke-miterlimit="10" stroke-linecap="round" stroke-linejoin="round"/>
<path d="M41.4858 76.2954V71.9685C38.4453 71.8515 35.4632 71.0329 33.709 69.9804L35.0538 64.6009C36.9834 65.6534 39.6732 66.589 42.6553 66.589C45.2865 66.589 47.0407 65.595 47.0407 63.7238C47.0407 61.9697 45.5789 60.8587 42.1875 59.7477C37.2758 58.1105 33.9429 55.8301 33.9429 51.3861C33.9429 47.3515 36.808 44.194 41.6613 43.2585V38.9315H46.1636V42.9661C49.2042 43.083 51.3092 43.7262 52.8295 44.4864L51.4846 49.632C50.3152 49.1057 48.2102 48.0532 44.8772 48.0532C41.8951 48.0532 40.9596 49.3396 40.9596 50.626C40.9596 52.1463 42.5383 53.0818 46.456 54.5437C51.8939 56.4732 54.1159 58.9876 54.1159 63.0807C54.1159 67.1737 51.2508 70.6236 45.9882 71.5592V76.237H41.4858V76.2954Z" fill="#21BB91"/>
<path d="M44.5731 4.97055C44.1722 4.97055 43.8516 4.64986 43.8516 4.24901V0.721535C43.8516 0.320685 44.1722 3.8147e-06 44.5731 3.8147e-06C44.9739 3.8147e-06 45.2946 0.320685 45.2946 0.721535V4.24901C45.2946 4.64986 44.9739 4.97055 44.5731 4.97055Z" fill="#273152"/>
<path d="M44.5731 13.1479C44.1722 13.1479 43.8516 12.8272 43.8516 12.4263V8.89886C43.8516 8.49801 44.1722 8.17733 44.5731 8.17733C44.9739 8.17733 45.2946 8.49801 45.2946 8.89886V12.4263C45.2946 12.8272 44.9739 13.1479 44.5731 13.1479Z" fill="#273152"/>
<path d="M42.249 7.29545H38.7215C38.3207 7.29545 38 6.97478 38 6.57393C38 6.17308 38.3207 5.85239 38.7215 5.85239H42.249C42.6499 5.85239 42.9705 6.17308 42.9705 6.57393C42.9705 6.97478 42.6499 7.29545 42.249 7.29545Z" fill="#273152"/>
<path d="M50.4267 7.29545H46.8993C46.4984 7.29545 46.1777 6.97478 46.1777 6.57393C46.1777 6.17308 46.4984 5.85239 46.8993 5.85239H50.4267C50.8276 5.85239 51.1483 6.17308 51.1483 6.57393C51.1483 6.97478 50.8276 7.29545 50.4267 7.29545Z" fill="#273152"/>
<path d="M121.573 71.9705C121.172 71.9705 120.852 71.6499 120.852 71.249V67.7215C120.852 67.3207 121.172 67 121.573 67C121.974 67 122.295 67.3207 122.295 67.7215V71.249C122.295 71.6499 121.974 71.9705 121.573 71.9705Z" fill="#273152"/>
<path d="M121.573 80.228C121.172 80.228 120.852 79.9073 120.852 79.5065V75.979C120.852 75.5782 121.172 75.2575 121.573 75.2575C121.974 75.2575 122.295 75.5782 122.295 75.979V79.5065C122.295 79.9073 121.974 80.228 121.573 80.228Z" fill="#273152"/>
<path d="M119.249 74.2955H115.722C115.321 74.2955 115 73.9748 115 73.5739C115 73.1731 115.321 72.8524 115.722 72.8524H119.249C119.65 72.8524 119.971 73.1731 119.971 73.5739C119.971 73.9748 119.65 74.2955 119.249 74.2955Z" fill="#273152"/>
<path d="M127.507 74.2955H123.979C123.579 74.2955 123.258 73.9748 123.258 73.5739C123.258 73.1731 123.579 72.8524 123.979 72.8524H127.507C127.908 72.8524 128.228 73.1731 128.228 73.5739C128.228 73.9748 127.908 74.2955 127.507 74.2955Z" fill="#273152"/>
</svg>
