<svg width="750" height="358" viewBox="0 0 750 358" fill="none" xmlns="http://www.w3.org/2000/svg">
<mask id="mask0" mask-type="alpha" maskUnits="userSpaceOnUse" x="0" y="0" width="750" height="358">
<rect width="750" height="358" fill="white"/>
</mask>
<g mask="url(#mask0)">
<path d="M-276.235 -278.538C-310.213 -278.538 -342.474 -270.903 -369.771 -256.204C-389.241 -245.896 -404.894 -232.725 -416.729 -217.072C-428.946 -200.655 -436.2 -182.33 -438.109 -162.668C-442.499 -114.946 -430.664 -73.1414 -402.604 -38.3997C-378.933 -8.81183 -343.046 16.3855 -296.278 36.4289C-211.524 72.8887 -109.971 85.8691 -42.7777 94.2682C-33.615 95.4136 -25.025 96.5589 -17.5803 97.5134C39.4955 105.34 91.2264 158.025 146.203 213.765C205.378 274.086 266.654 336.507 343.582 354.45C381.951 363.422 416.692 355.405 450.098 330.207C479.495 307.873 503.929 275.422 527.79 243.925C554.896 208.038 580.666 174.06 610.826 158.407C656.258 135.119 694.818 99.6132 719.633 58.3811C732.232 37.5742 741.013 16.0037 745.785 -6.1394C750.748 -29.0461 751.321 -51.7619 747.503 -73.7141C743.494 -96.8117 734.523 -118.764 720.969 -138.998C706.462 -160.569 686.8 -180.039 662.367 -197.219C607.963 -235.206 531.226 -260.976 433.872 -273.384C296.432 -290.946 209.387 -258.113 139.521 -231.579C106.116 -218.981 77.2915 -208.1 49.4217 -205.428C-16.8168 -199.128 -71.2202 -198.556 -167.047 -250.668C-200.261 -268.803 -237.485 -278.538 -274.517 -278.92C-274.708 -278.538 -275.471 -278.538 -276.235 -278.538ZM-435.055 -162.478C-431.619 -199.701 -407.185 -232.916 -368.434 -253.532C-309.45 -285.028 -232.521 -282.738 -168.001 -247.614C-71.4111 -195.12 -16.6259 -195.501 50.1853 -201.992C78.4368 -204.664 107.452 -215.736 141.048 -228.334C210.532 -254.677 297.196 -287.319 433.872 -269.948C530.653 -257.54 607.009 -232.152 660.839 -194.356C707.416 -161.714 736.431 -119.718 744.64 -72.9506C759.72 13.1404 704.171 107.249 609.49 155.735C578.566 171.578 552.796 205.747 525.308 242.016C477.395 305.392 427.764 371.057 344.154 351.396C268.181 333.643 207.096 271.604 148.111 211.474C92.9445 155.353 40.8317 102.286 -17.3895 94.2682C-25.025 93.3138 -33.615 92.1685 -42.5868 91.0232C-109.589 82.4331 -210.951 69.6436 -295.324 33.3746C-396.113 -9.95718 -443.263 -75.8139 -435.055 -162.478Z" fill="#EBEDF5"/>
<path d="M-259.055 -269.566C-291.506 -269.566 -322.621 -262.122 -348.773 -248.187C-367.289 -238.26 -382.56 -225.662 -393.823 -210.581C-405.658 -194.738 -412.53 -177.176 -414.248 -158.278C-418.447 -112.655 -406.994 -72.5687 -380.079 -38.9722C-357.363 -10.7206 -323.003 13.5223 -278.144 32.8021C-196.825 67.7348 -99.6627 80.1425 -35.1422 88.3508C-26.3612 89.4961 -18.153 90.4506 -11.0901 91.405C43.695 98.8497 93.3262 149.435 145.821 202.884C202.706 260.724 261.309 320.281 334.992 337.652C371.833 346.433 405.43 338.797 437.881 314.363C466.323 292.984 489.994 261.678 512.9 231.518C538.861 197.348 563.486 165.088 592.119 150.008C635.451 127.674 672.102 93.5048 695.772 53.9908C707.607 34.1383 716.006 13.3314 720.588 -7.8573C725.36 -29.8095 725.742 -51.5709 722.115 -72.5687C718.297 -94.7119 709.707 -115.71 696.727 -135.18C682.983 -155.796 664.084 -174.694 640.605 -190.92C588.492 -227.38 515 -252.004 421.846 -263.84C290.133 -280.638 206.714 -249.141 139.903 -223.753C107.834 -211.727 80.3458 -201.228 53.6213 -198.556C-9.56299 -192.447 -61.2939 -192.065 -154.066 -242.46C-185.754 -259.64 -221.45 -268.994 -256.955 -269.375C-257.719 -269.566 -258.292 -269.566 -259.055 -269.566ZM364.007 338.034C355.035 338.034 345.682 336.888 335.755 334.598C263.027 317.418 204.615 258.051 148.111 200.594C95.2351 146.763 45.2222 95.9863 -10.5175 88.3508C-17.7712 87.3963 -25.9795 86.251 -34.7604 85.2966C-98.8991 77.0883 -196.062 64.8715 -276.808 29.9388C-373.589 -11.6751 -418.638 -74.8593 -411.003 -157.896C-407.758 -193.592 -384.469 -225.471 -347.246 -245.323C-291.697 -274.911 -216.487 -272.811 -155.593 -239.788C-111.689 -215.926 -74.4653 -202.182 -38.3873 -196.265C-4.40903 -190.729 24.6061 -192.829 54.003 -195.501C81.1093 -198.174 108.979 -208.673 141.048 -220.89C207.669 -246.087 290.515 -277.393 421.655 -260.785C514.237 -248.95 587.347 -224.707 638.887 -188.438C683.555 -157.133 711.234 -116.855 719.251 -71.996C733.759 10.468 681.074 100.568 590.974 147.145C561.577 162.416 536.952 195.058 510.61 229.609C469.759 282.867 427.955 338.034 364.007 338.034Z" fill="#EBEDF5"/>
<path d="M-241.684 -260.594C-272.799 -260.594 -302.387 -253.531 -327.584 -240.169C-345.337 -230.625 -359.845 -218.408 -370.534 -204.091C-381.797 -189.011 -388.287 -172.022 -390.005 -153.887C-394.014 -110.174 -383.133 -71.8051 -357.363 -39.7357C-335.602 -12.6295 -302.769 10.4681 -259.819 28.9843C-182.127 62.3899 -89.1638 74.225 -27.5066 82.0515C-19.1075 83.1968 -11.281 84.1513 -4.409 85.1057C47.8946 92.1686 95.426 140.464 145.63 191.622C200.033 246.789 256.155 304.055 326.593 320.663C362.098 329.062 394.358 321.808 425.664 298.329C452.961 277.713 476.059 247.743 498.202 218.728C523.018 186.277 546.497 155.544 573.603 141.227C614.644 119.848 649.768 87.0146 672.102 49.2186C695.391 9.89542 703.98 -31.9093 696.727 -71.8051C688.9 -115.519 661.794 -154.842 618.462 -185.193C568.64 -220.126 498.393 -243.605 409.439 -254.868C283.452 -270.902 203.66 -240.742 139.712 -216.69C109.17 -205.046 82.6364 -195.119 57.2482 -192.638C-0.782104 -187.102 -52.3222 -186.72 -141.849 -235.015C-172.201 -251.432 -206.179 -260.213 -239.966 -260.594C-240.539 -260.594 -241.112 -260.594 -241.684 -260.594ZM354.463 320.854C345.872 320.854 336.71 319.708 327.165 317.609C257.682 301.192 201.751 244.307 147.73 189.522C97.144 137.982 49.2308 89.3053 -4.21811 82.0515C-11.0901 81.097 -18.9166 80.1426 -27.3157 78.9973C-88.782 71.1708 -181.554 59.3357 -258.673 26.121C-351.064 -13.7748 -394.205 -74.0958 -386.951 -153.315C-383.706 -187.484 -361.563 -218.026 -326.057 -237.115C-301.051 -250.477 -272.036 -257.158 -242.066 -257.158C-208.469 -257.158 -173.919 -248.759 -143.185 -232.152C-52.8948 -183.475 -0.972961 -183.857 57.63 -189.393C83.5909 -191.874 110.124 -201.991 141.048 -213.636C204.805 -237.688 284.024 -267.657 409.248 -251.623C497.629 -240.36 567.304 -217.072 616.744 -182.521C659.312 -152.551 686.037 -114.182 693.672 -71.2324C707.798 7.41388 657.785 93.5048 572.076 138.364C544.397 153.253 520.727 183.986 495.53 216.819C456.206 267.977 415.738 320.854 354.463 320.854Z" fill="#EBEDF5"/>
<path d="M-224.313 -251.432C-254.092 -251.432 -282.344 -244.56 -306.396 -231.77C-323.385 -222.608 -337.129 -210.963 -347.437 -197.219C-358.126 -182.712 -364.426 -166.486 -366.144 -149.115C-369.962 -107.311 -359.463 -70.6599 -334.838 -40.1177C-314.031 -14.3477 -282.725 7.79547 -241.684 25.3573C-167.619 57.2357 -78.8558 68.4982 -20.062 75.9429C-12.0446 76.8973 -4.59995 77.8518 1.89029 78.8062C51.7123 85.6782 97.1439 131.682 145.248 180.55C197.17 233.236 250.619 287.83 317.812 303.674C351.79 311.691 383.096 304.819 413.065 282.294C439.408 262.632 461.551 233.808 483.122 205.938C506.792 175.205 529.126 146.381 554.705 132.255C593.646 111.639 626.861 80.5242 648.05 44.2553C670.002 6.65015 678.019 -33.2457 671.147 -71.2326C663.512 -113.037 637.742 -150.452 596.319 -179.467C548.787 -212.872 481.785 -235.206 397.031 -246.087C373.551 -249.141 351.599 -250.477 331.365 -250.477C247.565 -250.477 188.771 -228.143 139.712 -209.627C110.506 -198.556 85.3088 -189.011 61.0659 -186.72C6.08984 -181.376 -42.7778 -181.185 -129.251 -227.571C-158.075 -243.224 -190.526 -251.432 -222.786 -251.814C-223.359 -251.432 -223.931 -251.432 -224.313 -251.432ZM344.918 303.674C336.519 303.674 327.738 302.719 318.575 300.428C252.337 284.585 199.079 230.563 147.539 178.069C99.0528 128.819 53.4303 82.4331 2.46295 75.3702C-4.21817 74.4158 -11.6628 73.4613 -19.4893 72.5069C-78.0922 65.0622 -166.474 53.7997 -240.348 22.1122C-328.539 -15.8748 -369.771 -73.5233 -362.708 -149.115C-359.654 -181.757 -338.656 -210.963 -304.678 -229.098C-254.283 -256.204 -186.135 -254.295 -130.778 -224.517C-43.5413 -177.558 5.89899 -177.94 61.4477 -183.284C86.2633 -185.575 111.651 -195.311 141.048 -206.382C201.751 -229.289 277.534 -257.922 397.031 -242.651C481.213 -231.961 547.642 -209.627 594.792 -176.603C635.451 -148.161 660.839 -111.319 668.284 -70.4691C681.837 4.35947 634.688 86.6327 553.56 129.392C527.408 143.709 504.883 172.915 481.022 203.839C442.653 253.088 403.712 303.674 344.918 303.674Z" fill="#EBEDF5"/>
<path d="M-206.942 -242.46C-235.385 -242.46 -262.3 -235.97 -285.207 -223.753C-301.432 -214.972 -314.604 -203.9 -324.339 -190.729C-334.647 -176.794 -340.565 -161.523 -342.092 -144.916C-345.719 -105.211 -335.602 -70.2781 -312.313 -41.0721C-292.461 -16.4474 -262.682 4.55045 -223.55 21.3487C-152.921 51.7 -68.5477 62.5807 -12.6172 69.6436C-4.98166 70.598 2.08121 71.5525 8.38055 72.3161C55.9119 78.8063 99.0529 122.711 144.866 169.288C194.307 219.492 245.274 271.413 309.222 286.684C341.864 294.511 371.833 287.83 400.848 266.259C426.237 247.361 447.616 219.873 468.232 193.149C490.757 164.325 511.755 137.027 535.807 123.474C572.649 103.813 603.954 74.034 623.998 39.674C644.805 3.97775 652.249 -34.0092 645.568 -70.2781C638.315 -110.174 613.499 -145.87 574.176 -173.549C528.935 -205.237 465.178 -226.616 384.623 -236.924C362.289 -239.788 341.482 -241.124 322.011 -241.124C242.22 -241.124 186.289 -219.935 139.521 -202.182C111.842 -191.684 87.7904 -182.521 64.6928 -180.421C14.489 -175.649 -33.8059 -175.267 -117.034 -219.744C-144.522 -234.443 -175.255 -242.46 -205.797 -242.651C-206.179 -242.46 -206.561 -242.46 -206.942 -242.46ZM335.374 286.684C327.356 286.684 318.957 285.73 310.176 283.63C247.183 268.55 196.406 217.01 147.348 167.188C101.153 120.229 57.6299 75.9429 8.95325 69.2618C2.6539 68.4983 -4.409 67.5438 -12.0446 66.5894C-67.7842 59.5265 -151.966 48.8367 -222.213 18.6762C-306.014 -17.4018 -345.337 -72.3779 -338.847 -144.343C-335.983 -176.031 -316.513 -203.137 -283.68 -220.699C-235.957 -246.469 -171.055 -244.751 -118.752 -216.69C-34.5695 -171.831 14.1072 -172.213 64.8837 -176.985C88.554 -179.276 112.606 -188.438 140.667 -198.937C198.506 -220.89 270.471 -247.996 384.241 -233.488C464.224 -223.371 527.408 -202.182 572.267 -170.686C611.017 -143.579 635.26 -108.647 642.323 -69.5145C655.304 1.6871 611.017 79.9516 534.28 120.802C509.655 134.546 488.276 162.034 465.56 191.24C429.1 238.199 391.495 286.684 335.374 286.684Z" fill="#EBEDF5"/>
<path d="M-189.762 -233.297C-216.678 -233.297 -242.448 -227.189 -264.209 -215.354C-279.671 -207.146 -292.079 -196.456 -301.432 -183.857C-311.168 -170.686 -316.895 -155.987 -318.231 -140.144C-321.667 -102.348 -312.122 -69.1329 -289.788 -41.4539C-270.89 -17.9746 -242.639 1.8779 -205.606 17.9126C-138.604 46.7368 -58.2398 57.0448 -5.17261 63.726C1.89029 64.6804 8.7623 65.444 14.6799 66.3984C59.7297 72.5069 100.962 114.312 144.294 158.407C191.252 206.129 239.738 255.379 300.441 269.886C331.556 277.331 360.38 271.032 388.25 250.415C412.684 232.281 433.3 205.938 453.152 180.55C474.341 153.444 494.384 127.865 516.909 114.884C551.651 96.1771 581.239 67.7346 599.755 35.0926C619.226 1.11435 626.098 -34.9637 619.607 -69.3237C612.544 -107.311 589.065 -141.289 551.651 -167.441C508.701 -197.601 448.189 -217.835 371.833 -227.571C350.454 -230.243 330.792 -231.389 312.276 -231.389C236.493 -231.389 183.426 -211.345 138.949 -194.356C112.606 -184.43 89.8902 -175.84 67.747 -173.74C20.5974 -169.159 -25.0251 -168.968 -105.199 -211.536C-131.159 -225.471 -160.175 -232.916 -189.19 -233.107C-189.19 -233.298 -189.381 -233.297 -189.762 -233.297ZM325.829 269.504C318.194 269.504 309.985 268.55 301.586 266.45C241.838 252.133 193.734 203.075 147.157 155.734C103.252 111.066 61.8295 69.0708 15.6343 62.7715C9.71674 62.0079 2.84476 61.0535 -4.21814 60.099C-57.0944 53.4179 -137.077 43.3008 -203.697 14.4766C-283.298 -19.8835 -320.521 -71.8053 -314.413 -140.144C-311.741 -170.304 -293.224 -196.074 -262.109 -212.681C-240.539 -224.326 -215.532 -230.052 -189.762 -230.052C-161.32 -230.052 -132.114 -222.989 -105.962 -209.055C-69.1205 -189.584 -38.1964 -177.94 -8.22684 -172.595C20.7883 -167.441 45.9857 -168.777 68.8924 -170.877C91.4173 -172.977 114.324 -181.757 140.858 -191.684C195.834 -212.491 264.172 -238.261 372.215 -224.517C447.998 -214.781 507.937 -194.738 550.506 -164.959C587.156 -139.189 610.254 -105.974 617.126 -68.942C629.725 -1.55811 588.111 72.6977 515.955 111.83C492.857 125.001 472.623 150.962 451.243 178.259C415.738 223.309 379.469 269.504 325.829 269.504Z" fill="#EBEDF5"/>
<path d="M-172.392 -224.326C-197.971 -224.326 -222.404 -218.408 -243.02 -207.337C-257.528 -199.51 -269.363 -189.393 -278.144 -177.367C-287.307 -164.768 -292.652 -150.833 -293.988 -135.753C-297.233 -99.866 -288.07 -68.5602 -266.882 -42.2175C-249.129 -20.0743 -222.214 -1.17633 -187.09 14.0948C-123.524 41.3919 -47.55 51.1273 2.65378 57.4266C9.3349 58.3811 15.8251 59.1446 21.3609 59.9082C64.1201 65.8257 103.061 105.34 144.293 147.144C188.771 192.194 234.584 238.962 292.042 252.897C321.82 260.151 349.308 254.042 376.224 234.381C399.703 217.201 419.556 192.003 438.644 167.761C458.688 142.372 477.586 118.511 498.393 106.103C567.304 68.3073 606.818 -3.46701 594.41 -68.5602C587.538 -104.638 565.204 -136.708 529.699 -161.714C489.039 -190.347 431.772 -209.436 359.616 -218.79C339.382 -221.462 320.675 -222.417 303.304 -222.417C231.53 -222.417 181.135 -203.328 138.949 -187.484C113.942 -178.13 92.3716 -169.922 71.5648 -167.823C28.9965 -163.814 -15.6716 -163.432 -92.7908 -204.091C-117.415 -217.263 -144.713 -224.135 -172.201 -224.326C-172.01 -224.326 -172.201 -224.326 -172.392 -224.326ZM316.285 252.515C308.84 252.515 301.204 251.561 292.996 249.652C236.493 235.908 190.87 189.713 146.775 144.854C105.161 102.476 65.8381 62.5806 21.9336 56.6631C16.2069 55.8995 9.90759 55.1359 3.03558 54.1815C-46.9774 47.8822 -122.76 38.1468 -185.754 11.0406C-261.155 -21.4106 -296.279 -70.6599 -290.552 -135.371C-288.07 -164.005 -270.508 -188.439 -241.302 -204.282C-220.877 -215.354 -197.207 -220.699 -172.773 -220.699C-146.049 -220.699 -118.561 -214.209 -94.127 -201.037C-59.1943 -182.521 -29.6065 -171.449 -1.35489 -166.295C26.7058 -161.141 50.5669 -162.287 72.1374 -164.387C93.3261 -166.486 115.087 -174.695 140.285 -184.239C192.207 -203.901 257.109 -228.334 359.235 -215.354C430.818 -206.191 487.512 -187.293 527.79 -158.851C562.531 -134.417 584.484 -102.92 590.974 -67.7966C603 -4.23056 564.25 66.2075 496.484 103.24C474.913 115.839 455.824 140.082 435.781 165.661C402.185 208.42 367.443 252.515 316.285 252.515Z" fill="#EBEDF5"/>
<path d="M-155.02 -215.354C-179.263 -215.354 -202.361 -209.818 -221.641 -199.128C-235.385 -191.684 -246.647 -182.139 -254.855 -170.686C-263.636 -158.851 -268.599 -145.488 -269.936 -131.172C-272.99 -97.3844 -264.4 -67.6057 -244.356 -42.7901C-227.558 -21.7923 -202.17 -4.03963 -168.955 10.2771C-109.016 36.0471 -37.2418 45.2098 10.0987 51.3182C16.398 52.0818 22.5065 52.8453 27.8514 53.6089C68.129 59.1447 104.971 96.5589 143.912 136.073C185.908 178.641 229.239 222.546 283.452 235.908C311.894 242.78 338.237 237.053 363.816 218.346C386.341 201.93 405.239 178.069 423.755 154.971C442.463 131.492 460.215 109.158 479.495 97.5134C543.825 61.6262 580.666 -6.13939 568.831 -67.6057C562.341 -101.584 541.152 -132.126 507.556 -155.606C469.187 -182.712 415.165 -200.846 347.209 -209.436C328.12 -211.918 310.558 -212.872 293.951 -212.872C226.185 -212.872 178.654 -194.929 138.758 -179.848C115.279 -170.877 94.8535 -163.241 75.1919 -161.332C27.4696 -156.751 -13.3806 -160.95 -80.5736 -196.074C-103.671 -208.291 -129.441 -214.781 -155.211 -214.972C-154.829 -215.354 -155.02 -215.354 -155.02 -215.354ZM306.549 235.335C299.487 235.335 292.042 234.381 284.215 232.472C230.957 219.491 187.816 175.778 146.203 133.591C106.879 93.6956 69.6561 55.8995 28.2332 50.1729C22.8883 49.4093 16.7798 48.6458 10.4805 47.8822C-36.86 41.9646 -108.253 32.802 -167.619 7.22282C-238.63 -23.3194 -272.035 -69.8964 -266.5 -130.79C-264.209 -157.896 -247.602 -180.994 -220.114 -196.074C-200.834 -206.573 -178.5 -211.727 -155.402 -211.727C-130.396 -211.727 -104.626 -205.618 -81.719 -193.402C-13.7625 -157.896 27.4696 -153.506 75.9554 -158.278C95.9988 -160.187 116.615 -168.013 140.285 -176.985C189.344 -195.501 250.428 -218.599 347.018 -206.382C414.402 -197.792 467.66 -179.848 505.647 -153.124C538.48 -130.026 559.096 -100.439 565.586 -67.2239C577.039 -7.28473 541.152 59.1447 477.968 94.2683C458.115 106.294 440.172 128.819 421.274 152.68C388.823 193.34 355.417 235.335 306.549 235.335Z" fill="#EBEDF5"/>
<path d="M-137.65 -206.191C-160.556 -206.191 -182.318 -200.846 -200.452 -190.92C-227.367 -176.221 -243.593 -153.315 -245.884 -126.59C-251.038 -67.6056 -218.968 -22.7467 -150.63 6.65024C-94.3177 30.8931 -26.743 39.4832 17.925 45.2099C23.8426 45.9734 29.5693 46.737 34.5324 47.3096C72.5193 52.4636 107.07 87.5872 143.721 124.811C183.235 164.897 224.085 206.32 275.053 218.919C335.374 233.808 374.697 184.941 409.248 141.991C426.619 120.229 443.226 99.8041 460.979 88.5417C520.918 54.5634 554.896 -9.38443 543.634 -67.0329C537.334 -99.1023 517.291 -127.927 485.794 -150.07C449.525 -175.458 398.94 -192.638 335.374 -200.655C317.43 -202.946 300.823 -203.9 285.361 -203.9C221.604 -203.9 176.745 -186.911 139.331 -172.785C117.187 -164.386 98.0985 -157.133 79.5822 -155.415C36.4413 -151.215 -3.26364 -155.415 -67.4024 -188.82C-89.3546 -200.274 -113.598 -206.191 -137.65 -206.191ZM296.432 218.155C289.751 218.155 282.879 217.392 275.625 215.483C225.612 203.075 185.144 162.034 146.012 122.329C108.979 84.7239 73.8555 49.0276 34.7233 43.6827C29.7602 42.9192 24.0335 42.3465 18.1159 41.5829C-26.3612 35.8563 -93.5542 27.4572 -149.485 3.21425C-216.296 -25.61 -247.602 -69.1327 -242.639 -126.59C-240.539 -152.169 -225.077 -173.931 -199.116 -188.057C-161.702 -208.482 -110.734 -207.718 -69.5021 -185.766C-4.59985 -151.979 35.6777 -147.779 79.3914 -151.979C98.2894 -153.887 117.569 -161.141 140.094 -169.54C186.289 -186.911 243.747 -208.673 334.419 -197.219C397.603 -189.202 447.616 -172.404 483.313 -147.206C514.046 -125.445 533.707 -97.5752 539.816 -66.2694C550.887 -10.148 517.673 52.2727 458.879 85.4874C440.553 96.9408 423.946 117.748 406.193 139.7C376.606 176.732 343.391 218.155 296.432 218.155Z" fill="#EBEDF5"/>
<path d="M-120.279 -197.219C-120.47 -197.219 -120.47 -197.219 -120.661 -197.219C-142.04 -197.219 -162.275 -192.256 -179.264 -182.712C-204.652 -168.777 -219.732 -147.206 -221.832 -122.009C-226.604 -66.6512 -196.444 -24.6556 -132.496 3.02336C-79.6196 25.7392 -16.4353 33.7565 25.3694 39.1014C30.9052 39.8649 36.25 40.4376 41.0223 41.2012C76.5276 45.9734 108.979 78.9972 143.53 113.93C180.562 151.535 218.74 190.286 266.462 202.121C323.729 216.437 361.334 170.051 394.549 129.201C410.774 109.349 426.046 90.4506 442.271 79.9517C468.614 64.6805 490.757 42.1556 504.501 16.3856C518.818 -10.5298 523.59 -38.9722 518.054 -65.8876C511.946 -96.0481 493.238 -122.963 463.651 -143.77C429.482 -168.013 382.141 -184.048 322.584 -191.493C236.684 -202.373 182.471 -181.948 138.758 -165.341C117.951 -157.514 100.007 -150.642 82.827 -149.115C43.122 -145.297 6.08957 -149.306 -55.5676 -180.994C-75.4201 -191.684 -97.945 -197.219 -120.279 -197.219ZM287.078 201.166C280.779 201.166 274.098 200.403 267.226 198.685C220.458 187.04 182.471 148.672 145.82 111.448C110.888 76.1339 78.0547 42.7283 41.4041 37.5743C36.6318 37.0016 31.4778 36.2381 25.7511 35.4745C-15.8627 30.1296 -78.6652 22.1123 -131.16 -0.412643C-193.58 -27.328 -222.977 -68.1783 -218.396 -121.818C-216.487 -145.87 -201.98 -166.295 -177.737 -179.658C-142.804 -198.746 -95.4634 -198.174 -57.0947 -177.939C5.13515 -145.87 42.7403 -141.861 83.2088 -145.679C100.961 -147.397 119.096 -154.269 140.094 -162.096C183.426 -178.512 237.256 -198.746 322.202 -187.866C381.187 -180.421 427.954 -164.577 461.36 -141.098C490.184 -120.864 508.51 -94.521 514.427 -65.3149C524.926 -12.8204 494.384 45.5916 440.362 76.8974C423.755 87.7781 408.293 106.676 391.876 126.91C363.243 161.843 331.365 201.166 287.078 201.166Z" fill="#EBEDF5"/>
<path d="M-103.099 -188.057C-103.29 -188.057 -103.481 -188.057 -103.671 -188.057C-123.524 -187.866 -142.422 -183.285 -158.266 -174.504C-181.936 -161.523 -196.062 -141.289 -197.971 -117.619C-202.361 -65.8877 -174.3 -26.5646 -114.361 -0.794556C-65.1118 20.3941 -6.12711 28.0297 32.8143 32.9928C37.9683 33.5655 42.9314 34.329 47.3218 34.9017C80.5365 39.483 110.888 70.2162 142.957 102.858C177.508 137.791 213.204 174.06 257.682 185.322C311.894 199.066 347.972 155.162 379.851 116.411C394.74 98.2769 408.675 81.2878 423.373 71.3615C447.616 57.0449 467.85 35.8562 480.449 11.8041C493.43 -13.2023 497.629 -39.9268 492.475 -64.9333C486.558 -93.1849 468.996 -118.382 441.317 -137.853C409.629 -160.187 365.534 -175.076 310.367 -182.139C230.194 -192.447 179.608 -173.167 138.949 -157.896C119.669 -150.642 102.871 -144.343 86.8359 -142.625C51.5214 -139.189 15.8252 -143.007 -42.7778 -172.977C-61.6758 -183.094 -82.2918 -188.057 -103.099 -188.057ZM277.534 183.986C271.426 183.986 265.126 183.223 258.636 181.505C215.113 170.624 179.799 134.737 145.63 99.9949C112.988 66.9711 82.2545 35.6653 47.8945 31.0839C43.5041 30.5112 38.5409 29.9386 33.3869 29.175C-5.36354 24.2119 -63.9665 16.7672 -112.834 -4.23056C-171.055 -29.4279 -198.352 -67.4149 -194.153 -117.428C-192.244 -139.953 -178.882 -159.042 -156.357 -171.64C-124.097 -189.393 -80.1921 -189.011 -44.4958 -170.304C15.0616 -139.953 51.1396 -136.135 87.2177 -139.571C103.825 -141.098 120.623 -147.588 140.285 -155.033C180.562 -170.304 230.766 -189.202 309.985 -179.085C364.77 -172.022 408.293 -157.324 439.408 -135.371C466.323 -116.473 483.503 -92.0396 489.039 -64.7424C499.156 -16.0657 471.286 38.5286 421.655 67.9255C406.575 78.2335 392.449 95.4136 377.369 113.739C349.881 146.954 319.53 183.986 277.534 183.986Z" fill="#EBEDF5"/>
<path d="M-85.7278 -179.085C-86.1095 -179.085 -86.3004 -179.085 -86.6822 -179.085C-105.008 -178.894 -122.378 -174.503 -137.077 -166.486C-159.029 -154.269 -172.01 -135.371 -173.919 -113.228C-177.927 -65.1241 -151.775 -28.6643 -96.2267 -4.80315C-50.4133 14.8584 4.181 21.9213 40.259 26.5027C45.0313 27.0753 49.6126 27.648 53.6213 28.2207C84.3544 32.4202 112.606 61.0536 142.576 91.405C174.645 123.856 207.669 157.453 249.092 167.951C300.25 181.123 334.801 139.509 365.343 102.858C378.896 86.6327 391.495 71.3616 404.475 62.1989C426.619 48.6458 445.135 28.9842 456.397 6.65019C468.232 -16.6383 471.668 -41.2629 466.705 -64.5514C461.169 -90.8941 444.562 -114.373 418.983 -132.317C389.586 -153.124 348.736 -166.868 297.768 -173.358C283.261 -175.267 269.708 -176.031 257.109 -176.031C205.378 -176.031 168.918 -162.287 138.567 -150.833C120.623 -143.961 105.161 -138.235 90.2719 -136.707C58.2026 -133.653 25.3697 -137.28 -30.7517 -165.532C-47.7409 -174.503 -66.6388 -179.085 -85.7278 -179.085ZM267.99 166.806C262.263 166.806 256.345 166.043 250.046 164.515C209.769 154.207 176.936 120.993 145.248 88.9234C114.897 58.1903 86.2633 29.1751 54.3848 24.7847C50.3761 24.212 45.7948 23.6393 40.8317 23.0667C4.94453 18.4853 -49.4589 11.6133 -94.6996 -7.85736C-148.721 -31.1458 -174.109 -66.4603 -170.292 -112.655C-168.574 -133.653 -156.166 -151.406 -135.359 -163.05C-105.58 -179.467 -65.3026 -179.276 -32.4697 -162.287C-6.5088 -149.306 15.8252 -140.716 36.0594 -136.326C54.1939 -132.317 71.5648 -131.363 90.4629 -133.081C105.925 -134.608 121.578 -140.525 139.712 -147.397C177.127 -161.523 223.703 -179.085 297.196 -169.731C347.781 -163.241 387.868 -149.688 416.883 -129.263C441.699 -111.701 457.733 -88.9852 463.078 -63.597C472.623 -18.738 447.616 32.0385 402.376 59.5265C402.376 59.5265 402.376 59.5265 402.185 59.5265C388.823 69.0709 375.842 84.533 362.289 100.949C336.71 132.064 307.504 166.806 267.99 166.806Z" fill="#EBEDF5"/>
<path d="M-68.3569 -170.113C-68.7386 -170.113 -69.1204 -170.113 -69.6931 -170.113C-86.4913 -169.922 -102.526 -165.914 -115.888 -158.278C-136.122 -146.825 -148.148 -129.263 -149.866 -108.647C-153.493 -64.1697 -129.25 -30.5732 -77.9013 -8.43004C-35.7148 9.70444 14.6799 16.1947 48.0855 20.3942C52.4759 20.9669 56.6755 21.5395 60.4933 21.9213C88.7449 25.7391 114.897 52.2727 142.576 80.1425C172.163 110.112 202.706 141.036 240.693 150.771C288.987 163.37 322.011 124.047 351.217 89.4961C363.243 75.1794 374.506 61.8172 385.959 53.2271C406.003 40.6285 422.61 22.3031 432.727 1.68709C443.226 -19.8834 446.28 -42.5992 441.508 -64.1696C436.163 -88.4126 420.892 -110.174 397.222 -126.972C370.115 -146.061 332.51 -158.851 285.742 -164.959C272.38 -166.677 259.781 -167.441 248.137 -167.441C200.415 -167.441 166.819 -154.842 138.758 -144.152C122.15 -137.853 108.025 -132.508 94.2806 -131.172C60.3024 -127.927 27.6603 -135.753 -18.153 -158.469C-33.8059 -165.914 -51.1769 -170.113 -68.3569 -170.113ZM258.445 149.817C252.909 149.817 247.374 149.053 241.456 147.526C204.424 137.982 174.263 107.44 145.057 77.8518C116.996 49.4094 90.4628 22.494 60.875 18.4853C57.0572 17.9127 52.8577 17.5309 48.4672 16.9582C15.2525 12.7587 -34.7604 6.45932 -76.3742 -11.6751C-126.005 -33.0547 -149.485 -65.5059 -146.049 -108.265C-144.522 -127.736 -133.259 -144.343 -113.979 -155.033C-86.8731 -170.304 -49.8406 -170.113 -19.871 -154.651C26.7059 -131.554 59.7297 -123.536 94.4715 -126.972C108.788 -128.308 123.105 -133.844 139.903 -140.144C174.454 -153.124 217.404 -169.35 285.17 -160.76C331.365 -154.842 368.397 -142.243 395.122 -123.536C418.029 -107.311 432.918 -86.3128 438.072 -63.0243C447.044 -21.7923 424.9 24.7847 384.241 50.3638C384.241 50.3638 384.241 50.3638 384.05 50.3638C372.406 59.1447 360.762 72.8887 348.545 87.2054C323.538 116.984 295.669 149.817 258.445 149.817Z" fill="#EBEDF5"/>
<path d="M-51.1769 -160.95C-66.6389 -160.95 -81.9101 -157.324 -94.6996 -150.07C-113.407 -139.571 -124.287 -123.154 -125.815 -104.066C-129.06 -63.2153 -106.726 -32.2912 -59.7669 -12.057C-21.0164 4.55037 24.9879 10.4679 55.5301 14.2857C59.5388 14.8583 63.5474 15.2401 66.7926 15.8128C92.7535 19.4397 116.615 43.6826 142.003 69.2617C169.109 96.7498 197.17 125.001 231.912 134.164C252.146 139.509 271.617 135.5 291.278 121.756C308.267 109.921 322.775 92.932 336.901 76.5155C347.4 64.2986 357.326 52.6544 367.061 44.8279C385.005 33.1837 399.703 16.1946 408.675 -2.70343C417.838 -22.5559 420.319 -43.3628 415.929 -63.0244C410.775 -85.3584 396.649 -105.402 374.888 -120.673C350.072 -138.235 315.712 -149.879 273.144 -155.415C260.736 -156.942 249.473 -157.705 238.784 -157.705C195.07 -157.705 164.337 -146.061 138.567 -136.326C123.487 -130.599 110.315 -125.636 97.7166 -124.491C67.747 -121.627 37.7774 -129.072 -5.9362 -150.452C-20.062 -157.324 -35.9058 -160.95 -51.1769 -160.95ZM249.092 132.828C243.938 132.828 238.593 132.064 233.057 130.728C199.27 121.947 171.591 93.8864 144.866 66.7802C119.096 40.6284 94.6623 16.0037 67.5561 12.1859C64.1201 11.8041 60.3023 11.2315 56.2937 10.6588C25.9423 6.84103 -19.8711 0.923477 -58.0489 -15.493C-103.48 -35.1546 -124.86 -64.7424 -121.806 -103.875C-120.47 -121.818 -110.162 -137.089 -92.5998 -146.825C-67.9751 -160.76 -34.5696 -160.76 -7.27242 -147.016C37.0139 -125.445 67.747 -117.81 98.4801 -120.864C111.461 -122.2 124.823 -127.163 140.285 -132.89C171.782 -144.916 211.105 -159.614 273.144 -151.788C315.139 -146.443 348.927 -134.99 373.17 -117.81C394.167 -102.92 407.721 -83.8313 412.684 -62.2608C421.465 -24.083 402.376 17.5308 365.534 41.5828C365.534 41.5828 365.343 41.5828 365.343 41.7737C355.417 49.7911 345.3 61.4353 334.61 74.034C310.558 101.713 284.024 132.828 249.092 132.828Z" fill="#EBEDF5"/>
<path d="M-33.8059 -151.979C-47.9316 -151.979 -61.8666 -148.542 -73.5108 -141.861C-90.4999 -132.126 -100.426 -117.237 -101.762 -99.484C-104.435 -62.4515 -84.2006 -34.1999 -41.6323 -15.6837C-6.50872 -0.603455 35.296 4.74146 62.9749 8.36835C66.7927 8.75012 70.2287 9.32278 73.2829 9.70457C96.7623 12.9497 118.715 34.9019 141.812 58.3813C166.437 83.1968 191.825 108.967 223.322 117.366C242.411 122.52 260.927 118.702 279.634 105.531C295.86 94.2684 310.367 77.4702 323.157 62.7717C331.938 52.6546 340.337 42.9193 348.354 36.0473C364.198 25.1666 377.178 9.70457 384.623 -7.47545C392.45 -25.419 394.549 -44.317 390.159 -62.2606C385.196 -82.6857 372.215 -100.82 352.554 -114.946C330.029 -130.981 299.105 -141.48 260.545 -146.443C203.278 -153.696 167.2 -140.143 138.185 -129.072C124.441 -123.918 112.606 -119.336 101.153 -118.382C75.1918 -115.9 47.7038 -122.963 6.08996 -142.816C-6.12695 -148.733 -20.2527 -151.979 -33.8059 -151.979ZM239.738 115.648C234.775 115.648 229.812 115.075 224.467 113.548C193.925 105.34 168.918 79.9517 144.675 55.5179C121.196 31.6568 98.862 9.13188 74.0465 5.69588C70.9922 5.3141 67.5562 4.74144 63.7385 4.35966C36.2504 0.92366 -5.17248 -4.42122 -39.9143 -19.3106C-80.9555 -37.0632 -100.426 -63.9786 -97.9446 -99.2931C-96.7993 -115.71 -87.4457 -129.644 -71.6019 -138.616C-49.6497 -151.215 -19.6801 -151.406 4.75374 -139.189C47.1311 -119.146 75.1918 -111.892 101.725 -114.373C113.561 -115.519 125.587 -120.1 139.712 -125.445C168.346 -136.326 204.042 -149.688 260.354 -142.625C298.15 -137.853 328.502 -127.354 350.645 -111.701C369.734 -98.3387 382.142 -80.7768 386.914 -61.3062C395.122 -26.9461 378.896 10.8499 346.445 32.993C346.445 32.993 346.254 32.993 346.254 33.1839C338.046 40.2468 329.647 49.9822 320.675 60.2902C297.769 86.442 272.38 115.648 239.738 115.648Z" fill="#EBEDF5"/>
<path d="M-16.435 -143.007C-29.2246 -143.007 -41.8233 -139.953 -52.5131 -133.844C-67.7842 -125.063 -76.756 -111.319 -77.7104 -95.0937C-80.0011 -61.6881 -61.8666 -36.2998 -23.307 -19.6925C8.18967 -6.13937 45.7948 -1.17627 70.6104 1.87795C74.0464 2.25974 77.1006 2.64153 79.773 3.0233C100.962 5.88663 120.623 25.7391 141.43 46.9278C163.573 69.2618 186.48 92.3594 214.732 100.186C255.009 111.257 285.361 76.5156 309.985 48.4549C317.048 40.4376 323.538 32.9929 329.647 27.2662C358.853 6.26841 372.979 -29.4279 364.77 -61.4972C359.998 -80.0135 348.163 -96.4299 330.41 -109.029C310.176 -123.345 282.497 -132.89 248.137 -137.28C238.02 -138.616 228.667 -139.189 220.077 -139.189C184.189 -139.189 159.183 -129.645 138.185 -121.818C125.777 -117.237 115.278 -113.037 104.97 -112.083C83.2091 -109.983 58.2026 -116.664 18.6886 -134.99C7.617 -140.334 -4.59991 -143.007 -16.435 -143.007ZM230.003 98.4678C225.421 98.4678 220.649 97.8952 215.877 96.559C188.58 89.1143 166.055 66.3985 144.294 44.4462C122.914 22.8758 102.871 2.64152 80.3457 -0.412704C77.4824 -0.794487 74.4281 -1.17625 71.183 -1.55802C46.5583 -4.61225 9.33501 -9.38451 -21.7799 -22.9376C-58.6215 -38.7814 -76.1833 -63.0243 -73.8926 -94.7119C-72.9382 -109.601 -64.5391 -122.2 -50.4133 -130.408C-30.9426 -141.671 -4.5999 -142.052 17.1615 -131.363C57.439 -112.655 83.0182 -105.974 105.543 -108.074C116.233 -109.029 127.114 -113.228 139.712 -118C165.482 -127.736 197.552 -139.762 247.946 -133.462C333.274 -122.582 355.608 -83.0677 361.334 -60.5428C369.161 -30.0005 355.608 4.16865 327.547 24.212L327.356 24.4029C321.057 30.3204 314.376 37.956 307.313 45.9733C286.315 69.8345 261.118 98.4678 230.003 98.4678Z" fill="#EBEDF5"/>
<path d="M0.935818 -133.844C-10.5175 -133.844 -21.78 -130.981 -31.3244 -125.445C-44.8776 -117.428 -52.8949 -105.02 -53.6585 -90.3212C-55.5674 -60.5425 -39.3418 -37.8267 -5.17263 -23.1283C22.8881 -11.1023 56.1028 -6.71182 78.2459 -4.03938C81.1092 -3.65759 83.9725 -3.27583 86.4541 -2.89406C105.161 -0.412498 122.723 17.3402 141.239 36.0473C160.901 55.8998 181.135 76.3249 206.142 83.3878C223.131 88.1601 240.12 84.5332 257.873 72.1254C272.953 61.6265 286.124 46.5462 297.577 33.3749C302.35 27.8391 306.931 22.6851 310.94 18.4855C335.564 -0.603363 347.018 -32.4818 339.382 -60.7334C334.992 -77.1499 324.111 -91.8484 308.267 -103.111C290.133 -115.9 265.89 -124.299 235.92 -128.117C190.107 -134.035 161.283 -122.963 138.185 -114.182C127.304 -109.983 117.76 -106.547 108.788 -105.592C88.1721 -103.683 64.6928 -111.892 31.0963 -126.972C21.5518 -131.744 11.0529 -133.844 0.935818 -133.844ZM220.649 81.4789C216.259 81.4789 211.868 80.9063 207.096 79.5701C183.044 72.8889 163.192 52.6547 143.721 33.184C124.632 13.9042 106.688 -4.23026 86.645 -6.90271C84.1635 -7.28449 81.491 -7.66628 78.4368 -8.04806C35.2959 -13.5838 -54.422 -25.0372 -50.2225 -90.3212C-49.4589 -103.683 -42.2051 -114.946 -29.7973 -122.2C-12.9991 -132.126 10.0985 -132.699 28.8056 -123.727C63.1657 -108.456 87.0268 -99.8657 108.597 -101.965C118.142 -102.92 127.877 -106.547 138.949 -110.746C161.664 -119.336 190.107 -130.026 234.966 -124.299C309.413 -114.755 329.838 -79.6315 335.183 -59.5881C342.436 -32.6727 331.556 -2.51225 308.076 15.6222L307.885 15.8131C303.686 20.2035 299.105 25.3576 294.141 30.8933C274.671 53.8 250.428 81.4789 220.649 81.4789Z" fill="#EBEDF5"/>
<path d="M18.3067 -124.873C8.18961 -124.873 -1.73664 -122.391 -10.1358 -117.237C-21.9709 -110.174 -28.8429 -98.9116 -29.6064 -85.7403C-31.1336 -59.5885 -16.8169 -39.736 13.1527 -26.7556C37.5865 -16.2567 66.6016 -12.4389 85.8814 -9.95731C88.363 -9.57553 90.8446 -9.38464 92.9444 -9.00286C109.361 -6.7122 124.632 8.74984 141.048 25.1663C158.228 42.5372 175.981 60.2899 197.742 66.5892C234.966 77.6608 266.463 40.6283 287.269 16.0036C289.178 13.9038 290.896 11.8041 292.614 9.89518C312.849 -7.28484 321.439 -35.3455 314.185 -59.7793C309.794 -74.2869 300.25 -87.0765 286.506 -97.0027C270.662 -108.265 249.664 -115.519 223.894 -118.764C216.068 -119.719 208.814 -120.291 201.942 -120.291C174.072 -120.291 154.602 -112.847 138.376 -106.738C128.831 -103.111 120.623 -100.057 112.797 -99.2934C94.4715 -97.5754 70.9921 -107.502 43.6949 -119.146C35.4867 -123.155 26.7058 -124.873 18.3067 -124.873ZM211.105 64.4894C207.096 64.4894 202.896 63.9168 198.697 62.5805C177.89 56.4721 160.519 38.9103 143.721 22.1121C126.923 5.12294 111.079 -10.7209 93.3261 -13.2024C91.2263 -13.5842 88.7448 -13.7751 86.2632 -14.1569C48.849 -18.9291 -29.2247 -28.8553 -25.7887 -85.7403C-25.216 -97.5754 -18.9167 -107.502 -8.22687 -113.992C6.08981 -122.582 25.5605 -123.345 41.5952 -115.901C69.465 -104.066 93.3261 -93.7576 112.606 -95.6665C121.005 -96.43 129.404 -99.6752 139.139 -103.302C158.992 -110.747 183.808 -120.1 222.749 -115.137C286.506 -106.929 304.64 -76.3867 309.794 -58.8249C316.666 -35.7273 308.458 -9.19374 289.369 6.84094L289.178 7.03184C287.46 8.94073 285.742 11.2314 283.833 13.3312C266.272 34.1381 240.693 64.4894 211.105 64.4894Z" fill="#EBEDF5"/>
<path d="M35.6777 -115.901C26.8968 -115.901 18.1159 -113.61 11.053 -109.219C0.935889 -102.92 -4.98167 -92.9939 -5.55433 -81.5406C-6.69967 -59.0157 5.7081 -42.0265 31.2872 -30.7641C52.285 -21.7923 76.9097 -18.5472 93.3262 -16.4474C95.426 -16.2565 97.5258 -15.8747 99.2438 -15.6838C113.179 -13.775 126.541 -0.412701 140.476 13.7131C155.174 28.4116 170.254 43.6827 188.771 49.4093C214.541 57.4267 243.747 40.6284 273.335 0.732628C289.369 -14.7294 295.096 -38.3996 288.033 -59.5883C283.833 -71.9961 275.434 -83.0677 263.408 -91.6577C249.855 -101.202 232.103 -107.501 210.723 -110.174C204.042 -110.937 197.743 -111.319 192.016 -111.319C168.155 -111.319 151.547 -105.02 137.422 -99.675C129.213 -96.6208 122.341 -93.9483 115.66 -93.3757C103.062 -92.2303 86.4542 -98.9115 67.1744 -106.929C63.3566 -108.456 59.3479 -110.174 55.1484 -111.892C49.2308 -114.564 42.3588 -115.901 35.6777 -115.901ZM201.942 47.5005C198.124 47.5005 194.116 46.9278 190.298 45.7824C172.736 40.4375 157.847 25.5482 143.53 11.0406C129.022 -3.65783 115.278 -17.4018 100.007 -19.5016C98.2893 -19.6925 96.1896 -20.0743 93.8989 -20.2652C62.0204 -24.2738 -4.21811 -32.8639 -1.73655 -81.1588C-1.35477 -91.4668 3.99012 -100.057 12.9619 -105.783C24.6061 -113.037 40.6408 -113.992 54.003 -108.074C58.2026 -106.356 62.2113 -104.829 66.0291 -103.111C85.6906 -95.0937 102.68 -88.0308 116.233 -89.367C123.487 -90.1306 130.74 -92.803 138.949 -96.0481C155.938 -102.538 176.936 -110.365 210.341 -106.165C263.217 -99.4841 279.443 -73.3324 284.406 -58.2521C290.896 -38.3997 285.551 -16.2565 270.662 -1.93983L270.471 -1.74894C253.291 21.7304 228.094 47.5005 201.942 47.5005Z" fill="#EBEDF5"/>
<path d="M53.0487 -106.929C45.604 -106.929 38.1593 -104.829 32.0509 -101.011C23.6518 -95.4755 18.6887 -86.8855 18.4978 -76.9593C17.7342 -58.0612 28.2331 -43.7446 49.6127 -34.5819C66.9836 -26.9463 87.4087 -24.4648 101.153 -22.7468C102.871 -22.5559 104.589 -22.365 106.116 -22.1741C117.76 -20.647 128.832 -9.38454 140.667 2.45058C152.884 14.6675 165.482 27.2662 180.563 32.2293C193.734 36.6197 208.814 33.5655 224.276 23.6393C236.302 15.8128 247.756 3.78681 255.2 -8.43009C266.654 -21.9832 269.708 -42.0266 263.027 -59.3975C257.873 -72.5688 242.792 -95.6664 198.888 -101.202C170.445 -104.829 152.311 -97.9571 137.994 -92.6122C131.313 -90.1306 125.396 -87.84 120.051 -87.2673C111.461 -86.5037 99.8165 -91.2759 86.4542 -97.0026C80.7276 -99.4842 74.6191 -101.966 68.3198 -104.256C63.1658 -105.974 58.0118 -106.929 53.0487 -106.929ZM192.589 30.3204C188.962 30.3204 185.144 29.7477 181.517 28.6024C167.2 24.021 154.983 11.6133 143.148 -0.221855C130.741 -12.6296 119.287 -24.2739 106.307 -25.9919C104.78 -26.1828 103.062 -26.3737 101.344 -26.5646C75.1918 -30.0006 20.5975 -36.8726 22.3155 -76.7684C22.6973 -85.5493 26.706 -92.8031 34.1507 -97.5753C43.3133 -103.493 55.912 -104.638 66.4109 -100.248C72.7102 -97.9571 78.6278 -95.4755 84.3545 -92.994C98.2894 -87.0764 110.315 -82.1133 119.86 -83.0677C125.777 -83.6404 131.886 -85.9311 138.949 -88.6035C153.075 -93.9484 170.445 -100.439 197.934 -97.0026C239.738 -91.6577 254.055 -70.0873 258.827 -57.6795C265.126 -41.4539 262.263 -22.9377 251.573 -10.5299L251.382 -10.339C240.311 8.17726 216.259 30.3204 192.589 30.3204Z" fill="#EBEDF5"/>
<path d="M70.4196 -97.957C64.1202 -97.957 58.0118 -96.0481 53.0487 -92.6121C46.3675 -88.0308 42.5498 -80.777 42.5498 -72.187C42.168 -56.9159 50.758 -45.4625 67.7471 -38.0178C81.4911 -31.9094 97.9076 -30.0005 108.597 -28.4734C109.934 -28.2825 111.27 -28.0916 112.415 -27.9007C121.578 -26.5645 130.741 -17.5927 140.285 -8.04827C150.02 1.49618 159.947 11.6133 171.973 15.8129C195.643 24.4029 226.567 4.9322 236.684 -16.8292C243.938 -28.6643 244.32 -44.699 237.447 -58.8248C232.484 -69.3236 219.122 -87.4581 186.48 -91.6577C163.764 -94.521 149.257 -89.1761 137.803 -84.7857C132.459 -82.6859 127.877 -80.9679 123.678 -80.5861C117.951 -80.0135 109.361 -83.8312 100.389 -88.0308C93.8989 -90.8941 87.2178 -93.9483 80.5367 -96.0481C77.1007 -97.5752 73.6647 -97.957 70.4196 -97.957ZM183.808 13.5222C180.181 13.5222 176.554 12.9495 173.118 11.8042C162.046 7.79554 152.311 -1.74891 142.957 -11.1025C132.84 -21.2196 123.296 -30.5732 112.797 -32.1003C111.652 -32.2912 110.315 -32.4821 108.979 -32.6729C88.3632 -35.3454 45.7949 -40.6903 46.3676 -72.187C46.5585 -81.3497 51.3307 -86.6946 55.1484 -89.367C61.6387 -93.9483 70.9923 -95.2846 78.6278 -92.6121C85.309 -90.5124 91.7991 -87.649 98.0985 -84.7857C108.025 -80.2043 116.615 -76.3865 123.487 -76.9592C128.259 -77.341 133.222 -79.2499 138.758 -81.3497C149.829 -85.5492 163.764 -90.7032 185.526 -88.0308C216.259 -84.0221 228.667 -67.2239 233.248 -57.4885C239.356 -44.5081 239.165 -29.8096 232.484 -19.1198C232.484 -19.1198 232.484 -18.9289 232.294 -18.9289C225.04 -1.93981 203.087 13.5222 183.808 13.5222Z" fill="#EBEDF5"/>
<path d="M87.9813 -89.1762C82.8273 -89.1762 77.6733 -87.4582 73.8555 -84.4039C70.4195 -81.7315 66.4108 -76.5775 66.6017 -67.7966C66.7926 -41.263 100.198 -36.8725 116.233 -34.9636C117.187 -34.7728 118.142 -34.7728 119.096 -34.5819C125.968 -33.6274 132.84 -26.7554 140.285 -19.5017C147.348 -12.4388 154.792 -5.18495 163.383 -1.55806C172.736 2.25972 185.907 1.11439 197.552 -4.4214C208.051 -9.5754 215.495 -17.4019 218.168 -26.3736C221.031 -36.2999 218.549 -49.2803 211.487 -59.9701C203.087 -72.7597 189.916 -80.9679 174.263 -83.0677C157.274 -85.1675 146.393 -81.1588 137.803 -77.9137C133.986 -76.3866 130.55 -75.2413 127.495 -74.8595C124.059 -74.4777 118.142 -77.5319 112.033 -80.777C106.116 -83.8313 99.2438 -87.4582 92.7535 -88.7944C90.8447 -89.1762 89.3175 -89.1762 87.9813 -89.1762ZM175.599 -3.27608C171.591 -3.27608 167.773 -3.84875 164.528 -5.18497C156.701 -8.43009 149.638 -15.493 142.766 -22.1741C134.94 -30.0005 127.495 -37.2543 119.287 -38.3997C118.524 -38.5905 117.569 -38.5905 116.424 -38.7814C101.534 -40.6903 70.6104 -44.699 70.4195 -67.6057C70.4195 -73.3324 72.3284 -77.9137 76.1462 -80.9679C80.1548 -84.213 86.0724 -85.5492 91.2264 -84.5948C97.144 -83.2586 103.634 -79.8226 109.361 -76.9592C116.424 -73.3324 122.532 -70.0872 127.114 -70.469C130.74 -70.8508 134.367 -72.187 138.567 -73.7141C146.775 -76.7684 156.892 -80.5862 172.927 -78.6773C187.244 -76.7684 199.461 -69.3237 207.096 -57.4886C213.586 -47.7532 215.877 -36.109 213.395 -27.1372C211.105 -19.5017 204.424 -12.4387 194.879 -7.85741C188.962 -4.99407 181.899 -3.27608 175.599 -3.27608Z" fill="#EBEDF5"/>
</g>
</svg>
