<svg width="850" height="218" viewBox="0 0 850 218" fill="none" xmlns="http://www.w3.org/2000/svg">
<mask id="mask0" mask-type="alpha" maskUnits="userSpaceOnUse" x="0" y="0" width="850" height="218">
<rect width="850" height="218" fill="url(#paint0_linear)"/>
</mask>
<g mask="url(#mask0)">
<path d="M1026.23 4.38184C1060.21 4.38184 1092.47 12.0174 1119.76 26.7159C1139.23 37.0239 1154.89 50.1952 1166.72 65.8481C1178.94 82.2646 1186.19 100.59 1188.1 120.252C1192.49 167.974 1180.66 209.778 1152.6 244.52C1128.93 274.108 1093.04 299.305 1046.27 319.349C961.517 355.809 859.964 368.789 792.771 377.188C783.608 378.334 775.018 379.479 767.573 380.433C710.497 388.26 658.766 440.945 603.79 496.685C544.615 557.006 483.339 619.426 406.411 637.37C368.042 646.342 333.301 638.324 299.895 613.127C270.498 590.793 246.064 558.342 222.203 526.845C195.097 490.958 169.327 456.98 139.167 441.327C93.7349 418.038 55.1753 382.533 30.3596 341.301C17.761 320.494 8.9801 298.924 4.20789 276.781C-0.755249 253.874 -1.32788 231.158 2.48987 209.206C6.49854 186.108 15.4703 164.156 29.0234 143.922C43.531 122.351 63.1926 102.881 87.6263 85.7006C142.03 47.7136 218.767 21.9437 316.121 9.53583C453.561 -8.02594 540.606 24.8069 610.472 51.3405C643.877 63.9392 672.701 74.8199 700.571 77.4923C766.81 83.7916 821.213 84.3644 917.039 32.2516C950.254 14.1172 987.477 4.38177 1024.51 4C1024.7 4.38177 1025.46 4.38184 1026.23 4.38184ZM1185.05 120.442C1181.61 83.219 1157.18 50.0043 1118.43 29.3883C1059.44 -2.1084 982.514 0.182312 917.994 35.3058C821.404 87.8004 766.619 87.4186 699.808 80.9283C671.556 78.2559 642.541 67.1843 608.944 54.5856C539.461 28.2429 452.797 -4.39905 316.121 12.9718C219.34 25.3796 142.984 50.7679 89.1534 88.5639C42.5765 121.206 13.5615 163.202 5.35327 209.969C-9.72693 296.06 45.8218 390.169 140.503 438.654C171.427 454.498 197.197 488.667 224.685 524.936C272.598 588.312 322.229 653.977 405.838 634.316C481.812 616.563 542.897 554.524 601.882 494.394C657.048 438.273 709.161 385.206 767.382 377.188C775.018 376.234 783.608 375.088 792.58 373.943C859.582 365.353 960.944 352.563 1045.32 316.295C1146.11 272.963 1193.26 207.106 1185.05 120.442Z" fill="#EBEDF5"/>
<path d="M1009.05 13.3537C1041.5 13.3537 1072.61 20.7983 1098.77 34.7333C1117.28 44.6595 1132.55 57.2582 1143.82 72.3384C1155.65 88.1822 1162.52 105.744 1164.24 124.642C1168.44 170.264 1156.99 210.351 1130.07 243.948C1107.36 272.199 1073 296.442 1028.14 315.722C946.818 350.655 849.656 363.062 785.135 371.271C776.354 372.416 768.146 373.37 761.083 374.325C706.298 381.77 656.667 432.355 604.172 485.804C547.287 543.644 488.684 603.201 415.001 620.572C378.16 629.353 344.563 621.717 312.112 597.283C283.669 575.904 259.999 544.598 237.092 514.438C211.132 480.268 186.507 448.008 157.874 432.928C114.542 410.594 77.891 376.425 54.2208 336.911C42.3856 317.058 33.9866 296.251 29.4052 275.063C24.6329 253.11 24.2512 231.349 27.8781 210.351C31.6959 188.208 40.2859 167.21 53.2664 147.74C67.0104 127.124 85.9084 108.226 109.388 92C161.5 55.5402 234.993 30.9155 328.147 19.0804C459.86 2.28217 543.279 33.7788 610.09 59.1671C642.159 71.1931 669.647 81.692 696.372 84.3644C759.556 90.4728 811.287 90.8546 904.059 40.4599C935.747 23.2799 971.443 13.9263 1006.95 13.5446C1007.71 13.3536 1008.28 13.3537 1009.05 13.3537ZM385.986 620.954C394.958 620.954 404.311 619.808 414.238 617.518C486.966 600.338 545.378 540.971 601.882 483.513C654.758 429.683 704.771 378.906 760.51 371.271C767.764 370.316 775.972 369.171 784.753 368.217C848.892 360.008 946.055 347.791 1026.8 312.859C1123.58 271.245 1168.63 208.061 1161 125.024C1157.75 89.3276 1134.46 57.449 1097.24 37.5966C1041.69 8.00879 966.48 10.1085 905.586 43.1324C861.682 66.9935 824.458 80.7375 788.38 86.6551C754.402 92.1909 725.387 90.0911 695.99 87.4186C668.884 84.7462 641.014 74.2473 608.944 62.0304C542.324 36.8331 459.478 5.52722 328.338 22.1346C235.756 33.9697 162.646 58.2126 111.106 94.4816C66.4376 125.787 38.7588 166.065 30.7415 210.924C16.2339 293.388 68.9193 383.488 159.019 430.065C188.416 445.336 213.04 477.978 239.383 512.529C280.233 565.787 322.038 620.954 385.986 620.954Z" fill="#EBEDF5"/>
<path d="M991.677 22.3255C1022.79 22.3255 1052.38 29.3884 1077.58 42.7507C1095.33 52.2951 1109.84 64.512 1120.53 78.8287C1131.79 93.9089 1138.28 110.898 1140 129.033C1144.01 172.746 1133.13 211.115 1107.36 243.184C1085.59 270.29 1052.76 293.388 1009.81 311.904C932.12 345.31 839.157 357.145 777.499 364.971C769.1 366.117 761.274 367.071 754.402 368.026C702.098 375.089 654.567 423.383 604.363 474.542C549.96 529.709 493.838 586.975 423.4 603.583C387.895 611.982 355.635 604.728 324.329 581.249C297.032 560.633 273.934 530.663 251.791 501.648C226.975 469.197 203.496 438.464 176.39 424.147C135.349 402.767 100.225 369.935 77.891 332.138C54.6024 292.815 46.0125 251.011 53.2662 211.115C61.0927 167.401 88.1989 128.078 131.531 97.7267C181.353 62.794 251.6 39.3146 340.554 28.0522C466.541 12.0175 546.333 42.178 610.281 66.23C640.823 77.8742 667.356 87.8005 692.745 90.282C750.775 95.8178 802.315 96.1996 891.842 47.9047C922.193 31.4882 956.172 22.7073 989.959 22.3255C990.532 22.3255 991.104 22.3255 991.677 22.3255ZM395.53 603.774C404.12 603.774 413.283 602.628 422.828 600.529C492.311 584.112 548.242 527.227 602.263 472.442C652.849 420.902 700.762 372.225 754.211 364.971C761.083 364.017 768.909 363.063 777.309 361.917C838.775 354.091 931.547 342.256 1008.67 309.041C1101.06 269.145 1144.2 208.824 1136.94 129.605C1133.7 95.4361 1111.56 64.8938 1076.05 45.8049C1051.04 32.4427 1022.03 25.7615 992.059 25.7615C958.462 25.7615 923.911 34.1606 893.178 50.768C802.888 99.4447 750.966 99.063 692.363 93.5272C666.402 91.0456 639.868 80.9285 608.944 69.2842C545.188 45.2322 465.969 15.2626 340.745 31.2973C252.364 42.5598 182.689 65.8482 133.249 100.399C90.6805 130.369 63.9559 168.737 56.3204 211.688C42.1946 290.334 92.2076 376.425 177.917 421.284C205.596 436.173 229.266 466.906 254.463 499.739C293.786 550.897 334.255 603.774 395.53 603.774Z" fill="#EBEDF5"/>
<path d="M974.306 31.488C1004.08 31.488 1032.34 38.36 1056.39 51.1496C1073.38 60.3123 1087.12 71.9565 1097.43 85.7006C1108.12 100.208 1114.42 116.434 1116.14 133.805C1119.95 175.609 1109.46 212.26 1084.83 242.802C1064.02 268.572 1032.72 290.715 991.677 308.277C917.612 340.156 828.849 351.418 770.055 358.863C762.038 359.817 754.593 360.772 748.103 361.726C698.281 368.598 652.849 414.602 604.745 463.47C552.823 516.155 499.374 570.75 432.181 586.594C398.203 594.611 366.897 587.739 336.928 565.214C310.585 545.552 288.442 516.728 266.871 488.858C243.201 458.125 220.867 429.301 195.288 415.175C156.347 394.559 123.132 363.444 101.943 327.175C79.9908 289.57 71.9736 249.674 78.8456 211.687C86.4812 169.883 112.251 132.468 153.674 103.453C201.205 70.0476 268.208 47.7136 352.962 36.8329C376.442 33.7787 398.394 32.4425 418.628 32.4425C502.428 32.4425 561.222 54.7765 610.281 73.2928C639.487 84.3643 664.684 93.9088 688.927 96.1995C743.903 101.544 792.771 101.735 879.243 55.3492C908.068 39.6963 940.519 31.488 972.779 31.1063C973.352 31.488 973.924 31.488 974.306 31.488ZM405.075 586.594C413.474 586.594 422.255 585.639 431.418 583.348C497.656 567.505 550.914 513.483 602.454 460.988C650.94 411.739 696.563 365.353 747.53 358.29C754.211 357.336 761.656 356.381 769.482 355.427C828.085 347.982 916.467 336.72 990.341 305.032C1078.53 267.045 1119.76 209.397 1112.7 133.805C1109.65 101.163 1088.65 71.9565 1054.67 53.822C1004.28 26.7158 936.128 28.6247 880.771 58.4034C793.534 105.362 744.094 104.98 688.545 99.6354C663.73 97.3448 638.341 87.6094 608.945 76.5378C548.242 53.6312 472.459 24.9978 352.962 40.2689C268.78 50.9587 202.351 73.2927 155.201 106.317C114.542 134.759 89.1536 171.601 81.709 212.451C68.1558 287.279 115.305 369.553 196.433 412.312C222.585 426.628 245.11 455.834 268.971 486.758C307.34 536.008 346.281 586.594 405.075 586.594Z" fill="#EBEDF5"/>
<path d="M956.935 40.4599C985.378 40.4599 1012.29 46.9501 1035.2 59.1671C1051.43 67.948 1064.6 79.0195 1074.33 92.1909C1084.64 106.126 1090.56 121.397 1092.08 138.004C1095.71 177.709 1085.59 212.642 1062.31 241.848C1042.45 266.473 1012.67 287.47 973.543 304.269C902.914 334.62 818.541 345.501 762.61 352.564C754.975 353.518 747.912 354.472 741.612 355.236C694.081 361.726 650.94 405.631 605.127 452.208C555.686 502.411 504.719 554.333 440.771 569.604C408.129 577.431 378.16 570.75 349.144 549.179C323.756 530.281 302.377 502.793 281.761 476.069C259.236 447.244 238.238 419.947 214.186 406.394C177.344 386.733 146.038 356.954 125.995 322.594C105.188 286.898 97.7435 248.911 104.425 212.642C111.678 172.746 136.494 137.05 175.817 109.371C221.058 77.6833 284.815 56.3036 365.37 45.9957C387.704 43.1323 408.511 41.7961 427.982 41.7961C507.773 41.7961 563.704 62.9848 610.472 80.7375C638.15 91.2364 662.203 100.399 685.3 102.499C735.504 107.271 783.799 107.653 867.026 63.1757C894.514 48.4772 925.248 40.4599 955.79 40.269C956.172 40.4599 956.553 40.4599 956.935 40.4599ZM414.619 569.604C422.637 569.604 431.036 568.65 439.817 566.55C502.81 551.47 553.587 499.93 602.645 450.108C648.84 403.149 692.363 358.863 741.04 352.182C747.339 351.418 754.402 350.464 762.037 349.509C817.777 342.446 901.959 331.757 972.206 301.596C1056.01 265.518 1095.33 210.542 1088.84 138.577C1085.98 106.889 1066.51 79.783 1033.67 62.2213C985.95 36.4512 921.048 38.1693 868.744 66.2299C784.562 111.089 735.886 110.707 685.109 105.935C661.439 103.644 637.387 94.4815 609.326 83.9826C551.487 62.0304 479.522 34.9241 365.752 49.4317C285.769 59.5488 222.585 80.7375 177.726 112.234C138.976 139.34 114.733 174.273 107.67 213.405C94.6893 284.607 138.976 362.872 215.713 403.722C240.338 417.466 261.717 444.954 284.433 474.16C320.893 521.119 358.498 569.604 414.619 569.604Z" fill="#EBEDF5"/>
<path d="M939.755 49.6224C966.671 49.6224 992.441 55.7309 1014.2 67.566C1029.66 75.7743 1042.07 86.4641 1051.43 99.0627C1061.16 112.234 1066.89 126.933 1068.22 142.776C1071.66 180.572 1062.12 213.787 1039.78 241.466C1020.88 264.945 992.632 284.798 955.599 300.833C888.597 329.657 808.233 339.965 755.166 346.646C748.103 347.6 741.231 348.364 735.313 349.318C690.263 355.427 649.031 397.231 605.699 441.327C558.741 489.049 510.255 538.299 449.552 552.806C418.437 560.251 389.613 553.951 361.743 533.335C337.309 515.201 316.693 488.858 296.841 463.47C275.652 436.364 255.609 410.785 233.084 397.804C198.342 379.097 168.754 350.655 150.238 318.013C130.767 284.034 123.895 247.956 130.385 213.596C137.448 175.609 160.928 141.631 198.342 115.479C241.292 85.3187 301.804 65.0844 378.16 55.3491C399.539 52.6767 419.201 51.5313 437.717 51.5313C513.5 51.5313 566.567 71.5747 611.044 88.5638C637.387 98.4901 660.103 107.08 682.246 109.18C729.395 113.761 775.018 113.952 855.191 71.3838C881.152 57.4489 910.167 50.0042 939.183 49.8133C939.183 49.6224 939.373 49.6224 939.755 49.6224ZM424.164 552.424C431.799 552.424 440.008 551.47 448.407 549.37C508.155 535.053 556.259 485.995 602.836 438.654C646.74 393.986 688.163 351.991 734.359 345.691C740.276 344.928 747.148 343.973 754.211 343.019C807.087 336.338 887.07 326.221 953.69 297.396C1033.29 263.036 1070.51 211.115 1064.41 142.776C1061.73 112.616 1043.22 86.8458 1012.1 70.2385C990.532 58.5942 965.525 52.8675 939.755 52.8675C911.313 52.8675 882.107 59.9305 855.955 73.8654C819.113 93.336 788.189 104.98 758.22 110.325C729.205 115.479 704.007 114.143 681.101 112.043C658.576 109.943 635.669 101.163 609.135 91.2363C554.159 70.4294 485.821 44.6593 377.778 58.4033C301.995 68.1386 242.056 88.182 199.487 117.961C162.837 143.731 139.739 176.945 132.867 213.978C120.268 281.362 161.882 355.618 234.038 394.75C257.136 407.921 277.37 433.882 298.75 461.179C334.255 506.229 370.524 552.424 424.164 552.424Z" fill="#EBEDF5"/>
<path d="M922.384 58.5942C947.964 58.5942 972.397 64.5118 993.013 75.5834C1007.52 83.4098 1019.36 93.5269 1028.14 105.553C1037.3 118.152 1042.64 132.087 1043.98 147.167C1047.23 183.054 1038.06 214.36 1016.87 240.702C999.122 262.846 972.206 281.744 937.083 297.015C873.517 324.312 797.543 334.047 747.339 340.347C740.658 341.301 734.168 342.065 728.632 342.828C685.873 348.746 646.931 388.26 605.699 430.064C561.222 475.114 515.409 521.882 457.951 535.817C428.173 543.071 400.685 536.962 373.769 517.301C350.29 500.121 330.437 474.923 311.348 450.68C291.305 425.292 272.407 401.431 251.6 389.023C182.689 351.227 143.175 279.453 155.583 214.36C162.455 178.282 184.789 146.212 220.294 121.206C260.954 92.5725 318.22 73.4836 390.377 64.13C410.611 61.4576 429.318 60.5031 446.689 60.5031C518.463 60.5031 568.858 79.5921 611.044 95.4359C636.051 104.789 657.621 112.998 678.428 115.097C720.996 119.106 765.664 119.488 842.784 78.8285C867.408 65.6572 894.706 58.7851 922.194 58.5942C922.003 58.5942 922.194 58.5942 922.384 58.5942ZM433.708 535.435C441.153 535.435 448.789 534.481 456.997 532.572C513.5 518.828 559.122 472.633 603.218 427.774C644.832 385.396 684.155 345.501 728.059 339.583C733.786 338.819 740.085 338.056 746.957 337.101C796.97 330.802 872.753 321.067 935.747 293.96C1011.15 261.509 1046.27 212.26 1040.54 147.549C1038.06 118.915 1020.5 94.4814 991.295 78.6376C970.87 67.566 947.2 62.2211 922.766 62.2211C896.042 62.2211 868.554 68.7114 844.12 81.8827C809.187 100.399 779.599 111.471 751.348 116.625C723.287 121.779 699.426 120.633 677.856 118.533C656.667 116.434 634.905 108.225 609.708 98.6809C557.786 79.0194 492.884 54.5856 390.758 67.566C319.175 76.7287 262.481 95.6268 222.203 124.069C187.461 148.503 165.509 180 159.019 215.123C146.993 278.689 185.743 349.127 253.509 386.16C275.079 398.759 294.168 423.002 314.212 448.581C347.808 491.34 382.55 535.435 433.708 535.435Z" fill="#EBEDF5"/>
<path d="M905.013 67.5661C929.256 67.5661 952.354 73.1019 971.634 83.7917C985.378 91.2363 996.64 100.781 1004.85 112.234C1013.63 124.069 1018.59 137.432 1019.93 151.748C1022.98 185.536 1014.39 215.314 994.349 240.13C977.551 261.128 952.163 278.88 918.948 293.197C859.009 318.967 787.235 328.13 739.894 334.238C733.595 335.002 727.486 335.765 722.142 336.529C681.864 342.065 645.022 379.479 606.081 418.993C564.085 461.561 520.754 505.466 466.541 518.828C438.099 525.7 411.756 519.973 386.177 501.266C363.652 484.85 344.754 460.988 326.237 437.891C307.53 414.412 289.778 392.078 270.498 380.433C206.168 344.546 169.327 276.781 181.162 215.314C187.652 181.336 208.841 150.794 242.437 127.314C280.806 100.208 334.828 82.0737 402.784 73.4837C421.873 71.0021 439.435 70.0476 456.042 70.0476C523.808 70.0476 571.339 87.9912 611.235 103.071C634.714 112.043 655.139 119.679 674.801 121.588C722.523 126.169 763.374 121.969 830.567 86.8459C853.664 74.629 879.434 68.1387 905.204 67.9478C904.822 67.5661 905.013 67.5661 905.013 67.5661ZM443.443 518.255C450.506 518.255 457.951 517.301 465.777 515.392C519.036 502.411 562.176 458.698 603.79 416.511C643.113 376.616 680.337 338.819 721.76 333.093C727.105 332.329 733.213 331.566 739.512 330.802C786.853 324.885 858.245 315.722 917.612 290.143C988.623 259.6 1022.03 213.024 1016.49 152.13C1014.2 125.024 997.595 101.926 970.106 86.8459C950.827 76.347 928.493 71.193 905.395 71.193C880.389 71.193 854.619 77.3014 831.712 89.5183C763.755 125.024 722.523 129.414 674.038 124.642C653.994 122.733 633.378 114.907 609.708 105.935C560.649 87.4186 499.565 64.321 402.975 76.5378C335.591 85.1278 282.333 103.071 244.346 129.796C211.513 152.894 190.897 182.481 184.407 215.696C172.954 275.635 208.841 342.065 272.025 377.188C291.878 389.214 309.821 411.739 328.719 435.6C361.17 476.26 394.576 518.255 443.443 518.255Z" fill="#EBEDF5"/>
<path d="M887.642 76.7288C910.549 76.7288 932.311 82.0737 950.445 92C977.36 106.698 993.586 129.605 995.877 156.33C1001.03 215.314 968.961 260.173 900.623 289.57C844.311 313.813 776.736 322.403 732.068 328.13C726.15 328.893 720.424 329.657 715.461 330.23C677.474 335.384 642.923 370.507 606.272 407.731C566.758 447.817 525.908 489.24 474.94 501.839C414.619 516.728 375.296 467.861 340.745 424.911C323.374 403.149 306.767 382.724 289.014 371.462C229.075 337.483 195.097 273.535 206.359 215.887C212.659 183.818 232.702 154.993 264.199 132.85C300.468 107.462 351.053 90.282 414.619 82.2646C432.563 79.9739 449.17 79.0195 464.632 79.0195C528.389 79.0195 573.248 96.0086 610.662 110.134C632.806 118.534 651.894 125.787 670.411 127.505C713.552 131.705 753.257 127.505 817.395 94.0998C839.348 82.6464 863.59 76.7288 887.642 76.7288ZM453.561 501.075C460.242 501.075 467.114 500.312 474.368 498.403C524.381 485.995 564.849 444.954 603.981 405.249C641.014 367.644 676.137 331.948 715.27 326.603C720.233 325.839 725.959 325.266 731.877 324.503C776.354 318.776 843.547 310.377 899.478 286.134C966.289 257.31 997.595 213.787 992.631 156.33C990.532 130.75 975.07 108.989 949.109 94.8633C911.694 74.4382 860.727 75.2018 819.495 97.154C754.593 130.941 714.315 135.141 670.602 130.941C651.704 129.032 632.424 121.779 609.899 113.38C563.704 96.0086 506.246 74.2473 415.574 85.7007C352.389 93.718 302.377 110.516 266.68 135.714C235.947 157.475 216.286 185.345 210.177 216.651C199.106 272.772 232.32 335.193 291.114 368.407C309.439 379.861 326.047 400.668 343.799 422.62C373.387 459.652 406.602 501.075 453.561 501.075Z" fill="#EBEDF5"/>
<path d="M870.272 85.7007C870.463 85.7007 870.463 85.7007 870.654 85.7007C892.033 85.7007 912.267 90.6638 929.257 100.208C954.645 114.143 969.725 135.714 971.825 160.911C976.597 216.269 946.437 258.264 882.489 285.943C829.613 308.659 766.428 316.676 724.624 322.021C719.088 322.785 713.743 323.358 708.971 324.121C673.465 328.893 641.014 361.917 606.463 396.85C569.431 434.455 531.253 473.205 483.531 485.041C426.264 499.357 388.659 452.971 355.444 412.121C339.219 392.268 323.947 373.37 307.722 362.872C281.379 347.6 259.236 325.076 245.492 299.306C231.175 272.39 226.403 243.948 231.939 217.032C238.047 186.872 256.754 159.956 286.342 139.15C320.511 114.907 367.852 98.872 427.409 91.4273C513.309 80.5466 567.522 100.972 611.235 117.579C632.042 125.406 649.986 132.278 667.166 133.805C706.871 137.622 743.903 133.614 805.561 101.926C825.413 91.2364 847.938 85.7007 870.272 85.7007ZM462.915 484.086C469.214 484.086 475.895 483.323 482.767 481.605C529.535 469.96 567.522 431.592 604.173 394.368C639.105 359.054 671.938 325.648 708.589 320.494C713.361 319.922 718.515 319.158 724.242 318.394C765.856 313.05 828.658 305.032 881.153 282.507C943.573 255.592 972.97 214.742 968.389 161.102C966.48 137.05 951.972 116.625 927.73 103.262C892.797 84.1735 845.456 84.7462 807.088 104.98C744.858 137.05 707.253 141.058 666.784 137.241C649.031 135.523 630.897 128.651 609.899 120.824C566.567 104.408 512.737 84.1735 427.791 95.0542C368.806 102.499 322.038 118.343 288.633 141.822C259.809 162.056 241.483 188.399 235.566 217.605C225.067 270.099 255.609 328.512 309.631 359.817C326.238 370.698 341.7 389.596 358.117 409.83C386.75 444.763 418.628 484.086 462.915 484.086Z" fill="#EBEDF5"/>
<path d="M853.092 94.8632C853.283 94.8632 853.473 94.8632 853.664 94.8632C873.517 95.054 892.415 99.6354 908.259 108.416C931.929 121.397 946.055 141.631 947.964 165.301C952.354 217.032 924.293 256.355 864.354 282.125C815.105 303.314 756.12 310.95 717.179 315.913C712.025 316.485 707.062 317.249 702.671 317.822C669.456 322.403 639.105 353.136 607.036 385.778C572.485 420.711 536.788 456.98 492.311 468.242C438.099 481.986 402.021 438.082 370.142 399.331C355.253 381.197 341.318 364.208 326.62 354.281C302.377 339.965 282.142 318.776 269.544 294.724C256.563 269.718 252.364 242.993 257.518 217.987C263.435 189.735 280.997 164.538 308.676 145.067C340.364 122.733 384.459 107.844 439.626 100.781C519.799 90.4727 570.385 109.753 611.044 125.024C630.324 132.277 647.122 138.577 663.157 140.295C698.472 143.731 734.168 139.913 792.771 109.943C811.669 99.8263 832.285 94.8632 853.092 94.8632ZM472.459 466.906C478.567 466.906 484.867 466.142 491.357 464.424C534.88 453.544 570.194 417.657 604.363 382.915C637.005 349.891 667.738 318.585 702.098 314.004C706.489 313.431 711.452 312.859 716.606 312.095C755.356 307.132 813.959 299.687 862.827 278.689C921.048 253.492 948.345 215.505 944.146 165.492C942.237 142.967 928.875 123.878 906.35 111.28C874.089 93.5269 830.185 93.9088 794.489 112.616C734.931 142.967 698.853 146.785 662.775 143.349C646.168 141.822 629.37 135.332 609.708 127.887C569.431 112.616 519.227 93.7178 440.008 103.835C385.223 110.898 341.7 125.596 310.585 147.549C283.67 166.447 266.49 190.88 260.954 218.178C250.837 266.854 278.707 321.449 328.338 350.845C343.418 361.153 357.544 378.333 372.624 396.659C400.112 429.874 430.463 466.906 472.459 466.906Z" fill="#EBEDF5"/>
<path d="M835.721 103.835C836.102 103.835 836.293 103.835 836.675 103.835C855 104.026 872.371 108.416 887.07 116.434C909.022 128.651 922.003 147.549 923.911 169.692C927.92 217.796 901.768 254.256 846.22 278.117C800.406 297.778 745.812 304.841 709.734 309.423C704.962 309.995 700.38 310.568 696.372 311.141C665.639 315.34 637.387 343.974 607.417 374.325C575.348 406.776 542.324 440.372 500.901 450.871C449.743 464.043 415.192 422.429 384.65 385.778C371.097 369.553 358.498 354.282 345.518 345.119C323.374 331.566 304.858 311.904 293.596 289.57C281.761 266.282 278.325 241.657 283.288 218.369C288.823 192.026 305.431 168.546 331.01 150.603C360.407 129.796 401.257 116.052 452.225 109.562C466.732 107.653 480.285 106.889 492.884 106.889C544.615 106.889 581.075 120.633 611.426 132.087C629.37 138.959 644.832 144.685 659.721 146.212C691.79 149.267 724.623 145.64 780.745 117.388C797.734 108.416 816.632 103.835 835.721 103.835ZM482.003 449.726C487.73 449.726 493.647 448.962 499.947 447.435C540.224 437.127 573.057 403.913 604.745 371.843C635.096 341.11 663.73 312.095 695.608 307.705C699.617 307.132 704.198 306.559 709.161 305.987C745.048 301.405 799.452 294.533 844.692 275.063C898.714 251.774 924.102 216.46 920.285 170.264C918.567 149.267 906.159 131.514 885.352 119.87C855.573 103.453 815.296 103.644 782.463 120.633C756.502 133.614 734.168 142.204 713.933 146.594C695.799 150.603 678.428 151.557 659.53 149.839C644.068 148.312 628.415 142.395 610.281 135.523C572.866 121.397 526.289 103.835 452.797 113.189C402.212 119.679 362.125 133.232 333.11 153.657C308.294 171.219 292.259 193.935 286.915 219.323C277.37 264.182 302.377 314.958 347.617 342.446C347.617 342.446 347.617 342.446 347.808 342.446C361.17 351.991 374.151 367.453 387.704 383.869C413.283 414.984 442.489 449.726 482.003 449.726Z" fill="#EBEDF5"/>
<path d="M818.35 112.807C818.732 112.807 819.113 112.807 819.686 112.807C836.484 112.998 852.519 117.006 865.881 124.642C886.115 136.095 898.141 153.657 899.859 174.273C903.486 218.75 879.243 252.347 827.894 274.49C785.708 292.624 735.313 299.115 701.907 303.314C697.517 303.887 693.317 304.459 689.5 304.841C661.248 308.659 635.096 335.193 607.417 363.062C577.83 393.032 547.287 423.956 509.3 433.691C461.005 446.29 427.982 406.967 398.776 372.416C386.75 358.099 375.487 344.737 364.034 336.147C343.99 323.548 327.383 305.223 317.266 284.607C306.767 263.037 303.713 240.321 308.485 218.75C313.83 194.507 329.101 172.746 352.771 155.948C379.878 136.859 417.483 124.069 464.251 117.961C477.613 116.243 490.211 115.479 501.856 115.479C549.578 115.479 583.174 128.078 611.235 138.768C627.842 145.067 641.968 150.412 655.712 151.748C689.691 154.993 722.333 147.167 768.146 124.451C783.799 117.006 801.17 112.807 818.35 112.807ZM491.548 432.737C497.083 432.737 502.619 431.973 508.537 430.446C545.569 420.902 575.73 390.36 604.936 360.772C632.996 332.329 659.53 305.414 689.118 301.405C692.936 300.833 697.135 300.451 701.526 299.878C734.74 295.679 784.753 289.379 826.367 271.245C875.998 249.865 899.478 217.414 896.042 174.655C894.515 155.184 883.252 138.577 863.972 127.887C836.866 112.616 799.834 112.807 769.864 128.269C723.287 151.366 690.263 159.384 655.521 155.948C641.205 154.612 626.888 149.076 610.09 142.776C575.539 129.796 532.589 113.57 464.823 122.16C418.628 128.078 381.596 140.677 354.871 159.384C331.964 175.609 317.075 196.607 311.921 219.896C302.949 261.128 325.092 307.705 365.752 333.284C365.752 333.284 365.752 333.284 365.943 333.284C377.587 342.065 389.231 355.809 401.448 370.125C426.455 399.904 454.324 432.737 491.548 432.737Z" fill="#EBEDF5"/>
<path d="M801.17 121.969C816.632 121.969 831.903 125.596 844.693 132.85C863.4 143.349 874.28 159.765 875.807 178.854C879.053 219.705 856.719 250.629 809.76 270.863C771.009 287.47 725.005 293.388 694.463 297.206C690.454 297.778 686.445 298.16 683.2 298.733C657.239 302.36 633.378 326.602 607.99 352.182C580.884 379.67 552.823 407.921 518.081 417.084C497.847 422.429 478.376 418.42 458.715 404.676C441.726 392.841 427.218 375.852 413.092 359.435C402.593 347.218 392.667 335.574 382.932 327.748C364.988 316.104 350.29 299.114 341.318 280.216C332.155 260.364 329.674 239.557 334.064 219.895C339.218 197.561 353.344 177.518 375.105 162.247C399.921 144.685 434.281 133.041 476.849 127.505C489.257 125.978 500.52 125.215 511.209 125.215C554.923 125.215 585.656 136.859 611.426 146.594C626.506 152.321 639.678 157.284 652.276 158.429C682.246 161.293 712.216 153.848 755.929 132.468C770.055 125.596 785.899 121.969 801.17 121.969ZM500.901 415.748C506.055 415.748 511.4 414.984 516.936 413.648C550.723 404.867 578.402 376.806 605.127 349.7C630.897 323.548 655.331 298.924 682.437 295.106C685.873 294.724 689.691 294.151 693.699 293.579C724.051 289.761 769.864 283.843 808.042 267.427C853.473 247.765 874.853 218.177 871.799 179.045C870.463 161.102 860.155 145.831 842.593 136.095C817.968 122.16 784.562 122.16 757.265 135.904C712.979 157.475 682.246 165.11 651.513 162.056C638.532 160.72 625.17 155.757 609.708 150.03C578.211 138.004 538.888 123.306 476.849 131.132C434.854 136.477 401.066 147.93 376.823 165.11C355.826 180 342.272 199.089 337.309 220.659C328.528 258.837 347.617 300.451 384.459 324.503C384.459 324.503 384.65 324.503 384.65 324.694C394.576 332.711 404.693 344.355 415.383 356.954C439.435 384.633 465.969 415.748 500.901 415.748Z" fill="#EBEDF5"/>
<path d="M783.799 130.941C797.925 130.941 811.86 134.377 823.504 141.059C840.493 150.794 850.419 165.683 851.755 183.436C854.428 220.468 834.194 248.72 791.625 267.236C756.502 282.316 714.697 287.661 687.018 291.288C683.2 291.67 679.764 292.243 676.71 292.624C653.231 295.87 631.278 317.822 608.181 341.301C583.556 366.117 558.168 391.887 526.671 400.286C507.582 405.44 489.066 401.622 470.359 388.451C454.133 377.188 439.626 360.39 426.836 345.692C418.055 335.575 409.656 325.839 401.639 318.967C385.795 308.087 372.815 292.624 365.37 275.444C357.543 257.501 355.444 238.603 359.834 220.659C364.797 200.234 377.778 182.1 397.439 167.974C419.964 151.939 450.888 141.44 489.448 136.477C546.715 129.223 582.793 142.777 611.808 153.848C625.552 159.002 637.387 163.583 648.84 164.538C674.801 167.019 702.289 159.957 743.903 140.104C756.12 134.187 770.246 130.941 783.799 130.941ZM510.255 398.568C515.218 398.568 520.181 397.995 525.526 396.468C556.068 388.26 581.075 362.872 605.318 338.438C628.797 314.577 651.131 292.052 675.947 288.616C679.001 288.234 682.437 287.661 686.255 287.28C713.743 283.844 755.165 278.499 789.907 263.609C830.948 245.857 850.419 218.941 847.938 183.627C846.792 167.21 837.439 153.275 821.595 144.304C799.643 131.705 769.673 131.514 745.239 143.731C702.862 163.774 674.801 171.028 648.268 168.547C636.432 167.401 624.406 162.82 610.281 157.475C581.647 146.594 545.951 133.232 489.639 140.295C451.843 145.067 421.491 155.566 399.348 171.219C380.259 184.581 367.851 202.143 363.079 221.614C354.871 255.974 371.097 293.77 403.548 315.913C403.548 315.913 403.739 315.913 403.739 316.104C411.947 323.167 420.346 332.902 429.318 343.21C452.224 369.362 477.613 398.568 510.255 398.568Z" fill="#EBEDF5"/>
<path d="M766.428 139.913C779.218 139.913 791.816 142.967 802.506 149.076C817.777 157.857 826.749 171.601 827.703 187.826C829.994 221.232 811.86 246.62 773.3 263.227C741.803 276.781 704.198 281.744 679.383 284.798C675.947 285.18 672.892 285.561 670.22 285.943C649.031 288.807 629.37 308.659 608.563 329.848C586.42 352.182 563.513 375.279 535.261 383.106C494.984 394.177 464.632 359.436 440.008 331.375C432.945 323.357 426.454 315.913 420.346 310.186C391.14 289.188 377.014 253.492 385.222 221.423C389.995 202.906 401.83 186.49 419.582 173.891C439.817 159.575 467.496 150.03 501.856 145.64C511.973 144.304 521.326 143.731 529.916 143.731C565.804 143.731 590.81 153.275 611.808 161.102C624.216 165.683 634.714 169.883 645.022 170.837C666.784 172.937 691.79 166.256 731.304 147.93C742.376 142.586 754.593 139.913 766.428 139.913ZM519.99 381.388C524.572 381.388 529.344 380.815 534.116 379.479C561.413 372.034 583.938 349.318 605.699 327.366C627.079 305.796 647.122 285.561 669.647 282.507C672.511 282.125 675.565 281.744 678.81 281.362C703.435 278.308 740.658 273.535 771.773 259.982C808.614 244.138 826.176 219.896 823.886 188.208C822.931 173.319 814.532 160.72 800.406 152.512C780.935 141.249 754.593 140.868 732.831 151.557C692.554 170.264 666.975 176.946 644.45 174.846C633.76 173.891 622.879 169.692 610.281 164.92C584.511 155.184 552.441 143.158 502.047 149.458C416.719 160.338 394.385 199.852 388.659 222.377C380.832 252.919 394.385 287.089 422.446 307.132L422.637 307.323C428.936 313.24 435.617 320.876 442.68 328.893C463.678 352.754 488.875 381.388 519.99 381.388Z" fill="#EBEDF5"/>
<path d="M749.057 149.076C760.51 149.076 771.773 151.939 781.317 157.475C794.87 165.492 802.888 177.9 803.651 192.599C805.56 222.377 789.335 245.093 755.166 259.792C727.105 271.818 693.89 276.208 671.747 278.881C668.884 279.262 666.02 279.644 663.539 280.026C644.832 282.507 627.27 300.26 608.754 318.967C589.092 338.82 568.858 359.245 543.851 366.308C526.862 371.08 509.873 367.453 492.12 355.045C477.04 344.546 463.869 329.466 452.415 316.295C447.643 310.759 443.062 305.605 439.053 301.406C414.429 282.317 402.975 250.438 410.611 222.187C415.001 205.77 425.882 191.072 441.726 179.809C459.86 167.02 484.103 158.62 514.073 154.803C559.886 148.885 588.71 159.957 611.808 168.738C622.689 172.937 632.233 176.373 641.205 177.328C661.821 179.237 685.3 171.028 718.897 155.948C728.441 151.176 738.94 149.076 749.057 149.076ZM529.344 364.399C533.734 364.399 538.125 363.826 542.897 362.49C566.949 355.809 586.801 335.575 606.272 316.104C625.361 296.824 643.305 278.69 663.348 276.017C665.829 275.635 668.502 275.254 671.556 274.872C714.697 269.336 804.415 257.883 800.215 192.599C799.452 179.237 792.198 167.974 779.79 160.72C762.992 150.794 739.894 150.221 721.187 159.193C686.827 174.464 662.966 183.054 641.396 180.954C631.851 180 622.116 176.373 611.044 172.174C588.329 163.584 559.886 152.894 515.027 158.62C440.58 168.165 420.155 203.289 414.81 223.332C407.557 250.247 418.437 280.408 441.917 298.542L442.107 298.733C446.307 303.124 450.888 308.278 455.851 313.813C475.322 336.72 499.565 364.399 529.344 364.399Z" fill="#EBEDF5"/>
<path d="M731.686 158.047C741.803 158.047 751.73 160.529 760.129 165.683C771.964 172.746 778.836 184.008 779.599 197.18C781.126 223.331 766.81 243.184 736.84 256.164C712.406 266.663 683.391 270.481 664.111 272.963C661.63 273.344 659.148 273.535 657.049 273.917C640.632 276.208 625.361 291.67 608.945 308.086C591.765 325.457 574.012 343.21 552.25 349.509C515.027 360.581 483.53 323.548 462.724 298.924C460.815 296.824 459.097 294.724 457.379 292.815C437.144 275.635 428.554 247.574 435.808 223.141C440.199 208.633 449.743 195.843 463.487 185.917C479.331 174.655 500.329 167.401 526.099 164.156C533.925 163.201 541.179 162.629 548.051 162.629C575.921 162.629 595.391 170.073 611.617 176.182C621.161 179.809 629.37 182.863 637.196 183.627C655.521 185.345 679.001 175.418 706.298 163.774C714.506 159.765 723.287 158.047 731.686 158.047ZM538.888 347.409C542.897 347.409 547.096 346.837 551.296 345.5C572.103 339.392 589.474 321.83 606.272 305.032C623.07 288.043 638.914 272.199 656.667 269.718C658.767 269.336 661.248 269.145 663.73 268.763C701.144 263.991 779.218 254.065 775.782 197.18C775.209 185.345 768.91 175.418 758.22 168.928C743.903 160.338 724.432 159.575 708.398 167.019C680.528 178.854 656.667 189.162 637.387 187.253C628.988 186.49 620.589 183.245 610.853 179.618C591.001 172.173 566.185 162.82 527.244 167.783C463.487 175.991 445.353 206.533 440.199 224.095C433.327 247.193 441.535 273.726 460.624 289.761L460.815 289.952C462.533 291.861 464.251 294.151 466.159 296.251C483.721 317.058 509.3 347.409 538.888 347.409Z" fill="#EBEDF5"/>
<path d="M714.315 167.019C723.096 167.019 731.877 169.31 738.94 173.701C749.057 180 754.975 189.926 755.547 201.379C756.693 223.904 744.285 240.893 718.706 252.156C697.708 261.128 673.083 264.373 656.667 266.473C654.567 266.663 652.467 267.045 650.749 267.236C636.814 269.145 623.452 282.507 609.517 296.633C594.819 311.332 579.738 326.603 561.222 332.329C535.452 340.347 506.246 323.548 476.658 283.653C460.624 268.191 454.897 244.52 461.96 223.332C466.159 210.924 474.559 199.852 486.585 191.262C500.138 181.718 517.89 175.419 539.27 172.746C545.951 171.982 552.25 171.601 557.977 171.601C581.838 171.601 598.446 177.9 612.571 183.245C620.78 186.299 627.652 188.972 634.333 189.544C646.931 190.69 663.539 184.008 682.819 175.991C686.636 174.464 690.645 172.746 694.845 171.028C700.762 168.356 707.634 167.019 714.315 167.019ZM548.051 330.42C551.869 330.42 555.877 329.848 559.695 328.702C577.257 323.358 592.146 308.468 606.463 293.961C620.97 279.262 634.714 265.518 649.986 263.418C651.704 263.227 653.803 262.846 656.094 262.655C687.973 258.646 754.211 250.056 751.729 201.761C751.348 191.453 746.003 182.863 737.031 177.137C725.387 169.883 709.352 168.928 695.99 174.846C691.79 176.564 687.782 178.091 683.964 179.809C664.302 187.826 647.313 194.889 633.76 193.553C626.506 192.789 619.253 190.117 611.044 186.872C594.055 180.382 573.057 172.555 539.652 176.755C486.775 183.436 470.55 209.588 465.587 224.668C459.097 244.52 464.441 266.663 479.331 280.98L479.522 281.171C496.702 304.65 521.899 330.42 548.051 330.42Z" fill="#EBEDF5"/>
<path d="M696.944 175.991C704.389 175.991 711.834 178.091 717.942 181.909C726.341 187.444 731.304 196.034 731.495 205.961C732.259 224.859 721.76 239.175 700.38 248.338C683.009 255.974 662.584 258.455 648.84 260.173C647.122 260.364 645.404 260.555 643.877 260.746C632.233 262.273 621.161 273.535 609.326 285.371C597.109 297.587 584.511 310.186 569.43 315.149C556.259 319.54 541.179 316.485 525.717 306.559C513.691 298.733 502.237 286.707 494.793 274.49C483.339 260.937 480.285 240.893 486.966 223.522C492.12 210.351 507.201 187.254 551.105 181.718C579.547 178.091 597.682 184.963 611.999 190.308C618.68 192.789 624.597 195.08 629.942 195.653C638.532 196.416 650.176 191.644 663.539 185.917C669.265 183.436 675.374 180.954 681.673 178.664C686.827 176.946 691.981 175.991 696.944 175.991ZM557.404 313.24C561.031 313.24 564.849 312.668 568.476 311.522C582.793 306.941 595.009 294.533 606.845 282.698C619.252 270.29 630.706 258.646 643.686 256.928C645.213 256.737 646.931 256.546 648.649 256.355C674.801 252.919 729.395 246.047 727.677 206.152C727.296 197.371 723.287 190.117 715.842 185.345C706.68 179.427 694.081 178.282 683.582 182.672C677.283 184.963 671.365 187.444 665.638 189.926C651.704 195.844 639.678 200.807 630.133 199.852C624.216 199.28 618.107 196.989 611.044 194.316C596.918 188.972 579.547 182.481 552.059 185.917C510.255 191.262 495.938 212.833 491.166 225.24C484.866 241.466 487.73 259.982 498.42 272.39L498.61 272.581C509.682 291.097 533.734 313.24 557.404 313.24Z" fill="#EBEDF5"/>
<path d="M679.573 184.963C685.873 184.963 691.981 186.872 696.944 190.308C703.625 194.889 707.443 202.143 707.443 210.733C707.825 226.004 699.235 237.457 682.246 244.902C668.502 251.011 652.085 252.919 641.396 254.447C640.059 254.637 638.723 254.828 637.578 255.019C628.415 256.355 619.252 265.327 609.708 274.872C599.973 284.416 590.046 294.533 578.02 298.733C554.35 307.323 523.426 287.852 513.309 266.091C506.055 254.256 505.673 238.221 512.545 224.095C517.509 213.596 530.871 195.462 563.513 191.262C586.229 188.399 600.736 193.744 612.189 198.134C617.534 200.234 622.116 201.952 626.315 202.334C632.042 202.907 640.632 199.089 649.604 194.889C656.094 192.026 662.775 188.972 669.456 186.872C672.892 185.345 676.328 184.963 679.573 184.963ZM566.185 296.442C569.812 296.442 573.439 295.87 576.875 294.724C587.947 290.716 597.682 281.171 607.036 271.818C617.153 261.7 626.697 252.347 637.196 250.82C638.341 250.629 639.678 250.438 641.014 250.247C661.63 247.575 704.198 242.23 703.625 210.733C703.434 201.57 698.662 196.225 694.844 193.553C688.354 188.972 679.001 187.635 671.365 190.308C664.684 192.408 658.194 195.271 651.894 198.134C641.968 202.716 633.378 206.533 626.506 205.961C621.734 205.579 616.771 203.67 611.235 201.57C600.163 197.371 586.229 192.217 564.467 194.889C533.734 198.898 521.326 215.696 516.745 225.431C510.636 238.412 510.827 253.11 517.509 263.8C517.509 263.8 517.508 263.991 517.699 263.991C524.953 280.98 546.905 296.442 566.185 296.442Z" fill="#EBEDF5"/>
<path d="M662.012 193.744C667.166 193.744 672.32 195.462 676.137 198.516C679.573 201.188 683.582 206.342 683.391 215.123C683.2 241.657 649.795 246.047 633.76 247.956C632.806 248.147 631.851 248.147 630.897 248.338C624.025 249.292 617.153 256.164 609.708 263.418C602.645 270.481 595.2 277.735 586.61 281.362C577.257 285.18 564.086 284.034 552.441 278.499C541.942 273.345 534.498 265.518 531.825 256.546C528.962 246.62 531.444 233.64 538.506 222.95C546.906 210.16 560.077 201.952 575.73 199.852C592.719 197.752 603.6 201.761 612.19 205.006C616.007 206.533 619.443 207.679 622.498 208.06C625.934 208.442 631.851 205.388 637.96 202.143C643.877 199.089 650.749 195.462 657.239 194.126C659.148 193.744 660.675 193.744 662.012 193.744ZM574.394 279.644C578.402 279.644 582.22 279.071 585.465 277.735C593.292 274.49 600.354 267.427 607.226 260.746C615.053 252.919 622.498 245.666 630.706 244.52C631.469 244.329 632.424 244.329 633.569 244.138C648.458 242.23 679.383 238.221 679.573 215.314C679.573 209.588 677.665 205.006 673.847 201.952C669.838 198.707 663.921 197.371 658.767 198.325C652.849 199.661 646.359 203.097 640.632 205.961C633.569 209.588 627.461 212.833 622.879 212.451C619.252 212.069 615.626 210.733 611.426 209.206C603.218 206.152 593.101 202.334 577.066 204.243C562.749 206.152 550.532 213.596 542.897 225.431C536.407 235.167 534.116 246.811 536.598 255.783C538.888 263.418 545.569 270.481 555.114 275.063C561.031 277.926 568.094 279.644 574.394 279.644Z" fill="#EBEDF5"/>
</g>
<defs>
<linearGradient id="paint0_linear" x1="425" y1="0" x2="425" y2="218" gradientUnits="userSpaceOnUse">
<stop stop-color="#F4F5FA"/>
<stop offset="1" stop-color="#EBEDF5"/>
</linearGradient>
</defs>
</svg>
