<svg width="1920" height="358" viewBox="0 0 1920 358" fill="none" xmlns="http://www.w3.org/2000/svg">
<mask id="mask0" mask-type="alpha" maskUnits="userSpaceOnUse" x="0" y="0" width="1920" height="358">
<rect width="1920" height="358" fill="#C4C4C4"/>
</mask>
<g mask="url(#mask0)">
<path d="M618.235 -33.6101C619.332 -32.5111 623.382 -25.4963 627.222 -18.2449L634.152 -5.0411L636.537 -7.11072C639.095 -9.28033 641.91 -9.4045 643.11 -7.32604C643.51 -6.63322 643.363 -6.08681 642.867 -6.14662C642.284 -6.15642 641.138 -4.3404 640.33 -2.14136L638.958 1.88351L644.42 5.54306C649.085 8.62319 655.223 13.855 662.611 21.2518C664.654 23.1901 661.02 26.0963 657.359 25.5545C648.41 24.2547 639.41 19.8667 632.722 13.6823L629.87 10.9414L629.312 16.5751C628.694 22.7052 627.605 23.2186 622.343 19.9055C619.731 18.1806 613.994 8.44454 614.457 6.4455C614.603 5.89909 617.032 5.30531 619.71 5.14454C622.475 4.93377 624.88 4.6998 625.14 4.54979C625.313 4.4498 624.027 2.42133 622.267 -0.0267431C618.411 -5.30591 614.576 -16.9482 614.207 -24.5872C614.033 -27.4888 613.635 -30.3771 613.335 -30.8967C612.985 -31.503 613.242 -32.4592 613.734 -33.2056C614.277 -33.8654 615.033 -33.9556 615.383 -33.3494C615.783 -32.6565 615.993 -32.8931 616.063 -33.9726C616.156 -35.4118 616.565 -35.302 618.235 -33.6101Z" fill="#84EECA"/>
<path d="M1241.83 48.9352C1243.01 50.1206 1247.38 57.687 1251.52 65.5086L1259 79.7505L1261.57 77.5182C1264.33 75.178 1267.36 75.044 1268.66 77.2859C1269.09 78.0332 1268.93 78.6226 1268.4 78.5581C1267.77 78.5475 1266.53 80.5063 1265.66 82.8783L1264.18 87.2196L1270.07 91.1669C1275.1 94.4892 1281.72 100.132 1289.69 108.111C1291.9 110.201 1287.98 113.336 1284.03 112.752C1274.38 111.35 1264.67 106.617 1257.45 99.9461L1254.38 96.9897L1253.78 103.066C1253.11 109.678 1251.93 110.232 1246.26 106.659C1243.44 104.798 1237.25 94.2965 1237.75 92.1403C1237.91 91.5509 1240.53 90.9104 1243.42 90.737C1246.4 90.5097 1249 90.2573 1249.28 90.0955C1249.46 89.9877 1248.07 87.7997 1246.18 85.1591C1242.02 79.4649 1237.88 66.9072 1237.48 58.6676C1237.29 55.5378 1236.87 52.4224 1236.54 51.8619C1236.16 51.208 1236.44 50.1766 1236.97 49.3715C1237.56 48.6598 1238.37 48.5626 1238.75 49.2164C1239.18 49.9637 1239.41 49.7085 1239.48 48.5442C1239.58 46.9918 1240.03 47.1103 1241.83 48.9352Z" fill="#84EECA"/>
<path d="M1076.32 306.097C1077.67 307.456 1082.68 316.13 1087.43 325.096L1096 341.423L1098.95 338.864C1102.11 336.181 1105.59 336.028 1107.07 338.598C1107.57 339.455 1107.39 340.13 1106.77 340.056C1106.05 340.044 1104.64 342.29 1103.64 345.009L1101.94 349.986L1108.69 354.511C1114.46 358.32 1122.05 364.789 1131.19 373.935C1133.72 376.332 1129.22 379.926 1124.69 379.256C1113.63 377.649 1102.5 372.223 1094.23 364.575L1090.7 361.186L1090.01 368.153C1089.25 375.733 1087.9 376.367 1081.4 372.271C1078.17 370.138 1071.07 358.099 1071.64 355.627C1071.83 354.951 1074.83 354.217 1078.14 354.018C1081.56 353.758 1084.53 353.468 1084.85 353.283C1085.07 353.159 1083.48 350.651 1081.3 347.624C1076.53 341.096 1071.79 326.7 1071.34 317.254C1071.12 313.666 1070.63 310.095 1070.26 309.452C1069.83 308.702 1070.14 307.52 1070.75 306.597C1071.42 305.781 1072.36 305.67 1072.79 306.419C1073.29 307.276 1073.54 306.983 1073.63 305.649C1073.75 303.869 1074.25 304.005 1076.32 306.097Z" fill="#84EECA"/>
<path d="M1006.72 337.242C1007.59 338.108 1010.78 343.64 1013.81 349.359L1019.28 359.772L1021.16 358.14C1023.17 356.429 1025.39 356.331 1026.34 357.97C1026.66 358.517 1026.54 358.948 1026.15 358.9C1025.69 358.893 1024.79 360.325 1024.15 362.059L1023.07 365.233L1027.37 368.119C1031.05 370.549 1035.89 374.675 1041.72 380.508C1043.33 382.037 1040.47 384.329 1037.58 383.901C1030.52 382.876 1023.42 379.416 1018.15 374.538L1015.9 372.377L1015.46 376.82C1014.97 381.654 1014.11 382.059 1009.96 379.446C1007.9 378.086 1003.38 370.408 1003.74 368.831C1003.86 368.4 1005.77 367.932 1007.89 367.805C1010.07 367.639 1011.96 367.454 1012.17 367.336C1012.31 367.257 1011.29 365.658 1009.9 363.727C1006.86 359.564 1003.84 350.382 1003.55 344.357C1003.41 342.069 1003.1 339.791 1002.86 339.381C1002.58 338.903 1002.79 338.149 1003.17 337.561C1003.6 337.04 1004.2 336.969 1004.47 337.447C1004.79 337.994 1004.96 337.807 1005.01 336.956C1005.08 335.821 1005.41 335.907 1006.72 337.242Z" fill="#84EECA"/>
<path d="M918.82 321.321C919.911 322.415 923.942 329.396 927.763 336.613L934.66 349.753L937.034 347.694C939.579 345.534 942.381 345.411 943.575 347.479C943.973 348.169 943.827 348.713 943.333 348.653C942.753 348.643 941.613 350.451 940.808 352.639L939.444 356.645L944.879 360.287C949.521 363.352 955.63 368.559 962.983 375.92C965.016 377.849 961.4 380.741 957.756 380.202C948.85 378.908 939.894 374.541 933.237 368.387L930.398 365.659L929.843 371.266C929.229 377.366 928.145 377.877 922.908 374.58C920.308 372.863 914.599 363.174 915.06 361.185C915.205 360.641 917.622 360.05 920.288 359.89C923.039 359.68 925.433 359.447 925.692 359.298C925.864 359.199 924.584 357.18 922.832 354.744C918.995 349.49 915.178 337.903 914.811 330.301C914.638 327.413 914.242 324.539 913.944 324.022C913.595 323.418 913.85 322.467 914.341 321.724C914.881 321.067 915.634 320.978 915.982 321.581C916.38 322.27 916.589 322.035 916.658 320.961C916.75 319.528 917.158 319.638 918.82 321.321Z" fill="#84EECA"/>
<path d="M746.986 187.321C748.077 188.415 752.108 195.396 755.929 202.613L762.826 215.753L765.2 213.694C767.745 211.534 770.547 211.411 771.741 213.479C772.139 214.169 771.993 214.713 771.499 214.653C770.919 214.643 769.779 216.451 768.974 218.639L767.61 222.645L773.045 226.287C777.687 229.352 783.796 234.559 791.149 241.92C793.182 243.849 789.566 246.741 785.922 246.202C777.016 244.908 768.06 240.541 761.403 234.387L758.564 231.659L758.009 237.266C757.395 243.366 756.311 243.877 751.074 240.58C748.474 238.863 742.765 229.174 743.226 227.185C743.371 226.641 745.788 226.05 748.454 225.89C751.205 225.68 753.599 225.447 753.858 225.298C754.03 225.199 752.75 223.18 750.998 220.744C747.161 215.49 743.344 203.903 742.977 196.301C742.804 193.413 742.408 190.539 742.11 190.022C741.761 189.418 742.016 188.467 742.507 187.724C743.047 187.067 743.8 186.978 744.148 187.581C744.546 188.27 744.755 188.035 744.824 186.961C744.916 185.528 745.324 185.638 746.986 187.321Z" fill="#84EECA"/>
<path d="M495.986 171.321C497.077 172.415 501.108 179.396 504.929 186.613L511.826 199.753L514.2 197.694C516.745 195.534 519.547 195.411 520.741 197.479C521.139 198.169 520.993 198.713 520.499 198.653C519.919 198.643 518.779 200.451 517.974 202.639L516.61 206.645L522.045 210.287C526.687 213.352 532.796 218.559 540.149 225.92C542.182 227.849 538.566 230.741 534.922 230.202C526.016 228.908 517.06 224.541 510.403 218.387L507.564 215.659L507.009 221.266C506.395 227.366 505.311 227.877 500.074 224.58C497.474 222.863 491.765 213.174 492.226 211.185C492.371 210.641 494.788 210.05 497.454 209.89C500.205 209.68 502.599 209.447 502.858 209.298C503.03 209.199 501.75 207.18 499.998 204.744C496.161 199.49 492.344 187.903 491.977 180.301C491.804 177.413 491.408 174.539 491.11 174.022C490.761 173.418 491.016 172.467 491.507 171.724C492.047 171.067 492.8 170.978 493.148 171.581C493.546 172.27 493.755 172.035 493.824 170.961C493.916 169.528 494.324 169.638 495.986 171.321Z" fill="#84EECA"/>
<path d="M228.472 272.861C229.611 274.003 233.817 281.288 237.805 288.819L245.003 302.533L247.48 300.383C250.136 298.13 253.06 298.001 254.306 300.16C254.722 300.879 254.57 301.447 254.054 301.384C253.449 301.374 252.259 303.26 251.419 305.544L249.995 309.724L255.667 313.525C260.512 316.724 266.887 322.158 274.56 329.84C276.682 331.853 272.908 334.871 269.105 334.309C259.811 332.959 250.464 328.401 243.518 321.978L240.555 319.132L239.976 324.983C239.334 331.349 238.203 331.883 232.739 328.442C230.025 326.65 224.068 316.539 224.548 314.462C224.7 313.895 227.222 313.278 230.004 313.111C232.876 312.892 235.374 312.649 235.643 312.494C235.823 312.39 234.487 310.283 232.659 307.74C228.654 302.258 224.672 290.166 224.288 282.232C224.107 279.219 223.695 276.219 223.383 275.679C223.02 275.05 223.286 274.057 223.798 273.282C224.361 272.596 225.147 272.503 225.51 273.132C225.926 273.852 226.144 273.606 226.216 272.485C226.312 270.99 226.738 271.104 228.472 272.861Z" fill="#84EECA"/>
<path d="M111.533 237.168C113.048 238.687 118.646 248.383 123.954 258.405L133.533 276.655L136.829 273.795C140.364 270.796 144.255 270.624 145.913 273.497C146.466 274.455 146.264 275.21 145.578 275.127C144.772 275.114 143.189 277.624 142.071 280.663L140.176 286.226L147.724 291.284C154.172 295.541 162.656 302.772 172.868 312.996C175.691 315.675 170.669 319.692 165.608 318.943C153.24 317.147 140.801 311.082 131.556 302.534L127.613 298.745L126.842 306.532C125.989 315.005 124.483 315.715 117.211 311.135C113.6 308.751 105.671 295.294 106.31 292.531C106.513 291.776 109.869 290.955 113.571 290.733C117.393 290.442 120.718 290.119 121.077 289.911C121.316 289.773 119.538 286.969 117.105 283.586C111.776 276.289 106.475 260.198 105.965 249.639C105.724 245.629 105.175 241.637 104.761 240.919C104.277 240.081 104.631 238.759 105.312 237.727C106.062 236.815 107.108 236.691 107.591 237.529C108.144 238.486 108.434 238.159 108.53 236.667C108.659 234.678 109.225 234.83 111.533 237.168Z" fill="#84EECA"/>
<path d="M47.747 262.578C48.4293 263.262 50.9496 267.628 53.3394 272.14L57.6523 280.357L59.1363 279.069C60.7281 277.719 62.4799 277.642 63.2267 278.935C63.4756 279.366 63.3845 279.706 63.0756 279.669C62.7127 279.663 61.9999 280.793 61.4966 282.161L60.6432 284.666L64.0419 286.944C66.945 288.86 70.7649 292.116 75.3627 296.719C76.634 297.925 74.3727 299.734 72.0941 299.397C66.5252 298.588 60.9246 295.857 56.7624 292.009L54.9872 290.303L54.64 293.809C54.2557 297.624 53.5778 297.943 50.3036 295.881C48.6778 294.808 45.1079 288.749 45.3957 287.505C45.4868 287.165 46.998 286.796 48.6648 286.696C50.3856 286.564 51.8824 286.419 52.0441 286.325C52.1518 286.263 51.3512 285.001 50.256 283.477C47.8563 280.192 45.4698 272.947 45.2402 268.193C45.1318 266.388 44.8845 264.59 44.6978 264.267C44.48 263.89 44.6395 263.294 44.9461 262.83C45.284 262.419 45.7546 262.363 45.9724 262.74C46.2213 263.172 46.3518 263.024 46.3952 262.353C46.4529 261.457 46.708 261.525 47.747 262.578Z" fill="#84EECA"/>
<path d="M38.1787 176.054C39.081 176.958 42.4136 182.73 45.5737 188.698L51.2765 199.563L53.2389 197.86C55.3437 196.074 57.6602 195.972 58.6476 197.682C58.9768 198.253 58.8563 198.702 58.4478 198.653C57.9681 198.645 57.0255 200.139 56.3599 201.949L55.2315 205.261L59.7256 208.272C63.5644 210.807 68.6155 215.112 74.6952 221.199C76.3762 222.794 73.3861 225.185 70.3731 224.739C63.0093 223.67 55.6036 220.059 50.0999 214.97L47.7526 212.714L47.2935 217.35C46.7852 222.395 45.8889 222.817 41.5593 220.091C39.4096 218.671 34.689 210.66 35.0696 209.015C35.1901 208.565 37.1884 208.077 39.3924 207.944C41.6678 207.771 43.647 207.578 43.8608 207.455C44.0033 207.373 42.9446 205.703 41.4965 203.689C38.3233 199.345 35.1676 189.765 34.864 183.479C34.7207 181.091 34.3937 178.714 34.1468 178.287C33.8588 177.788 34.0697 177.001 34.4752 176.387C34.9219 175.844 35.5442 175.769 35.8322 176.268C36.1613 176.838 36.334 176.644 36.3912 175.755C36.4676 174.571 36.8049 174.662 38.1787 176.054Z" fill="#84EECA"/>
<path d="M340.698 97.9498C342.094 99.3496 347.252 108.284 352.144 117.52L360.971 134.337L364.008 131.701C367.266 128.938 370.851 128.78 372.38 131.427C372.889 132.309 372.703 133.005 372.07 132.929C371.328 132.917 369.869 135.23 368.839 138.031L367.092 143.157L374.048 147.818C379.99 151.741 387.808 158.405 397.218 167.826C399.82 170.294 395.192 173.996 390.529 173.306C379.131 171.65 367.668 166.062 359.149 158.185L355.516 154.694L354.806 161.869C354.019 169.677 352.632 170.331 345.93 166.111C342.603 163.914 335.296 151.513 335.885 148.967C336.072 148.271 339.165 147.515 342.576 147.31C346.098 147.042 349.161 146.744 349.492 146.553C349.713 146.425 348.074 143.842 345.833 140.724C340.921 134 336.037 119.172 335.567 109.442C335.345 105.746 334.839 102.068 334.457 101.406C334.011 100.634 334.338 99.4157 334.965 98.465C335.657 97.6246 336.62 97.5098 337.066 98.2819C337.575 99.1643 337.842 98.863 337.931 97.4881C338.049 95.655 338.571 95.7949 340.698 97.9498Z" fill="#84EECA"/>
<path d="M646.792 276.943C648.336 278.491 654.039 288.369 659.447 298.581L669.207 317.175L672.565 314.26C676.167 311.205 680.132 311.03 681.822 313.957C682.385 314.933 682.179 315.702 681.48 315.618C680.659 315.604 679.045 318.162 677.906 321.258L675.975 326.926L683.666 332.08C690.236 336.418 698.88 343.785 709.285 354.202C712.161 356.931 707.044 361.024 701.888 360.261C689.286 358.43 676.612 352.251 667.193 343.542L663.176 339.682L662.391 347.616C661.521 356.248 659.987 356.971 652.577 352.306C648.899 349.877 640.82 336.166 641.471 333.351C641.677 332.581 645.097 331.745 648.869 331.519C652.763 331.222 656.15 330.892 656.516 330.681C656.76 330.54 654.948 327.684 652.47 324.236C647.039 316.802 641.639 300.407 641.119 289.649C640.874 285.563 640.315 281.496 639.892 280.764C639.399 279.91 639.76 278.564 640.454 277.513C641.218 276.583 642.283 276.456 642.776 277.31C643.34 278.286 643.635 277.953 643.733 276.433C643.864 274.406 644.441 274.56 646.792 276.943Z" fill="#84EECA"/>
<path d="M557.039 231.596C558.409 232.97 563.472 241.738 568.272 250.802L576.934 267.306L579.915 264.719C583.112 262.007 586.631 261.852 588.131 264.45C588.631 265.316 588.448 265.999 587.828 265.924C587.099 265.912 585.667 268.182 584.656 270.931L582.942 275.962L589.769 280.536C595.6 284.386 603.272 290.926 612.507 300.171C615.061 302.594 610.519 306.227 605.942 305.55C594.757 303.925 583.507 298.44 575.147 290.71L571.581 287.284L570.884 294.326C570.112 301.988 568.751 302.63 562.174 298.489C558.908 296.333 551.738 284.163 552.316 281.664C552.499 280.981 555.534 280.239 558.882 280.038C562.339 279.775 565.345 279.482 565.67 279.295C565.886 279.17 564.278 276.634 562.078 273.574C557.258 266.975 552.465 252.423 552.004 242.874C551.786 239.248 551.289 235.637 550.914 234.988C550.477 234.23 550.797 233.035 551.413 232.102C552.092 231.277 553.037 231.164 553.474 231.922C553.974 232.788 554.237 232.492 554.324 231.143C554.44 229.344 554.952 229.481 557.039 231.596Z" fill="#84EECA"/>
<path d="M791.734 348.247C792.93 349.445 797.345 357.094 801.532 365L809.088 379.396L811.688 377.139C814.477 374.774 817.546 374.638 818.855 376.904C819.291 377.66 819.131 378.255 818.59 378.19C817.954 378.179 816.705 380.159 815.824 382.557L814.328 386.945L820.283 390.935C825.369 394.293 832.062 399.998 840.117 408.062C842.344 410.176 838.382 413.344 834.39 412.753C824.634 411.336 814.821 406.552 807.529 399.809L804.419 396.821L803.811 402.963C803.138 409.647 801.95 410.207 796.213 406.594C793.365 404.714 787.111 394.099 787.615 391.919C787.774 391.323 790.422 390.676 793.342 390.501C796.357 390.271 798.98 390.016 799.263 389.852C799.452 389.743 798.049 387.532 796.13 384.863C791.926 379.107 787.745 366.413 787.342 358.085C787.153 354.921 786.719 351.772 786.392 351.206C786.011 350.545 786.29 349.502 786.827 348.688C787.419 347.969 788.244 347.871 788.625 348.531C789.061 349.287 789.29 349.029 789.366 347.852C789.467 346.283 789.914 346.403 791.734 348.247Z" fill="#84EECA"/>
<path d="M688.238 186.409C688.895 187.068 691.322 191.271 693.624 195.617L697.777 203.53L699.206 202.29C700.739 200.99 702.426 200.915 703.145 202.161C703.385 202.576 703.297 202.903 703 202.868C702.65 202.862 701.964 203.95 701.479 205.268L700.657 207.68L703.93 209.873C706.726 211.719 710.405 214.855 714.833 219.287C716.057 220.449 713.879 222.191 711.685 221.866C706.322 221.087 700.928 218.457 696.92 214.751L695.211 213.108L694.876 216.485C694.506 220.158 693.853 220.466 690.7 218.481C689.135 217.447 685.697 211.612 685.974 210.414C686.061 210.087 687.517 209.731 689.122 209.634C690.779 209.508 692.221 209.368 692.376 209.278C692.48 209.218 691.709 208.002 690.654 206.535C688.343 203.371 686.045 196.394 685.824 191.816C685.72 190.077 685.481 188.346 685.302 188.035C685.092 187.672 685.246 187.099 685.541 186.651C685.866 186.256 686.319 186.202 686.529 186.565C686.769 186.98 686.895 186.839 686.936 186.192C686.992 185.329 687.238 185.395 688.238 186.409Z" fill="#84EECA"/>
<path d="M398.105 192.45C398.694 193.041 400.873 196.814 402.938 200.715L406.666 207.817L407.949 206.704C409.325 205.537 410.839 205.47 411.484 206.588C411.7 206.961 411.621 207.255 411.354 207.222C411.04 207.217 410.424 208.194 409.989 209.377L409.251 211.542L412.189 213.51C414.698 215.167 418 217.981 421.974 221.96C423.073 223.003 421.119 224.566 419.149 224.274C414.336 223.575 409.495 221.215 405.897 217.888L404.363 216.414L404.063 219.444C403.73 222.742 403.144 223.018 400.314 221.236C398.909 220.308 395.823 215.071 396.072 213.996C396.151 213.702 397.457 213.382 398.898 213.296C400.385 213.183 401.679 213.057 401.819 212.976C401.912 212.922 401.22 211.831 400.273 210.514C398.199 207.675 396.136 201.412 395.938 197.303C395.844 195.743 395.63 194.189 395.469 193.91C395.281 193.583 395.419 193.069 395.684 192.668C395.976 192.313 396.382 192.264 396.571 192.59C396.786 192.963 396.899 192.836 396.936 192.255C396.986 191.481 397.206 191.54 398.105 192.45Z" fill="#84EECA"/>
<path d="M260.882 277.957C261.472 278.548 263.65 282.322 265.716 286.222L269.444 293.324L270.726 292.211C272.102 291.044 273.616 290.977 274.262 292.095C274.477 292.468 274.398 292.762 274.131 292.73C273.818 292.724 273.201 293.701 272.766 294.884L272.029 297.049L274.967 299.018C277.476 300.674 280.778 303.488 284.752 307.467C285.851 308.51 283.896 310.073 281.926 309.782C277.113 309.082 272.272 306.722 268.674 303.396L267.14 301.921L266.84 304.952C266.508 308.249 265.922 308.525 263.092 306.743C261.686 305.815 258.601 300.578 258.849 299.503C258.928 299.209 260.235 298.89 261.675 298.803C263.163 298.69 264.456 298.564 264.596 298.483C264.689 298.429 263.997 297.338 263.051 296.022C260.976 293.182 258.914 286.92 258.715 282.811C258.621 281.25 258.408 279.696 258.246 279.417C258.058 279.091 258.196 278.576 258.461 278.175C258.753 277.82 259.16 277.771 259.348 278.097C259.563 278.47 259.676 278.343 259.713 277.762C259.763 276.988 259.984 277.047 260.882 277.957Z" fill="#84EECA"/>
<path d="M221.882 325.957C222.472 326.548 224.65 330.322 226.716 334.222L230.444 341.324L231.726 340.211C233.102 339.044 234.616 338.977 235.262 340.095C235.477 340.468 235.398 340.762 235.131 340.73C234.818 340.724 234.201 341.701 233.766 342.884L233.029 345.049L235.967 347.018C238.476 348.674 241.778 351.488 245.752 355.467C246.851 356.51 244.896 358.073 242.926 357.782C238.113 357.082 233.272 354.722 229.674 351.396L228.14 349.921L227.84 352.952C227.508 356.249 226.922 356.525 224.092 354.743C222.686 353.815 219.601 348.578 219.849 347.503C219.928 347.209 221.235 346.89 222.675 346.803C224.163 346.69 225.456 346.564 225.596 346.483C225.689 346.429 224.997 345.338 224.051 344.022C221.976 341.182 219.914 334.92 219.715 330.811C219.621 329.25 219.408 327.696 219.246 327.417C219.058 327.091 219.196 326.576 219.461 326.175C219.753 325.82 220.16 325.771 220.348 326.097C220.563 326.47 220.676 326.343 220.713 325.762C220.763 324.988 220.984 325.047 221.882 325.957Z" fill="#84EECA"/>
<path d="M439.824 179.374C440.613 180.165 443.525 185.21 446.287 190.425L451.271 199.921L452.986 198.432C454.826 196.872 456.85 196.783 457.713 198.277C458.001 198.776 457.896 199.169 457.539 199.126C457.119 199.118 456.296 200.425 455.714 202.006L454.728 204.901L458.656 207.532C462.011 209.748 466.425 213.51 471.739 218.83C473.208 220.224 470.594 222.314 467.961 221.924C461.525 220.989 455.053 217.834 450.243 213.386L448.191 211.415L447.79 215.466C447.346 219.875 446.563 220.244 442.779 217.862C440.9 216.621 436.774 209.619 437.107 208.181C437.212 207.789 438.959 207.361 440.885 207.246C442.873 207.094 444.603 206.926 444.79 206.818C444.915 206.746 443.989 205.287 442.724 203.527C439.95 199.73 437.192 191.357 436.927 185.863C436.802 183.777 436.516 181.699 436.3 181.326C436.049 180.89 436.233 180.202 436.587 179.665C436.978 179.191 437.522 179.126 437.773 179.562C438.061 180.06 438.212 179.89 438.262 179.114C438.329 178.079 438.623 178.158 439.824 179.374Z" fill="#84EECA"/>
<path d="M400.385 338.009C401.313 338.939 404.741 344.877 407.992 351.014L413.857 362.19L415.876 360.438C418.041 358.602 420.423 358.497 421.439 360.256C421.778 360.842 421.654 361.305 421.234 361.254C420.74 361.246 419.771 362.783 419.086 364.644L417.925 368.051L422.548 371.148C426.496 373.756 431.692 378.184 437.945 384.444C439.674 386.085 436.599 388.545 433.5 388.086C425.925 386.986 418.308 383.272 412.647 378.038L410.233 375.718L409.76 380.486C409.238 385.675 408.316 386.109 403.862 383.305C401.651 381.845 396.796 373.604 397.187 371.912C397.311 371.45 399.367 370.947 401.634 370.811C403.974 370.633 406.01 370.435 406.23 370.308C406.376 370.223 405.287 368.506 403.798 366.434C400.534 361.966 397.288 352.112 396.976 345.646C396.828 343.19 396.492 340.746 396.238 340.306C395.942 339.793 396.159 338.983 396.576 338.352C397.035 337.793 397.675 337.717 397.972 338.23C398.31 338.816 398.488 338.616 398.547 337.702C398.625 336.484 398.972 336.577 400.385 338.009Z" fill="#84EECA"/>
<path d="M683.238 247.409C683.895 248.068 686.322 252.271 688.624 256.617L692.777 264.53L694.206 263.29C695.739 261.99 697.426 261.915 698.145 263.161C698.385 263.576 698.297 263.903 698 263.868C697.65 263.862 696.964 264.95 696.479 266.268L695.657 268.68L698.93 270.873C701.726 272.719 705.405 275.855 709.833 280.287C711.057 281.449 708.879 283.191 706.685 282.866C701.322 282.087 695.928 279.457 691.92 275.751L690.211 274.108L689.876 277.485C689.506 281.158 688.853 281.466 685.7 279.481C684.135 278.447 680.697 272.612 680.974 271.414C681.061 271.087 682.517 270.731 684.122 270.634C685.779 270.508 687.221 270.368 687.376 270.278C687.48 270.218 686.709 269.002 685.654 267.535C683.343 264.371 681.045 257.394 680.824 252.816C680.72 251.077 680.481 249.346 680.302 249.035C680.092 248.672 680.246 248.099 680.541 247.651C680.866 247.256 681.319 247.202 681.529 247.565C681.769 247.98 681.895 247.839 681.936 247.192C681.992 246.329 682.238 246.395 683.238 247.409Z" fill="#84EECA"/>
<path d="M619.631 234.54C620.158 235.069 622.107 238.445 623.955 241.934L627.29 248.288L628.437 247.292C629.668 246.248 631.023 246.188 631.6 247.188C631.793 247.522 631.722 247.785 631.484 247.756C631.203 247.751 630.652 248.625 630.263 249.683L629.603 251.62L632.231 253.381C634.476 254.863 637.43 257.381 640.985 260.94C641.968 261.873 640.219 263.271 638.457 263.011C634.151 262.385 629.82 260.274 626.602 257.298L625.229 255.979L624.961 258.69C624.663 261.64 624.139 261.887 621.607 260.292C620.35 259.462 617.59 254.777 617.812 253.815C617.883 253.552 619.051 253.267 620.34 253.189C621.671 253.088 622.828 252.975 622.953 252.903C623.037 252.855 622.418 251.879 621.571 250.701C619.715 248.16 617.87 242.558 617.692 238.882C617.608 237.486 617.417 236.096 617.273 235.846C617.104 235.554 617.228 235.094 617.465 234.735C617.726 234.417 618.09 234.374 618.258 234.666C618.451 234.999 618.552 234.885 618.585 234.366C618.63 233.673 618.827 233.726 619.631 234.54Z" fill="#84EECA"/>
<path d="M1080.62 177.27C1081.29 177.948 1083.79 182.272 1086.16 186.742L1090.43 194.882L1091.9 193.606C1093.48 192.269 1095.21 192.192 1095.95 193.473C1096.2 193.901 1096.11 194.237 1095.8 194.201C1095.44 194.195 1094.74 195.314 1094.24 196.67L1093.39 199.151L1096.76 201.407C1099.64 203.306 1103.42 206.531 1107.97 211.091C1109.23 212.286 1106.99 214.077 1104.74 213.743C1099.22 212.942 1093.67 210.237 1089.55 206.424L1087.79 204.735L1087.45 208.208C1087.07 211.987 1086.39 212.303 1083.15 210.261C1081.54 209.198 1078 203.196 1078.29 201.963C1078.38 201.626 1079.88 201.26 1081.53 201.161C1083.23 201.031 1084.71 200.887 1084.87 200.795C1084.98 200.733 1084.19 199.482 1083.1 197.973C1080.73 194.719 1078.36 187.542 1078.13 182.833C1078.03 181.044 1077.78 179.263 1077.6 178.943C1077.38 178.569 1077.54 177.98 1077.84 177.52C1078.18 177.113 1078.64 177.057 1078.86 177.431C1079.11 177.858 1079.24 177.712 1079.28 177.047C1079.34 176.16 1079.59 176.227 1080.62 177.27Z" fill="#84EECA"/>
<path d="M1338.14 108.041C1339.04 108.944 1342.37 114.704 1345.52 120.659L1351.21 131.501L1353.17 129.802C1355.27 128.02 1357.58 127.918 1358.57 129.625C1358.9 130.194 1358.78 130.643 1358.37 130.594C1357.89 130.586 1356.95 132.077 1356.28 133.883L1355.16 137.188L1359.64 140.193C1363.47 142.722 1368.52 147.019 1374.58 153.093C1376.26 154.684 1373.28 157.071 1370.27 156.626C1362.92 155.559 1355.53 151.955 1350.04 146.877L1347.7 144.626L1347.24 149.252C1346.73 154.286 1345.84 154.708 1341.51 151.987C1339.37 150.571 1334.66 142.576 1335.04 140.934C1335.16 140.485 1337.15 139.998 1339.35 139.866C1341.62 139.693 1343.6 139.5 1343.81 139.377C1343.95 139.295 1342.9 137.629 1341.45 135.619C1338.29 131.284 1335.14 121.724 1334.83 115.451C1334.69 113.068 1334.36 110.696 1334.12 110.269C1333.83 109.772 1334.04 108.986 1334.45 108.373C1334.89 107.832 1335.51 107.758 1335.8 108.255C1336.13 108.824 1336.3 108.63 1336.36 107.744C1336.43 106.562 1336.77 106.652 1338.14 108.041Z" fill="#84EECA"/>
<path d="M1293.39 237.793C1294.11 238.509 1296.74 243.079 1299.25 247.803L1303.76 256.406L1305.31 255.057C1306.98 253.644 1308.82 253.563 1309.6 254.917C1309.86 255.369 1309.76 255.725 1309.44 255.686C1309.06 255.679 1308.31 256.862 1307.79 258.295L1306.89 260.917L1310.45 263.301C1313.49 265.308 1317.49 268.717 1322.3 273.536C1323.63 274.799 1321.27 276.692 1318.88 276.339C1313.05 275.492 1307.19 272.633 1302.83 268.604L1300.97 266.818L1300.61 270.489C1300.21 274.483 1299.5 274.817 1296.07 272.659C1294.37 271.535 1290.63 265.192 1290.93 263.889C1291.03 263.533 1292.61 263.147 1294.35 263.042C1296.15 262.904 1297.72 262.752 1297.89 262.654C1298 262.589 1297.16 261.268 1296.02 259.673C1293.51 256.233 1291.01 248.648 1290.77 243.671C1290.65 241.781 1290.39 239.899 1290.2 239.561C1289.97 239.166 1290.14 238.543 1290.46 238.057C1290.81 237.627 1291.31 237.568 1291.53 237.963C1291.79 238.414 1291.93 238.26 1291.98 237.557C1292.04 236.619 1292.3 236.691 1293.39 237.793Z" fill="#84EECA"/>
<path d="M1254.66 267.215C1255.13 267.696 1256.9 270.762 1258.58 273.931L1261.61 279.702L1262.65 278.798C1263.77 277.849 1265 277.795 1265.53 278.704C1265.7 279.006 1265.64 279.245 1265.42 279.219C1265.17 279.215 1264.67 280.008 1264.31 280.97L1263.71 282.729L1266.1 284.328C1268.14 285.674 1270.82 287.961 1274.05 291.194C1274.94 292.041 1273.36 293.312 1271.76 293.075C1267.84 292.507 1263.91 290.589 1260.99 287.886L1259.74 286.688L1259.5 289.15C1259.23 291.829 1258.75 292.054 1256.45 290.606C1255.31 289.852 1252.8 285.596 1253 284.723C1253.07 284.484 1254.13 284.224 1255.3 284.154C1256.51 284.062 1257.56 283.96 1257.67 283.894C1257.75 283.85 1257.19 282.964 1256.42 281.894C1254.73 279.586 1253.06 274.498 1252.89 271.159C1252.82 269.891 1252.64 268.629 1252.51 268.401C1252.36 268.136 1252.47 267.719 1252.69 267.392C1252.93 267.104 1253.26 267.064 1253.41 267.329C1253.58 267.632 1253.68 267.529 1253.71 267.057C1253.75 266.428 1253.93 266.476 1254.66 267.215Z" fill="#84EECA"/>
<path d="M1172.31 186.433C1172.67 186.797 1174.01 189.117 1175.28 191.515L1177.57 195.882L1178.36 195.197C1179.2 194.48 1180.14 194.439 1180.53 195.126C1180.67 195.355 1180.62 195.536 1180.45 195.516C1180.26 195.513 1179.88 196.114 1179.61 196.841L1179.16 198.172L1180.97 199.382C1182.51 200.401 1184.54 202.132 1186.98 204.578C1187.66 205.219 1186.46 206.18 1185.25 206.001C1182.29 205.571 1179.31 204.12 1177.1 202.074L1176.15 201.168L1175.97 203.031C1175.76 205.059 1175.4 205.228 1173.66 204.133C1172.8 203.562 1170.9 200.342 1171.06 199.681C1171.1 199.5 1171.91 199.304 1172.79 199.251C1173.71 199.181 1174.5 199.104 1174.59 199.054C1174.65 199.021 1174.22 198.35 1173.64 197.54C1172.36 195.794 1171.1 191.944 1170.97 189.417C1170.92 188.458 1170.78 187.502 1170.69 187.331C1170.57 187.13 1170.65 186.814 1170.82 186.567C1171 186.349 1171.25 186.319 1171.36 186.519C1171.49 186.749 1171.56 186.67 1171.59 186.313C1171.62 185.837 1171.75 185.874 1172.31 186.433Z" fill="#84EECA"/>
<path d="M1525.61 289.587C1525.86 289.837 1526.78 291.434 1527.65 293.084L1529.23 296.089L1529.77 295.618C1530.35 295.124 1531 295.096 1531.27 295.569C1531.36 295.726 1531.33 295.851 1531.21 295.837C1531.08 295.835 1530.82 296.248 1530.64 296.749L1530.32 297.665L1531.57 298.497C1532.63 299.198 1534.03 300.389 1535.71 302.072C1536.17 302.514 1535.34 303.175 1534.51 303.052C1532.48 302.756 1530.43 301.757 1528.9 300.35L1528.26 299.726L1528.13 301.008C1527.99 302.403 1527.74 302.52 1526.54 301.766C1525.95 301.374 1524.64 299.158 1524.75 298.703C1524.78 298.579 1525.33 298.443 1525.94 298.407C1526.57 298.359 1527.12 298.306 1527.18 298.271C1527.22 298.249 1526.93 297.787 1526.53 297.23C1525.65 296.028 1524.77 293.379 1524.69 291.64C1524.65 290.98 1524.56 290.323 1524.49 290.205C1524.41 290.067 1524.47 289.849 1524.58 289.679C1524.71 289.529 1524.88 289.508 1524.96 289.646C1525.05 289.804 1525.1 289.75 1525.11 289.505C1525.13 289.177 1525.23 289.202 1525.61 289.587Z" fill="#84EECA"/>
<path d="M1505.21 319.304C1505.67 319.763 1507.36 322.688 1508.96 325.713L1511.85 331.22L1512.85 330.357C1513.91 329.452 1515.09 329.4 1515.59 330.267C1515.76 330.556 1515.69 330.784 1515.49 330.759C1515.24 330.755 1514.77 331.512 1514.43 332.429L1513.86 334.108L1516.13 335.634C1518.08 336.919 1520.64 339.101 1523.72 342.186C1524.57 342.995 1523.06 344.207 1521.53 343.981C1517.8 343.439 1514.05 341.608 1511.26 339.029L1510.07 337.886L1509.83 340.236C1509.58 342.792 1509.12 343.007 1506.93 341.625C1505.84 340.905 1503.44 336.845 1503.64 336.011C1503.7 335.783 1504.71 335.535 1505.83 335.468C1506.98 335.38 1507.99 335.283 1508.09 335.22C1508.17 335.178 1507.63 334.332 1506.9 333.311C1505.29 331.109 1503.69 326.254 1503.53 323.068C1503.46 321.857 1503.3 320.653 1503.17 320.436C1503.02 320.183 1503.13 319.784 1503.34 319.473C1503.56 319.198 1503.88 319.16 1504.02 319.413C1504.19 319.702 1504.28 319.603 1504.31 319.153C1504.35 318.553 1504.52 318.599 1505.21 319.304Z" fill="#84EECA"/>
<path d="M1184.36 329.675C1184.95 330.263 1187.11 334.017 1189.17 337.898L1192.88 344.965L1194.16 343.857C1195.52 342.696 1197.03 342.63 1197.67 343.742C1197.89 344.113 1197.81 344.405 1197.54 344.373C1197.23 344.368 1196.62 345.34 1196.19 346.517L1195.45 348.671L1198.37 350.63C1200.87 352.278 1204.16 355.078 1208.11 359.037C1209.2 360.074 1207.26 361.63 1205.3 361.34C1200.51 360.644 1195.69 358.296 1192.11 354.986L1190.59 353.519L1190.29 356.534C1189.96 359.815 1189.38 360.09 1186.56 358.316C1185.16 357.393 1182.09 352.182 1182.34 351.113C1182.42 350.82 1183.72 350.502 1185.15 350.416C1186.63 350.304 1187.92 350.178 1188.06 350.098C1188.15 350.044 1187.46 348.959 1186.52 347.649C1184.45 344.823 1182.4 338.592 1182.2 334.504C1182.11 332.951 1181.9 331.405 1181.74 331.127C1181.55 330.803 1181.69 330.291 1181.95 329.891C1182.24 329.538 1182.65 329.49 1182.83 329.814C1183.05 330.185 1183.16 330.059 1183.2 329.481C1183.25 328.711 1183.47 328.769 1184.36 329.675Z" fill="#84EECA"/>
<path d="M1561.72 -25.4342C1563 -24.1546 1567.71 -15.9869 1572.18 -7.54373L1580.25 7.83005L1583.03 5.4203C1586.01 2.89411 1589.29 2.74954 1590.68 5.16959C1591.15 5.97627 1590.98 6.61248 1590.4 6.54285C1589.72 6.53143 1588.39 8.64591 1587.45 11.2064L1585.85 15.8927L1592.21 20.1537C1597.64 23.74 1604.79 29.8316 1613.39 38.4442C1615.77 40.701 1611.54 44.0848 1607.27 43.4539C1596.86 41.9406 1586.38 36.8314 1578.59 29.6306L1575.27 26.4392L1574.62 32.9988C1573.9 40.1364 1572.63 40.7342 1566.5 36.8765C1563.46 34.8682 1556.78 23.532 1557.32 21.2044C1557.49 20.5682 1560.32 19.8769 1563.44 19.6897C1566.66 19.4443 1569.46 19.1718 1569.76 18.9972C1569.96 18.8807 1568.46 16.5189 1566.42 13.6685C1561.93 7.52172 1557.46 -6.03396 1557.03 -14.9284C1556.83 -18.3069 1556.37 -21.6699 1556.02 -22.2749C1555.61 -22.9807 1555.91 -24.0941 1556.48 -24.9632C1557.11 -25.7314 1557.99 -25.8364 1558.4 -25.1306C1558.87 -24.3239 1559.11 -24.5994 1559.19 -25.8562C1559.3 -27.532 1559.78 -27.4041 1561.72 -25.4342Z" fill="#84EECA"/>
</g>
</svg>
