<svg width="80" height="63" viewBox="0 0 80 63" fill="none" xmlns="http://www.w3.org/2000/svg">
<path d="M20.4813 30.2272C21.4849 23.9784 28.973 14.8584 32.4639 10.8961C33.424 9.79649 33.3105 8.12957 32.2021 7.18701L24.557 0.632773C23.5271 -0.248689 21.9998 -0.205053 21.0311 0.737502C16.5103 5.12736 4.67605 17.6773 3.0004 30.2272L0.024375 58.1635C-0.246173 60.7381 1.76985 62.9897 4.36187 62.9897H28.3446C30.5788 62.9897 32.4465 61.3053 32.6821 59.0886L35.2392 35.0534C35.5098 32.4789 33.4938 30.2272 30.9018 30.2272H20.4813Z" fill="url(#paint0_linear)" fill-opacity="0.5"/>
<path d="M65.209 30.2272C66.2126 23.9784 73.7007 14.8584 77.1916 10.8961C78.1516 9.79649 78.0382 8.12957 76.9298 7.18701L69.2846 0.632773C68.2548 -0.248689 66.7275 -0.205053 65.7588 0.737502C61.2467 5.12736 49.4124 17.6773 47.7368 30.2272L44.7608 58.1635C44.4902 60.7381 46.5062 62.9897 49.0983 62.9897H73.081C75.3152 62.9897 77.1829 61.3053 77.4185 59.0886L79.9756 35.0534C80.2462 32.4789 78.2302 30.2272 75.6381 30.2272H65.209Z" fill="url(#paint1_linear)" fill-opacity="0.5"/>
<defs>
<linearGradient id="paint0_linear" x1="17.6318" y1="0" x2="17.6318" y2="62.9897" gradientUnits="userSpaceOnUse">
<stop stop-color="#5AD9AC" stop-opacity="0.2"/>
<stop offset="1" stop-color="#5AD9AC"/>
</linearGradient>
<linearGradient id="paint1_linear" x1="62.3682" y1="0" x2="62.3682" y2="62.9897" gradientUnits="userSpaceOnUse">
<stop stop-color="#5AD9AC" stop-opacity="0.2"/>
<stop offset="1" stop-color="#5AD9AC"/>
</linearGradient>
</defs>
</svg>
