<svg width="136" height="69" viewBox="0 0 136 69" fill="none" xmlns="http://www.w3.org/2000/svg">
<path d="M93.6 6.30012C93.4 5.60012 92.7 5.00012 92 4.90012C65.7 1.40012 50 29.5001 23.8 25.2001L34 62.5001C34.2 63.3001 34.9 63.8001 35.6 63.9001C62 67.4001 77.6 39.3001 103.9 43.6001L93.6 6.30012Z" fill="#5AD9AC"/>
<path d="M93.3 5.1001C88.9 4.3001 84.8 4.5001 81 5.2001L81.1 5.5001C83.1 10.9001 88.6 14.8001 96.1 16.2001L96.3 15.9001L93.3 5.1001Z" fill="white"/>
<path d="M103.9 43.6001L100.5 31.3001C98.1 31.3001 95.8 32.3001 94.1 34.1001C92 36.6001 91.1 39.9001 91.7 43.1001L92 43.8001C95.8 43.0001 99.7 42.9001 103.9 43.6001Z" fill="white"/>
<path d="M23.8 25.2001L27 37.1001C27.7 37.1001 28.4 37.0001 29 36.8001C30.6 36.4001 32 35.5001 33.1 34.3001C35.2 31.8001 36.1 28.5001 35.5 25.3001L35.4 25.0001C31.7 25.8001 27.9 25.9001 23.8 25.2001Z" fill="white"/>
<path d="M46.2 63.3001C44.2 58.0001 38.8 54.0001 31.3 52.7001L34.4 63.8001C38.6 64.5001 42.5 64.4001 46.2 63.7001V63.3001Z" fill="white"/>
<path d="M93.3 2.20008C66.2 -2.29992 50.5 26.7001 23.8 22.4001L34.4 60.9001C61.5 65.4001 77.2 36.4001 103.9 40.7001L93.3 2.20008Z" stroke="#273152" stroke-width="1.5" stroke-miterlimit="10" stroke-linecap="round" stroke-linejoin="round"/>
<path d="M70.7 15.0001C67 13.5001 62.8 13.9001 59.4 16.1001C51.5 20.8001 47.3 30.3001 49.5 38.4001C50.5 42.4001 53.3 45.7001 57 47.3001C59.5 48.3001 62.2 48.4001 64.7 47.7001C65.9 47.4001 67.1 46.8001 68.3 46.2001C76.2 41.6001 80.4 32.0001 78.2 23.9001C77.2 20.0001 74.4 16.7001 70.7 15.0001Z" fill="#273152"/>
<path d="M70.9 33.0001C70.5 31.3001 69.4 29.9001 67.8 29.2001C66.8 28.8001 65.7 28.8001 64.7 29.1001L63 22.8001C63.3 22.8001 63.6 22.8001 63.9 22.9001C64.5 23.2001 65 23.8001 65.1 24.4001C65.3 25.3001 66.2 25.8001 67.1 25.5001C68 25.3001 68.5 24.4001 68.2 23.5001C67.8 21.9001 66.7 20.5001 65.1 19.8001C64.1 19.4001 63 19.3001 62 19.6001C61.7 18.7001 60.8 18.3001 60 18.5001C59.1 18.8001 58.7 19.7001 58.9 20.5001L59 21.0001C56.6 23.0001 55.5 26.2001 56.2 29.3001C56.6 31.0001 57.7 32.3001 59.2 33.1001C60.2 33.5001 61.3 33.6001 62.3 33.3001L64 39.6001C63.7 39.6001 63.4 39.6001 63.1 39.5001C62.5 39.2001 62 38.6001 61.9 38.0001C61.7 37.1001 60.8 36.6001 59.9 36.9001C59 37.1001 58.5 38.0001 58.8 38.9001C59.2 40.5001 60.3 41.9001 61.9 42.6001C62.9 43.0001 64 43.1001 65 42.9001C65.3 43.8001 66.2 44.2001 67.1 44.0001C68 43.8001 68.4 42.8001 68.2 41.9001L68.1 41.4001C70.5 39.3001 71.6 36.1001 70.9 33.0001ZM60.7 30.2001C60.1 29.8001 59.7 29.2001 59.5 28.5001C59.2 27.2001 59.5 25.9001 60.2 24.8001L61.7 30.2001C61.4 30.3001 61 30.3001 60.7 30.2001ZM67.1 37.6001L65.6 32.2001C65.9 32.1001 66.3 32.1001 66.6 32.2001C67.2 32.6001 67.6 33.2001 67.8 33.9001C68 35.2001 67.8 36.5001 67.1 37.6001Z" fill="white"/>
<path d="M93.3 2.20005C88.9 1.50005 84.8 1.60005 81 2.40005L81.1 2.70005C83.1 8.10005 88.6 12 96.1 13.4L96.3 13.1L93.3 2.20005Z" stroke="#273152" stroke-width="1.5" stroke-miterlimit="10" stroke-linecap="round" stroke-linejoin="round"/>
<path d="M103.9 40.7001L100.5 28.4001C98.1 28.4001 95.8 29.4001 94.1 31.2001C92 33.7001 91.1 37.0001 91.7 40.2001L92 40.9001C95.8 40.2001 99.7 40.0001 103.9 40.7001Z" stroke="#273152" stroke-width="1.5" stroke-miterlimit="10" stroke-linecap="round" stroke-linejoin="round"/>
<path d="M23.8 22.4001L27 34.2001C27.7 34.2001 28.4 34.1001 29 33.9001C30.6 33.5001 32 32.6001 33.1 31.4001C35.2 28.9001 36.1 25.6001 35.5 22.4001L35.4 22.1001C31.7 22.9001 27.9 23.1001 23.8 22.4001Z" stroke="#273152" stroke-width="1.5" stroke-miterlimit="10" stroke-linecap="round" stroke-linejoin="round"/>
<path d="M46.2 60.4001C44.2 55.1001 38.8 51.1 31.3 49.8L34.4 60.9001C38.6 61.6001 42.5 61.5 46.2 60.8V60.4001Z" stroke="#273152" stroke-width="1.5" stroke-miterlimit="10" stroke-linecap="round" stroke-linejoin="round"/>
<g opacity="0.5">
<path d="M100.678 68.3458C99.922 68.3458 99.2105 68.0345 98.6769 67.4565C97.6986 66.3448 97.7876 64.6551 98.8992 63.6768C100.011 62.6985 101.701 62.7874 102.723 63.8991C103.702 65.0108 103.613 66.7005 102.501 67.6788C101.967 68.1235 101.3 68.3458 100.678 68.3458ZM100.678 64.2993C100.367 64.2993 100.011 64.4327 99.7886 64.655C99.2105 65.1442 99.166 66.0335 99.6996 66.5671C100.189 67.1452 101.078 67.1896 101.612 66.656C102.19 66.1669 102.234 65.2776 101.701 64.744C101.434 64.4772 101.034 64.2993 100.678 64.2993Z" fill="#5AD9AC"/>
<path d="M131.83 38.6988C130.763 38.6988 129.74 38.2541 128.984 37.4092C127.561 35.8529 127.695 33.4072 129.296 31.9843C130.852 30.5613 133.298 30.6947 134.721 32.2955C136.144 33.8519 136.01 36.2975 134.409 37.7205C133.653 38.3875 132.72 38.6988 131.83 38.6988ZM131.83 32.3845C131.252 32.3845 130.63 32.6068 130.141 33.007C129.118 33.9408 129.029 35.4971 129.963 36.5199C130.896 37.5426 132.453 37.6316 133.476 36.6977C134.498 35.7639 134.587 34.2076 133.653 33.1849C133.209 32.6513 132.497 32.3845 131.83 32.3845Z" fill="#5AD9AC"/>
<path d="M115.512 27.4102C115.512 27.4102 115.468 27.4102 115.512 27.4102C115.112 27.4102 114.845 27.0545 114.845 26.6987L114.978 24.2531C114.978 23.8973 115.29 23.5861 115.69 23.6305C116.046 23.6305 116.357 23.9863 116.312 24.342L116.179 26.7877C116.135 27.0989 115.868 27.4102 115.512 27.4102Z" fill="#5AD9AC"/>
<path d="M116.001 18.7838C116.001 18.7838 115.957 18.7838 116.001 18.7838C115.601 18.7838 115.334 18.4281 115.334 18.0723L115.468 15.6267C115.468 15.2709 115.779 14.9597 116.179 15.0041C116.535 15.0041 116.846 15.3599 116.802 15.7156L116.668 18.1613C116.668 18.517 116.357 18.7838 116.001 18.7838Z" fill="#5AD9AC"/>
<path d="M121.337 22.1632L118.847 22.0298C118.491 22.0298 118.18 21.7185 118.225 21.3183C118.225 20.9626 118.536 20.6513 118.936 20.6958L121.382 20.8292C121.737 20.8292 122.049 21.1404 122.004 21.5406C122.004 21.8964 121.693 22.1632 121.337 22.1632Z" fill="#5AD9AC"/>
<path d="M112.755 21.7185L110.265 21.5851C109.909 21.5851 109.598 21.2739 109.642 20.8737C109.642 20.5179 109.954 20.2067 110.354 20.2511L112.8 20.3845C113.155 20.3845 113.467 20.6958 113.422 21.096C113.422 21.4517 113.111 21.7185 112.755 21.7185Z" fill="#5AD9AC"/>
<path d="M5.87385 37.366C5.47365 37.366 5.20685 37.0102 5.20685 36.6545L5.34025 34.2088C5.34025 33.8531 5.65152 33.5418 6.05172 33.5863C6.40745 33.5863 6.71872 33.942 6.67425 34.2978L6.54085 36.7434C6.54085 37.0992 6.22958 37.366 5.87385 37.366Z" fill="#5AD9AC"/>
<path d="M6.36295 28.7838C5.96275 28.7838 5.69595 28.4281 5.69595 28.0723L5.82935 25.6267C5.82935 25.2709 6.14062 24.9597 6.54082 25.0041C6.89655 25.0041 7.20782 25.3599 7.16336 25.7156L7.02996 28.1613C7.02996 28.4725 6.71869 28.7838 6.36295 28.7838Z" fill="#5AD9AC"/>
<path d="M11.7434 32.1188C11.699 32.1188 11.699 32.1188 11.7434 32.1188L9.25331 31.9854C8.89758 31.9854 8.58631 31.6741 8.63077 31.2739C8.63077 30.9182 8.94204 30.6069 9.34224 30.6514L11.7879 30.7848C12.1436 30.7848 12.4549 31.0961 12.4104 31.4963C12.366 31.852 12.0992 32.1188 11.7434 32.1188Z" fill="#5AD9AC"/>
<path d="M3.11692 31.6741L0.626782 31.5407C0.271048 31.5407 -0.0402187 31.2294 0.00424805 30.8292C0.00424805 30.4735 0.315515 30.1622 0.715716 30.2067L3.16139 30.3401C3.51712 30.3401 3.82839 30.6514 3.78392 31.0516C3.78392 31.4073 3.47266 31.6741 3.11692 31.6741Z" fill="#5AD9AC"/>
<path d="M14.2736 11.0234C13.5176 11.0234 12.7617 10.7122 12.2281 10.0452C11.2943 8.88903 11.4277 7.19929 12.5394 6.26549C13.6955 5.33169 15.3852 5.46508 16.319 6.57675C17.2528 7.73288 17.1194 9.42262 16.0078 10.3564C15.5186 10.8011 14.8961 11.0234 14.2736 11.0234ZM14.2736 6.97696C13.9623 6.97696 13.651 7.06589 13.3842 7.28822C12.8062 7.77735 12.7172 8.62223 13.2064 9.2003C13.6955 9.77837 14.5404 9.8673 15.1184 9.37816C15.6965 8.88903 15.7854 8.04415 15.2963 7.46608C15.074 7.11035 14.6738 6.97696 14.2736 6.97696Z" fill="#5AD9AC"/>
</g>
</svg>
