<svg width="130" height="71" viewBox="0 0 130 71" fill="none" xmlns="http://www.w3.org/2000/svg">
<path d="M86.481 39.8551V7.96349C86.481 7.3854 86.0956 7 85.5175 7H35.8976C35.3196 7 34.9342 7.3854 34.9342 7.96349V39.9515C34.9342 40.5295 34.5488 40.9149 33.9707 40.9149H25.5883C24.7211 40.9149 24.2394 42.0711 25.0102 42.6492L60.1777 70.7832C60.563 71.0723 61.0448 71.0723 61.3339 70.7832L96.5013 42.6492C97.1758 42.0711 96.7904 40.9149 95.9232 40.9149H87.5409C86.8664 40.8186 86.481 40.4332 86.481 39.8551Z" fill="#F8AD9E"/>
<path d="M48.8084 30.9909C52.4697 30.9909 55.4565 28.0041 55.4565 24.3428C55.4565 20.6815 52.4697 17.6947 48.8084 17.6947C45.1472 17.6947 42.1603 20.6815 42.1603 24.3428C42.1603 28.0041 45.1472 30.9909 48.8084 30.9909ZM48.8084 21.5487C50.35 21.5487 51.6026 22.8012 51.6026 24.3428C51.6026 25.8844 50.35 27.1369 48.8084 27.1369C47.2668 27.1369 46.0143 25.8844 46.0143 24.3428C46.0143 22.8012 47.2668 21.5487 48.8084 21.5487Z" fill="white"/>
<path d="M60.3703 39.8551C60.3703 43.5163 63.3571 46.5032 67.0184 46.5032C70.6797 46.5032 73.6665 43.5163 73.6665 39.8551C73.6665 36.1938 70.776 33.207 67.1147 33.207C63.3571 33.207 60.3703 36.1938 60.3703 39.8551ZM67.1147 37.1573C68.6563 37.1573 69.9089 38.4098 69.9089 39.9514C69.9089 41.493 68.6563 42.7455 67.1147 42.7455C65.5732 42.7455 64.3206 41.493 64.3206 39.9514C64.3206 38.4098 65.5732 37.1573 67.1147 37.1573Z" fill="white"/>
<path d="M50.1573 43.3236L62.2973 19.14C62.6827 18.2728 63.7425 17.9838 64.5133 18.3692L64.9951 18.6582C65.8622 19.0436 66.1513 20.1035 65.7659 20.8743L53.6259 45.0579C53.2405 45.9251 52.1807 46.2141 51.4099 45.8287L50.9281 45.5397C50.061 45.1543 49.6756 44.1908 50.1573 43.3236Z" fill="white"/>
<path d="M32.14 7V38.1208H20L57.9616 68.3745L95.8269 38.1208H83.6869V15.1897" stroke="#273152" stroke-width="1.5" stroke-miterlimit="10" stroke-linecap="round" stroke-linejoin="round"/>
<g opacity="0.5">
<path d="M94.6779 67.7008C93.922 67.7008 93.2105 67.3895 92.6769 66.8114C91.6986 65.6998 91.7876 64.01 92.8992 63.0318C94.0109 62.0535 95.7006 62.1424 96.7234 63.2541C97.7016 64.3658 97.6127 66.0555 96.501 67.0338C95.9674 67.4784 95.3004 67.7008 94.6779 67.7008ZM94.6779 63.6543C94.3666 63.6543 94.0109 63.7877 93.7886 64.01C93.2105 64.4992 93.166 65.3885 93.6996 65.9221C94.1888 66.5002 95.0781 66.5446 95.6117 66.011C96.1898 65.5219 96.2342 64.6326 95.7006 64.099C95.4338 63.8322 95.0336 63.6543 94.6779 63.6543Z" fill="#F8AD9E"/>
<path d="M125.83 38.0537C124.763 38.0537 123.74 37.6091 122.984 36.7642C121.561 35.2079 121.695 32.7622 123.296 31.3393C124.852 29.9163 127.298 30.0497 128.721 31.6505C130.144 33.2069 130.01 35.6525 128.409 37.0755C127.653 37.7425 126.72 38.0537 125.83 38.0537ZM125.83 31.7394C125.252 31.7394 124.63 31.9618 124.141 32.362C123.118 33.2958 123.029 34.8521 123.963 35.8749C124.896 36.8976 126.453 36.9865 127.476 36.0527C128.498 35.1189 128.587 33.5626 127.653 32.5399C127.209 32.0063 126.497 31.7394 125.83 31.7394Z" fill="#F8AD9E"/>
<path d="M109.512 26.7652C109.512 26.7652 109.468 26.7652 109.512 26.7652C109.112 26.7652 108.845 26.4094 108.845 26.0537L108.978 23.608C108.978 23.2523 109.29 22.941 109.69 22.9855C110.046 22.9855 110.357 23.3412 110.312 23.6969L110.179 26.1426C110.135 26.4539 109.868 26.7652 109.512 26.7652Z" fill="#F8AD9E"/>
<path d="M110.001 18.1388C110.001 18.1388 109.957 18.1388 110.001 18.1388C109.601 18.1388 109.334 17.7831 109.334 17.4273L109.468 14.9816C109.468 14.6259 109.779 14.3146 110.179 14.3591C110.535 14.3591 110.846 14.7148 110.802 15.0706L110.668 17.5162C110.668 17.872 110.357 18.1388 110.001 18.1388Z" fill="#F8AD9E"/>
<path d="M115.337 21.5182L112.847 21.3848C112.491 21.3848 112.18 21.0735 112.225 20.6733C112.225 20.3176 112.536 20.0063 112.936 20.0508L115.382 20.1842C115.737 20.1842 116.049 20.4954 116.004 20.8956C116.004 21.2514 115.693 21.5182 115.337 21.5182Z" fill="#F8AD9E"/>
<path d="M106.755 21.0735L104.265 20.9401C103.909 20.9401 103.598 20.6288 103.642 20.2286C103.642 19.8729 103.954 19.5616 104.354 19.6061L106.8 19.7395C107.155 19.7395 107.467 20.0508 107.422 20.451C107.422 20.8067 107.111 21.0735 106.755 21.0735Z" fill="#F8AD9E"/>
<path d="M5.87385 31.721C5.47365 31.721 5.20685 31.3652 5.20685 31.0095L5.34025 28.5638C5.34025 28.2081 5.65152 27.8968 6.05172 27.9413C6.40745 27.9413 6.71872 28.297 6.67425 28.6528L6.54085 31.0984C6.54085 31.4542 6.22958 31.721 5.87385 31.721Z" fill="#F8AD9E"/>
<path d="M6.36295 23.1388C5.96275 23.1388 5.69595 22.783 5.69595 22.4273L5.82935 19.9816C5.82935 19.6259 6.14062 19.3146 6.54082 19.3591C6.89655 19.3591 7.20782 19.7148 7.16336 20.0705L7.02996 22.5162C7.02996 22.8275 6.71869 23.1388 6.36295 23.1388Z" fill="#F8AD9E"/>
<path d="M11.7434 26.4738C11.699 26.4738 11.699 26.4738 11.7434 26.4738L9.25331 26.3404C8.89758 26.3404 8.58631 26.0291 8.63077 25.6289C8.63077 25.2732 8.94204 24.9619 9.34224 25.0064L11.7879 25.1398C12.1436 25.1398 12.4549 25.4511 12.4104 25.8513C12.366 26.207 12.0992 26.4738 11.7434 26.4738Z" fill="#F8AD9E"/>
<path d="M3.11692 26.0291L0.626782 25.8957C0.271048 25.8957 -0.0402187 25.5844 0.00424805 25.1842C0.00424805 24.8285 0.315515 24.5172 0.715716 24.5617L3.16139 24.6951C3.51712 24.6951 3.82839 25.0064 3.78392 25.4066C3.78392 25.7623 3.47266 26.0291 3.11692 26.0291Z" fill="#F8AD9E"/>
<path d="M14.2736 5.3784C13.5176 5.3784 12.7617 5.06715 12.2281 4.40014C11.2943 3.24401 11.4277 1.55427 12.5394 0.62047C13.6955 -0.313332 15.3852 -0.17994 16.319 0.931729C17.2528 2.08786 17.1194 3.7776 16.0078 4.7114C15.5186 5.15607 14.8961 5.3784 14.2736 5.3784ZM14.2736 1.33194C13.9623 1.33194 13.651 1.42087 13.3842 1.6432C12.8062 2.13233 12.7172 2.97721 13.2064 3.55528C13.6955 4.13335 14.5404 4.22228 15.1184 3.73314C15.6965 3.24401 15.7854 2.39913 15.2963 1.82106C15.074 1.46533 14.6738 1.33194 14.2736 1.33194Z" fill="#F8AD9E"/>
</g>
</svg>
