<svg width="41" height="58" viewBox="0 0 41 58" fill="none" xmlns="http://www.w3.org/2000/svg">
<path d="M18.025 21.0472C23.333 21.0472 27.636 16.7442 27.636 11.4362C27.636 6.12818 23.333 1.8252 18.025 1.8252C12.717 1.8252 8.41406 6.12818 8.41406 11.4362C8.41406 16.7442 12.717 21.0472 18.025 21.0472Z" fill="white"/>
<path d="M19.9475 57.6603C18.8491 57.6603 17.9338 56.6534 17.9338 55.4635V51.6191L11.3434 42.9234C10.3366 41.5504 9.87889 39.8113 10.062 38.0722C10.245 36.333 11.0688 34.777 12.4418 33.6786L15.0048 31.5733V38.4383V13.5413C15.0048 11.7106 16.3778 10.2461 18.1169 10.2461H18.3915C20.1306 10.2461 21.5036 11.7106 21.5036 13.5413V24.7083V33.9532V24.7083C21.5036 22.8777 22.8766 21.4131 24.6157 21.4131H24.8903C26.6295 21.4131 28.0025 22.8777 28.0025 24.7083V26.9967C28.0025 25.166 29.3755 23.7015 31.1146 23.7015H31.3892C33.1283 23.7015 34.5013 25.166 34.5013 26.9967V30.0173V30.1088V33.9532V30.3834V30.2919C34.5013 28.4612 35.8743 26.9967 37.6134 26.9967H37.888C39.6272 26.9967 41.0002 28.4612 41.0002 30.2919V42.7404C41.0002 46.0356 39.9018 49.2392 37.888 51.7106V55.372C37.888 56.5619 36.9727 57.5688 35.8743 57.5688H19.9475V57.6603Z" fill="#5AD9AC"/>
<path d="M19.032 55.8297C17.9336 55.8297 17.0183 54.8228 17.0183 53.6329V49.7885L10.4279 41.0929C9.42103 39.7199 8.96337 37.9807 9.14643 36.2416C9.3295 34.5025 10.1533 32.9464 11.5263 31.848L14.0892 29.7428V36.6077V11.7107C14.0892 9.88006 15.4622 8.41553 17.2014 8.41553H17.476C19.2151 8.41553 20.5881 9.88006 20.5881 11.7107V22.8778V32.1226V22.8778C20.5881 21.0471 21.9611 19.5826 23.7002 19.5826H23.9748C25.7139 19.5826 27.0869 21.0471 27.0869 22.8778V25.1661C27.0869 23.3354 28.4599 21.8709 30.1991 21.8709H30.4737C32.2128 21.8709 33.5858 23.3354 33.5858 25.1661V28.1867V28.2782V32.1226V28.5528V28.4613C33.5858 26.6306 34.9588 25.1661 36.6979 25.1661H36.9725C38.7117 25.1661 40.0847 26.6306 40.0847 28.4613V40.9098C40.0847 44.205 38.9863 47.4087 36.9725 49.8801V53.5414C36.9725 54.7313 36.0572 55.7382 34.9588 55.7382H19.032V55.8297Z" stroke="#273152" stroke-width="1.5" stroke-miterlimit="10" stroke-linecap="round" stroke-linejoin="round"/>
<path d="M25.0734 16.0129C26.0803 14.4568 26.721 12.6261 26.721 10.6124C26.721 5.30349 22.4189 1.00143 17.11 1.00143C11.8011 0.909901 7.49902 5.21196 7.49902 10.5209C7.49902 12.5346 8.13976 14.3653 9.14662 15.9213" stroke="#273152" stroke-width="1.5" stroke-miterlimit="10" stroke-linecap="round" stroke-linejoin="round"/>
<path d="M3.10526 2.74072C1.73227 5.02905 1 7.77505 1 10.7041C1 12.9924 1.45767 15.0977 2.28146 17.1114" stroke="#273152" stroke-width="1.5" stroke-miterlimit="10" stroke-linecap="round" stroke-linejoin="round"/>
<path d="M31.8467 17.0196C32.6705 15.0974 33.1282 12.9006 33.1282 10.6123C33.1282 7.68325 32.3959 4.93726 31.0229 2.64893" stroke="#273152" stroke-width="1.5" stroke-miterlimit="10" stroke-linecap="round" stroke-linejoin="round"/>
<path d="M26.9038 32.1225V25.166" stroke="#273152" stroke-width="1.5" stroke-miterlimit="10" stroke-linecap="round" stroke-linejoin="round"/>
</svg>
