<svg width="118" height="84" viewBox="0 0 118 84" fill="none" xmlns="http://www.w3.org/2000/svg">
<path d="M91.5512 71.498H49.322C48.3315 71.498 47.5211 70.6876 47.5211 69.6971V14.322C47.5211 13.3315 48.3315 12.5211 49.322 12.5211H82.6371L93.352 23.236V69.6971C93.352 70.6876 92.5416 71.498 91.5512 71.498Z" fill="#5AD9AC"/>
<path d="M89.03 68.8868H46.8008C45.8104 68.8868 45 68.0764 45 67.086V11.8008C45 10.8104 45.8104 10 46.8008 10H80.116L90.8308 20.7149V67.176C90.8308 68.1664 90.0205 68.8868 89.03 68.8868Z" stroke="#273152" stroke-width="1.5" stroke-miterlimit="10" stroke-linecap="round" stroke-linejoin="round"/>
<path d="M90.8308 20.7149H80.0259V10L90.8308 20.7149Z" fill="#273152"/>
<path d="M88.94 76C97.344 76 104.157 69.1872 104.157 60.7831C104.157 52.379 97.344 45.5662 88.94 45.5662C80.5359 45.5662 73.7231 52.379 73.7231 60.7831C73.7231 69.1872 80.5359 76 88.94 76Z" fill="#5AD9AC"/>
<path d="M91.4611 76C99.8652 76 106.678 69.1872 106.678 60.7831C106.678 52.379 99.8652 45.5662 91.4611 45.5662C83.057 45.5662 76.2442 52.379 76.2442 60.7831C76.2442 69.1872 83.057 76 91.4611 76Z" fill="white"/>
<path d="M88.94 76C97.344 76 104.157 69.1872 104.157 60.7831C104.157 52.379 97.344 45.5662 88.94 45.5662C80.5359 45.5662 73.7231 52.379 73.7231 60.7831C73.7231 69.1872 80.5359 76 88.94 76Z" stroke="#273152" stroke-width="1.5" stroke-miterlimit="10" stroke-linecap="round" stroke-linejoin="round"/>
<path d="M80.5662 61.2332L86.2387 66.8158L95.9632 56.9113" stroke="#273152" stroke-width="1.5" stroke-miterlimit="10" stroke-linecap="round" stroke-linejoin="round"/>
<path d="M90.8308 20.7149H80.0259V10L90.8308 20.7149Z" stroke="#273152" stroke-width="1.5" stroke-miterlimit="10" stroke-linecap="round" stroke-linejoin="round"/>
<path d="M53.0136 29.3588H82.9973" stroke="#273152" stroke-width="1.5" stroke-miterlimit="10" stroke-linecap="round" stroke-linejoin="round"/>
<path d="M53.0136 37.8227H82.9973" stroke="#273152" stroke-width="1.5" stroke-miterlimit="10" stroke-linecap="round" stroke-linejoin="round"/>
<path d="M53.0136 46.3765H70.4816" stroke="#273152" stroke-width="1.5" stroke-miterlimit="10" stroke-linecap="round" stroke-linejoin="round"/>
<g opacity="0.5">
<path d="M35.0272 83.7008C35.7831 83.7008 36.4946 83.3895 37.0282 82.8114C38.0064 81.6998 37.9175 80.01 36.8058 79.0318C35.6942 78.0535 34.0044 78.1424 32.9817 79.2541C32.0034 80.3658 32.0924 82.0555 33.204 83.0338C33.7376 83.4784 34.4046 83.7008 35.0272 83.7008ZM35.0272 79.6543C35.3384 79.6543 35.6942 79.7877 35.9165 80.01C36.4946 80.4992 36.539 81.3885 36.0054 81.9221C35.5163 82.5002 34.627 82.5446 34.0934 82.011C33.5153 81.5219 33.4708 80.6326 34.0044 80.099C34.2712 79.8322 34.6714 79.6543 35.0272 79.6543Z" fill="#5AD9AC"/>
<path d="M3.87479 54.0537C4.942 54.0537 5.96474 53.6091 6.72068 52.7642C8.14361 51.2079 8.01021 48.7622 6.40941 47.3393C4.85307 45.9163 2.40739 46.0497 0.984456 47.6505C-0.43848 49.2069 -0.305075 51.6525 1.29573 53.0755C2.05166 53.7425 2.98546 54.0537 3.87479 54.0537ZM3.87479 47.7394C4.45286 47.7394 5.07539 47.9618 5.56453 48.362C6.58726 49.2958 6.67621 50.8521 5.7424 51.8749C4.8086 52.8976 3.25225 52.9865 2.22952 52.0527C1.20678 51.1189 1.11787 49.5626 2.05167 48.5399C2.49634 48.0063 3.20779 47.7394 3.87479 47.7394Z" fill="#5AD9AC"/>
<path d="M20.193 42.7652C20.193 42.7652 20.2375 42.7652 20.193 42.7652C20.5932 42.7652 20.86 42.4094 20.86 42.0537L20.7266 39.608C20.7266 39.2523 20.4153 38.941 20.0151 38.9855C19.6594 38.9855 19.3481 39.3412 19.3926 39.6969L19.526 42.1426C19.5705 42.4539 19.8373 42.7652 20.193 42.7652Z" fill="#5AD9AC"/>
<path d="M19.7038 34.1388C19.7038 34.1388 19.7483 34.1388 19.7038 34.1388C20.104 34.1388 20.3708 33.7831 20.3708 33.4273L20.2374 30.9816C20.2374 30.6259 19.9262 30.3146 19.526 30.3591C19.1702 30.3591 18.8589 30.7148 18.9034 31.0706L19.0368 33.5162C19.0368 33.872 19.3481 34.1388 19.7038 34.1388Z" fill="#5AD9AC"/>
<path d="M14.3678 37.5182L16.8579 37.3848C17.2136 37.3848 17.5249 37.0735 17.4804 36.6733C17.4804 36.3176 17.1692 36.0063 16.769 36.0508L14.3233 36.1842C13.9676 36.1842 13.6563 36.4954 13.7008 36.8956C13.7008 37.2514 14.012 37.5182 14.3678 37.5182Z" fill="#5AD9AC"/>
<path d="M22.9499 37.0735L25.44 36.9401C25.7958 36.9401 26.107 36.6288 26.0626 36.2286C26.0626 35.8729 25.7513 35.5616 25.3511 35.6061L22.9054 35.7395C22.5497 35.7395 22.2384 36.0508 22.2829 36.451C22.2829 36.8067 22.5942 37.0735 22.9499 37.0735Z" fill="#5AD9AC"/>
<path d="M111.831 31.721C112.231 31.721 112.498 31.3652 112.498 31.0095L112.365 28.5638C112.365 28.2081 112.054 27.8968 111.653 27.9413C111.298 27.9413 110.986 28.297 111.031 28.6528L111.164 31.0984C111.164 31.4542 111.475 31.721 111.831 31.721Z" fill="#5AD9AC"/>
<path d="M111.342 23.1388C111.742 23.1388 112.009 22.783 112.009 22.4273L111.876 19.9816C111.876 19.6259 111.564 19.3146 111.164 19.3591C110.809 19.3591 110.497 19.7148 110.542 20.0705L110.675 22.5162C110.675 22.8275 110.986 23.1388 111.342 23.1388Z" fill="#5AD9AC"/>
<path d="M105.962 26.4738C106.006 26.4738 106.006 26.4738 105.962 26.4738L108.452 26.3404C108.807 26.3404 109.119 26.0291 109.074 25.6289C109.074 25.2732 108.763 24.9619 108.363 25.0064L105.917 25.1398C105.561 25.1398 105.25 25.4511 105.295 25.8513C105.339 26.207 105.606 26.4738 105.962 26.4738Z" fill="#5AD9AC"/>
<path d="M114.588 26.0291L117.078 25.8957C117.434 25.8957 117.745 25.5844 117.701 25.1842C117.701 24.8285 117.39 24.5172 116.989 24.5617L114.544 24.6951C114.188 24.6951 113.877 25.0064 113.921 25.4066C113.921 25.7623 114.232 26.0291 114.588 26.0291Z" fill="#5AD9AC"/>
<path d="M103.432 5.3784C104.187 5.3784 104.943 5.06715 105.477 4.40014C106.411 3.24401 106.277 1.55427 105.166 0.62047C104.01 -0.313332 102.32 -0.17994 101.386 0.931729C100.452 2.08786 100.586 3.7776 101.697 4.7114C102.186 5.15607 102.809 5.3784 103.432 5.3784ZM103.432 1.33194C103.743 1.33194 104.054 1.42087 104.321 1.6432C104.899 2.13233 104.988 2.97721 104.499 3.55528C104.01 4.13335 103.165 4.22228 102.587 3.73314C102.009 3.24401 101.92 2.39913 102.409 1.82106C102.631 1.46533 103.031 1.33194 103.432 1.33194Z" fill="#5AD9AC"/>
</g>
</svg>
