<svg width="136" height="60" viewBox="0 0 136 60" fill="none" xmlns="http://www.w3.org/2000/svg">
<path d="M95.8756 9.15886C95.8756 9.15886 95.1655 9.56461 93.1368 10.579C91.108 11.4919 84.6161 9.05742 82.0802 8.14449C79.5442 7.23156 72.2408 7.23156 68.8934 7.63731C67.169 7.84018 65.546 9.15886 64.1259 11.0862C62.6043 10.7818 61.0828 11.1876 59.4598 11.0862C57.8368 10.9847 53.7793 8.14449 53.7793 8.14449L40.4911 29.7505L41.9112 27.4175L47.9974 34.4166L45.8673 37.8654C45.0558 39.1841 45.4615 41.01 46.7802 41.8215L46.8816 41.9229C48.2003 42.7344 50.0262 42.3287 50.8377 41.01L49.7219 42.8358C48.8089 44.3574 49.2147 46.3861 50.7362 47.2991L50.9391 47.4005C52.4607 48.3134 54.4894 47.9077 55.4023 46.3861L55.3009 46.589C54.388 48.0091 54.8951 49.9364 56.3152 50.7479L56.4167 50.8493C57.8368 51.7623 59.7641 51.2551 60.5756 49.835L62.4014 46.8933L60.8799 49.3278C59.967 50.7479 60.4742 52.6752 61.8943 53.5881L62.0972 53.6896C63.5173 54.6025 65.4445 54.0953 66.3575 52.6752L67.4733 50.8493C82.7902 58.2542 81.8773 54.0953 83.8046 51.0522C85.3261 51.5594 87.2534 51.7623 88.5721 50.6465C88.5721 50.6465 90.8037 48.3134 88.775 46.2847H88.9779C90.6009 47.4005 92.8325 46.8933 94.0497 45.1689C94.0497 45.1689 96.3827 42.2272 93.1368 40.097L94.8612 41.2129C96.7885 42.4301 99.3244 41.9229 100.643 40.097C101.86 38.1698 101.353 35.6338 99.5273 34.3152L106.222 25.693L108.251 28.8376L94.6583 7.13013L95.8756 9.15886Z" fill="#596CD9"/>
<path d="M44.0414 42.0243L43.9399 41.9229C42.6213 41.1114 42.1141 39.2855 43.027 37.9669L45.9687 33.1993C46.7802 31.8807 48.6061 31.3735 49.9247 32.2864L50.0261 32.3878C51.3448 33.1993 51.852 35.0252 50.9391 36.3439L47.9974 41.1114C47.1859 42.4301 45.4615 42.8358 44.0414 42.0243Z" fill="white"/>
<path d="M47.9974 47.299L48.2003 47.4005C49.7219 48.3134 51.7506 47.9076 52.6635 46.3861L58.4454 37.1554C59.3583 35.6338 58.9526 33.6051 57.4311 32.6921L57.2282 32.5907C55.7066 31.6778 53.6779 32.0835 52.765 33.6051L46.9831 42.8358C45.9687 44.3574 46.4759 46.3861 47.9974 47.299Z" fill="white"/>
<path d="M53.5764 50.7479L53.475 50.6465C52.0549 49.7336 51.6492 47.9077 52.4607 46.4876L56.8224 39.4884C57.7353 38.0683 59.5612 37.6626 60.9813 38.4741L61.0828 38.5755C62.5029 39.4884 62.9086 41.3143 62.0971 42.7344L57.7353 49.7336C56.9238 51.2551 55.098 51.6608 53.5764 50.7479Z" fill="white"/>
<path d="M59.1555 53.4867L59.3584 53.5882C60.7785 54.5011 62.7058 53.9939 63.6187 52.5738L66.4589 47.9077C67.3719 46.4876 66.8647 44.5603 65.4446 43.6474L65.2417 43.5459C63.8216 42.633 61.8943 43.1402 60.9814 44.5603L58.1411 49.2264C57.2282 50.6465 57.7354 52.5738 59.1555 53.4867Z" fill="white"/>
<path d="M95.8756 9.15891C95.8756 9.15891 95.4698 9.46322 94.354 9.9704C94.0497 10.1733 93.644 10.2747 93.2382 10.4776C91.2095 11.3905 84.7175 8.95603 82.1816 8.0431C80.0514 7.33305 74.6753 7.13017 71.0236 7.33305C70.3135 7.33305 69.6035 7.43448 68.9948 7.53592C68.792 7.53592 68.5891 7.63736 68.3862 7.63736C68.3862 7.63736 68.2848 7.63736 68.2848 7.73879C68.0819 7.84023 67.9805 7.84023 67.7776 7.94167C67.6762 7.94167 67.6762 8.0431 67.5747 8.0431C67.4733 8.14454 67.2704 8.14454 67.169 8.24598L67.0676 8.34741C66.8647 8.44885 66.7632 8.55029 66.5604 8.65172L66.4589 8.75316C66.2561 8.8546 66.1546 8.95603 65.9517 9.15891L65.8503 9.26034C65.6474 9.36178 65.546 9.56465 65.3431 9.76753C65.3431 9.76753 65.3431 9.76753 65.2417 9.86896C65.0388 10.0718 64.9374 10.2747 64.7345 10.4776C64.5316 10.6805 64.4302 10.8833 64.2273 11.0862C62.9086 12.8106 61.59 15.1437 60.2713 17.8825C57.4311 23.5629 64.1259 23.0557 65.8503 22.3457C67.5747 21.6356 67.7776 20.4184 68.8934 18.9983C70.0092 17.5782 70.415 17.1724 72.2408 17.1724C74.0667 17.1724 74.371 17.071 75.8925 18.0853L99.6287 34.1123L106.324 25.4902L95.8756 9.15891Z" fill="white"/>
<path d="M52.9679 5L37.1437 30.562C36.5351 31.475 35.3179 31.7793 34.3035 31.1707L27.0001 26.606" stroke="#273152" stroke-width="1.5" stroke-miterlimit="10" stroke-linecap="round" stroke-linejoin="round"/>
<path d="M44.0414 42.0243L43.9399 41.9229C42.6213 41.1114 42.1141 39.2855 43.027 37.9669L45.9687 33.1993C46.7802 31.8807 48.6061 31.3735 49.9247 32.2864L50.0261 32.3878C51.3448 33.1993 51.852 35.0252 50.9391 36.3439L47.9974 41.1114C47.1859 42.4301 45.4615 42.8358 44.0414 42.0243Z" stroke="#273152" stroke-width="1.5" stroke-miterlimit="10" stroke-linecap="round" stroke-linejoin="round"/>
<path d="M47.9974 47.2991L48.2003 47.4005C49.7219 48.3135 51.7506 47.9077 52.6635 46.3862L58.4454 37.1554C59.3583 35.6339 58.9526 33.6051 57.4311 32.6922L57.2282 32.5908C55.7066 31.6778 53.6779 32.0836 52.765 33.6051L46.9831 42.8359C45.9687 44.3574 46.4759 46.3862 47.9974 47.2991Z" stroke="#273152" stroke-width="1.5" stroke-miterlimit="10" stroke-linecap="round" stroke-linejoin="round"/>
<path d="M79.5442 32.8951L91.9195 41.2129C93.8468 42.4301 96.3827 41.923 97.7014 40.0971C98.9186 38.1698 98.4115 35.6339 96.5856 34.3152L72.8494 18.2882C71.3279 17.2738 70.9221 17.3753 69.1977 17.3753C67.4733 17.3753 67.0675 17.781 65.8503 19.2011C64.7345 20.6212 64.5316 21.8385 62.8072 22.5485C61.0828 23.2586 54.3879 23.6643 57.2282 18.0853C60.0684 12.5063 62.6043 8.34741 65.9517 7.94166C69.2991 7.43448 76.6026 7.53591 79.1385 8.44884C81.6744 9.36177 88.1663 11.7963 90.1951 10.8833C92.2238 9.97039 92.9339 9.46321 92.9339 9.46321L103.28 25.896L96.5856 34.5181" stroke="#273152" stroke-width="1.5" stroke-miterlimit="10" stroke-linecap="round" stroke-linejoin="round"/>
<path d="M76.0954 39.4885L86.2391 46.1833C87.8621 47.2991 90.0937 46.7919 91.3109 45.0675C91.3109 45.0675 93.644 42.1258 90.398 39.9956L79.6457 32.8951" stroke="#273152" stroke-width="1.5" stroke-miterlimit="10" stroke-linecap="round" stroke-linejoin="round"/>
<path d="M53.5764 50.748L53.475 50.6465C52.0549 49.7336 51.6492 47.9078 52.4607 46.4876L56.8224 39.4885C57.7353 38.0684 59.5612 37.6626 60.9813 38.4741L61.0828 38.5756C62.5029 39.4885 62.9086 41.3144 62.0971 42.7345L57.7353 49.7336C56.9238 51.2552 55.098 51.6609 53.5764 50.748Z" stroke="#273152" stroke-width="1.5" stroke-miterlimit="10" stroke-linecap="round" stroke-linejoin="round"/>
<path d="M59.1555 53.4867L59.3584 53.5882C60.7785 54.5011 62.7058 53.9939 63.6187 52.5738L66.4589 47.9077C67.3719 46.4876 66.8647 44.5603 65.4446 43.6474L65.2417 43.5459C63.8216 42.633 61.8943 43.1402 60.9814 44.5603L58.1411 49.2264C57.2282 50.6465 57.7354 52.5738 59.1555 53.4867Z" stroke="#273152" stroke-width="1.5" stroke-miterlimit="10" stroke-linecap="round" stroke-linejoin="round"/>
<path d="M116.467 26.606L109.164 31.1707C108.251 31.7793 106.932 31.475 106.324 30.562L90.2965 5.10144" stroke="#273152" stroke-width="1.5" stroke-miterlimit="10" stroke-linecap="round" stroke-linejoin="round"/>
<path d="M73.2552 46.0819L79.6457 50.3422C80.8629 51.0523 84.1089 52.2695 85.9348 50.6465C85.9348 50.6465 88.6736 47.8063 85.4276 45.7775L76.3997 39.7928" stroke="#273152" stroke-width="1.5" stroke-miterlimit="10" stroke-linecap="round" stroke-linejoin="round"/>
<path d="M81.0658 50.9508C79.1385 53.8925 80.0514 58.1528 64.7345 50.7479" stroke="#273152" stroke-width="1.5" stroke-miterlimit="10" stroke-linecap="round" stroke-linejoin="round"/>
<path d="M38.9696 27.4175L45.1572 34.4166" stroke="#273152" stroke-width="1.5" stroke-miterlimit="10" stroke-linecap="round" stroke-linejoin="round"/>
<path d="M50.9391 8.14453C50.9391 8.14453 54.8951 10.9848 56.6195 11.0862C58.2425 11.1876 59.7641 10.7819 61.2856 11.0862" stroke="#273152" stroke-width="1.5" stroke-miterlimit="10" stroke-linecap="round" stroke-linejoin="round"/>
<path d="M109.468 25.6931C110.645 25.6931 111.598 24.7394 111.598 23.5629C111.598 22.3865 110.645 21.4327 109.468 21.4327C108.292 21.4327 107.338 22.3865 107.338 23.5629C107.338 24.7394 108.292 25.6931 109.468 25.6931Z" fill="#596CD9"/>
<g opacity="0.5">
<path d="M25.0271 0.644931C25.783 0.644931 26.4945 0.956199 27.0281 1.53427C28.0064 2.64594 27.9174 4.33567 26.8058 5.31394C25.6941 6.29221 24.0044 6.20328 22.9816 5.09161C22.0034 3.97994 22.0923 2.2902 23.204 1.31193C23.7376 0.867265 24.4046 0.644931 25.0271 0.644931ZM25.0271 4.69141C25.3384 4.69141 25.6941 4.55801 25.9164 4.33568C26.4945 3.84655 26.539 2.9572 26.0054 2.4236C25.5162 1.84553 24.6269 1.80107 24.0933 2.33468C23.5153 2.82381 23.4708 3.71314 24.0044 4.24674C24.2712 4.51354 24.6714 4.69141 25.0271 4.69141Z" fill="#596CD9"/>
<path d="M3.87474 30.292C4.94194 30.292 5.96469 30.7366 6.72063 31.5815C8.14356 33.1378 8.01016 35.5835 6.40935 37.0065C4.85302 38.4294 2.40734 38.296 0.984402 36.6952C-0.438534 35.1388 -0.305128 32.6932 1.29568 31.2702C2.05161 30.6032 2.98541 30.292 3.87474 30.292ZM3.87474 36.6063C4.45281 36.6063 5.07534 36.3839 5.56447 35.9837C6.58721 35.0499 6.67615 33.4936 5.74235 32.4708C4.80855 31.4481 3.2522 31.3592 2.22947 32.293C1.20673 33.2268 1.11781 34.7831 2.05162 35.8058C2.49628 36.3394 3.20774 36.6063 3.87474 36.6063Z" fill="#596CD9"/>
<path d="M20.193 41.5805C20.193 41.5805 20.2374 41.5805 20.193 41.5805C20.5932 41.5805 20.86 41.9363 20.86 42.292L20.7266 44.7377C20.7266 45.0934 20.4153 45.4047 20.0151 45.3602C19.6593 45.3602 19.3481 45.0045 19.3926 44.6487L19.526 42.2031C19.5704 41.8918 19.8372 41.5805 20.193 41.5805Z" fill="#596CD9"/>
<path d="M19.7038 50.2069C19.7038 50.2069 19.7482 50.2069 19.7038 50.2069C20.104 50.2069 20.3708 50.5627 20.3708 50.9184L20.2374 53.3641C20.2374 53.7198 19.9261 54.0311 19.5259 53.9866C19.1702 53.9866 18.8589 53.6309 18.9034 53.2751L19.0368 50.8295C19.0368 50.4737 19.348 50.2069 19.7038 50.2069Z" fill="#596CD9"/>
<path d="M14.3677 46.8275L16.8579 46.9609C17.2136 46.9609 17.5249 47.2722 17.4804 47.6724C17.4804 48.0281 17.1691 48.3394 16.7689 48.2949L14.3233 48.1615C13.9675 48.1615 13.6563 47.8503 13.7007 47.4501C13.7007 47.0943 14.012 46.8275 14.3677 46.8275Z" fill="#596CD9"/>
<path d="M22.9499 47.2722L25.44 47.4056C25.7957 47.4056 26.107 47.7169 26.0625 48.1171C26.0625 48.4728 25.7512 48.7841 25.351 48.7396L22.9054 48.6062C22.5496 48.6062 22.2384 48.2949 22.2829 47.8947C22.2829 47.539 22.5941 47.2722 22.9499 47.2722Z" fill="#596CD9"/>
<path d="M129.831 27.6248C130.231 27.6248 130.498 27.9805 130.498 28.3362L130.365 30.7819C130.365 31.1376 130.054 31.4489 129.653 31.4044C129.298 31.4044 128.986 31.0487 129.031 30.693L129.164 28.2473C129.164 27.8916 129.475 27.6248 129.831 27.6248Z" fill="#596CD9"/>
<path d="M129.342 36.2069C129.742 36.2069 130.009 36.5627 130.009 36.9184L129.876 39.3641C129.876 39.7198 129.564 40.0311 129.164 39.9866C128.808 39.9866 128.497 39.6309 128.542 39.2751L128.675 36.8295C128.675 36.5182 128.986 36.2069 129.342 36.2069Z" fill="#596CD9"/>
<path d="M123.962 32.8719C124.006 32.8719 124.006 32.8719 123.962 32.8719L126.452 33.0053C126.807 33.0053 127.119 33.3166 127.074 33.7168C127.074 34.0725 126.763 34.3838 126.363 34.3393L123.917 34.2059C123.561 34.2059 123.25 33.8946 123.295 33.4944C123.339 33.1387 123.606 32.8719 123.962 32.8719Z" fill="#596CD9"/>
<path d="M132.588 33.3166L135.078 33.45C135.434 33.45 135.745 33.7613 135.701 34.1615C135.701 34.5172 135.39 34.8285 134.989 34.784L132.544 34.6506C132.188 34.6506 131.877 34.3393 131.921 33.9391C131.921 33.5834 132.232 33.3166 132.588 33.3166Z" fill="#596CD9"/>
<path d="M121.431 53.9673C122.187 53.9673 122.943 54.2786 123.477 54.9456C124.411 56.1017 124.277 57.7914 123.166 58.7252C122.01 59.659 120.32 59.5256 119.386 58.414C118.452 57.2578 118.586 55.5681 119.697 54.6343C120.186 54.1896 120.809 53.9673 121.431 53.9673ZM121.431 58.0138C121.743 58.0138 122.054 57.9248 122.321 57.7025C122.899 57.2134 122.988 56.3685 122.499 55.7904C122.01 55.2124 121.165 55.1234 120.587 55.6126C120.009 56.1017 119.92 56.9466 120.409 57.5246C120.631 57.8804 121.031 58.0138 121.431 58.0138Z" fill="#596CD9"/>
</g>
</svg>
