<svg width="52" height="50" viewBox="0 0 52 50" fill="none" xmlns="http://www.w3.org/2000/svg">
<path d="M27.3633 49C40.6181 49 51.3633 38.2548 51.3633 25C51.3633 11.7452 40.6181 1 27.3633 1C14.1084 1 3.36328 11.7452 3.36328 25C3.36328 38.2548 14.1084 49 27.3633 49Z" fill="#5AD9AC"/>
<path d="M27.3635 41.9846C36.7439 41.9846 44.3481 34.3803 44.3481 25C44.3481 15.6197 36.7439 8.01538 27.3635 8.01538C17.9832 8.01538 10.3789 15.6197 10.3789 25C10.3789 34.3803 17.9832 41.9846 27.3635 41.9846Z" fill="white"/>
<path d="M26.2551 26.4769L19.9043 17.0985" stroke="#273152" stroke-width="1.5" stroke-miterlimit="10" stroke-linecap="round" stroke-linejoin="round"/>
<path d="M25 27.4369V12.1508" stroke="#273152" stroke-width="1.5" stroke-miterlimit="10" stroke-linecap="round" stroke-linejoin="round"/>
<path d="M25 49C38.2548 49 49 38.2548 49 25C49 11.7452 38.2548 1 25 1C11.7452 1 1 11.7452 1 25C1 38.2548 11.7452 49 25 49Z" stroke="#273152" stroke-width="1.5" stroke-miterlimit="10" stroke-linecap="round" stroke-linejoin="round"/>
<path d="M25.0002 41.9846C34.3806 41.9846 41.9849 34.3803 41.9849 25C41.9849 15.6197 34.3806 8.01538 25.0002 8.01538C15.6199 8.01538 8.01562 15.6197 8.01562 25C8.01562 34.3803 15.6199 41.9846 25.0002 41.9846Z" stroke="#273152" stroke-width="1.5" stroke-miterlimit="10" stroke-linecap="round" stroke-linejoin="round"/>
</svg>
