<svg width="57" height="46" viewBox="0 0 57 46" fill="none" xmlns="http://www.w3.org/2000/svg">
<path d="M44.9002 45.5999L4.70018 28.4999C4.20018 28.2999 4.00018 27.6999 4.20018 27.1999L14.1002 3.89988C14.3002 3.39988 14.9002 3.19988 15.4002 3.39988L55.6002 20.4999C56.1002 20.6999 56.3002 21.2999 56.1002 21.7999L46.2002 45.0999C46.0002 45.5999 45.4002 45.7999 44.9002 45.5999Z" fill="#5AD9AC"/>
<path d="M29.7002 25.6L14.8002 3.60004C14.7002 3.40004 14.9002 3.20004 15.0002 3.30004L55.9002 20.6C56.1002 20.7 56.1002 20.9 55.9002 21L29.7002 25.6Z" fill="white"/>
<path d="M27.7004 23.6L12.4004 1L54.5004 18.9L27.7004 23.6Z" stroke="#273152" stroke-width="1.5" stroke-miterlimit="10" stroke-linecap="round" stroke-linejoin="round"/>
<path d="M54.5905 18.9507L12.4316 1.05664L1.76553 26.1863L43.9244 44.0804L54.5905 18.9507Z" stroke="#273152" stroke-width="1.5" stroke-miterlimit="10" stroke-linecap="round" stroke-linejoin="round"/>
<path d="M27.7002 23.5998L25.5002 20.2998L1.7002 26.0998L43.9002 43.9998L31.5002 22.8998L27.7002 23.5998Z" stroke="#273152" stroke-width="1.5" stroke-miterlimit="10" stroke-linecap="round" stroke-linejoin="round"/>
</svg>
