<svg width="180" height="184" viewBox="0 0 180 184" fill="none" xmlns="http://www.w3.org/2000/svg">
<mask id="mask0" mask-type="alpha" maskUnits="userSpaceOnUse" x="0" y="0" width="180" height="184">
<rect width="180" height="184" fill="#C4C4C4"/>
</mask>
<g mask="url(#mask0)">
<path d="M72.0114 35.4308L86.6251 28.2607C98.5043 22.4274 109.563 15.1054 119.589 6.47695L120.318 2.01082C120.318 2.01082 125.271 2.07159 126.334 2.01082C127.701 1.91968 129.068 2.40579 130.101 3.40839C140.978 14.042 153.374 23.035 166.863 30.0836L176.403 35.0662C178.621 36.2207 179.441 38.2563 178.773 41.2033L166.286 93.9157C160.848 108.651 138.973 128.399 126.668 138.668C124.42 140.552 121.686 141.463 118.982 141.433C117.766 141.433 112.753 141.585 112.753 141.585C112.753 141.585 111.69 139.488 110.292 138.06C99.2335 126.819 79.8195 105.187 75.8699 88.1432L69.3378 41.021C68.8213 38.7728 69.9151 36.4638 72.0114 35.4308Z" fill="#21BB91"/>
<path d="M67.698 36.3423L82.1901 29.2329C93.9782 23.4604 104.976 16.1688 114.942 7.60109L118.679 4.38062C120.623 2.70962 123.509 2.80077 125.363 4.59329C136.148 15.1662 148.453 24.068 161.851 31.0558L171.33 36.0081C173.518 37.1626 174.551 39.7754 173.67 42.0844L161.243 94.3715C155.866 109.016 133.93 128.764 121.686 138.972C116.947 142.922 109.989 142.557 105.675 138.182C94.7074 127.032 75.4453 105.552 71.5261 88.6293L65.0548 41.8717C64.5383 39.6235 65.632 37.3449 67.698 36.3423Z" fill="white"/>
<path d="M75.3851 41.9325L87.3859 36.0384C97.1384 31.2381 106.253 25.2225 114.486 18.1132L117.585 15.4396C119.196 14.042 121.596 14.1331 123.115 15.6218C132.047 24.3718 142.225 31.7546 153.314 37.5271L161.153 41.6287C162.976 42.5705 163.796 44.7276 163.097 46.672L152.859 89.9661C148.393 102.088 130.224 118.434 120.107 126.88C116.188 130.161 110.415 129.857 106.861 126.212C97.7764 116.975 81.826 99.2021 78.5751 85.1961L73.1976 46.4897C72.7722 44.6668 73.6837 42.7832 75.3851 41.9325Z" fill="#DAF6EC"/>
<path d="M66.4831 35.7346L80.9752 28.6253C92.7634 22.8527 103.762 15.5611 113.727 6.99343L117.464 3.77296C119.408 2.10196 122.294 2.1931 124.148 3.98563C134.933 14.5585 147.238 23.4604 160.636 30.4482L170.115 35.4004C172.303 36.5549 173.336 39.1677 172.455 41.4768L160.029 93.7638C154.651 108.408 132.715 128.156 120.472 138.364C115.732 142.314 108.775 141.949 104.46 137.574C93.4925 126.424 74.2305 104.944 70.3112 88.0217L63.8399 41.2641C63.3234 39.0158 64.4172 36.7372 66.4831 35.7346Z" stroke="#273152" stroke-width="1.5" stroke-miterlimit="10" stroke-linecap="round" stroke-linejoin="round"/>
<path d="M125.544 63.3517L126.365 49.4672C126.608 44.9707 123.326 41.3249 118.86 41.1122C113.938 40.8995 109.533 44.9099 109.29 49.8622L108.409 62.8352C108.318 64.3239 106.981 65.5695 105.492 65.5088C104.125 65.448 103.092 64.3239 103.183 62.9567L104.095 50.1964C104.52 42.2667 111.356 35.7346 119.529 36.0688C126.273 36.3423 132.016 42.2971 131.621 49.5583L130.74 63.5644L125.544 63.3517Z" fill="white"/>
<path d="M125.544 63.3517L126.365 49.4672C126.608 44.9707 123.326 41.3249 118.86 41.1122C113.938 40.8995 109.533 44.9099 109.29 49.8622L108.409 62.8352C108.318 64.3239 106.981 65.5695 105.492 65.5088C104.125 65.448 103.092 64.3239 103.183 62.9567L104.095 50.1964C104.52 42.2667 111.356 35.7346 119.529 36.0688C126.273 36.3423 132.016 42.2971 131.621 49.5583L130.74 63.5644L125.544 63.3517Z" stroke="#273152" stroke-width="1.5" stroke-miterlimit="10" stroke-linecap="round" stroke-linejoin="round"/>
<path d="M120.714 101.481L114.85 101.724C106.738 101.511 99.5988 91.8498 100.358 80.4566L101.574 62.2579L136.027 61.9845C139.095 61.9845 141.647 64.6885 141.434 67.757L140.371 83.1302C139.672 93.46 131.074 101.481 120.714 101.481Z" fill="#5AD9AC"/>
<path d="M115.062 101.207C103.669 101.207 94.6155 91.5459 95.4055 80.1832L96.5903 62.5313H132.988C134.659 62.5313 135.996 63.9593 135.874 65.6303L134.719 82.8568C134.021 93.1562 125.423 101.207 115.062 101.207Z" fill="white"/>
<path d="M114.61 90.0268C113.668 90.0268 112.939 89.2369 113 88.3255L113.881 74.5929C113.941 73.7422 114.64 73.0738 115.491 73.0738C116.433 73.0738 117.162 73.8637 117.101 74.7752L116.22 88.5077C116.159 89.3888 115.461 90.0268 114.61 90.0268Z" fill="#273152"/>
<path d="M119.361 80.0246C121.674 77.711 121.674 73.9599 119.361 71.6462C117.047 69.3326 113.296 69.3326 110.982 71.6462C108.669 73.9599 108.669 77.711 110.982 80.0246C113.296 82.3382 117.047 82.3382 119.361 80.0246Z" fill="#273152"/>
<path d="M96.2563 67.6962L96.4082 65.3568C96.5297 63.777 97.8361 62.5313 99.4464 62.5313H133.018C134.689 62.5313 136.026 63.9593 135.905 65.6303L134.75 82.8568C134.051 93.217 125.453 101.238 115.093 101.238C105.128 101.238 96.9855 93.8853 95.5879 84.4366" stroke="#273152" stroke-width="1.5" stroke-miterlimit="10" stroke-linecap="round" stroke-linejoin="round"/>
<path d="M84.0147 139.336C84.0147 139.336 96.1978 147.54 101.879 145.99C109.87 143.833 113.394 123.416 113.759 121.624C114.093 119.801 115.642 110.626 117.252 107.223C118.741 104.002 119.683 100.721 120.139 98.6856C120.443 97.4704 121.263 96.8627 122.083 97.0146C122.812 97.1362 123.298 97.683 122.873 99.5059C122.387 101.602 121.992 103.729 121.597 105.522C121.475 106.099 121.232 106.615 121.658 106.22C122.6 105.278 123.815 104.367 124.757 104.701C126.549 105.339 128.433 111.355 126.519 116.125C124.605 120.895 121.536 120.348 120.989 122.596C120.473 124.844 117.708 153.312 115.49 158.538C112.3 166.042 81.7969 160.573 81.7969 160.573L84.0147 139.336Z" fill="white"/>
<path d="M83.1026 139.336C83.1026 139.336 95.2857 147.54 100.967 145.99C108.958 143.833 112.482 123.416 112.846 121.624C113.181 119.801 114.73 110.626 116.34 107.223C117.829 104.002 118.771 100.721 119.227 98.6856C119.53 97.4704 120.351 96.8627 121.171 97.0146C121.9 97.1362 122.386 97.683 121.961 99.5059C121.475 101.602 121.08 103.729 120.685 105.522C120.563 106.099 120.32 106.615 120.746 106.22C121.687 105.278 122.903 104.367 123.845 104.701C125.637 105.339 127.521 111.355 125.607 116.125C123.693 120.895 120.624 120.348 120.077 122.596C119.561 124.844 116.796 153.312 114.578 158.538C111.388 166.042 80.8848 160.573 80.8848 160.573L83.1026 139.336Z" stroke="#273152" stroke-width="1.5" stroke-miterlimit="10" stroke-linecap="round" stroke-linejoin="round"/>
<path d="M11.1895 149.028L2.50028 169.293C2.37875 169.597 2.22684 169.87 2.07493 170.174C-0.689811 175.764 2.25722 182.57 8.33358 184.332L34.5227 191.836L35.2215 180.717L21.1851 176.342C18.4811 175.491 17.2658 172.331 18.6938 169.901L21.1243 165.738L11.1895 149.028Z" fill="white"/>
<path d="M21.1842 176.311C18.4802 175.46 17.265 172.301 18.6929 169.87L19.3309 168.776C16.232 167.136 10.186 160.968 7.93775 156.593L2.46903 169.323C2.3475 169.627 2.19559 169.901 2.04368 170.204C-0.721061 175.795 2.22597 182.6 8.30233 184.362L20.8196 187.947C21.4273 183.755 21.9134 179.896 22.2476 176.706L21.1842 176.311Z" stroke="#273152" stroke-width="1.5" stroke-miterlimit="10" stroke-linecap="round" stroke-linejoin="round"/>
<path d="M33.0916 128.278C47.766 121.745 76.1122 123.082 96.0123 144.441C98.3517 146.962 91.607 165.89 85.561 164.584C81.0949 163.612 77.3275 162.518 75.9907 164.007C75.6261 164.402 75.535 164.888 75.5046 165.161C73.8336 175.886 77.1148 189.284 77.1148 189.284C79.0897 197.305 82.1886 206.541 78.1782 212.557C70.7954 223.676 28.2002 224.77 18.4172 219.393C14.4068 217.175 18.6299 211.098 21.5769 191.229C23.7948 176.433 25.0708 164.158 22.3365 168.898C20.9997 171.207 6.99368 157.262 8.452 153.099C11.6117 143.955 17.2627 135.326 33.0916 128.278Z" fill="#5AD9AC"/>
<path d="M31.8779 128.278C46.5523 121.745 74.8985 123.082 94.7986 144.441C97.138 146.962 90.3932 165.89 84.3472 164.584C79.8811 163.612 76.1138 162.518 74.777 164.007C74.4124 164.402 74.3212 164.888 74.2909 165.161C72.6199 175.886 75.9011 189.284 75.9011 189.284C77.8759 197.305 80.3064 206.146 76.9645 212.557C71.5869 222.886 26.956 224.801 17.1731 219.423C13.1627 217.205 17.3858 211.129 20.3328 191.259C22.5507 176.463 23.8267 164.189 21.0923 168.928C19.7555 171.237 5.74954 157.292 7.20786 153.13C10.398 143.955 16.049 135.326 31.8779 128.278Z" stroke="#273152" stroke-width="1.5" stroke-miterlimit="10" stroke-linecap="round" stroke-linejoin="round"/>
<path d="M68.1849 94.5233C69.5217 94.8271 70.4332 97.4096 70.7674 98.716C71.9219 103.091 70.7673 113.725 67.638 114.788C64.5391 115.821 64.6606 114.363 62.382 115.973C60.5894 117.249 60.5287 119.254 60.1337 123.568C60.1033 123.842 65.8151 124.784 65.9366 125.027C66.2101 125.574 63.5972 133.139 52.7813 132.987C42.5427 132.835 40.3552 126.151 40.264 125.665C40.2033 125.391 47.7987 123.994 47.8899 123.69C49.257 119.862 49.8647 113.39 49.8647 113.39C49.8647 113.39 54.1181 91.4244 68.1849 94.5233Z" fill="white"/>
<path d="M68.1849 94.5233C69.5217 94.8271 70.4332 97.4096 70.7674 98.716C71.9219 103.091 70.7673 113.725 67.638 114.788C64.5391 115.821 64.6606 114.363 62.382 115.973C60.5894 117.249 60.5287 119.254 60.1337 123.568C60.1033 123.842 65.8151 124.784 65.9366 125.027C66.2101 125.574 63.5973 133.139 52.7813 132.987C42.5427 132.835 40.3552 126.151 40.264 125.665C40.2033 125.391 47.7987 123.994 47.8899 123.69C49.257 119.862 49.8647 113.39 49.8647 113.39C49.8647 113.39 54.1181 91.4244 68.1849 94.5233Z" stroke="#273152" stroke-width="1.5" stroke-miterlimit="10" stroke-linecap="round" stroke-linejoin="round"/>
<path d="M63.5662 105.734C61.7737 105.704 60.5584 103.911 60.1634 102.149C59.7988 100.569 60.1027 99.2629 60.9534 98.8375C62.8674 97.8653 64.5384 100.691 64.5992 100.812" stroke="#273152" stroke-width="1.5" stroke-miterlimit="10" stroke-linecap="round" stroke-linejoin="round"/>
<path d="M72.6514 89.7231C73.5628 92.7612 70.4943 93.8246 68.2156 96.0425C65.8458 98.3211 65.8155 101.268 64.4179 101.329C64.2356 101.329 63.5672 100.63 63.2026 99.7491C62.595 98.2604 58.615 98.1996 60.9848 103.577C64.6913 112.023 74.4135 132.47 70.4031 147.935C67.213 160.33 61.7139 166.467 35.5856 167.014C13.7107 167.44 3.59355 142.041 5.53799 131.832C9.82182 109.137 33.5196 133.23 34.9779 101.845C35.9805 79.849 55.3034 67.9089 69.7347 84.0721C71.1627 85.7127 72.0741 87.7786 72.6514 89.7231Z" fill="#273152"/>
</g>
</svg>
