<svg width="22" height="22" viewBox="0 0 22 22" fill="none" xmlns="http://www.w3.org/2000/svg">
<path d="M10.9216 2.92084C11.5306 1.68325 12.5128 1.70289 13.1218 2.92084L15.4595 7.71405L20.7241 8.49983C22.0796 8.69627 22.3939 9.63919 21.392 10.6018L17.581 14.3145L18.465 19.5792C18.6811 20.9347 17.8954 21.5044 16.6774 20.8561L11.9628 18.3613L7.2285 20.8168C6.01055 21.4454 5.20513 20.8757 5.46051 19.5203L6.38379 14.2753L2.5728 10.5428C1.59058 9.58026 1.90489 8.63734 3.26035 8.46054L8.54466 7.71405L10.9216 2.92084Z" fill="#596CD9"/>
<path d="M9.92163 1.92084C10.5306 0.68325 11.5128 0.702895 12.1218 1.92084L14.4595 6.71405L19.7241 7.49983C21.0796 7.69627 21.3939 8.63919 20.392 9.60177L16.581 13.3145L17.465 18.5792C17.6811 19.9347 16.8954 20.5044 15.6774 19.8561L10.9628 17.3613L6.2285 19.8168C5.01055 20.4454 4.20513 19.8757 4.46051 18.5203L5.38379 13.2753L1.5728 9.54283C0.590581 8.58026 0.90489 7.63734 2.26035 7.46054L7.54466 6.71405L9.92163 1.92084Z" stroke="#273152"/>
</svg>
