<svg width="34" height="57" viewBox="0 0 34 57" fill="none" xmlns="http://www.w3.org/2000/svg">
<path d="M31.0195 56.9999H5.59004C4.02938 56.9999 2.83594 55.8065 2.83594 54.2458V4.67207C2.83594 3.11141 4.02938 1.91797 5.59004 1.91797H31.0195C32.5802 1.91797 33.7736 3.11141 33.7736 4.67207V54.2458C33.7736 55.7147 32.4884 56.9999 31.0195 56.9999Z" fill="white"/>
<path d="M33.7736 9.4458H2.83594V47.5442H33.7736V9.4458Z" fill="#5AD9AC"/>
<path d="M15.1379 24.9608L15.5969 18.9018C15.5969 18.4428 15.4133 17.9838 15.0461 17.8002C14.5871 17.5247 14.128 17.3411 13.669 17.2493C11.0985 16.6067 8.52804 18.1674 7.88542 20.6461C6.87558 24.7772 7.5182 29.092 9.72148 32.7641C11.9248 36.4362 15.5969 39.0985 19.8198 40.1083C20.1871 40.2002 20.5543 40.2002 20.9215 40.2002C23.1248 40.2002 25.0526 38.7313 25.6034 36.6198C25.6953 36.3444 25.6953 36.069 25.6953 35.7936C25.6953 35.5182 25.6953 35.3346 25.6953 35.0592C25.6953 34.6002 25.328 34.2329 24.9608 34.0493L19.269 31.6624H19.0854C18.6264 31.5706 18.0756 31.6624 17.8002 32.0297C17.8002 32.0297 17.5248 32.3969 17.2493 32.7641C16.2395 31.9379 15.4133 31.0198 14.6789 29.9182C14.0362 28.8165 13.5772 27.6231 13.3018 26.4297L14.2198 26.2461C14.6789 26.0624 15.0461 25.5116 15.1379 24.9608Z" fill="#273152"/>
<path d="M15.5967 52.6852C15.7803 52.8688 16.0557 53.0524 16.4229 53.0524C16.6065 53.0524 16.6983 53.0524 16.8819 52.9606C16.9737 52.8688 17.1574 52.777 17.2492 52.6852C17.341 52.5934 17.4328 52.5016 17.5246 52.318C17.6164 52.1344 17.6164 52.0426 17.6164 51.859C17.6164 51.6754 17.6164 51.5836 17.5246 51.3999C17.4328 51.3081 17.4328 51.1245 17.2492 51.0327C17.2492 50.9409 17.1574 50.9409 17.0656 50.8491C16.9737 50.8491 16.9737 50.7573 16.8819 50.7573C16.7901 50.7573 16.7901 50.7573 16.6983 50.7573C16.5147 50.7573 16.2393 50.7573 16.0557 50.8491C15.9639 50.9409 15.7803 50.9409 15.6885 51.1245C15.5967 51.2163 15.5049 51.3081 15.4131 51.4917C15.3213 51.5836 15.3213 51.7672 15.3213 51.9508C15.3213 52.1344 15.3213 52.2262 15.4131 52.4098C15.4131 52.4098 15.5049 52.5934 15.5967 52.6852Z" fill="#273152"/>
<path d="M29.1836 56.082H3.7541C2.19344 56.082 1 54.8885 1 53.3279V3.7541C1 2.19344 2.19344 1 3.7541 1H29.1836C30.7443 1 31.9377 2.19344 31.9377 3.7541V53.3279C31.9377 54.7967 30.6525 56.082 29.1836 56.082Z" stroke="#273152" stroke-width="1.5" stroke-miterlimit="10" stroke-linecap="round" stroke-linejoin="round"/>
<path d="M11.2817 5.31445H21.6555" stroke="#273152" stroke-width="1.5" stroke-miterlimit="10" stroke-linecap="round" stroke-linejoin="round"/>
<path d="M1 9.53809H31.9377" stroke="#273152" stroke-width="1.5" stroke-miterlimit="10" stroke-linecap="round" stroke-linejoin="round"/>
<path d="M1 47.6362H31.9377" stroke="#273152" stroke-width="1.5" stroke-miterlimit="10" stroke-linecap="round" stroke-linejoin="round"/>
</svg>
