<svg width="126" height="70" viewBox="0 0 126 70" fill="none" xmlns="http://www.w3.org/2000/svg">
<path d="M59.2911 65C76.2511 65 90 51.2512 90 34.2911C90 17.331 76.2511 3.58215 59.2911 3.58215C42.331 3.58215 28.5821 17.331 28.5821 34.2911C28.5821 51.2512 42.331 65 59.2911 65Z" fill="#F8AD9E"/>
<path d="M73.9539 33.6455C75.0605 33.6455 75.8905 34.5677 75.7983 35.6743C74.7839 45.3573 66.5764 52.9193 56.7089 52.9193C46.7493 52.9193 38.5418 45.3573 37.6196 35.6743C37.5274 34.5677 38.3573 33.6455 39.464 33.6455H73.9539Z" fill="#273152"/>
<path d="M47.1181 25.4381C48.7989 25.4381 50.1614 24.0756 50.1614 22.3949C50.1614 20.7141 48.7989 19.3516 47.1181 19.3516C45.4374 19.3516 44.0749 20.7141 44.0749 22.3949C44.0749 24.0756 45.4374 25.4381 47.1181 25.4381Z" fill="#273152"/>
<path d="M66.2997 25.4381C67.9804 25.4381 69.3429 24.0756 69.3429 22.3949C69.3429 20.7141 67.9804 19.3516 66.2997 19.3516C64.619 19.3516 63.2565 20.7141 63.2565 22.3949C63.2565 24.0756 64.619 25.4381 66.2997 25.4381Z" fill="#273152"/>
<path d="M56.7089 52.8271C63.072 52.8271 68.6974 49.7838 72.2017 44.9885C70.3573 44.2507 68.4207 43.8818 66.2997 43.8818C62.7032 43.8818 59.3833 45.0807 56.7089 47.1095C54.0346 45.0807 50.7147 43.8818 47.1181 43.8818C44.9971 43.8818 43.0605 44.2507 41.2161 44.9885C44.7205 49.7838 50.3458 52.8271 56.7089 52.8271Z" fill="white"/>
<path d="M56.7089 62.4179C73.669 62.4179 87.4179 48.669 87.4179 31.7089C87.4179 14.7489 73.669 1 56.7089 1C39.7489 1 26 14.7489 26 31.7089C26 48.669 39.7489 62.4179 56.7089 62.4179Z" stroke="#273152" stroke-width="1.5" stroke-miterlimit="10" stroke-linecap="round" stroke-linejoin="round"/>
<g opacity="0.5">
<path d="M90.6779 69.3458C89.922 69.3458 89.2105 69.0345 88.6769 68.4565C87.6986 67.3448 87.7876 65.6551 88.8992 64.6768C90.0109 63.6985 91.7006 63.7874 92.7234 64.8991C93.7016 66.0108 93.6127 67.7005 92.501 68.6788C91.9674 69.1235 91.3004 69.3458 90.6779 69.3458ZM90.6779 65.2993C90.3666 65.2993 90.0109 65.4327 89.7886 65.655C89.2105 66.1442 89.166 67.0335 89.6996 67.5671C90.1888 68.1452 91.0781 68.1896 91.6117 67.656C92.1898 67.1669 92.2342 66.2776 91.7006 65.744C91.4338 65.4772 91.0336 65.2993 90.6779 65.2993Z" fill="#F8AD9E"/>
<path d="M121.83 39.6988C120.763 39.6988 119.74 39.2541 118.984 38.4092C117.561 36.8529 117.695 34.4072 119.296 32.9843C120.852 31.5613 123.298 31.6947 124.721 33.2955C126.144 34.8519 126.01 37.2975 124.409 38.7205C123.653 39.3875 122.72 39.6988 121.83 39.6988ZM121.83 33.3845C121.252 33.3845 120.63 33.6068 120.141 34.007C119.118 34.9408 119.029 36.4971 119.963 37.5199C120.896 38.5426 122.453 38.6316 123.476 37.6977C124.498 36.7639 124.587 35.2076 123.653 34.1849C123.209 33.6513 122.497 33.3845 121.83 33.3845Z" fill="#F8AD9E"/>
<path d="M105.512 28.4102C105.512 28.4102 105.468 28.4102 105.512 28.4102C105.112 28.4102 104.845 28.0545 104.845 27.6987L104.978 25.2531C104.978 24.8973 105.29 24.5861 105.69 24.6305C106.046 24.6305 106.357 24.9863 106.312 25.342L106.179 27.7877C106.135 28.0989 105.868 28.4102 105.512 28.4102Z" fill="#F8AD9E"/>
<path d="M106.001 19.7838C106.001 19.7838 105.957 19.7838 106.001 19.7838C105.601 19.7838 105.334 19.4281 105.334 19.0723L105.468 16.6267C105.468 16.2709 105.779 15.9597 106.179 16.0041C106.535 16.0041 106.846 16.3599 106.802 16.7156L106.668 19.1613C106.668 19.517 106.357 19.7838 106.001 19.7838Z" fill="#F8AD9E"/>
<path d="M111.337 23.1632L108.847 23.0298C108.491 23.0298 108.18 22.7185 108.225 22.3183C108.225 21.9626 108.536 21.6513 108.936 21.6958L111.382 21.8292C111.738 21.8292 112.049 22.1404 112.004 22.5406C112.004 22.8964 111.693 23.1632 111.337 23.1632Z" fill="#F8AD9E"/>
<path d="M102.755 22.7185L100.265 22.5851C99.9093 22.5851 99.598 22.2739 99.6425 21.8737C99.6425 21.5179 99.9538 21.2067 100.354 21.2511L102.8 21.3845C103.155 21.3845 103.467 21.6958 103.422 22.096C103.422 22.4517 103.111 22.7185 102.755 22.7185Z" fill="#F8AD9E"/>
<path d="M5.87384 42.366C5.47364 42.366 5.20684 42.0102 5.20684 41.6545L5.34024 39.2088C5.34024 38.8531 5.6515 38.5418 6.05171 38.5863C6.40744 38.5863 6.71871 38.942 6.67424 39.2978L6.54084 41.7434C6.54084 42.0992 6.22957 42.366 5.87384 42.366Z" fill="#F8AD9E"/>
<path d="M6.36296 33.7838C5.96276 33.7838 5.69596 33.4281 5.69596 33.0723L5.82936 30.6267C5.82936 30.2709 6.14063 29.9597 6.54083 30.0041C6.89656 30.0041 7.20783 30.3599 7.16336 30.7156L7.02996 33.1613C7.02996 33.4725 6.7187 33.7838 6.36296 33.7838Z" fill="#F8AD9E"/>
<path d="M11.7435 37.1188C11.699 37.1188 11.699 37.1188 11.7435 37.1188L9.25332 36.9854C8.89759 36.9854 8.58632 36.6741 8.63079 36.2739C8.63079 35.9182 8.94205 35.6069 9.34225 35.6514L11.7879 35.7848C12.1437 35.7848 12.4549 36.0961 12.4105 36.4963C12.366 36.852 12.0992 37.1188 11.7435 37.1188Z" fill="#F8AD9E"/>
<path d="M3.11692 36.6741L0.626782 36.5407C0.271048 36.5407 -0.0402187 36.2294 0.00424805 35.8292C0.00424805 35.4735 0.315515 35.1622 0.715716 35.2067L3.16139 35.3401C3.51712 35.3401 3.82839 35.6514 3.78392 36.0516C3.78392 36.4073 3.47266 36.6741 3.11692 36.6741Z" fill="#F8AD9E"/>
<path d="M14.2736 16.0234C13.5176 16.0234 12.7617 15.7122 12.2281 15.0452C11.2943 13.889 11.4277 12.1993 12.5394 11.2655C13.6955 10.3317 15.3852 10.4651 16.319 11.5767C17.2528 12.7329 17.1194 14.4226 16.0078 15.3564C15.5186 15.8011 14.8961 16.0234 14.2736 16.0234ZM14.2736 11.977C13.9623 11.977 13.651 12.0659 13.3842 12.2882C12.8062 12.7774 12.7172 13.6222 13.2064 14.2003C13.6955 14.7784 14.5404 14.8673 15.1184 14.3782C15.6965 13.889 15.7854 13.0442 15.2963 12.4661C15.074 12.1103 14.6738 11.977 14.2736 11.977Z" fill="#F8AD9E"/>
</g>
</svg>
