<svg width="126" height="74" viewBox="0 0 126 74" fill="none" xmlns="http://www.w3.org/2000/svg">
<path d="M62.3 1H53.8V9.5H62.3V1Z" fill="#596CD9"/>
<path d="M60.9 67.6C76.9715 67.6 90 54.5715 90 38.5C90 22.4285 76.9715 9.39999 60.9 9.39999C44.8285 9.39999 31.8 22.4285 31.8 38.5C31.8 54.5715 44.8285 67.6 60.9 67.6Z" fill="#596CD9"/>
<path d="M60.9 59.1C72.2771 59.1 81.5 49.8771 81.5 38.5C81.5 27.1229 72.2771 17.9 60.9 17.9C49.5229 17.9 40.3 27.1229 40.3 38.5C40.3 49.8771 49.5229 59.1 60.9 59.1Z" fill="white"/>
<path d="M58 43.7C60.8719 43.7 63.2 41.3719 63.2 38.5C63.2 35.6281 60.8719 33.3 58 33.3C55.1281 33.3 52.8 35.6281 52.8 38.5C52.8 41.3719 55.1281 43.7 58 43.7Z" fill="#273152"/>
<path d="M53.8 1V9.5" stroke="#273152" stroke-width="1.5" stroke-miterlimit="10" stroke-linecap="round" stroke-linejoin="round"/>
<path d="M62.3 9.5V1" stroke="#273152" stroke-width="1.5" stroke-miterlimit="10" stroke-linecap="round" stroke-linejoin="round"/>
<path d="M49.5 1H65.9" stroke="#273152" stroke-width="1.5" stroke-miterlimit="10" stroke-linecap="round" stroke-linejoin="round"/>
<path d="M78.4 17.8L81.2 15.1" stroke="#273152" stroke-width="1.5" stroke-miterlimit="10" stroke-linecap="round" stroke-linejoin="round"/>
<path d="M60.9 35.3L67.3 28.9" stroke="#273152" stroke-width="1.5" stroke-miterlimit="10" stroke-linecap="round" stroke-linejoin="round"/>
<path d="M81 17.4C82.1598 17.4 83.1 16.4598 83.1 15.3C83.1 14.1402 82.1598 13.2 81 13.2C79.8402 13.2 78.9 14.1402 78.9 15.3C78.9 16.4598 79.8402 17.4 81 17.4Z" fill="#273152"/>
<path d="M27 30.8H40.4" stroke="#273152" stroke-width="1.5" stroke-miterlimit="10" stroke-linecap="round" stroke-linejoin="round"/>
<path d="M24 49.3H37.4" stroke="#273152" stroke-width="1.5" stroke-miterlimit="10" stroke-linecap="round" stroke-linejoin="round"/>
<path d="M31.5 40.1H45" stroke="#273152" stroke-width="1.5" stroke-miterlimit="10" stroke-linecap="round" stroke-linejoin="round"/>
<path d="M42.4 51.9C46.2 56.3 51.8 59.1 58 59.1C69.4 59.1 78.6 49.9 78.6 38.5C78.6 27.1 69.4 17.9 58 17.9C51.7 17.9 46.1 20.7 42.4 25.1" stroke="#273152" stroke-width="1.5" stroke-miterlimit="10" stroke-linecap="round" stroke-linejoin="round"/>
<path d="M35.7 57.1C41 63.5 49.1 67.6 58.1 67.6C74.1 67.6 87.2 54.6 87.2 38.5C87.2 22.5 74.2 9.39999 58.1 9.39999C49.1 9.39999 41.1 13.5 35.7 19.9" stroke="#273152" stroke-width="1.5" stroke-miterlimit="10" stroke-linecap="round" stroke-linejoin="round"/>
<g opacity="0.5">
<path d="M90.6779 73.7008C89.922 73.7008 89.2105 73.3895 88.6769 72.8114C87.6986 71.6998 87.7876 70.01 88.8992 69.0318C90.0109 68.0535 91.7006 68.1424 92.7234 69.2541C93.7016 70.3658 93.6127 72.0555 92.501 73.0338C91.9674 73.4784 91.3004 73.7008 90.6779 73.7008ZM90.6779 69.6543C90.3666 69.6543 90.0109 69.7877 89.7886 70.01C89.2105 70.4992 89.166 71.3885 89.6996 71.9221C90.1888 72.5002 91.0781 72.5446 91.6117 72.011C92.1898 71.5219 92.2342 70.6326 91.7006 70.099C91.4338 69.8322 91.0336 69.6543 90.6779 69.6543Z" fill="#596CD9"/>
<path d="M121.83 44.0537C120.763 44.0537 119.74 43.6091 118.984 42.7642C117.561 41.2079 117.695 38.7622 119.296 37.3393C120.852 35.9163 123.298 36.0497 124.721 37.6505C126.144 39.2069 126.01 41.6525 124.409 43.0755C123.653 43.7425 122.72 44.0537 121.83 44.0537ZM121.83 37.7394C121.252 37.7394 120.63 37.9618 120.141 38.362C119.118 39.2958 119.029 40.8521 119.963 41.8749C120.896 42.8976 122.453 42.9865 123.476 42.0527C124.498 41.1189 124.587 39.5626 123.653 38.5399C123.209 38.0063 122.497 37.7394 121.83 37.7394Z" fill="#596CD9"/>
<path d="M105.512 32.7652C105.512 32.7652 105.468 32.7652 105.512 32.7652C105.112 32.7652 104.845 32.4094 104.845 32.0537L104.978 29.608C104.978 29.2523 105.29 28.941 105.69 28.9855C106.046 28.9855 106.357 29.3412 106.312 29.6969L106.179 32.1426C106.135 32.4539 105.868 32.7652 105.512 32.7652Z" fill="#596CD9"/>
<path d="M106.001 24.1388C106.001 24.1388 105.957 24.1388 106.001 24.1388C105.601 24.1388 105.334 23.7831 105.334 23.4273L105.468 20.9816C105.468 20.6259 105.779 20.3146 106.179 20.3591C106.535 20.3591 106.846 20.7148 106.802 21.0706L106.668 23.5162C106.668 23.872 106.357 24.1388 106.001 24.1388Z" fill="#596CD9"/>
<path d="M111.337 27.5182L108.847 27.3848C108.491 27.3848 108.18 27.0735 108.225 26.6733C108.225 26.3176 108.536 26.0063 108.936 26.0508L111.382 26.1842C111.737 26.1842 112.049 26.4954 112.004 26.8956C112.004 27.2514 111.693 27.5182 111.337 27.5182Z" fill="#596CD9"/>
<path d="M102.755 27.0735L100.265 26.9401C99.9093 26.9401 99.598 26.6288 99.6425 26.2286C99.6425 25.8729 99.9538 25.5616 100.354 25.6061L102.8 25.7395C103.155 25.7395 103.467 26.0508 103.422 26.451C103.422 26.8067 103.111 27.0735 102.755 27.0735Z" fill="#596CD9"/>
<path d="M5.87385 42.721C5.47365 42.721 5.20685 42.3652 5.20685 42.0095L5.34025 39.5638C5.34025 39.2081 5.65152 38.8968 6.05172 38.9413C6.40745 38.9413 6.71872 39.297 6.67425 39.6528L6.54085 42.0984C6.54085 42.4542 6.22958 42.721 5.87385 42.721Z" fill="#596CD9"/>
<path d="M6.36295 34.1388C5.96275 34.1388 5.69595 33.783 5.69595 33.4273L5.82935 30.9816C5.82935 30.6259 6.14062 30.3146 6.54082 30.3591C6.89655 30.3591 7.20782 30.7148 7.16336 31.0705L7.02996 33.5162C7.02996 33.8275 6.71869 34.1388 6.36295 34.1388Z" fill="#596CD9"/>
<path d="M11.7434 37.4738C11.699 37.4738 11.699 37.4738 11.7434 37.4738L9.25331 37.3404C8.89758 37.3404 8.58631 37.0291 8.63077 36.6289C8.63077 36.2732 8.94204 35.9619 9.34224 36.0064L11.7879 36.1398C12.1436 36.1398 12.4549 36.4511 12.4104 36.8513C12.366 37.207 12.0992 37.4738 11.7434 37.4738Z" fill="#596CD9"/>
<path d="M3.11692 37.0291L0.626782 36.8957C0.271048 36.8957 -0.0402187 36.5844 0.00424805 36.1842C0.00424805 35.8285 0.315515 35.5172 0.715716 35.5617L3.16139 35.6951C3.51712 35.6951 3.82839 36.0064 3.78392 36.4066C3.78392 36.7623 3.47266 37.0291 3.11692 37.0291Z" fill="#596CD9"/>
<path d="M14.2736 16.3784C13.5176 16.3784 12.7617 16.0671 12.2281 15.4001C11.2943 14.244 11.4277 12.5543 12.5394 11.6205C13.6955 10.6867 15.3852 10.8201 16.319 11.9317C17.2528 13.0879 17.1194 14.7776 16.0078 15.7114C15.5186 16.1561 14.8961 16.3784 14.2736 16.3784ZM14.2736 12.3319C13.9623 12.3319 13.651 12.4209 13.3842 12.6432C12.8062 13.1323 12.7172 13.9772 13.2064 14.5553C13.6955 15.1333 14.5404 15.2223 15.1184 14.7331C15.6965 14.244 15.7854 13.3991 15.2963 12.8211C15.074 12.4653 14.6738 12.3319 14.2736 12.3319Z" fill="#596CD9"/>
</g>
</svg>
