<svg width="34" height="57" viewBox="0 0 34 57" fill="none" xmlns="http://www.w3.org/2000/svg">
<path d="M31.0195 56.9999H5.59004C4.02938 56.9999 2.83594 55.8064 2.83594 54.2458V4.67201C2.83594 3.11135 4.02938 1.91791 5.59004 1.91791H31.0195C32.5802 1.91791 33.7736 3.11135 33.7736 4.67201V54.2458C33.7736 55.7146 32.4884 56.9999 31.0195 56.9999Z" fill="white"/>
<path d="M33.7736 9.44592H2.83594V47.5443H33.7736V9.44592Z" fill="#5AD9AC"/>
<path d="M15.1379 24.9608L15.5969 18.9018C15.5969 18.4428 15.4133 17.9838 15.0461 17.8002C14.5871 17.5248 14.128 17.3412 13.669 17.2494C11.0985 16.6067 8.52804 18.1674 7.88542 20.6461C6.87558 24.7772 7.5182 29.092 9.72148 32.7641C11.9248 36.4362 15.5969 39.0985 19.8198 40.1084C20.1871 40.2002 20.5543 40.2002 20.9215 40.2002C23.1248 40.2002 25.0526 38.7313 25.6034 36.6199C25.6953 36.3444 25.6953 36.069 25.6953 35.7936C25.6953 35.5182 25.6953 35.3346 25.6953 35.0592C25.6953 34.6002 25.328 34.233 24.9608 34.0494L19.269 31.6625H19.0854C18.6264 31.5707 18.0756 31.6625 17.8002 32.0297C17.8002 32.0297 17.5248 32.3969 17.2493 32.7641C16.2395 31.9379 15.4133 31.0199 14.6789 29.9182C14.0362 28.8166 13.5772 27.6231 13.3018 26.4297L14.2198 26.2461C14.6789 26.0625 15.0461 25.5117 15.1379 24.9608Z" fill="#273152"/>
<path d="M15.5957 52.685C15.7793 52.8686 16.0547 53.0522 16.422 53.0522C16.6056 53.0522 16.6974 53.0522 16.881 52.9604C16.9728 52.8686 17.1564 52.7768 17.2482 52.685C17.34 52.5932 17.4318 52.5014 17.5236 52.3178C17.6154 52.1342 17.6154 52.0424 17.6154 51.8588C17.6154 51.6752 17.6154 51.5834 17.5236 51.3998C17.4318 51.308 17.4318 51.1244 17.2482 51.0326C17.2482 50.9407 17.1564 50.9407 17.0646 50.8489C16.9728 50.8489 16.9728 50.7571 16.881 50.7571C16.7892 50.7571 16.7892 50.7571 16.6974 50.7571C16.5138 50.7571 16.2383 50.7571 16.0547 50.8489C15.9629 50.9407 15.7793 50.9407 15.6875 51.1244C15.5957 51.2162 15.5039 51.308 15.4121 51.4916C15.3203 51.5834 15.3203 51.767 15.3203 51.9506C15.3203 52.1342 15.3203 52.226 15.4121 52.4096C15.4121 52.4096 15.5039 52.5932 15.5957 52.685Z" fill="#273152"/>
<path d="M29.1836 56.082H3.7541C2.19344 56.082 1 54.8885 1 53.3279V3.7541C1 2.19344 2.19344 1 3.7541 1H29.1836C30.7443 1 31.9377 2.19344 31.9377 3.7541V53.3279C31.9377 54.7967 30.6525 56.082 29.1836 56.082Z" stroke="#273152" stroke-width="1.5" stroke-miterlimit="10" stroke-linecap="round" stroke-linejoin="round"/>
<path d="M11.2812 5.31467H21.655" stroke="#273152" stroke-width="1.5" stroke-miterlimit="10" stroke-linecap="round" stroke-linejoin="round"/>
<path d="M1 9.53784H31.9377" stroke="#273152" stroke-width="1.5" stroke-miterlimit="10" stroke-linecap="round" stroke-linejoin="round"/>
<path d="M1 47.6359H31.9377" stroke="#273152" stroke-width="1.5" stroke-miterlimit="10" stroke-linecap="round" stroke-linejoin="round"/>
</svg>
