<svg width="67" height="46" viewBox="0 0 67 46" fill="none" xmlns="http://www.w3.org/2000/svg">
<path d="M54.8997 45.6L14.6997 28.5C14.1997 28.3 13.9997 27.7 14.1997 27.2L24.0997 3.9C24.2997 3.4 24.8997 3.2 25.3997 3.4L65.5997 20.5C66.0997 20.7 66.2997 21.3 66.0997 21.8L56.1997 45.1C55.9997 45.6 55.3997 45.8 54.8997 45.6Z" fill="#5AD9AC"/>
<path d="M39.6987 25.6L24.7987 3.60001C24.6987 3.40001 24.8987 3.20001 24.9987 3.30001L65.8987 20.6C66.0987 20.7 66.0987 20.9 65.8987 21L39.6987 25.6Z" fill="white"/>
<path d="M37.6984 23.6L22.3984 1L64.4984 18.9L37.6984 23.6Z" stroke="#273152" stroke-width="1.5" stroke-miterlimit="10" stroke-linecap="round" stroke-linejoin="round"/>
<path d="M64.5886 18.9509L22.4297 1.05682L11.7636 26.1865L53.9225 44.0805L64.5886 18.9509Z" stroke="#273152" stroke-width="1.5" stroke-miterlimit="10" stroke-linecap="round" stroke-linejoin="round"/>
<path d="M37.6992 23.6L35.4992 20.3L11.6992 26.1L53.8992 44L41.4992 22.9L37.6992 23.6Z" stroke="#273152" stroke-width="1.5" stroke-miterlimit="10" stroke-linecap="round" stroke-linejoin="round"/>
<path d="M1 36.8H20.2" stroke="#273152" stroke-width="1.5" stroke-miterlimit="10" stroke-linecap="round" stroke-linejoin="round"/>
<path d="M9.5 42.4H28.7" stroke="#273152" stroke-width="1.5" stroke-miterlimit="10" stroke-linecap="round" stroke-linejoin="round"/>
</svg>
