<svg width="250" height="250" viewBox="0 0 250 250" fill="none" xmlns="http://www.w3.org/2000/svg">
<circle cx="125" cy="125" r="125" fill="#F4F5FA"/>
<path d="M101.242 147.242V110.797C101.242 106.461 104.758 102.828 109.211 102.828C110.617 102.828 111.906 101.891 112.258 100.484C113.898 94.3906 119.289 90.1719 125.5 90.1719C126.672 90.1719 127.844 90.2891 129.016 90.6406C133.82 91.9297 137.57 95.6797 138.859 100.484C139.211 101.891 140.5 102.945 141.906 102.945C146.242 102.945 149.875 106.461 149.875 110.914V147.359H101.242V147.242Z" fill="#F8AD9E"/>
<path d="M155.969 142.906H97.375C96.6719 142.906 96.2031 143.375 96.2031 144.078V151.109C96.2031 151.813 96.6719 152.281 97.375 152.281H155.969C156.672 152.281 157.141 151.813 157.141 151.109V144.078C157.141 143.492 156.672 142.906 155.969 142.906Z" fill="#F8AD9E"/>
<path d="M161.828 161.656H91.5156C90.8125 161.656 90.3438 161.188 90.3438 160.484V153.453C90.3438 152.75 90.8125 152.281 91.5156 152.281H161.828C162.531 152.281 163 152.75 163 153.453V160.484C163 161.188 162.531 161.656 161.828 161.656Z" fill="#F8AD9E"/>
<path d="M100.071 141.734V109.625C100.071 105.289 103.586 101.656 108.039 101.656C109.446 101.656 110.735 100.719 111.086 99.3125C112.727 93.2188 118.117 89 124.328 89C125.5 89 126.672 89.1172 127.844 89.4687C132.649 90.7578 136.399 94.5078 137.688 99.3125C138.039 100.719 139.328 101.773 140.735 101.773C145.071 101.773 148.703 105.289 148.703 109.742V141.852H100.071V141.734Z" stroke="#273152" stroke-miterlimit="10"/>
<path d="M105.812 141.969V110.445C105.812 108.336 107.453 106.695 109.562 106.695C112.844 106.695 115.656 104.469 116.476 101.422C117.531 97.3203 121.281 94.3906 125.617 94.3906C126.437 94.3906 127.258 94.5078 127.961 94.7422C131.242 95.5625 133.82 98.1406 134.64 101.422C135.461 104.586 138.273 106.695 141.554 106.813C143.664 106.813 145.304 108.453 145.304 110.562V142.086H105.812V141.969Z" fill="white"/>
<path d="M104.641 141.969V110.445C104.641 108.336 106.281 106.695 108.391 106.695C111.672 106.695 114.484 104.469 115.305 101.422C116.359 97.3203 120.109 94.3906 124.445 94.3906C125.266 94.3906 126.086 94.5078 126.789 94.7422C130.07 95.5625 132.648 98.1406 133.469 101.422C134.289 104.586 137.102 106.695 140.383 106.813C142.492 106.813 144.133 108.453 144.133 110.562V142.086H104.641V141.969Z" stroke="#273152" stroke-miterlimit="10"/>
<path d="M153.625 141.734H95.0312C94.3281 141.734 93.8594 142.203 93.8594 142.906V149.938C93.8594 150.641 94.3281 151.109 95.0312 151.109H153.625C154.328 151.109 154.797 150.641 154.797 149.938V142.906C154.797 142.32 154.328 141.734 153.625 141.734Z" stroke="#273152" stroke-miterlimit="10"/>
<path d="M159.484 160.484H89.1719C88.4687 160.484 88 160.016 88 159.312V152.281C88 151.578 88.4687 151.109 89.1719 151.109H159.484C160.188 151.109 160.656 151.578 160.656 152.281V159.312C160.656 160.016 160.188 160.484 159.484 160.484Z" stroke="#273152" stroke-miterlimit="10"/>
<path d="M120.93 132.594V120.055H115.422C114.719 120.055 114.25 119.586 114.25 118.883V114.313C114.25 113.609 114.719 113.141 115.422 113.141H120.93V108.805C120.93 108.102 121.398 107.633 122.102 107.633H126.672C127.375 107.633 127.844 108.102 127.844 108.805V113.141H133.352C134.055 113.141 134.523 113.609 134.523 114.313V118.883C134.523 119.586 134.055 120.055 133.352 120.055H127.844V132.594C127.844 133.297 127.375 133.766 126.672 133.766H122.102C121.398 133.766 120.93 133.18 120.93 132.594Z" fill="#273152"/>
<g opacity="0.5">
<path d="M154.678 180.701C153.922 180.701 153.211 180.39 152.677 179.812C151.699 178.7 151.788 177.01 152.899 176.032C154.011 175.054 155.701 175.143 156.723 176.254C157.702 177.366 157.613 179.056 156.501 180.034C155.967 180.479 155.3 180.701 154.678 180.701ZM154.678 176.654C154.367 176.654 154.011 176.788 153.789 177.01C153.211 177.499 153.166 178.389 153.7 178.922C154.189 179.5 155.078 179.545 155.612 179.011C156.19 178.522 156.234 177.633 155.701 177.099C155.434 176.832 155.034 176.654 154.678 176.654Z" fill="#F8AD9E"/>
<path d="M185.83 151.054C184.763 151.054 183.74 150.609 182.984 149.764C181.561 148.208 181.695 145.762 183.296 144.339C184.852 142.916 187.298 143.05 188.721 144.651C190.144 146.207 190.01 148.653 188.409 150.076C187.653 150.743 186.72 151.054 185.83 151.054ZM185.83 144.74C185.252 144.74 184.63 144.962 184.141 145.362C183.118 146.296 183.029 147.852 183.963 148.875C184.896 149.898 186.453 149.987 187.476 149.053C188.498 148.119 188.587 146.563 187.653 145.54C187.209 145.006 186.497 144.74 185.83 144.74Z" fill="#F8AD9E"/>
<path d="M169.512 139.765C169.512 139.765 169.468 139.765 169.512 139.765C169.112 139.765 168.845 139.41 168.845 139.054L168.978 136.608C168.978 136.252 169.29 135.941 169.69 135.986C170.046 135.986 170.357 136.341 170.312 136.697L170.179 139.143C170.135 139.454 169.868 139.765 169.512 139.765Z" fill="#F8AD9E"/>
<path d="M170.001 131.139C170.001 131.139 169.957 131.139 170.001 131.139C169.601 131.139 169.334 130.783 169.334 130.427L169.468 127.982C169.468 127.626 169.779 127.315 170.179 127.359C170.535 127.359 170.846 127.715 170.802 128.071L170.668 130.516C170.668 130.872 170.357 131.139 170.001 131.139Z" fill="#F8AD9E"/>
<path d="M175.337 134.518L172.847 134.385C172.491 134.385 172.18 134.074 172.224 133.673C172.224 133.318 172.536 133.006 172.936 133.051L175.382 133.184C175.737 133.184 176.049 133.496 176.004 133.896C176.004 134.251 175.693 134.518 175.337 134.518Z" fill="#F8AD9E"/>
<path d="M166.755 134.074L164.265 133.94C163.909 133.94 163.598 133.629 163.642 133.229C163.642 132.873 163.954 132.562 164.354 132.606L166.8 132.74C167.155 132.74 167.467 133.051 167.422 133.451C167.422 133.807 167.111 134.074 166.755 134.074Z" fill="#F8AD9E"/>
<path d="M78.8738 121.721C78.4736 121.721 78.2068 121.365 78.2068 121.01L78.3402 118.564C78.3402 118.208 78.6515 117.897 79.0517 117.942C79.4074 117.942 79.7187 118.297 79.6742 118.653L79.5408 121.099C79.5408 121.454 79.2295 121.721 78.8738 121.721Z" fill="#F8AD9E"/>
<path d="M79.363 113.139C78.9628 113.139 78.696 112.783 78.696 112.427L78.8294 109.982C78.8294 109.626 79.1407 109.315 79.5409 109.359C79.8966 109.359 80.2079 109.715 80.1634 110.071L80.03 112.516C80.03 112.828 79.7188 113.139 79.363 113.139Z" fill="#F8AD9E"/>
<path d="M84.7434 116.474C84.6989 116.474 84.6989 116.474 84.7434 116.474L82.2532 116.34C81.8975 116.34 81.5862 116.029 81.6307 115.629C81.6307 115.273 81.942 114.962 82.3422 115.006L84.7879 115.14C85.1436 115.14 85.4549 115.451 85.4104 115.851C85.3659 116.207 85.0991 116.474 84.7434 116.474Z" fill="#F8AD9E"/>
<path d="M76.1169 116.029L73.6268 115.896C73.271 115.896 72.9598 115.585 73.0042 115.184C73.0042 114.829 73.3155 114.517 73.7157 114.562L76.1614 114.695C76.5171 114.695 76.8284 115.007 76.7839 115.407C76.7839 115.762 76.4727 116.029 76.1169 116.029Z" fill="#F8AD9E"/>
<path d="M87.2736 95.3784C86.5177 95.3784 85.7617 95.0671 85.2281 94.4001C84.2943 93.244 84.4277 91.5543 85.5394 90.6205C86.6955 89.6867 88.3853 89.8201 89.3191 90.9317C90.2529 92.0879 90.1195 93.7776 89.0078 94.7114C88.5187 95.1561 87.8961 95.3784 87.2736 95.3784ZM87.2736 91.3319C86.9623 91.3319 86.6511 91.4209 86.3843 91.6432C85.8062 92.1323 85.7173 92.9772 86.2064 93.5553C86.6955 94.1333 87.5404 94.2223 88.1185 93.7331C88.6965 93.244 88.7855 92.3991 88.2963 91.8211C88.074 91.4653 87.6738 91.3319 87.2736 91.3319Z" fill="#F8AD9E"/>
</g>
</svg>
