<svg width="250" height="250" viewBox="0 0 250 250" fill="none" xmlns="http://www.w3.org/2000/svg">
<circle cx="125" cy="125" r="125" fill="#F4F5FA"/>
<path d="M144.126 139.422C154.135 139.422 162.249 131.308 162.249 121.299C162.249 111.289 154.135 103.175 144.126 103.175C134.117 103.175 126.002 111.289 126.002 121.299C126.002 131.308 134.117 139.422 144.126 139.422Z" fill="white"/>
<path d="M99.8242 121.934C102.58 125.962 105.653 133.063 105.971 139.21" stroke="#273152" stroke-width="1.5" stroke-miterlimit="10" stroke-linecap="round" stroke-linejoin="round"/>
<path d="M109.363 99.6777C115.616 113.986 117.63 125.22 116.994 137.938" stroke="#273152" stroke-width="1.5" stroke-miterlimit="10" stroke-linecap="round" stroke-linejoin="round"/>
<path fill-rule="evenodd" clip-rule="evenodd" d="M139.357 124.16C151.651 136.878 159.812 147.477 163.945 155.426C143.49 170.37 125.896 149.915 92.4053 155.426C97.7045 144.085 106.819 138.786 119.855 139.74C126.532 131.897 133.103 126.598 139.357 124.16Z" fill="#5AD9AC"/>
<path fill-rule="evenodd" clip-rule="evenodd" d="M138.297 122.146C150.591 134.865 158.752 145.463 162.885 153.412C142.43 168.356 124.837 147.901 91.3457 153.412C96.6449 142.072 105.76 136.772 118.796 137.726C125.579 129.883 132.044 124.584 138.297 122.146Z" stroke="#273152" stroke-width="1.5" stroke-miterlimit="10" stroke-linecap="round" stroke-linejoin="round"/>
<path fill-rule="evenodd" clip-rule="evenodd" d="M100.778 123.63C101.732 120.981 106.395 122.041 110.105 125.114C110.317 120.133 107.349 118.649 101.202 120.663C103.11 118.119 106.289 116.847 110.741 117.271C107.773 113.138 104.17 113.986 99.9301 120.027C93.995 115.364 89.7556 115.364 87 120.239C93.1471 119.603 96.7506 120.027 98.0224 121.617C92.0873 122.253 90.1795 124.902 92.2992 129.354C94.4189 125.432 96.5386 123.1 100.778 123.63Z" fill="#273152"/>
<path fill-rule="evenodd" clip-rule="evenodd" d="M110.105 101.903C111.271 98.088 116.676 99.5717 121.021 104.129C121.233 96.9221 117.736 94.6964 110.529 97.664C112.754 93.9546 116.464 92.1528 121.763 92.6827C118.266 86.7476 114.026 87.9134 109.045 96.7102C102.05 90.0331 97.0687 90.0331 93.8892 96.9221C101.096 95.9683 105.335 96.7102 106.819 98.9358C99.8243 99.8897 97.5986 103.705 100.142 110.17C102.58 104.659 105.23 101.162 110.105 101.903Z" fill="#273152"/>
<path d="M150.591 135.819C156.95 132.957 161.295 126.598 161.295 119.285C161.295 109.216 153.134 101.162 143.172 101.162C133.103 101.162 125.048 109.322 125.048 119.285C125.048 122.782 126.002 126.068 127.804 128.824" stroke="#273152" stroke-width="1.5" stroke-miterlimit="10" stroke-linecap="round" stroke-linejoin="round"/>
<g opacity="0.5">
<path d="M159.678 178.701C158.922 178.701 158.211 178.39 157.677 177.811C156.699 176.7 156.788 175.01 157.899 174.032C159.011 173.053 160.701 173.142 161.723 174.254C162.702 175.366 162.613 177.056 161.501 178.034C160.967 178.478 160.3 178.701 159.678 178.701ZM159.678 174.654C159.367 174.654 159.011 174.788 158.789 175.01C158.211 175.499 158.166 176.389 158.7 176.922C159.189 177.5 160.078 177.545 160.612 177.011C161.19 176.522 161.234 175.633 160.701 175.099C160.434 174.832 160.034 174.654 159.678 174.654Z" fill="#5AD9AC"/>
<path d="M190.83 149.054C189.763 149.054 188.74 148.609 187.984 147.764C186.561 146.208 186.695 143.762 188.296 142.339C189.852 140.916 192.298 141.05 193.721 142.651C195.144 144.207 195.01 146.653 193.409 148.075C192.653 148.742 191.72 149.054 190.83 149.054ZM190.83 142.739C190.252 142.739 189.63 142.962 189.141 143.362C188.118 144.296 188.029 145.852 188.963 146.875C189.896 147.898 191.453 147.987 192.476 147.053C193.498 146.119 193.587 144.563 192.653 143.54C192.209 143.006 191.497 142.739 190.83 142.739Z" fill="#5AD9AC"/>
<path d="M174.512 137.765C174.512 137.765 174.468 137.765 174.512 137.765C174.112 137.765 173.845 137.409 173.845 137.054L173.978 134.608C173.978 134.252 174.29 133.941 174.69 133.986C175.046 133.986 175.357 134.341 175.312 134.697L175.179 137.143C175.135 137.454 174.868 137.765 174.512 137.765Z" fill="#5AD9AC"/>
<path d="M175.001 129.139C175.001 129.139 174.957 129.139 175.001 129.139C174.601 129.139 174.334 128.783 174.334 128.427L174.468 125.982C174.468 125.626 174.779 125.315 175.179 125.359C175.535 125.359 175.846 125.715 175.802 126.071L175.668 128.516C175.668 128.872 175.357 129.139 175.001 129.139Z" fill="#5AD9AC"/>
<path d="M180.337 132.518L177.847 132.385C177.491 132.385 177.18 132.073 177.224 131.673C177.224 131.318 177.536 131.006 177.936 131.051L180.382 131.184C180.737 131.184 181.049 131.495 181.004 131.896C181.004 132.251 180.693 132.518 180.337 132.518Z" fill="#5AD9AC"/>
<path d="M171.755 132.074L169.265 131.94C168.909 131.94 168.598 131.629 168.642 131.229C168.642 130.873 168.954 130.562 169.354 130.606L171.8 130.74C172.155 130.74 172.467 131.051 172.422 131.451C172.422 131.807 172.111 132.074 171.755 132.074Z" fill="#5AD9AC"/>
<path d="M67.8738 132.721C67.4736 132.721 67.2068 132.365 67.2068 132.009L67.3402 129.564C67.3402 129.208 67.6515 128.897 68.0517 128.941C68.4074 128.941 68.7187 129.297 68.6742 129.653L68.5408 132.098C68.5408 132.454 68.2295 132.721 67.8738 132.721Z" fill="#5AD9AC"/>
<path d="M68.363 124.139C67.9628 124.139 67.696 123.783 67.696 123.427L67.8294 120.982C67.8294 120.626 68.1407 120.315 68.5409 120.359C68.8966 120.359 69.2079 120.715 69.1634 121.071L69.03 123.516C69.03 123.828 68.7188 124.139 68.363 124.139Z" fill="#5AD9AC"/>
<path d="M73.7434 127.474C73.6989 127.474 73.6989 127.474 73.7434 127.474L71.2532 127.34C70.8975 127.34 70.5862 127.029 70.6307 126.629C70.6307 126.273 70.942 125.962 71.3422 126.006L73.7879 126.14C74.1436 126.14 74.4549 126.451 74.4104 126.851C74.3659 127.207 74.0991 127.474 73.7434 127.474Z" fill="#5AD9AC"/>
<path d="M65.1169 127.029L62.6268 126.896C62.271 126.896 61.9598 126.584 62.0042 126.184C62.0042 125.828 62.3155 125.517 62.7157 125.562L65.1614 125.695C65.5171 125.695 65.8284 126.006 65.7839 126.407C65.7839 126.762 65.4727 127.029 65.1169 127.029Z" fill="#5AD9AC"/>
<path d="M76.2736 106.378C75.5177 106.378 74.7617 106.067 74.2281 105.4C73.2943 104.244 73.4277 102.554 74.5394 101.62C75.6955 100.687 77.3853 100.82 78.3191 101.932C79.2529 103.088 79.1195 104.778 78.0078 105.711C77.5187 106.156 76.8961 106.378 76.2736 106.378ZM76.2736 102.332C75.9623 102.332 75.6511 102.421 75.3843 102.643C74.8062 103.132 74.7173 103.977 75.2064 104.555C75.6955 105.133 76.5404 105.222 77.1185 104.733C77.6965 104.244 77.7855 103.399 77.2963 102.821C77.074 102.465 76.6738 102.332 76.2736 102.332Z" fill="#5AD9AC"/>
</g>
</svg>
