<svg width="250" height="250" viewBox="0 0 250 250" fill="none" xmlns="http://www.w3.org/2000/svg">
<circle cx="125" cy="125" r="125" fill="#F4F5FA"/>
<path d="M143.504 99.421C143.603 99.1246 143.801 98.9271 143.9 98.7295C143.9 98.7295 143.9 98.6307 143.998 98.6307C144.097 98.4331 144.295 98.2356 144.394 98.038L144.492 97.9392C144.887 97.4453 145.184 97.0502 145.579 96.655H110.609C106.559 96.8526 102.509 99.9149 101.324 103.669L98.854 111.868H94.4087C91.8403 111.868 89.7659 113.843 89.7659 116.412C89.7659 118.881 91.6428 120.758 94.0136 120.956C91.0501 122.24 88.9756 125.302 88.9756 128.76V144.17C88.9756 146.146 90.5561 147.726 92.433 147.726V155.234C92.433 156.815 93.7172 158 95.2978 158H101.126C102.707 158 103.991 156.815 103.991 155.234V147.726H142.615C142.714 146.442 143.011 145.257 143.504 144.17C143.504 144.17 143.504 144.17 143.504 144.071C143.702 143.775 143.801 143.38 143.998 143.084C143.998 142.985 144.097 142.985 144.097 142.985C144.295 142.688 144.492 142.392 144.69 142.195C144.789 142.096 144.789 141.997 144.887 141.898C145.085 141.701 145.283 141.503 145.381 141.305C145.48 141.207 145.678 141.009 145.777 140.91C145.875 140.812 146.073 140.614 146.27 140.515C146.567 140.219 146.863 140.021 147.258 139.824V116.807L143.504 99.421Z" fill="#596CD9"/>
<path d="M147.16 116.807H100.533L104.188 104.36C104.979 101.693 108.14 99.3223 111.103 99.3223H143.603L147.16 116.807Z" fill="white"/>
<path d="M158.125 138.836V111.275C160.891 109.398 162.866 106.336 162.866 102.78C162.866 98.9271 160.792 95.4696 157.236 93.6915L155.754 93V100.705L152.099 102.681L148.543 100.705V93L147.061 93.8891C146.271 94.383 145.381 94.9757 144.591 95.766C144.196 96.1611 143.801 96.5562 143.505 97.0502L143.406 97.1489C143.307 97.3465 143.109 97.5441 143.011 97.7416L142.912 97.8404C142.813 97.9392 142.615 98.1368 142.517 98.4331C141.825 99.7173 141.331 101.199 141.331 102.78C141.331 106.435 143.307 109.497 146.172 111.374V138.638C145.875 138.836 145.48 139.132 145.184 139.33C144.986 139.429 144.888 139.626 144.69 139.725C144.591 139.824 144.394 140.021 144.295 140.12C144.097 140.318 143.9 140.515 143.801 140.713C143.702 140.812 143.603 140.91 143.603 141.009C143.406 141.305 143.208 141.503 143.011 141.799C143.011 141.898 142.912 141.898 142.912 141.898C142.714 142.195 142.517 142.59 142.418 142.886C142.418 142.886 142.418 142.886 142.418 142.985C141.924 144.071 141.628 145.257 141.529 146.541C141.529 146.739 141.529 146.936 141.529 147.134C141.529 150.888 143.801 154.345 147.555 156.222L148.938 156.913V149.208L152.593 147.233L156.149 149.208V157.012L157.631 156.123C160.891 154.246 162.866 150.789 162.866 147.134C162.866 143.775 160.891 140.614 158.125 138.836Z" fill="white"/>
<path d="M141.43 143.084C141.628 142.787 141.726 142.392 141.924 142.096C141.924 141.997 142.023 141.997 142.023 141.997C142.22 141.701 142.418 141.404 142.616 141.207C142.714 141.108 142.714 141.009 142.813 140.91C143.011 140.713 143.208 140.515 143.307 140.318C143.406 140.219 143.603 140.021 143.702 139.923C143.801 139.824 143.998 139.626 144.196 139.527C144.492 139.231 144.789 139.033 145.184 138.836V115.819H98.5578L102.213 103.372C103.003 100.705 106.164 98.3344 109.128 98.3344H141.628C141.628 98.1368 141.825 97.9393 141.924 97.7417C141.924 97.7417 141.924 97.6429 142.023 97.6429C142.122 97.4454 142.319 97.2478 142.418 97.0502L142.517 96.9514C142.912 96.4575 143.208 96.0624 143.603 95.6672H108.634C104.584 95.8648 100.533 98.9271 99.348 102.681L96.8784 110.88H92.4331C89.8647 110.88 87.7903 112.856 87.7903 115.424C87.7903 117.894 89.6672 119.771 92.038 119.968C89.0745 121.252 87 124.315 87 127.772V143.182C87 145.158 88.5805 146.739 90.4574 146.739V154.246C90.4574 155.827 91.7416 157.012 93.3222 157.012H99.1505C100.731 157.012 102.015 155.827 102.015 154.246V146.739H140.64C140.64 145.454 140.936 144.269 141.43 143.084ZM141.43 143.084C141.43 143.182 141.43 143.084 141.43 143.084Z" stroke="#273152" stroke-width="1.5" stroke-miterlimit="10" stroke-linecap="round" stroke-linejoin="round"/>
<path d="M157.137 138.836V111.275C159.903 109.398 161.878 106.336 161.878 102.78C161.878 98.9271 159.804 95.4696 156.248 93.6915L154.766 93V100.705L151.111 102.681L147.555 100.705V93L146.073 93.8891C145.283 94.383 144.394 94.9757 143.603 95.766C143.208 96.1611 142.813 96.5562 142.517 97.0502L142.418 97.1489C142.319 97.3465 142.122 97.5441 142.023 97.7416L141.924 97.8404C141.825 97.9392 141.628 98.1368 141.529 98.4331C140.837 99.7173 140.344 101.199 140.344 102.78C140.344 106.435 142.319 109.497 145.184 111.374V138.638C144.888 138.836 144.492 139.132 144.196 139.33C143.999 139.429 143.9 139.626 143.702 139.725C143.603 139.824 143.406 140.021 143.307 140.12C143.109 140.318 142.912 140.515 142.813 140.713C142.714 140.812 142.616 140.91 142.616 141.009C142.418 141.305 142.22 141.503 142.023 141.799C142.023 141.898 141.924 141.898 141.924 141.898C141.726 142.195 141.529 142.59 141.43 142.886C141.43 142.886 141.43 142.886 141.43 142.985C140.936 144.071 140.64 145.257 140.541 146.541C140.541 146.739 140.541 146.936 140.541 147.134C140.541 150.888 142.813 154.345 146.567 156.222L147.95 156.913V149.208L151.605 147.233L155.161 149.208V157.012L156.643 156.123C159.903 154.246 161.878 150.789 161.878 147.134C161.878 143.775 159.903 140.614 157.137 138.836Z" stroke="#273152" stroke-width="1.5" stroke-miterlimit="10" stroke-linecap="round" stroke-linejoin="round"/>
<path d="M99.3482 135.28C96.7798 135.28 94.7053 133.304 94.7053 130.735C94.7053 128.167 96.7798 126.191 99.3482 126.191C101.917 126.191 103.991 128.167 103.991 130.735C103.991 133.304 101.818 135.28 99.3482 135.28Z" fill="#273152"/>
<path d="M114.363 139.429V135.28C114.363 134.687 114.758 134.292 115.351 134.292H137.973C138.565 134.292 138.961 134.687 138.961 135.28V139.429C138.961 140.021 138.565 140.416 137.973 140.416H115.351C114.857 140.416 114.363 139.922 114.363 139.429Z" fill="#273152"/>
<g opacity="0.5">
<path d="M158.678 174.701C157.922 174.701 157.211 174.39 156.677 173.812C155.699 172.7 155.788 171.01 156.899 170.032C158.011 169.054 159.701 169.143 160.723 170.254C161.702 171.366 161.613 173.056 160.501 174.034C159.967 174.479 159.3 174.701 158.678 174.701ZM158.678 170.654C158.367 170.654 158.011 170.788 157.789 171.01C157.211 171.499 157.166 172.389 157.7 172.922C158.189 173.5 159.078 173.545 159.612 173.011C160.19 172.522 160.234 171.633 159.701 171.099C159.434 170.832 159.034 170.654 158.678 170.654Z" fill="#596CD9"/>
<path d="M189.83 145.054C188.763 145.054 187.74 144.609 186.984 143.764C185.561 142.208 185.695 139.762 187.296 138.339C188.852 136.916 191.298 137.05 192.721 138.651C194.144 140.207 194.01 142.653 192.409 144.076C191.653 144.743 190.72 145.054 189.83 145.054ZM189.83 138.74C189.252 138.74 188.63 138.962 188.141 139.362C187.118 140.296 187.029 141.852 187.963 142.875C188.896 143.898 190.453 143.987 191.476 143.053C192.498 142.119 192.587 140.563 191.653 139.54C191.209 139.006 190.497 138.74 189.83 138.74Z" fill="#596CD9"/>
<path d="M173.512 133.765C173.512 133.765 173.468 133.765 173.512 133.765C173.112 133.765 172.845 133.41 172.845 133.054L172.978 130.608C172.978 130.252 173.29 129.941 173.69 129.986C174.046 129.986 174.357 130.341 174.312 130.697L174.179 133.143C174.135 133.454 173.868 133.765 173.512 133.765Z" fill="#596CD9"/>
<path d="M174.001 125.139C174.001 125.139 173.957 125.139 174.001 125.139C173.601 125.139 173.334 124.783 173.334 124.427L173.468 121.982C173.468 121.626 173.779 121.315 174.179 121.359C174.535 121.359 174.846 121.715 174.802 122.071L174.668 124.516C174.668 124.872 174.357 125.139 174.001 125.139Z" fill="#596CD9"/>
<path d="M179.337 128.518L176.847 128.385C176.491 128.385 176.18 128.074 176.224 127.673C176.224 127.318 176.536 127.006 176.936 127.051L179.382 127.184C179.737 127.184 180.049 127.496 180.004 127.896C180.004 128.251 179.693 128.518 179.337 128.518Z" fill="#596CD9"/>
<path d="M170.755 128.074L168.265 127.94C167.909 127.94 167.598 127.629 167.642 127.229C167.642 126.873 167.954 126.562 168.354 126.606L170.8 126.74C171.155 126.74 171.467 127.051 171.422 127.451C171.422 127.807 171.111 128.074 170.755 128.074Z" fill="#596CD9"/>
<path d="M71.8738 127.721C71.4736 127.721 71.2068 127.365 71.2068 127.01L71.3402 124.564C71.3402 124.208 71.6515 123.897 72.0517 123.942C72.4074 123.942 72.7187 124.297 72.6742 124.653L72.5408 127.099C72.5408 127.454 72.2295 127.721 71.8738 127.721Z" fill="#596CD9"/>
<path d="M72.363 119.139C71.9628 119.139 71.696 118.783 71.696 118.427L71.8294 115.982C71.8294 115.626 72.1407 115.315 72.5409 115.359C72.8966 115.359 73.2079 115.715 73.1634 116.071L73.03 118.516C73.03 118.828 72.7188 119.139 72.363 119.139Z" fill="#596CD9"/>
<path d="M77.7434 122.474C77.6989 122.474 77.6989 122.474 77.7434 122.474L75.2532 122.34C74.8975 122.34 74.5862 122.029 74.6307 121.629C74.6307 121.273 74.942 120.962 75.3422 121.006L77.7879 121.14C78.1436 121.14 78.4549 121.451 78.4104 121.851C78.3659 122.207 78.0991 122.474 77.7434 122.474Z" fill="#596CD9"/>
<path d="M69.1169 122.029L66.6268 121.896C66.271 121.896 65.9598 121.585 66.0042 121.184C66.0042 120.829 66.3155 120.517 66.7157 120.562L69.1614 120.695C69.5171 120.695 69.8284 121.007 69.7839 121.407C69.7839 121.762 69.4727 122.029 69.1169 122.029Z" fill="#596CD9"/>
<path d="M80.2736 101.378C79.5177 101.378 78.7617 101.067 78.2281 100.4C77.2943 99.244 77.4277 97.5543 78.5394 96.6205C79.6955 95.6867 81.3853 95.8201 82.3191 96.9317C83.2529 98.0879 83.1195 99.7776 82.0078 100.711C81.5187 101.156 80.8961 101.378 80.2736 101.378ZM80.2736 97.3319C79.9623 97.3319 79.6511 97.4209 79.3843 97.6432C78.8062 98.1323 78.7173 98.9772 79.2064 99.5553C79.6955 100.133 80.5404 100.222 81.1185 99.7331C81.6965 99.244 81.7855 98.3991 81.2963 97.8211C81.074 97.4653 80.6738 97.3319 80.2736 97.3319Z" fill="#596CD9"/>
</g>
</svg>
