<svg width="250" height="250" viewBox="0 0 250 250" fill="none" xmlns="http://www.w3.org/2000/svg">
<circle cx="125" cy="125" r="125" fill="#F4F5FA"/>
<path d="M160.521 132.96H92.3997V111.128C92.3997 105.57 96.9478 101.021 102.507 101.021H150.414C155.973 101.021 160.521 105.57 160.521 111.128V132.96Z" fill="#F8AD9E"/>
<path d="M160.521 131.949H92.3997V145.492H160.521V131.949Z" fill="#273152"/>
<path d="M158.499 130.938H90.3782V109.107C90.3782 103.548 94.9263 99 100.485 99H148.392C153.951 99 158.499 103.548 158.499 109.107V130.938Z" stroke="#273152" stroke-width="1.5" stroke-miterlimit="10" stroke-linecap="round" stroke-linejoin="round"/>
<path d="M158.499 130.938H90.3782V144.482H158.499V130.938Z" stroke="#273152" stroke-width="1.5" stroke-miterlimit="10" stroke-linecap="round" stroke-linejoin="round"/>
<path d="M93.9157 114.262H91.0857C87.7504 114.262 85.0215 116.99 85.0215 120.326V138.518C85.0215 142.46 88.1547 145.593 92.0964 145.593H99.9799V120.326C99.9799 116.99 97.251 114.262 93.9157 114.262Z" fill="white"/>
<path d="M161.936 114.262H159.106C155.771 114.262 153.042 116.99 153.042 120.326V145.593H160.925C164.867 145.593 168 142.46 168 138.518V120.326C168 116.99 165.271 114.262 161.936 114.262Z" fill="white"/>
<path d="M93.2083 151.152V144.482" stroke="#273152" stroke-width="1.5" stroke-miterlimit="10" stroke-linecap="round" stroke-linejoin="round"/>
<path d="M155.771 151.152V144.482" stroke="#273152" stroke-width="1.5" stroke-miterlimit="10" stroke-linecap="round" stroke-linejoin="round"/>
<path d="M91.8942 113.251H89.0642C85.7289 113.251 83 115.98 83 119.315V137.508C83 141.449 86.1332 144.583 90.0749 144.583H97.9584V119.315C97.9584 115.98 95.2295 113.251 91.8942 113.251Z" stroke="#273152" stroke-width="1.5" stroke-miterlimit="10" stroke-linecap="round" stroke-linejoin="round"/>
<path d="M159.914 113.251H157.084C153.749 113.251 151.02 115.98 151.02 119.315V144.583H158.904C162.845 144.583 165.979 141.449 165.979 137.508V119.315C165.979 115.98 163.25 113.251 159.914 113.251Z" stroke="#273152" stroke-width="1.5" stroke-miterlimit="10" stroke-linecap="round" stroke-linejoin="round"/>
<path d="M124.439 113.453V116.485" stroke="#273152" stroke-width="1.5" stroke-miterlimit="10" stroke-linecap="round" stroke-linejoin="round"/>
<path d="M125.955 114.969H122.923" stroke="#273152" stroke-width="1.5" stroke-miterlimit="10" stroke-linecap="round" stroke-linejoin="round"/>
<path d="M114.332 113.453V116.485" stroke="#273152" stroke-width="1.5" stroke-miterlimit="10" stroke-linecap="round" stroke-linejoin="round"/>
<path d="M115.848 114.969H112.816" stroke="#273152" stroke-width="1.5" stroke-miterlimit="10" stroke-linecap="round" stroke-linejoin="round"/>
<path d="M134.546 113.453V116.485" stroke="#273152" stroke-width="1.5" stroke-miterlimit="10" stroke-linecap="round" stroke-linejoin="round"/>
<path d="M136.062 114.969H133.03" stroke="#273152" stroke-width="1.5" stroke-miterlimit="10" stroke-linecap="round" stroke-linejoin="round"/>
<g opacity="0.5">
<path d="M165.678 163.701C164.922 163.701 164.211 163.39 163.677 162.811C162.699 161.7 162.788 160.01 163.899 159.032C165.011 158.053 166.701 158.142 167.723 159.254C168.702 160.366 168.613 162.056 167.501 163.034C166.967 163.478 166.3 163.701 165.678 163.701ZM165.678 159.654C165.367 159.654 165.011 159.788 164.789 160.01C164.211 160.499 164.166 161.389 164.7 161.922C165.189 162.5 166.078 162.545 166.612 162.011C167.19 161.522 167.234 160.633 166.701 160.099C166.434 159.832 166.034 159.654 165.678 159.654Z" fill="#F8AD9E"/>
<path d="M196.83 134.054C195.763 134.054 194.74 133.609 193.984 132.764C192.561 131.208 192.695 128.762 194.296 127.339C195.852 125.916 198.298 126.05 199.721 127.651C201.144 129.207 201.01 131.653 199.409 133.075C198.653 133.742 197.72 134.054 196.83 134.054ZM196.83 127.739C196.252 127.739 195.63 127.962 195.141 128.362C194.118 129.296 194.029 130.852 194.963 131.875C195.896 132.898 197.453 132.987 198.476 132.053C199.498 131.119 199.587 129.563 198.653 128.54C198.209 128.006 197.497 127.739 196.83 127.739Z" fill="#F8AD9E"/>
<path d="M180.512 122.765C180.512 122.765 180.468 122.765 180.512 122.765C180.112 122.765 179.845 122.409 179.845 122.054L179.978 119.608C179.978 119.252 180.29 118.941 180.69 118.985C181.046 118.985 181.357 119.341 181.312 119.697L181.179 122.143C181.135 122.454 180.868 122.765 180.512 122.765Z" fill="#F8AD9E"/>
<path d="M181.001 114.139C181.001 114.139 180.957 114.139 181.001 114.139C180.601 114.139 180.334 113.783 180.334 113.427L180.468 110.982C180.468 110.626 180.779 110.315 181.179 110.359C181.535 110.359 181.846 110.715 181.802 111.071L181.668 113.516C181.668 113.872 181.357 114.139 181.001 114.139Z" fill="#F8AD9E"/>
<path d="M186.337 117.518L183.847 117.385C183.491 117.385 183.18 117.073 183.224 116.673C183.224 116.318 183.536 116.006 183.936 116.051L186.382 116.184C186.737 116.184 187.049 116.495 187.004 116.896C187.004 117.251 186.693 117.518 186.337 117.518Z" fill="#F8AD9E"/>
<path d="M177.755 117.074L175.265 116.94C174.909 116.94 174.598 116.629 174.642 116.229C174.642 115.873 174.954 115.562 175.354 115.606L177.8 115.74C178.155 115.74 178.467 116.051 178.422 116.451C178.422 116.807 178.111 117.074 177.755 117.074Z" fill="#F8AD9E"/>
<path d="M71.8738 105.721C71.4736 105.721 71.2068 105.365 71.2068 105.009L71.3402 102.564C71.3402 102.208 71.6515 101.897 72.0517 101.941C72.4074 101.941 72.7187 102.297 72.6742 102.653L72.5408 105.098C72.5408 105.454 72.2295 105.721 71.8738 105.721Z" fill="#F8AD9E"/>
<path d="M72.363 97.1388C71.9628 97.1388 71.696 96.783 71.696 96.4273L71.8294 93.9816C71.8294 93.6259 72.1407 93.3146 72.5409 93.3591C72.8966 93.3591 73.2079 93.7148 73.1634 94.0706L73.03 96.5162C73.03 96.8275 72.7188 97.1388 72.363 97.1388Z" fill="#F8AD9E"/>
<path d="M77.7434 100.474C77.6989 100.474 77.6989 100.474 77.7434 100.474L75.2532 100.34C74.8975 100.34 74.5862 100.029 74.6307 99.6289C74.6307 99.2731 74.942 98.9619 75.3422 99.0063L77.7879 99.1397C78.1436 99.1397 78.4549 99.451 78.4104 99.8512C78.3659 100.207 78.0991 100.474 77.7434 100.474Z" fill="#F8AD9E"/>
<path d="M69.1169 100.029L66.6268 99.8956C66.271 99.8956 65.9598 99.5844 66.0042 99.1842C66.0042 98.8284 66.3155 98.5172 66.7157 98.5616L69.1614 98.695C69.5171 98.695 69.8284 99.0063 69.7839 99.4065C69.7839 99.7622 69.4727 100.029 69.1169 100.029Z" fill="#F8AD9E"/>
<path d="M86.2736 82.3784C85.5177 82.3784 84.7617 82.0671 84.2281 81.4001C83.2943 80.244 83.4277 78.5543 84.5394 77.6205C85.6955 76.6867 87.3853 76.8201 88.3191 77.9317C89.2529 79.0879 89.1195 80.7776 88.0078 81.7114C87.5187 82.1561 86.8961 82.3784 86.2736 82.3784ZM86.2736 78.3319C85.9623 78.3319 85.6511 78.4209 85.3843 78.6432C84.8062 79.1323 84.7173 79.9772 85.2064 80.5553C85.6955 81.1333 86.5404 81.2223 87.1185 80.7331C87.6965 80.244 87.7855 79.3991 87.2963 78.8211C87.074 78.4653 86.6738 78.3319 86.2736 78.3319Z" fill="#F8AD9E"/>
</g>
</svg>
