<svg width="250" height="250" viewBox="0 0 250 250" fill="none" xmlns="http://www.w3.org/2000/svg">
<circle cx="125" cy="125" r="125" fill="#F4F5FA"/>
<path d="M155.546 155H97.0589C94.2353 155 92.0168 152.781 92.0168 149.958V113.151C92.0168 110.328 94.2353 108.109 97.0589 108.109H155.546C158.37 108.109 160.588 110.328 160.588 113.151V149.958C160.588 152.681 158.269 155 155.546 155Z" fill="#5AD9AC"/>
<path d="M153.529 151.975H95.042C92.2185 151.975 90 149.756 90 146.933V110.126C90 107.302 92.2185 105.084 95.042 105.084H153.529C156.353 105.084 158.571 107.302 158.571 110.126V146.933C158.571 149.655 156.252 151.975 153.529 151.975Z" stroke="#273152" stroke-width="1.5" stroke-miterlimit="10" stroke-linecap="round" stroke-linejoin="round"/>
<path d="M135.378 95H113.193C111.479 95 110.168 96.3109 110.168 98.0252V105.084H138.403V98.0252C138.403 96.3109 136.991 95 135.378 95Z" stroke="#273152" stroke-width="1.5" stroke-miterlimit="10" stroke-linecap="round" stroke-linejoin="round"/>
<path d="M142.437 132.815C142.437 133.622 141.832 134.227 141.025 134.227H130.941V144.311C130.941 145.017 130.336 145.723 129.53 145.723H122.773C122.067 145.723 121.362 145.118 121.362 144.311V134.227H111.378C110.672 134.227 109.967 133.622 109.967 132.815V126.059C109.967 125.353 110.572 124.647 111.378 124.647H121.462V114.563C121.462 113.857 122.067 113.151 122.874 113.151H129.63C130.336 113.151 131.042 113.756 131.042 114.563V124.647H141.126C141.933 124.647 142.538 125.252 142.538 126.059V132.815H142.437Z" fill="white"/>
<path d="M140.42 131.807C140.42 132.613 139.815 133.218 139.009 133.218H128.924V143.302C128.924 144.008 128.319 144.714 127.513 144.714H120.756C120.051 144.714 119.345 144.109 119.345 143.302V133.218H109.361C108.656 133.218 107.95 132.613 107.95 131.807V125.05C107.95 124.345 108.555 123.639 109.361 123.639H119.446V113.555C119.446 112.849 120.051 112.143 120.857 112.143H127.614C128.319 112.143 129.025 112.748 129.025 113.555V123.639H139.109C139.916 123.639 140.521 124.244 140.521 125.05V131.807H140.42Z" stroke="#273152" stroke-width="1.5" stroke-miterlimit="10" stroke-linecap="round" stroke-linejoin="round"/>
<g opacity="0.5">
<path d="M161.678 172.701C160.922 172.701 160.211 172.39 159.677 171.812C158.699 170.7 158.788 169.01 159.899 168.032C161.011 167.054 162.701 167.143 163.723 168.254C164.702 169.366 164.613 171.056 163.501 172.034C162.967 172.479 162.3 172.701 161.678 172.701ZM161.678 168.654C161.367 168.654 161.011 168.788 160.789 169.01C160.211 169.499 160.166 170.389 160.7 170.922C161.189 171.5 162.078 171.545 162.612 171.011C163.19 170.522 163.234 169.633 162.701 169.099C162.434 168.832 162.034 168.654 161.678 168.654Z" fill="#5AD9AC"/>
<path d="M192.83 143.054C191.763 143.054 190.74 142.609 189.984 141.764C188.561 140.208 188.695 137.762 190.296 136.339C191.852 134.916 194.298 135.05 195.721 136.651C197.144 138.207 197.01 140.653 195.409 142.076C194.653 142.743 193.72 143.054 192.83 143.054ZM192.83 136.74C192.252 136.74 191.63 136.962 191.141 137.362C190.118 138.296 190.029 139.852 190.963 140.875C191.896 141.898 193.453 141.987 194.476 141.053C195.498 140.119 195.587 138.563 194.653 137.54C194.209 137.006 193.497 136.74 192.83 136.74Z" fill="#5AD9AC"/>
<path d="M176.512 131.765C176.512 131.765 176.468 131.765 176.512 131.765C176.112 131.765 175.845 131.41 175.845 131.054L175.978 128.608C175.978 128.252 176.29 127.941 176.69 127.986C177.046 127.986 177.357 128.341 177.312 128.697L177.179 131.143C177.135 131.454 176.868 131.765 176.512 131.765Z" fill="#5AD9AC"/>
<path d="M177.001 123.139C177.001 123.139 176.957 123.139 177.001 123.139C176.601 123.139 176.334 122.783 176.334 122.427L176.468 119.982C176.468 119.626 176.779 119.315 177.179 119.359C177.535 119.359 177.846 119.715 177.802 120.071L177.668 122.516C177.668 122.872 177.357 123.139 177.001 123.139Z" fill="#5AD9AC"/>
<path d="M182.337 126.518L179.847 126.385C179.491 126.385 179.18 126.074 179.224 125.673C179.224 125.318 179.536 125.006 179.936 125.051L182.382 125.184C182.737 125.184 183.049 125.496 183.004 125.896C183.004 126.251 182.693 126.518 182.337 126.518Z" fill="#5AD9AC"/>
<path d="M173.755 126.074L171.265 125.94C170.909 125.94 170.598 125.629 170.642 125.229C170.642 124.873 170.954 124.562 171.354 124.606L173.8 124.74C174.155 124.74 174.467 125.051 174.422 125.451C174.422 125.807 174.111 126.074 173.755 126.074Z" fill="#5AD9AC"/>
<path d="M71.8738 118.721C71.4736 118.721 71.2068 118.365 71.2068 118.01L71.3402 115.564C71.3402 115.208 71.6515 114.897 72.0517 114.942C72.4074 114.942 72.7187 115.297 72.6742 115.653L72.5408 118.099C72.5408 118.454 72.2295 118.721 71.8738 118.721Z" fill="#5AD9AC"/>
<path d="M72.363 110.139C71.9628 110.139 71.696 109.783 71.696 109.427L71.8294 106.982C71.8294 106.626 72.1407 106.315 72.5409 106.359C72.8966 106.359 73.2079 106.715 73.1634 107.071L73.03 109.516C73.03 109.828 72.7188 110.139 72.363 110.139Z" fill="#5AD9AC"/>
<path d="M77.7434 113.474C77.6989 113.474 77.6989 113.474 77.7434 113.474L75.2532 113.34C74.8975 113.34 74.5862 113.029 74.6307 112.629C74.6307 112.273 74.942 111.962 75.3422 112.006L77.7879 112.14C78.1436 112.14 78.4549 112.451 78.4104 112.851C78.3659 113.207 78.0991 113.474 77.7434 113.474Z" fill="#5AD9AC"/>
<path d="M69.1169 113.029L66.6268 112.896C66.271 112.896 65.9598 112.585 66.0042 112.184C66.0042 111.829 66.3155 111.517 66.7157 111.562L69.1614 111.695C69.5171 111.695 69.8284 112.007 69.7839 112.407C69.7839 112.762 69.4727 113.029 69.1169 113.029Z" fill="#5AD9AC"/>
<path d="M80.2736 92.3784C79.5177 92.3784 78.7617 92.0671 78.2281 91.4001C77.2943 90.244 77.4277 88.5543 78.5394 87.6205C79.6955 86.6867 81.3853 86.8201 82.3191 87.9317C83.2529 89.0879 83.1195 90.7776 82.0078 91.7114C81.5187 92.1561 80.8961 92.3784 80.2736 92.3784ZM80.2736 88.3319C79.9623 88.3319 79.6511 88.4209 79.3843 88.6432C78.8062 89.1323 78.7173 89.9772 79.2064 90.5553C79.6955 91.1333 80.5404 91.2223 81.1185 90.7331C81.6965 90.244 81.7855 89.3991 81.2963 88.8211C81.074 88.4653 80.6738 88.3319 80.2736 88.3319Z" fill="#5AD9AC"/>
</g>
</svg>
