<svg width="211" height="60" viewBox="0 0 211 60" fill="none" xmlns="http://www.w3.org/2000/svg">
<path d="M44.9517 35.4021L42.6369 35.9165L33.1205 33.6875C29.7769 35.0592 26.3476 32.9159 25.9189 30.944C25.4902 28.9721 27.6336 26.1429 31.2344 25.2856C33.8064 24.6855 36.2069 25.3713 37.4929 26.4859C38.5217 27.3432 39.8935 27.6861 41.2652 27.3432L46.8379 26.0572C45.2089 19.1128 37.4072 15.0833 29.3482 16.8837C21.2036 18.8556 15.8881 25.9715 17.517 32.9159C19.146 39.8603 26.9477 43.8898 35.0066 42.0894C38.6075 41.232 41.7796 42.861 42.2083 44.8328L50.6101 42.861C49.8385 39.6888 47.7809 37.0311 44.9517 35.4021Z" fill="url(#paint0_radial)"/>
<path d="M50.6101 42.861C48.9812 35.9165 41.1794 31.8871 33.1205 33.6875C32.6061 33.7732 32.1774 33.9447 31.7488 34.0304C36.7213 35.0592 40.9222 38.9172 42.1225 44.147C42.1225 44.2327 42.1225 44.4042 42.2082 44.4899C42.2082 44.5756 42.294 44.6614 42.294 44.6614C42.294 44.8328 42.3797 45.0043 42.3797 45.09C42.3797 46.2903 41.6938 47.5763 40.3221 48.6908C39.0361 49.3767 37.6644 49.9768 36.2069 50.4055C35.7782 50.4912 35.3496 50.6627 34.9209 50.7484C34.4065 50.8342 33.8921 51.0056 33.3777 51.0056C33.292 51.0056 33.2062 51.0056 33.0348 51.0914C32.5204 51.1771 32.006 51.1771 31.4916 51.2628C31.4058 51.2628 31.3201 51.2628 31.2344 51.2628C30.72 51.2628 30.2913 51.2628 29.7769 51.2628C29.6912 51.2628 29.6912 51.2628 29.6054 51.2628C29.091 51.2628 28.5766 51.1771 28.0622 51.1771C27.9765 51.1771 27.8908 51.1771 27.805 51.1771C27.2906 51.0914 26.7762 51.0914 26.2618 50.9199H26.1761C25.6617 50.8342 25.1473 50.7484 24.7186 50.577C24.6329 50.577 24.6329 50.577 24.5472 50.577C24.0328 50.4055 23.5184 50.3198 23.0897 50.1483C23.004 50.1483 22.9182 50.0626 22.9182 50.0626C22.4038 49.8911 21.9752 49.7196 21.4608 49.4624C14.945 46.5475 9.88675 40.4604 8.85795 32.6587C7.48622 22.4564 13.7448 12.5971 23.4326 9.42493C28.3194 7.79599 33.3777 8.13892 37.7501 9.76786C39.2933 10.368 41.008 10.4537 42.7226 10.1108L49.4099 8.56759C50.0957 8.39612 50.3529 7.53879 49.7528 7.11012C42.0368 0.765851 31.2344 -1.89188 20.7749 1.45172C6.80035 5.99559 -1.94446 20.2273 0.370345 34.6306C3.11381 51.9487 19.9176 63.094 36.807 59.236C37.15 59.1503 37.4929 59.0646 37.8358 58.9788C38.1788 58.8931 38.5217 58.8931 38.8646 58.8074C46.9236 56.9212 52.2391 49.8054 50.6101 42.861Z" fill="url(#paint1_radial)"/>
<path d="M75.9026 29.0579V38.5743C74.7023 39.4316 73.4163 40.1175 72.0446 40.5461C70.7585 40.9748 69.3011 41.1463 67.7579 41.1463C65.8717 41.1463 64.0713 40.8891 62.5281 40.2889C60.9849 39.6888 59.6132 38.8315 58.4987 37.8027C57.3841 36.7739 56.5268 35.4879 55.9267 34.0304C55.3265 32.5729 55.0693 30.944 55.0693 29.2293C55.0693 27.4289 55.3265 25.8 55.9267 24.3425C56.5268 22.8851 57.2984 21.5991 58.4129 20.5703C59.4417 19.5415 60.7277 18.6841 62.2709 18.084C63.8141 17.4839 65.4431 17.2267 67.3292 17.2267C68.2723 17.2267 69.2153 17.3124 69.9869 17.4839C70.8443 17.6553 71.6159 17.8268 72.3018 18.084C72.9876 18.3412 73.6735 18.6841 74.2736 19.0271C74.8738 19.37 75.3882 19.7987 75.9026 20.3131L74.6166 22.1135C74.4451 22.4564 74.1879 22.6279 73.845 22.7136C73.502 22.7993 73.1591 22.7136 72.8162 22.4564C72.4732 22.2849 72.1303 22.0277 71.7016 21.8563C71.3587 21.6848 70.93 21.5133 70.5013 21.3419C70.0727 21.1704 69.5583 21.0847 69.0439 20.9989C68.5295 20.9132 67.8436 20.8275 67.1577 20.8275C65.9575 20.8275 64.9287 20.9989 63.9856 21.4276C63.0425 21.8563 62.2709 22.3707 61.5851 23.1423C60.8992 23.8281 60.3848 24.7712 60.0419 25.8C59.6989 26.8288 59.5275 27.9433 59.5275 29.2293C59.5275 30.6011 59.6989 31.8013 60.1276 32.8301C60.4705 33.8589 61.0707 34.802 61.7565 35.4879C62.4424 36.2595 63.2997 36.7739 64.3285 37.2025C65.3573 37.5455 66.3861 37.8027 67.6721 37.8027C68.5295 37.8027 69.3011 37.7169 69.9869 37.5455C70.6728 37.374 71.3587 37.1168 71.9588 36.7739V32.4872H68.9581C68.7009 32.4872 68.4437 32.4015 68.2723 32.23C68.1008 32.0585 68.0151 31.8871 68.0151 31.6299V29.1436H75.9026V29.0579Z" fill="#273152"/>
<path d="M92.7066 21.5991C92.5352 21.8563 92.4494 22.0277 92.278 22.1135C92.1065 22.1992 91.935 22.2849 91.7636 22.2849C91.5064 22.2849 91.2492 22.1992 90.992 22.0277C90.7348 21.8563 90.3918 21.6848 90.0489 21.4276C89.706 21.1704 89.2773 20.9989 88.7629 20.8275C88.2485 20.656 87.6484 20.5703 87.0482 20.5703C86.4481 20.5703 85.9337 20.656 85.4193 20.8275C84.9906 20.9989 84.562 21.1704 84.3048 21.4276C84.0476 21.6848 83.7904 22.0277 83.6189 22.3707C83.4474 22.7136 83.3617 23.1423 83.3617 23.5709C83.3617 24.0853 83.5332 24.5997 83.7904 24.9427C84.0476 25.2856 84.4762 25.6285 84.9906 25.8857C85.505 26.1429 86.1052 26.4001 86.7053 26.5716C87.3054 26.7431 87.9913 27.0003 88.6772 27.2575C89.363 27.5147 90.0489 27.7719 90.649 28.1148C91.3349 28.4577 91.8493 28.8007 92.3637 29.3151C92.8781 29.8295 93.3068 30.3439 93.564 31.0297C93.9069 31.7156 93.9926 32.5729 93.9926 33.516C93.9926 34.5448 93.8212 35.5736 93.4782 36.5167C93.1353 37.4597 92.6209 38.2314 91.8493 38.9172C91.1634 39.6031 90.3061 40.1175 89.2773 40.5462C88.2485 40.9748 87.134 41.1463 85.848 41.1463C85.0764 41.1463 84.3905 41.0606 83.6189 40.8891C82.8473 40.7176 82.1614 40.5462 81.5613 40.289C80.8754 40.0318 80.2753 39.6888 79.6752 39.3459C79.075 39.003 78.5606 38.5743 78.132 38.0599L79.418 35.9165C79.5037 35.7451 79.6752 35.6593 79.8466 35.5736C80.0181 35.4879 80.1896 35.4021 80.361 35.4021C80.6182 35.4021 80.9612 35.4879 81.2184 35.7451C81.5613 36.0023 81.9042 36.1737 82.3329 36.5167C82.7616 36.7739 83.276 37.0311 83.8761 37.2883C84.4762 37.5455 85.1621 37.6312 85.9337 37.6312C87.2197 37.6312 88.1628 37.374 88.8486 36.7739C89.5345 36.1737 89.8774 35.3164 89.8774 34.2019C89.8774 33.6017 89.706 33.0873 89.4488 32.6587C89.1058 32.23 88.7629 31.9728 88.2485 31.7156C87.7341 31.4584 87.134 31.2012 86.5338 31.0297C85.848 30.8583 85.2478 30.6011 84.562 30.4296C83.8761 30.1724 83.1902 29.9152 82.5901 29.658C81.9042 29.3151 81.3898 28.9721 80.8754 28.4577C80.361 27.9433 79.9324 27.3432 79.6752 26.6573C79.3322 25.8857 79.2465 25.0284 79.2465 23.9139C79.2465 23.0565 79.418 22.1992 79.7609 21.4276C80.1038 20.656 80.6182 19.8844 81.2184 19.2843C81.9042 18.6841 82.6758 18.1697 83.6189 17.7411C84.562 17.3981 85.6765 17.1409 86.8768 17.1409C88.2485 17.1409 89.5345 17.3981 90.7348 17.8268C91.935 18.2555 92.8781 18.8556 93.7354 19.6272L92.7066 21.5991Z" fill="#273152"/>
<path d="M114.226 35.3164C114.483 35.3164 114.654 35.4021 114.826 35.5736L116.541 37.4597C115.597 38.66 114.397 39.5173 113.025 40.2032C111.654 40.8033 109.939 41.1463 107.967 41.1463C106.253 41.1463 104.624 40.8891 103.252 40.2889C101.88 39.6888 100.68 38.8315 99.651 37.8027C98.6222 36.7739 97.9364 35.4879 97.3362 34.0304C96.8218 32.5729 96.5646 30.944 96.5646 29.2293C96.5646 27.4289 96.8218 25.8 97.422 24.3425C98.0221 22.8851 98.7937 21.5991 99.8225 20.5703C100.851 19.5415 102.052 18.6841 103.509 18.084C104.967 17.4839 106.51 17.2267 108.224 17.2267C109.939 17.2267 111.482 17.4839 112.768 18.084C114.054 18.6841 115.255 19.37 116.198 20.3131L114.74 22.3707C114.654 22.5421 114.569 22.6279 114.397 22.7136C114.226 22.7993 114.054 22.8851 113.797 22.8851C113.626 22.8851 113.454 22.7993 113.283 22.7136C113.111 22.6279 112.94 22.5421 112.683 22.3707C112.511 22.1992 112.254 22.1135 111.997 21.942C111.739 21.7705 111.397 21.5991 111.054 21.5133C110.711 21.3419 110.282 21.2561 109.768 21.1704C109.253 21.0847 108.739 20.9989 108.139 20.9989C107.11 20.9989 106.081 21.1704 105.224 21.5991C104.366 21.942 103.595 22.5421 102.995 23.228C102.395 23.9139 101.88 24.7712 101.537 25.8C101.194 26.8288 101.023 28.0291 101.023 29.3151C101.023 30.6011 101.194 31.8013 101.623 32.8301C102.052 33.8589 102.48 34.7163 103.166 35.4021C103.852 36.088 104.538 36.6881 105.395 37.0311C106.253 37.374 107.196 37.6312 108.224 37.6312C108.825 37.6312 109.339 37.6312 109.853 37.5455C110.368 37.4597 110.796 37.374 111.225 37.2025C111.654 37.0311 111.997 36.8596 112.34 36.6881C112.683 36.4309 113.025 36.1737 113.454 35.8308C113.54 35.7451 113.711 35.6593 113.797 35.5736C113.969 35.4021 114.054 35.3164 114.226 35.3164Z" fill="#273152"/>
<path d="M137.973 40.8891H134.03C133.258 40.8891 132.744 40.6319 132.401 40.0318L127.428 32.4872C127.257 32.23 127 31.9728 126.828 31.8871C126.571 31.8014 126.314 31.7156 125.885 31.7156H123.999V40.8891H119.626V17.3124H126.828C128.457 17.3124 129.829 17.4839 130.943 17.8268C132.058 18.1697 133.001 18.5984 133.772 19.1985C134.544 19.7987 135.058 20.4845 135.401 21.3419C135.744 22.1992 135.916 23.0565 135.916 24.0853C135.916 24.8569 135.83 25.6285 135.573 26.3144C135.316 27.0003 134.973 27.6862 134.544 28.2006C134.115 28.8007 133.601 29.3151 132.915 29.7438C132.229 30.1724 131.543 30.5154 130.686 30.7726C130.943 30.944 131.2 31.1155 131.458 31.3727C131.715 31.6299 131.886 31.8871 132.144 32.1443L137.973 40.8891ZM126.657 28.5435C127.514 28.5435 128.2 28.4578 128.8 28.2006C129.4 28.0291 129.914 27.6862 130.343 27.3432C130.772 27.0003 131.029 26.5716 131.2 26.0572C131.372 25.5428 131.458 25.0284 131.458 24.4283C131.458 23.228 131.029 22.2849 130.257 21.6848C129.486 21.0847 128.286 20.7417 126.657 20.7417H123.827V28.5435H126.657Z" fill="#273152"/>
<path d="M144.918 20.8275V27.3432H153.149V30.6868H144.918V37.374H155.378V40.8891H140.546V17.3124H155.378V20.8275H144.918Z" fill="#273152"/>
<path d="M180.154 29.1436C180.154 30.8583 179.897 32.4872 179.297 33.859C178.697 35.2307 177.925 36.5167 176.897 37.6312C175.868 38.66 174.582 39.5174 173.124 40.0318C171.667 40.6319 170.038 40.8891 168.237 40.8891H159.235V17.3124H168.237C170.038 17.3124 171.667 17.5696 173.124 18.1697C174.582 18.7699 175.868 19.5415 176.897 20.5703C177.925 21.5991 178.783 22.8851 179.297 24.2568C179.811 25.6285 180.154 27.429 180.154 29.1436ZM175.696 29.1436C175.696 27.8576 175.525 26.6573 175.182 25.6285C174.839 24.5997 174.325 23.7424 173.724 23.0565C173.038 22.3707 172.267 21.7705 171.41 21.4276C170.552 21.0847 169.438 20.8275 168.323 20.8275H163.779V37.374H168.323C169.438 37.374 170.466 37.2026 171.41 36.7739C172.353 36.3452 173.124 35.8308 173.724 35.145C174.41 34.4591 174.839 33.6018 175.182 32.573C175.525 31.5442 175.696 30.4296 175.696 29.1436Z" fill="#273152"/>
<path d="M188.385 40.8891H184.013V17.3124H188.385V40.8891Z" fill="#273152"/>
<path d="M210.161 20.9132H203.045V40.8891H198.673V20.9132H191.557V17.3124H210.161V20.9132Z" fill="#273152"/>
<path d="M61.5151 50.6626V51.3485H58V45.1757H58.8573V50.5769H61.5151V50.6626Z" fill="#273152"/>
<path d="M63.4014 45.6901C63.4014 45.7758 63.4014 45.8616 63.3156 45.8616C63.3156 45.9473 63.2299 45.9473 63.2299 46.033C63.1442 46.1188 63.1442 46.1188 63.0584 46.1188C62.9727 46.1188 62.887 46.1188 62.887 46.1188C62.8012 46.1188 62.7155 46.1188 62.7155 46.1188C62.6298 46.1188 62.6298 46.033 62.544 46.033C62.4583 45.9473 62.4583 45.9473 62.4583 45.8616C62.4583 45.7758 62.4583 45.6901 62.4583 45.6901C62.4583 45.6044 62.4583 45.5186 62.4583 45.5186C62.4583 45.5186 62.544 45.4329 62.544 45.3472C62.544 45.2614 62.6298 45.2614 62.7155 45.2614C62.8012 45.2614 62.887 45.2614 62.887 45.2614C62.9727 45.2614 63.0584 45.2614 63.0584 45.2614C63.0584 45.2614 63.1442 45.3472 63.2299 45.3472C63.3156 45.3472 63.3156 45.4329 63.3156 45.5186C63.3156 45.6044 63.4014 45.6044 63.4014 45.6901ZM63.2299 47.0618V51.4343H62.4583V47.0618H63.2299Z" fill="#273152"/>
<path d="M67.688 47.8334C67.6023 47.8334 67.6023 47.8334 67.688 47.8334C67.6023 47.9192 67.6023 47.9192 67.5166 47.9192C67.4308 47.9192 67.4308 47.9192 67.3451 47.8334C67.2594 47.8334 67.2594 47.7477 67.1736 47.7477C67.0879 47.7477 67.0022 47.662 66.9164 47.662C66.8307 47.662 66.6592 47.5762 66.4878 47.5762C66.3163 47.5762 66.0591 47.5762 65.8876 47.662C65.7162 47.7477 65.6304 47.8334 65.459 48.0049C65.3732 48.1764 65.2875 48.3478 65.2018 48.5193C65.116 48.6908 65.116 48.948 65.116 49.2052C65.116 49.4624 65.116 49.7196 65.2018 49.891C65.2875 50.0625 65.3732 50.234 65.459 50.4054C65.5447 50.5769 65.7162 50.6626 65.8876 50.7484C66.0591 50.8341 66.2306 50.8341 66.402 50.8341C66.5735 50.8341 66.745 50.8341 66.8307 50.7484C66.9164 50.6626 67.0879 50.6626 67.0879 50.5769C67.0879 50.4912 67.2594 50.4912 67.2594 50.4054C67.3451 50.3197 67.3451 50.3197 67.4308 50.3197C67.5166 50.3197 67.5166 50.3197 67.6023 50.4054L67.7738 50.6626C67.688 50.7484 67.6023 50.9198 67.4308 50.9198C67.2594 50.9198 67.1736 51.0913 67.0022 51.0913C66.8307 51.177 66.745 51.177 66.5735 51.177C66.402 51.177 66.2306 51.177 66.1448 51.177C65.8876 51.177 65.6304 51.0913 65.3732 51.0056C65.116 50.9198 64.9446 50.7484 64.7731 50.5769C64.6016 50.4054 64.4302 50.1482 64.3444 49.891C64.2587 49.6338 64.173 49.2909 64.173 48.948C64.173 48.605 64.2587 48.3478 64.3444 48.0906C64.4302 47.8334 64.6016 47.5762 64.7731 47.4048C64.9446 47.2333 65.2018 47.0618 65.3732 46.9761C65.5447 46.8904 65.8876 46.8046 66.2306 46.8046C66.5735 46.8046 66.8307 46.8904 67.0022 46.9761C67.1736 47.0618 67.4308 47.2333 67.6023 47.4048L67.688 47.8334Z" fill="#273152"/>
<path d="M72.3177 50.7484C72.2319 50.8341 72.1462 50.9198 71.9747 51.0056C71.8033 51.0913 71.7175 51.177 71.5461 51.177C71.3746 51.2628 71.2031 51.2628 71.1174 51.2628C70.9459 51.2628 70.7745 51.2628 70.603 51.2628C70.3458 51.2628 70.0029 51.177 69.7457 51.0913C69.4885 51.0056 69.317 50.8341 69.0598 50.6626C68.8883 50.4912 68.7169 50.234 68.6311 49.9768C68.5454 49.7196 68.4597 49.3766 68.4597 48.948C68.4597 48.605 68.5454 48.3478 68.6311 48.0906C68.7169 47.8334 68.8883 47.5762 69.0598 47.4048C69.2313 47.2333 69.4885 47.0618 69.6599 46.9761C69.9171 46.8904 70.1743 46.8046 70.5173 46.8046C70.7745 46.8046 71.0317 46.8904 71.2031 46.9761C71.4603 47.0618 71.6318 47.1476 71.8033 47.319C71.9747 47.4905 72.0605 47.662 72.1462 47.9192C72.2319 48.1764 72.3177 48.4336 72.3177 48.7765C72.3177 48.8622 72.3177 48.948 72.3177 49.0337C72.3177 49.0337 72.2319 49.1194 72.1462 49.1194H69.2313C69.2313 49.3766 69.317 49.6338 69.317 49.8053C69.4027 49.9768 69.4885 50.1482 69.5742 50.3197C69.6599 50.4912 69.8314 50.5769 70.0029 50.6626C70.1743 50.7484 70.3458 50.7484 70.603 50.7484C70.7745 50.7484 70.9459 50.7484 71.1174 50.6626C71.2889 50.5769 71.3746 50.5769 71.4603 50.4912C71.5461 50.4054 71.6318 50.4054 71.7175 50.3197C71.8033 50.234 71.8033 50.234 71.889 50.234C71.9747 50.234 71.9747 50.234 72.0605 50.3197L72.3177 50.7484ZM71.7175 48.7765C71.7175 48.605 71.7175 48.4336 71.6318 48.2621C71.5461 48.0906 71.5461 48.0049 71.3746 47.9192C71.2031 47.8334 71.2031 47.7477 71.0317 47.662C70.8602 47.5762 70.7745 47.5762 70.603 47.5762C70.2601 47.5762 69.9171 47.662 69.7457 47.9192C69.5742 48.0906 69.4027 48.4336 69.317 48.7765H71.7175Z" fill="#273152"/>
<path d="M74.204 47.6619C74.2897 47.5762 74.3754 47.4905 74.4612 47.4047C74.5469 47.319 74.7184 47.2333 74.8041 47.1475C74.8898 47.0618 75.0613 47.0618 75.147 46.9761C75.3185 46.9761 75.4042 46.8904 75.5757 46.8904C75.8329 46.8904 76.0044 46.8903 76.1758 46.9761C76.3473 47.0618 76.5188 47.1476 76.6045 47.319C76.6902 47.4905 76.776 47.6619 76.8617 47.8334C76.9474 48.0049 76.9474 48.2621 76.9474 48.5193V51.2628H76.1758V48.5193C76.1758 48.1763 76.0901 47.9192 75.9186 47.7477C75.7472 47.5762 75.5757 47.4905 75.2328 47.4905C74.9756 47.4905 74.8041 47.5762 74.6326 47.6619C74.4612 47.7477 74.2897 47.9191 74.1182 48.0906V51.2628H73.3466V46.8904H73.7753C73.861 46.8904 73.9467 46.9761 73.9467 47.0618L74.204 47.6619Z" fill="#273152"/>
<path d="M80.9765 47.7477C80.9765 47.8334 80.8908 47.8334 80.8051 47.8334C80.8051 47.8334 80.7193 47.8334 80.6336 47.7477C80.5479 47.7477 80.5479 47.662 80.4621 47.662C80.3764 47.662 80.2907 47.5762 80.2049 47.5762C80.1192 47.5762 79.9477 47.4905 79.7763 47.4905C79.6048 47.4905 79.5191 47.4905 79.4333 47.5762C79.3476 47.5762 79.2619 47.662 79.1761 47.7477C79.0904 47.8334 79.0904 47.8334 79.0047 47.9192C79.0047 48.0049 78.9189 48.0906 78.9189 48.1764C78.9189 48.2621 78.9189 48.3478 79.0047 48.4336C79.0904 48.5193 79.1761 48.605 79.2619 48.605C79.3476 48.6908 79.5191 48.6908 79.6048 48.7765C79.7763 48.7765 79.862 48.8622 80.0335 48.948C80.2049 49.0337 80.2907 49.0337 80.4621 49.1194C80.6336 49.2052 80.7193 49.2909 80.8051 49.2909C80.8908 49.3766 80.9765 49.4624 81.0623 49.6338C81.148 49.7196 81.148 49.891 81.148 50.0625C81.148 50.234 81.148 50.4054 81.0623 50.5769C80.9765 50.7484 80.8908 50.9198 80.7193 51.0056C80.5479 51.0913 80.3764 51.2628 80.2049 51.2628C80.1192 51.4342 79.862 51.4342 79.6048 51.4342C79.2619 51.4342 79.0047 51.3485 78.7475 51.2628C78.4903 51.177 78.3188 51.0056 78.1473 50.9198L78.3188 50.6626L78.4045 50.5769H78.4903C78.576 50.5769 78.576 50.5769 78.6617 50.6626C78.7475 50.6626 78.7475 50.7484 78.8332 50.8341C78.9189 50.9198 79.0047 50.9198 79.0904 51.0056C79.1761 51.0913 79.3476 51.0913 79.5191 51.0913C79.6905 51.0913 79.7763 51.0913 79.9477 51.0056C80.0335 51.0056 80.1192 50.9198 80.2049 50.8341C80.2907 50.7484 80.3764 50.6626 80.3764 50.5769C80.3764 50.4912 80.4621 50.4054 80.4621 50.3197C80.4621 50.234 80.4621 50.0625 80.3764 50.0625C80.2907 50.0625 80.2907 49.7196 80.2049 49.7196C80.1192 49.6338 79.9477 49.6338 79.862 49.5481C79.7763 49.4624 79.6048 49.4624 79.4333 49.3766C79.2619 49.2909 79.1761 49.2909 79.0047 49.2052C78.8332 49.1194 78.7475 49.0337 78.6617 48.948C78.576 48.8622 78.4903 48.7765 78.4045 48.605C78.3188 48.4336 78.3188 48.3478 78.3188 48.0906C78.3188 47.9192 78.3188 47.7477 78.4045 47.5762C78.4903 47.4048 78.576 47.319 78.6617 47.1476C78.8332 47.0618 78.9189 46.9761 79.1761 46.8904C79.3476 46.8046 79.6048 46.8046 79.862 46.8046C80.1192 46.8046 80.3764 46.8904 80.6336 46.9761C80.8908 47.0618 81.0623 47.1476 81.2337 47.319L80.9765 47.7477Z" fill="#273152"/>
<path d="M85.8633 50.7484C85.7776 50.8341 85.6919 50.9198 85.5204 51.0056C85.3489 51.0913 85.2632 51.177 85.0917 51.177C84.9203 51.2628 84.7488 51.2628 84.6631 51.2628C84.4916 51.2628 84.3201 51.2628 84.1487 51.2628C83.8915 51.2628 83.5485 51.177 83.2913 51.0913C83.0341 51.0056 82.8627 50.8341 82.6055 50.6626C82.434 50.4912 82.2625 50.234 82.1768 49.9768C82.0911 49.7196 82.0053 49.3766 82.0053 48.948C82.0053 48.605 82.0911 48.3478 82.1768 48.0906C82.2625 47.8334 82.434 47.5762 82.6055 47.4048C82.7769 47.2333 83.0341 47.0618 83.2056 46.9761C83.4628 46.8904 83.72 46.8046 84.0629 46.8046C84.3201 46.8046 84.5773 46.8904 84.7488 46.9761C85.006 47.0618 85.1775 47.1476 85.3489 47.319C85.5204 47.4905 85.6061 47.662 85.6919 47.9192C85.7776 48.1764 85.8633 48.4336 85.8633 48.7765C85.8633 48.8622 85.8633 48.948 85.8633 49.0337C85.8633 49.0337 85.7776 49.1194 85.6919 49.1194H82.7769C82.7769 49.3766 82.8627 49.6338 82.8627 49.8053C82.9484 49.9768 83.0341 50.1482 83.1199 50.3197C83.2056 50.4912 83.3771 50.5769 83.5485 50.6626C83.72 50.7484 83.8915 50.7484 84.1487 50.7484C84.3201 50.7484 84.4916 50.7484 84.6631 50.6626C84.8345 50.5769 84.9203 50.5769 85.006 50.4912C85.0917 50.4054 85.1775 50.4054 85.2632 50.3197C85.3489 50.234 85.3489 50.234 85.4347 50.234C85.5204 50.234 85.5204 50.234 85.6061 50.3197L85.8633 50.7484ZM85.2632 48.7765C85.2632 48.605 85.2632 48.4336 85.1775 48.2621C85.0917 48.0906 85.0917 48.0049 84.9203 47.9192C84.7488 47.8334 84.7488 47.7477 84.5773 47.662C84.4059 47.5762 84.3201 47.5762 84.1487 47.5762C83.8057 47.5762 83.4628 47.662 83.2913 47.9192C83.1199 48.0906 82.9484 48.4336 82.8627 48.7765H85.2632Z" fill="#273152"/>
<path d="M90.6641 45.09V51.4342H90.2354C90.1497 51.4342 90.064 51.3485 90.064 51.2628L89.9782 50.7484C89.8068 51.0056 89.5496 51.177 89.3781 51.2628C89.2066 51.3485 88.778 51.4342 88.435 51.4342C88.1778 51.4342 87.9206 51.3485 87.7492 51.2628C87.5777 51.177 87.4062 51.0056 87.2348 50.8341C87.0633 50.6626 86.9776 50.4054 86.8918 50.1482C86.8061 49.891 86.8061 49.5481 86.8061 49.2052C86.8061 48.8622 86.8918 48.605 86.9776 48.3478C87.0633 48.0906 87.149 47.8334 87.3205 47.662C87.492 47.4905 87.6634 47.319 87.9206 47.1476C88.1778 47.0618 88.435 46.9761 88.6922 46.9761C88.9494 46.9761 89.2066 47.0618 89.3781 47.1476C89.5496 47.2333 89.721 47.319 89.8925 47.4905V45.09H90.6641ZM89.8925 48.0906C89.721 47.9192 89.6353 47.7477 89.4638 47.662C89.2924 47.5762 89.1209 47.5762 88.8637 47.5762C88.435 47.5762 88.1778 47.7477 87.9206 48.0049C87.6634 48.2621 87.5777 48.6908 87.5777 49.2052C87.5777 49.4624 87.5777 49.7196 87.6634 49.891C87.7492 50.0625 87.7492 50.234 87.8349 50.4054C87.9206 50.5769 88.0064 50.6626 88.1778 50.6626C88.3493 50.6626 88.435 50.7484 88.6065 50.7484C88.8637 50.7484 89.0352 50.6626 89.2924 50.5769C89.4638 50.4912 89.6353 50.3197 89.8068 50.0625V48.0906H89.8925Z" fill="#273152"/>
<path d="M100.953 45.2614V51.4343H100.181V46.8904C100.181 46.8046 100.181 46.8046 100.181 46.7189C100.181 46.6332 100.181 46.5474 100.181 46.5474L98.0377 50.4054C97.9519 50.4912 97.8662 50.5769 97.7805 50.5769H97.6947C97.5233 50.5769 97.4375 50.4912 97.4375 50.4054L95.2942 46.5474C95.2942 46.7189 95.2942 46.8046 95.2942 46.9761V51.52H94.6083V45.3472H95.2085C95.2942 45.3472 95.3799 45.3472 95.3799 45.3472L95.4657 45.4329L97.609 49.2052C97.609 49.2909 97.6947 49.3766 97.6947 49.3766C97.6947 49.4624 97.7805 49.5481 97.7805 49.6339C97.7805 49.5481 97.8662 49.4624 97.8662 49.3766C97.8662 49.2909 97.9519 49.2052 97.9519 49.1194L100.01 45.3472C100.01 45.2614 100.095 45.2614 100.095 45.2614C100.095 45.2614 100.181 45.2614 100.267 45.2614H100.953Z" fill="#273152"/>
<path d="M104.211 46.9761C104.554 46.9761 104.811 47.0618 105.068 47.1476C105.325 47.2333 105.582 47.4048 105.754 47.5762C105.925 47.7477 106.097 48.0049 106.182 48.2621C106.268 48.5193 106.354 48.8622 106.354 49.2052C106.354 49.5481 106.268 49.891 106.182 50.1482C106.097 50.4054 105.925 50.6626 105.754 50.8341C105.582 51.0056 105.325 51.177 105.068 51.2628C104.811 51.3485 104.554 51.4342 104.211 51.4342C103.868 51.4342 103.61 51.3485 103.353 51.2628C103.096 51.177 102.839 51.0056 102.667 50.8341C102.496 50.6626 102.324 50.4054 102.239 50.1482C102.153 49.891 102.067 49.5481 102.067 49.2052C102.067 48.8622 102.153 48.5193 102.239 48.2621C102.324 48.0049 102.496 47.7477 102.667 47.5762C102.839 47.4048 103.096 47.2333 103.353 47.1476C103.61 47.0618 103.868 46.9761 104.211 46.9761ZM104.211 50.8341C104.639 50.8341 104.982 50.6626 105.154 50.4054C105.325 50.1482 105.497 49.7196 105.497 49.2052C105.497 48.6908 105.411 48.2621 105.154 48.0049C104.982 47.7477 104.639 47.5762 104.211 47.5762C103.953 47.5762 103.782 47.5762 103.61 47.662C103.439 47.7477 103.353 47.8334 103.182 48.0049C103.096 48.1764 103.01 48.3478 102.925 48.5193C102.839 48.6908 102.839 48.948 102.839 49.2052C102.839 49.7196 102.925 50.1482 103.182 50.4054C103.439 50.6626 103.782 50.8341 104.211 50.8341Z" fill="#273152"/>
<path d="M108.154 47.6619C108.24 47.5762 108.325 47.4905 108.411 47.4047C108.497 47.319 108.668 47.2333 108.754 47.1475C108.84 47.0618 109.011 47.0618 109.097 46.9761C109.269 46.9761 109.354 46.8904 109.526 46.8904C109.783 46.8904 109.954 46.8903 110.126 46.9761C110.297 47.0618 110.469 47.1476 110.555 47.319C110.64 47.4905 110.726 47.6619 110.812 47.8334C110.897 48.0049 110.897 48.2621 110.897 48.5193V51.2628H110.126V48.5193C110.126 48.1763 110.04 47.9192 109.869 47.7477C109.697 47.5762 109.526 47.4905 109.183 47.4905C108.926 47.4905 108.754 47.5762 108.583 47.6619C108.411 47.7477 108.24 47.9191 108.068 48.0906V51.2628H107.297V46.8904H107.725C107.811 46.8904 107.897 46.9761 107.897 47.0618L108.154 47.6619Z" fill="#273152"/>
<path d="M115.87 50.7484C115.784 50.8341 115.699 50.9198 115.527 51.0056C115.356 51.0913 115.27 51.177 115.098 51.177C114.927 51.2628 114.755 51.2628 114.67 51.2628C114.498 51.2628 114.327 51.2628 114.155 51.2628C113.898 51.2628 113.555 51.177 113.298 51.0913C113.041 51.0056 112.784 50.8341 112.612 50.6626C112.441 50.4912 112.269 50.234 112.183 49.9768C112.098 49.7196 112.012 49.3766 112.012 48.948C112.012 48.605 112.098 48.3478 112.183 48.0906C112.269 47.8334 112.441 47.5762 112.612 47.4048C112.784 47.2333 113.041 47.0618 113.212 46.9761C113.469 46.8904 113.727 46.8046 114.07 46.8046C114.327 46.8046 114.584 46.8904 114.755 46.9761C114.927 47.0618 115.184 47.1476 115.356 47.319C115.527 47.4905 115.613 47.662 115.699 47.9192C115.784 48.1764 115.87 48.4336 115.87 48.7765C115.87 48.8622 115.87 48.948 115.87 49.0337C115.87 49.0337 115.784 49.1194 115.699 49.1194H112.784C112.784 49.3766 112.869 49.6338 112.869 49.8053C112.955 49.9768 113.041 50.1482 113.127 50.3197C113.212 50.4912 113.384 50.5769 113.555 50.6626C113.727 50.7484 113.898 50.7484 114.155 50.7484C114.327 50.7484 114.498 50.7484 114.67 50.6626C114.841 50.5769 114.927 50.5769 115.013 50.4912C115.098 50.4054 115.184 50.4054 115.27 50.3197C115.356 50.234 115.356 50.234 115.441 50.234C115.527 50.234 115.527 50.234 115.613 50.3197L115.87 50.7484ZM115.27 48.7765C115.27 48.605 115.27 48.4336 115.184 48.2621C115.098 48.0906 115.098 48.0049 114.927 47.9192C114.841 47.8334 114.755 47.7477 114.584 47.662C114.413 47.5762 114.327 47.5762 114.155 47.5762C113.812 47.5762 113.469 47.662 113.298 47.9192C113.127 48.0906 112.955 48.4336 112.869 48.7765H115.27Z" fill="#273152"/>
<path d="M120.757 47.0618L118.356 52.7202C118.356 52.806 118.271 52.806 118.271 52.8917C118.271 52.9774 118.185 52.9774 118.099 52.9774H117.499L118.271 51.2628L116.47 47.1476H117.156C117.242 47.1476 117.242 47.1476 117.328 47.2333L117.413 47.319L118.614 50.0625C118.699 50.1482 118.699 50.3197 118.699 50.4054C118.699 50.234 118.785 50.1482 118.871 50.0625L119.985 47.319C119.985 47.2333 120.071 47.2333 120.071 47.2333C120.071 47.2333 120.157 47.1476 120.243 47.1476H120.757V47.0618Z" fill="#273152"/>
<path d="M122.386 45.09V51.4342H121.614V45.09H122.386Z" fill="#273152"/>
<path d="M127.272 50.7484C127.187 50.8341 127.101 50.9198 126.93 51.0056C126.758 51.0913 126.672 51.177 126.501 51.177C126.329 51.2628 126.158 51.2628 126.072 51.2628C125.901 51.2628 125.729 51.2628 125.558 51.2628C125.301 51.2628 124.958 51.177 124.7 51.0913C124.443 51.0056 124.272 50.8341 124.015 50.6626C123.843 50.4912 123.672 50.234 123.586 49.9768C123.5 49.7196 123.414 49.3766 123.414 48.948C123.414 48.605 123.5 48.3478 123.586 48.0906C123.672 47.8334 123.843 47.5762 124.015 47.4048C124.186 47.2333 124.443 47.0618 124.615 46.9761C124.872 46.8904 125.129 46.8046 125.472 46.8046C125.729 46.8046 125.986 46.8904 126.158 46.9761C126.415 47.0618 126.587 47.1476 126.758 47.319C126.93 47.4905 127.015 47.662 127.101 47.9192C127.187 48.1764 127.272 48.4336 127.272 48.7765C127.272 48.8622 127.272 48.948 127.272 49.0337C127.272 49.0337 127.187 49.1194 127.101 49.1194H124.186C124.186 49.3766 124.272 49.6338 124.272 49.8053C124.357 49.9768 124.443 50.1482 124.529 50.3197C124.615 50.4912 124.786 50.5769 124.958 50.6626C125.129 50.7484 125.301 50.7484 125.558 50.7484C125.729 50.7484 125.901 50.7484 126.072 50.6626C126.244 50.5769 126.329 50.5769 126.415 50.4912C126.501 50.4054 126.587 50.4054 126.672 50.3197C126.758 50.234 126.758 50.234 126.844 50.234C126.929 50.234 126.93 50.234 127.015 50.3197L127.272 50.7484ZM126.672 48.7765C126.672 48.605 126.672 48.4336 126.587 48.2621C126.501 48.0906 126.501 48.0049 126.329 47.9192C126.158 47.8334 126.158 47.7477 125.986 47.662C125.815 47.5762 125.729 47.5762 125.558 47.5762C125.215 47.5762 124.872 47.662 124.7 47.9192C124.529 48.0906 124.357 48.4336 124.272 48.7765H126.672Z" fill="#273152"/>
<path d="M129.159 47.6619C129.244 47.5762 129.33 47.4905 129.416 47.4047C129.502 47.319 129.673 47.2333 129.759 47.1475C129.845 47.0618 130.016 47.0618 130.102 46.9761C130.273 46.9761 130.359 46.8904 130.53 46.8904C130.788 46.8904 130.959 46.8903 131.131 46.9761C131.302 47.0618 131.474 47.1476 131.559 47.319C131.645 47.4905 131.731 47.6619 131.816 47.8334C131.902 48.0049 131.902 48.2621 131.902 48.5193V51.2628H131.131V48.5193C131.131 48.1763 131.045 47.9192 130.873 47.7477C130.702 47.5762 130.53 47.4905 130.188 47.4905C129.93 47.4905 129.759 47.5762 129.587 47.6619C129.416 47.7477 129.244 47.9191 129.073 48.0906V51.2628H128.301V46.8904H128.73C128.816 46.8904 128.902 46.9761 128.902 47.0618L129.159 47.6619Z" fill="#273152"/>
<path d="M137.046 45.09V51.4342H136.617C136.532 51.4342 136.446 51.3485 136.446 51.2628L136.36 50.7484C136.189 51.0056 135.931 51.177 135.76 51.2628C135.589 51.3485 135.246 51.4342 134.903 51.4342C134.645 51.4342 134.388 51.3485 134.217 51.2628C134.045 51.177 133.874 51.0056 133.702 50.8341C133.531 50.6626 133.445 50.4054 133.359 50.1482C133.274 49.891 133.274 49.5481 133.274 49.2052C133.274 48.8622 133.359 48.605 133.445 48.3478C133.531 48.0906 133.617 47.8334 133.788 47.662C133.96 47.4905 134.131 47.319 134.388 47.1476C134.645 47.0618 134.903 46.9761 135.16 46.9761C135.417 46.9761 135.674 47.0618 135.846 47.1476C136.017 47.2333 136.189 47.319 136.36 47.4905V45.09H137.046ZM136.274 48.0906C136.103 47.9192 136.017 47.7477 135.846 47.662C135.674 47.5762 135.503 47.5762 135.246 47.5762C134.817 47.5762 134.56 47.7477 134.303 48.0049C134.045 48.2621 133.96 48.6908 133.96 49.2052C133.96 49.4624 133.96 49.7196 134.045 49.891C134.131 50.0625 134.131 50.234 134.217 50.4054C134.303 50.5769 134.388 50.6626 134.56 50.6626C134.731 50.6626 134.817 50.7484 134.988 50.7484C135.246 50.7484 135.417 50.6626 135.674 50.5769C135.846 50.4912 136.017 50.3197 136.189 50.0625V48.0906H136.274Z" fill="#273152"/>
<path d="M141.933 50.7484C141.848 50.8341 141.762 50.9198 141.59 51.0056C141.419 51.0913 141.333 51.177 141.162 51.177C140.99 51.2628 140.819 51.2628 140.733 51.2628C140.562 51.2628 140.39 51.2628 140.219 51.2628C139.961 51.2628 139.619 51.177 139.361 51.0913C139.104 51.0056 138.933 50.8341 138.675 50.6626C138.504 50.4912 138.333 50.234 138.247 49.9768C138.161 49.7196 138.075 49.3766 138.075 48.948C138.075 48.605 138.161 48.3478 138.247 48.0906C138.333 47.8334 138.504 47.5762 138.675 47.4048C138.847 47.2333 139.104 47.0618 139.276 46.9761C139.533 46.8904 139.79 46.8046 140.133 46.8046C140.39 46.8046 140.647 46.8904 140.819 46.9761C141.076 47.0618 141.247 47.1476 141.419 47.319C141.59 47.4905 141.676 47.662 141.762 47.9192C141.848 48.1764 141.933 48.4336 141.933 48.7765C141.933 48.8622 141.933 48.948 141.933 49.0337C141.933 49.0337 141.848 49.1194 141.762 49.1194H138.847C138.847 49.3766 138.933 49.6338 138.933 49.8053C139.018 49.9768 139.104 50.1482 139.19 50.3197C139.276 50.4912 139.447 50.5769 139.619 50.6626C139.79 50.7484 139.961 50.7484 140.219 50.7484C140.39 50.7484 140.562 50.7484 140.733 50.6626C140.905 50.5769 140.99 50.5769 141.076 50.4912C141.162 50.4054 141.247 50.4054 141.333 50.3197C141.419 50.234 141.419 50.234 141.505 50.234C141.59 50.234 141.59 50.234 141.676 50.3197L141.933 50.7484ZM141.333 48.7765C141.333 48.605 141.333 48.4336 141.247 48.2621C141.162 48.0906 141.162 48.0049 140.99 47.9192C140.819 47.8334 140.819 47.7477 140.647 47.662C140.476 47.5762 140.39 47.5762 140.219 47.5762C139.876 47.5762 139.533 47.662 139.361 47.9192C139.19 48.0906 139.018 48.4336 138.933 48.7765H141.333Z" fill="#273152"/>
<path d="M143.819 47.9192C143.99 47.662 144.162 47.4048 144.333 47.2333C144.505 47.0618 144.762 46.9761 145.105 46.9761C145.191 46.9761 145.276 46.9761 145.362 46.9761C145.448 46.9761 145.534 47.0618 145.619 47.0618L145.534 47.662C145.534 47.7477 145.448 47.7477 145.362 47.7477C145.362 47.7477 145.276 47.7477 145.191 47.7477C145.105 47.7477 145.019 47.7477 144.934 47.7477C144.762 47.7477 144.676 47.7477 144.591 47.8334C144.505 47.9192 144.419 47.9192 144.333 48.0049C144.248 48.0906 144.162 48.1764 144.076 48.2621C143.99 48.3478 143.99 48.5193 143.905 48.6908V51.4342H143.133V47.0618H143.562C143.648 47.0618 143.733 47.0618 143.733 47.1476C143.733 47.1476 143.819 47.2333 143.819 47.319V47.9192Z" fill="#273152"/>
<defs>
<radialGradient id="paint0_radial" cx="0" cy="0" r="1" gradientUnits="userSpaceOnUse" gradientTransform="translate(31.7118 29.5305) scale(12.9397)">
<stop stop-color="#8490A5"/>
<stop offset="1" stop-color="#273152"/>
</radialGradient>
<radialGradient id="paint1_radial" cx="0" cy="0" r="1" gradientUnits="userSpaceOnUse" gradientTransform="translate(42.3937 30.2951) scale(42.2015)">
<stop stop-color="#5AD9AC"/>
<stop offset="1" stop-color="#21BB91"/>
</radialGradient>
</defs>
</svg>
