<svg width="331" height="283" viewBox="0 0 331 283" fill="none" xmlns="http://www.w3.org/2000/svg">
<path d="M326.902 258.849V268.427C326.902 271.306 323.577 274.234 316.828 276.467C303.378 280.983 281.393 281.132 267.299 276.963C267.051 276.914 266.852 276.814 266.604 276.765C259.458 274.532 255.884 271.554 255.884 268.527V258.948C255.884 261.926 259.458 264.904 266.604 267.187C266.852 267.236 267.051 267.335 267.299 267.385C281.393 271.604 303.378 271.405 316.828 266.889C323.577 264.656 326.902 261.728 326.902 258.849Z" fill="#21BB91"/>
<path d="M315.488 250.412C315.736 250.462 315.934 250.561 316.183 250.611C330.227 255.028 330.525 262.323 316.828 266.889C303.378 271.405 281.393 271.554 267.299 267.385C267.051 267.335 266.852 267.236 266.604 267.186C252.559 262.77 252.262 255.474 265.959 250.908C279.458 246.392 301.443 246.194 315.488 250.412Z" fill="#DAF6EC"/>
<path d="M328.887 245.549V255.127C328.887 258.006 325.562 260.934 318.813 263.167C305.364 267.683 283.378 267.832 269.284 263.663C269.036 263.613 268.837 263.514 268.589 263.465C261.443 261.231 257.869 258.254 257.869 255.226V245.648C257.869 248.626 261.443 251.603 268.589 253.886C268.837 253.936 269.036 254.035 269.284 254.085C283.378 258.303 305.364 258.105 318.813 253.589C325.513 251.355 328.887 248.477 328.887 245.549Z" fill="#21BB91"/>
<path d="M317.473 237.112C317.721 237.162 317.919 237.261 318.168 237.311C332.212 241.727 332.51 249.023 318.813 253.589C305.364 258.105 283.378 258.254 269.284 254.085C269.036 254.035 268.837 253.936 268.589 253.886C254.544 249.469 254.247 242.174 267.944 237.608C281.393 233.092 303.378 232.943 317.473 237.112Z" fill="#5AD9AC"/>
<path d="M323.279 232.199V241.777C323.279 244.656 319.954 247.584 313.205 249.817C299.756 254.333 277.77 254.482 263.676 250.313C263.428 250.264 263.229 250.164 262.981 250.115C255.835 247.881 252.262 244.904 252.262 241.876V232.298C252.262 235.276 255.835 238.303 262.981 240.536C263.229 240.586 263.428 240.685 263.676 240.735C277.77 244.953 299.756 244.755 313.205 240.239C319.905 238.005 323.279 235.077 323.279 232.199Z" fill="#21BB91"/>
<path d="M311.865 223.762C312.113 223.812 312.312 223.911 312.56 223.96C326.604 228.377 326.902 235.673 313.205 240.239C299.756 244.755 277.77 244.904 263.676 240.735C263.428 240.685 263.229 240.586 262.981 240.536C248.936 236.119 248.639 228.824 262.336 224.258C275.785 219.742 297.771 219.544 311.865 223.762Z" fill="#DAF6EC"/>
<path d="M330.227 221.181V230.759C330.227 233.638 326.902 236.566 320.153 238.799C306.704 243.315 284.718 243.464 270.624 239.295C270.376 239.246 270.177 239.147 269.929 239.097C262.783 236.864 259.21 233.886 259.21 230.859V221.28C259.21 224.258 262.783 227.285 269.929 229.519C270.177 229.568 270.376 229.668 270.624 229.717C284.718 233.936 306.704 233.737 320.153 229.221C326.902 226.988 330.227 224.06 330.227 221.181Z" fill="#21BB91"/>
<path d="M318.813 212.744C319.061 212.794 319.26 212.893 319.508 212.943C333.552 217.36 333.85 224.655 320.153 229.221C306.704 233.737 284.718 233.886 270.624 229.717C270.376 229.668 270.177 229.568 269.929 229.519C255.884 225.102 255.587 217.806 269.284 213.241C282.733 208.725 304.718 208.526 318.813 212.744Z" fill="#5AD9AC"/>
<path d="M321.989 210.262V219.841C321.989 222.719 318.664 225.647 311.915 227.88C298.465 232.397 276.48 232.545 262.386 228.377C262.138 228.327 261.939 228.228 261.691 228.178C254.544 225.945 250.971 222.967 250.971 219.94V210.362C250.971 213.339 254.544 216.367 261.691 218.6C261.939 218.65 262.138 218.749 262.386 218.798C276.48 223.017 298.465 222.818 311.915 218.302C318.614 216.069 321.989 213.191 321.989 210.262Z" fill="#21BB91"/>
<path d="M310.575 201.826C310.823 201.875 311.021 201.975 311.269 202.024C325.314 206.441 325.612 213.736 311.915 218.302C298.465 222.818 276.48 222.967 262.386 218.799C262.138 218.749 261.939 218.65 261.691 218.6C247.646 214.183 247.348 206.888 261.046 202.322C274.495 197.806 296.48 197.607 310.575 201.826Z" fill="#DAF6EC"/>
<path d="M329.384 199.394V208.973C329.384 211.851 326.059 214.779 319.309 217.012C305.86 221.528 283.875 221.677 269.78 217.509C269.532 217.459 269.334 217.36 269.086 217.31C261.939 215.077 258.366 212.099 258.366 209.072V199.494C258.366 202.471 261.939 205.499 269.086 207.732C269.334 207.781 269.532 207.881 269.78 207.93C283.875 212.149 305.86 211.95 319.309 207.434C326.059 205.201 329.384 202.273 329.384 199.394Z" fill="#21BB91"/>
<path d="M327.994 197.955V207.534C327.994 210.412 324.669 213.34 317.92 215.573C304.47 220.089 282.485 220.238 268.391 216.07C268.143 216.02 267.944 215.921 267.696 215.871C260.549 213.638 256.976 210.66 256.976 207.633V198.055C256.976 201.032 260.549 204.06 267.696 206.293C267.944 206.342 268.143 206.442 268.391 206.491C282.485 210.71 304.47 210.511 317.92 205.995C324.619 203.762 327.994 200.883 327.994 197.955Z" stroke="#273152" stroke-width="1.5" stroke-miterlimit="10" stroke-linecap="round" stroke-linejoin="round"/>
<path d="M317.969 190.958C318.217 191.007 318.416 191.106 318.664 191.156C332.709 195.573 333.006 202.868 319.309 207.434C305.86 211.95 283.875 212.099 269.78 207.93C269.532 207.881 269.334 207.781 269.086 207.732C255.041 203.315 254.743 196.02 268.44 191.454C281.939 186.938 303.924 186.739 317.969 190.958Z" fill="white"/>
<path d="M316.58 189.519C316.828 189.568 317.026 189.667 317.274 189.717C331.319 194.134 331.617 201.429 317.92 205.995C304.47 210.511 282.485 210.66 268.391 206.491C268.143 206.442 267.944 206.342 267.696 206.293C253.651 201.876 253.353 194.581 267.051 190.015C280.5 185.499 302.485 185.35 316.58 189.519Z" stroke="#273152" stroke-width="1.5" stroke-miterlimit="10" stroke-linecap="round" stroke-linejoin="round"/>
<path d="M301.195 191.255L299.508 192.744C301.046 192.943 302.187 193.191 303.13 193.439C303.776 193.588 304.272 193.786 304.669 193.935L301.344 195.722C300.897 195.573 300.351 195.325 299.458 195.077C298.664 194.878 297.622 194.63 296.282 194.481C293.701 194.183 292.311 194.58 291.766 195.077C291.12 195.623 292.113 196.119 294.892 197.062C298.813 198.303 299.656 199.444 297.919 200.933C296.182 202.422 292.212 203.464 287.249 203.315L285.264 205.052L281.344 204.655L283.18 203.067C281.691 202.868 280.351 202.62 279.259 202.322C278.416 202.074 277.721 201.876 277.224 201.628L280.698 199.791C281.294 200.089 282.088 200.387 283.081 200.635C284.024 200.883 285.165 201.131 286.455 201.231C288.738 201.479 290.723 201.28 291.468 200.585C292.212 199.94 291.369 199.394 288.937 198.65C285.364 197.558 283.428 196.417 285.314 194.779C287.001 193.29 290.823 192.397 295.488 192.496L297.324 190.908L301.195 191.255Z" fill="#21BB91"/>
<path d="M271.151 112.912C270.308 112.912 269.514 112.564 268.918 111.919C267.826 110.678 267.926 108.793 269.166 107.701C270.407 106.609 272.293 106.708 273.434 107.949C274.526 109.19 274.427 111.075 273.186 112.167C272.591 112.664 271.846 112.912 271.151 112.912ZM271.151 108.396C270.804 108.396 270.407 108.544 270.159 108.793C269.514 109.339 269.464 110.331 270.06 110.927C270.605 111.572 271.598 111.621 272.194 111.026C272.839 110.48 272.888 109.487 272.293 108.892C271.995 108.594 271.548 108.396 271.151 108.396Z" fill="#273152"/>
<path d="M287.777 95.9885C286.586 95.9885 285.444 95.4922 284.601 94.5493C283.012 92.8123 283.161 90.0827 284.948 88.4946C286.685 86.9065 289.415 87.0554 291.003 88.8421C292.591 90.579 292.442 93.3086 290.655 94.8967C289.812 95.6411 288.769 95.9885 287.777 95.9885ZM287.777 88.9413C287.132 88.9413 286.437 89.1894 285.891 89.6361C284.749 90.6783 284.65 92.4153 285.692 93.5567C286.735 94.6982 288.472 94.7974 289.613 93.7552C290.754 92.713 290.854 90.9761 289.812 89.8346C289.315 89.2391 288.521 88.9413 287.777 88.9413Z" fill="#273152"/>
<path d="M273.567 63.3667C273.567 63.3667 273.518 63.3667 273.567 63.3667C273.121 63.3667 272.823 62.9697 272.823 62.5726L272.972 59.8431C272.972 59.4461 273.319 59.0987 273.766 59.1483C274.163 59.1483 274.51 59.5453 274.461 59.9423L274.312 62.6719C274.262 63.0193 273.964 63.3667 273.567 63.3667Z" fill="#273152"/>
<path d="M274.113 53.7385C274.113 53.7385 274.064 53.7385 274.113 53.7385C273.667 53.7385 273.369 53.3415 273.369 52.9445L273.518 50.2149C273.518 49.8179 273.865 49.4705 274.312 49.5201C274.709 49.5201 275.056 49.9171 275.007 50.3142L274.858 53.0437C274.858 53.4407 274.51 53.7385 274.113 53.7385Z" fill="#273152"/>
<path d="M280.069 57.5101L277.289 57.3613C276.892 57.3613 276.545 57.0139 276.595 56.5672C276.595 56.1702 276.942 55.8228 277.389 55.8724L280.118 56.0213C280.515 56.0213 280.863 56.3687 280.813 56.8153C280.813 57.2124 280.466 57.5101 280.069 57.5101Z" fill="#273152"/>
<path d="M270.49 57.0138L267.711 56.8649C267.314 56.8649 266.967 56.5175 267.016 56.0709C267.016 55.6738 267.364 55.3265 267.81 55.3761L270.54 55.525C270.937 55.525 271.284 55.8724 271.235 56.319C271.235 56.716 270.887 57.0138 270.49 57.0138Z" fill="#273152"/>
<path d="M6.55567 163.446C6.10902 163.446 5.81125 163.049 5.81125 162.652L5.96013 159.922C5.96013 159.525 6.30753 159.178 6.75418 159.227C7.15121 159.227 7.4986 159.624 7.44898 160.021L7.30009 162.751C7.30009 163.148 6.95269 163.446 6.55567 163.446Z" fill="#273152"/>
<path d="M7.10152 153.868C6.65487 153.868 6.3571 153.471 6.3571 153.074L6.50599 150.344C6.50599 149.947 6.85338 149.6 7.30003 149.65C7.69706 149.65 8.04446 150.047 7.99483 150.444L7.84594 153.173C7.84594 153.521 7.49855 153.868 7.10152 153.868Z" fill="#273152"/>
<path d="M13.1065 157.59C13.0569 157.59 13.0569 157.59 13.1065 157.59L10.3274 157.441C9.93035 157.441 9.58295 157.093 9.63258 156.647C9.63258 156.25 9.97998 155.902 10.4266 155.952L13.1562 156.101C13.5532 156.101 13.9006 156.448 13.851 156.895C13.8013 157.292 13.5036 157.59 13.1065 157.59Z" fill="#273152"/>
<path d="M3.47871 157.094L0.699534 156.945C0.302509 156.945 -0.0448869 156.598 0.00474113 156.151C0.00474113 155.754 0.352138 155.407 0.79879 155.456L3.52833 155.605C3.92536 155.605 4.27276 155.952 4.22313 156.399C4.22313 156.796 3.87573 157.094 3.47871 157.094Z" fill="#273152"/>
<path d="M149.73 11.7507C149.581 11.7507 149.432 11.7011 149.333 11.6019C148.986 11.3537 148.886 10.9071 149.134 10.5597L150.673 8.27678C150.921 7.92938 151.368 7.83013 151.715 8.07827C152.062 8.32641 152.162 8.77307 151.914 9.12046L150.375 11.4033C150.177 11.6515 149.928 11.7507 149.73 11.7507Z" fill="#273152"/>
<path d="M155.09 3.81032C154.941 3.81032 154.792 3.76069 154.693 3.66144C154.345 3.4133 154.246 2.96664 154.494 2.61924L156.033 0.33635C156.281 -0.0110462 156.727 -0.110299 157.075 0.137841C157.422 0.385981 157.522 0.832637 157.273 1.18003L155.735 3.46291C155.586 3.71105 155.338 3.81032 155.09 3.81032Z" fill="#273152"/>
<path d="M158.316 10.0635C158.167 10.0635 158.018 10.0138 157.919 9.91456L155.636 8.3761C155.288 8.12796 155.189 7.68131 155.437 7.33391C155.685 6.98651 156.132 6.88726 156.479 7.1354L158.762 8.67386C159.11 8.922 159.209 9.36865 158.961 9.71605C158.762 9.96419 158.564 10.0635 158.316 10.0635Z" fill="#273152"/>
<path d="M150.325 4.75315C150.177 4.75315 150.028 4.70353 149.928 4.60427L147.646 3.0658C147.298 2.81766 147.199 2.371 147.447 2.02361C147.695 1.67621 148.142 1.57696 148.489 1.8251L150.772 3.36357C151.119 3.61171 151.219 4.05837 150.971 4.40576C150.772 4.60428 150.574 4.75315 150.325 4.75315Z" fill="#273152"/>
<path d="M29.4886 113.064C28.645 113.064 27.8013 112.716 27.2057 111.972C26.1636 110.682 26.3124 108.796 27.5531 107.754C28.8435 106.711 30.7293 106.86 31.7715 108.101C32.8137 109.391 32.6648 111.277 31.4241 112.319C30.8782 112.816 30.1834 113.064 29.4886 113.064ZM29.4886 108.548C29.1412 108.548 28.7938 108.647 28.4961 108.895C27.8509 109.441 27.7517 110.384 28.2976 111.029C28.8435 111.674 29.7864 111.773 30.4316 111.227C31.0767 110.682 31.176 109.739 30.6301 109.093C30.3819 108.696 29.9353 108.548 29.4886 108.548Z" fill="#273152"/>
<path d="M107.894 249.569L108.539 262.671L102.236 262.621L100.35 249.966L107.894 249.569Z" fill="white"/>
<path d="M107.894 249.569L108.539 262.671L102.236 262.621L100.35 249.966L107.894 249.569Z" stroke="#273152" stroke-width="1.5" stroke-miterlimit="10" stroke-linecap="round" stroke-linejoin="round"/>
<path d="M102.137 279.346C104.717 279.495 111.764 279.346 113.75 278.353C115.487 277.509 116.876 273.787 115.884 272.447C113.452 269.172 111.665 263.365 110.127 258.8C110.027 258.551 109.68 258.502 109.531 258.75L108.291 260.834L107.199 258.502C107.05 258.254 106.752 258.105 106.454 258.055L104.271 258.105C103.774 258.105 103.228 258.601 102.98 259.097L101.491 261.182L100.549 259.594C100.4 259.346 100.003 259.445 99.953 259.743L98.8612 275.078C98.8612 277.609 100.648 279.296 102.137 279.346Z" fill="#596CD9"/>
<path d="M102.137 279.346C104.717 279.495 111.764 279.346 113.75 278.353C115.487 277.509 116.876 273.787 115.884 272.447C113.452 269.172 111.665 263.365 110.127 258.8C110.027 258.551 109.68 258.502 109.531 258.75L108.291 260.834L107.199 258.502C107.05 258.254 106.752 258.105 106.454 258.055L104.271 258.105C103.774 258.105 103.228 258.601 102.98 259.097L101.491 261.182L100.549 259.594C100.4 259.346 100.003 259.445 99.953 259.743L98.8612 275.078C98.8612 277.609 100.648 279.296 102.137 279.346Z" stroke="#273152" stroke-width="1.5" stroke-miterlimit="10" stroke-linecap="round" stroke-linejoin="round"/>
<path d="M101.69 275.674C101.74 275.674 106.702 277.013 112.459 275.177" stroke="#273152" stroke-width="1.5" stroke-miterlimit="10" stroke-linecap="round" stroke-linejoin="round"/>
<path d="M110.623 269.371L103.377 269.718Z" fill="#273152"/>
<path d="M110.623 269.371L103.377 269.718" stroke="#273152" stroke-width="1.5" stroke-miterlimit="10" stroke-linecap="round" stroke-linejoin="round"/>
<path d="M61.2928 245.003L60.2009 260.884L54.2952 260.983L53.5012 245.4L61.2928 245.003Z" fill="white"/>
<path d="M61.2928 245.003L60.2009 260.884L54.2952 260.983L53.5012 245.4L61.2928 245.003Z" stroke="#273152" stroke-width="1.5" stroke-miterlimit="10" stroke-linecap="round" stroke-linejoin="round"/>
<path d="M61.938 257.013C61.938 257.013 62.5335 264.011 62.4343 266.839C62.3846 268.874 59.9032 275.078 58.5136 278.502C57.9181 279.892 56.6774 281.033 55.3374 281.38C52.856 282.075 51.665 282.125 49.3324 281.827C46.2059 281.48 45.1141 278.7 45.9081 275.921C46.6029 273.39 47.8932 270.561 50.0272 267.088C51.5657 264.556 52.7568 257.212 52.7568 257.212L57.5707 256.963L59.1092 260.934L61.938 257.013Z" fill="#596CD9"/>
<path d="M61.938 257.013C61.938 257.013 62.5335 264.011 62.4343 266.839C62.3846 268.874 59.9032 275.078 58.5136 278.502C57.9181 279.892 56.6774 281.033 55.3374 281.38C52.856 282.075 51.665 282.125 49.3324 281.827C46.2059 281.48 45.1141 278.7 45.9081 275.921C46.6029 273.39 47.8932 270.561 50.0272 267.088C51.5657 264.556 52.7568 257.212 52.7568 257.212L57.5707 256.963L59.1092 260.934L61.938 257.013Z" stroke="#273152" stroke-width="1.5" stroke-miterlimit="10" stroke-linecap="round" stroke-linejoin="round"/>
<path d="M48.8362 279.445C50.0769 279.842 51.9628 279.693 52.7072 279.593C53.9479 279.345 55.139 278.7 55.933 277.708C56.6278 276.864 57.1241 276.07 57.4219 275.425C58.0174 274.035 58.6129 272.447 59.0596 271.306C59.804 269.37 59.8536 269.221 60.1018 269.023" stroke="#273152" stroke-width="1.5" stroke-miterlimit="10" stroke-linecap="round" stroke-linejoin="round"/>
<path d="M49.1339 272.645L55.8833 272.298Z" fill="#273152"/>
<path d="M49.1339 272.645L55.8833 272.298" stroke="#273152" stroke-width="1.5" stroke-miterlimit="10" stroke-linecap="round" stroke-linejoin="round"/>
<path d="M111.417 118.203C111.417 118.203 113.204 166.392 112.757 197.856C112.36 224.904 110.276 246.591 109.68 252.1C109.581 252.943 108.985 253.638 108.142 253.787C106.504 254.085 103.675 254.482 100.896 254.085C100.151 253.986 99.5063 253.44 99.3078 252.695C97.8686 247.385 91.8636 225.052 91.4169 216.467C90.9703 207.137 92.5088 204.705 92.3103 197.112C92.1614 191.405 89.2333 171.256 87.7941 161.479C87.5956 160.189 85.809 160.089 85.4119 161.33C82.7817 170.412 77.1241 189.965 71.9628 210.065C71.7146 211.107 70.5732 219.792 70.325 220.834C67.0992 233.39 64.0223 243.464 62.9801 249.321C62.8312 250.263 62.0868 251.008 61.1438 251.206C59.3076 251.603 56.2803 252 53.5011 251.306C52.5085 251.058 51.8137 250.164 51.7641 249.122C51.516 242.72 50.5234 218.998 50.8708 214.978C51.6152 206.392 57.8684 197.608 58.5632 188.477C59.3076 179.345 58.8609 156.516 61.4416 142.67C64.0719 128.824 69.7295 113.141 69.7295 113.141L111.417 118.203Z" fill="#273152"/>
<path d="M86.0571 26.2922C89.3822 24.1086 94.8909 25.2997 97.0249 30.7588C98.7619 35.2253 94.8909 38.6993 93.8984 42.0243C90.7222 52.744 100.995 75.5729 93.9976 87.2355C88.4393 96.516 72.9057 103.414 59.5061 97.6078C46.7517 92.0991 38.1164 78.7987 43.2777 67.9302C47.9428 58.1535 56.6773 62.7689 62.0371 53.141C67.2977 43.6621 62.4838 39.1955 66.3052 34.4312C71.5161 27.93 76.6774 32.4957 86.0571 26.2922Z" fill="#273152"/>
<path d="M68.2407 138.6C67.9429 138.6 67.6948 138.452 67.5459 138.154C67.3474 137.757 67.5459 137.36 67.8933 137.161C75.9826 133.34 78.0174 125.151 78.067 125.052C78.1663 124.655 78.5633 124.407 78.9603 124.506C79.3574 124.605 79.6055 125.002 79.5062 125.399C79.407 125.747 77.273 134.382 68.5384 138.501C68.4392 138.551 68.3399 138.6 68.2407 138.6Z" fill="white"/>
<path d="M143.775 17.0115L141.69 23.761C140.995 25.8453 141.343 28.1282 142.633 29.9645L145.015 33.3392C145.412 33.8851 145.512 34.5799 145.512 35.2747C145.561 36.8131 145.313 39.1457 145.313 39.1457L150.921 39.2449C150.921 39.2449 150.326 36.2672 150.028 35.2747C149.68 33.9843 149.631 32.5451 150.226 31.3044C152.013 27.3838 151.517 23.4632 151.517 23.4632L147.646 24.5054C147.646 24.5054 146.455 22.4706 146.703 18.947C146.752 18.1034 146.653 17.4086 146.504 16.9123C145.958 15.5723 144.072 15.6716 143.775 17.0115Z" fill="white"/>
<path d="M143.775 17.0115L141.69 23.761C140.995 25.8453 141.343 28.1282 142.633 29.9645L145.015 33.3392C145.412 33.8851 145.512 34.5799 145.512 35.2747C145.561 36.8131 145.313 39.1457 145.313 39.1457L150.921 39.2449C150.921 39.2449 150.326 36.2672 150.028 35.2747C149.68 33.9843 149.631 32.5451 150.226 31.3044C152.013 27.3838 151.517 23.4632 151.517 23.4632L147.646 24.5054C147.646 24.5054 146.455 22.4706 146.703 18.947C146.752 18.1034 146.653 17.4086 146.504 16.9123C145.958 15.5723 144.072 15.6716 143.775 17.0115Z" stroke="#273152" stroke-width="1.5" stroke-miterlimit="10" stroke-linecap="round" stroke-linejoin="round"/>
<path d="M106.256 59.6424C111.169 60.1883 126.008 66.7392 134.643 57.8558C143.278 48.9723 143.725 37.2105 143.725 37.2105L152.162 36.4661C152.162 36.4661 157.968 50.3123 151.963 66.3918C145.809 82.8187 116.132 88.6252 116.132 88.6252L106.256 59.6424Z" fill="#F8AD9E"/>
<path d="M116.727 63.2153C106.703 57.2103 88.7868 57.7066 79.8537 61.7761C64.0224 69.0218 54.9901 126.491 60.0521 138.898C64.6675 150.213 103.973 152.595 114.891 142.918C119.556 138.799 118.018 114.183 117.174 104.357C116.926 101.379 116.777 98.352 116.777 95.3743L116.727 63.2153Z" fill="#F8AD9E"/>
<path d="M82.4839 45.2002C82.8313 45.2002 83.0795 44.9024 83.0795 44.6047C82.8809 42.9669 82.3846 39.89 83.9231 38.5004C85.9579 36.7138 89.283 34.0339 90.5733 35.6716C91.7147 37.1108 92.8562 40.0389 95.5857 41.1307C95.8339 41.2299 95.8835 41.627 95.7346 41.8751L95.1391 43.3143C94.9902 43.6121 95.1391 44.2573 95.2383 44.555C95.6354 45.4483 96.479 47.3838 96.3301 47.7808C95.9827 48.5749 93.0051 49.9645 93.0051 49.9645L94.9902 59.2449C95.0894 59.5923 95.288 60.1879 95.6353 60.0886L99.3078 60.3367C99.3078 60.3367 99.0597 65.3492 91.2681 66.7388C81.0943 68.575 79.7544 61.7263 79.7544 61.7263C79.7544 61.7263 89.7296 61.5774 85.3623 50.7089C85.2631 50.4608 85.0646 50.3119 84.8164 50.2622C83.8239 50.1134 81.1936 49.5674 80.6477 47.8801C80.201 46.0439 81.2928 45.1506 82.4839 45.2002Z" fill="white"/>
<path d="M82.4839 45.2002C82.8313 45.2002 83.0795 44.9024 83.0795 44.6047C82.8809 42.9669 82.3846 39.89 83.9231 38.5004C85.9579 36.7138 89.283 34.0339 90.5733 35.6716C91.7147 37.1108 92.8562 40.0389 95.5857 41.1307C95.8339 41.2299 95.8835 41.627 95.7346 41.8751L95.1391 43.3143C94.9902 43.6121 95.1391 44.2573 95.2383 44.555C95.6354 45.4483 96.479 47.3838 96.3301 47.7808C95.9827 48.5749 93.0051 49.9645 93.0051 49.9645L94.9902 59.2449C95.0894 59.5923 95.288 60.1879 95.6353 60.0886L99.3078 60.3367C99.3078 60.3367 99.0597 65.3492 91.2681 66.7388C81.0943 68.575 79.7544 61.7263 79.7544 61.7263C79.7544 61.7263 89.7296 61.5774 85.3623 50.7089C85.2631 50.4608 85.0646 50.3119 84.8164 50.2622C83.8239 50.1134 81.1936 49.5674 80.6477 47.8801C80.201 46.0439 81.2928 45.1506 82.4839 45.2002Z" stroke="#273152" stroke-width="1.5" stroke-miterlimit="10" stroke-linecap="round" stroke-linejoin="round"/>
<path d="M122.335 121.081C122.335 121.081 128.291 118.947 132.41 120.139C132.41 120.139 133.005 122.719 134.792 123.861C136.578 125.002 140.946 125.548 141.789 128.029C142.633 130.511 133.899 132.893 130.772 131.652C127.645 130.412 124.817 127.235 121.889 127.384C118.961 127.533 122.335 121.081 122.335 121.081Z" fill="white"/>
<path d="M122.335 121.081C122.335 121.081 128.291 118.947 132.41 120.139C132.41 120.139 133.005 122.719 134.792 123.861C136.578 125.002 140.946 125.548 141.789 128.029C142.633 130.511 133.899 132.893 130.772 131.652C127.645 130.412 124.817 127.235 121.889 127.384C118.961 127.533 122.335 121.081 122.335 121.081Z" stroke="#273152" stroke-width="1.5" stroke-miterlimit="10" stroke-linecap="round" stroke-linejoin="round"/>
<path d="M81.4914 88.2275L88.4393 104.257C89.8785 107.582 92.6577 110.114 96.1317 111.205L122.782 119.741L122.137 129.022C122.137 129.022 87.0994 125.746 81.0447 121.28C75.3871 117.111 68.2407 97.8058 68.2407 97.8058L81.4914 88.2275Z" fill="#F8AD9E"/>
<path d="M81.4913 88.2275L88.4393 104.257C89.8785 107.582 92.6577 110.114 96.1316 111.205L122.782 119.741" stroke="#273152" stroke-width="1.5" stroke-miterlimit="10" stroke-linecap="round" stroke-linejoin="round"/>
<path d="M114.693 128.228C104.072 126.987 85.3624 124.407 81.0447 121.28C78.9603 119.742 76.6278 116.069 74.5434 112.148" stroke="#273152" stroke-width="1.5" stroke-miterlimit="10" stroke-linecap="round" stroke-linejoin="round"/>
<path d="M190.078 85.5976C189.035 81.28 176.976 79.8904 175.636 81.9251C172.509 86.5902 167.199 98.352 164.321 104.853C163.03 107.732 160.847 110.114 158.067 111.652L141.938 120.536C141.095 120.337 133.204 118.303 132.41 118.451C131.566 118.65 130.574 120.188 128.539 121.33C126.454 122.521 124.916 123.216 125.412 124.109C125.859 124.903 129.73 124.605 132.459 123.414C133.005 123.166 133.65 123.315 134.047 123.762C135.04 124.853 139.308 126.739 143.129 126.739L168.986 122.521C171.666 122.074 174.048 120.486 175.487 118.154C180.45 110.114 191.467 91.3545 190.078 85.5976Z" fill="white"/>
<path d="M190.078 85.5976C189.035 81.28 176.976 79.8904 175.636 81.9251C172.509 86.5902 167.199 98.352 164.321 104.853C163.03 107.732 160.847 110.114 158.067 111.652L141.938 120.536C141.095 120.337 133.204 118.303 132.41 118.451C131.566 118.65 130.574 120.188 128.539 121.33C126.454 122.521 124.916 123.216 125.412 124.109C125.859 124.903 129.73 124.605 132.459 123.414C133.005 123.166 133.65 123.315 134.047 123.762C135.04 124.853 139.308 126.739 143.129 126.739L168.986 122.521C171.666 122.074 174.048 120.486 175.487 118.154C180.45 110.114 191.467 91.3545 190.078 85.5976Z" stroke="#273152" stroke-width="1.5" stroke-miterlimit="10" stroke-linecap="round" stroke-linejoin="round"/>
<path d="M241.443 250.958L240.847 261.082L234.098 262.273L233.452 250.263L241.443 250.958Z" fill="white"/>
<path d="M241.443 250.958L240.847 261.082L234.098 262.273L233.452 250.263L241.443 250.958Z" stroke="#273152" stroke-width="1.5" stroke-miterlimit="10" stroke-linecap="round" stroke-linejoin="round"/>
<path d="M233.899 279.891C236.778 280.14 241.443 280.288 246.902 279.246C248.688 278.899 249.78 277.112 249.284 275.375C247.845 270.512 245.264 261.331 241.492 257.211L240.748 259.594L239.358 257.41C239.16 257.112 238.862 256.914 238.515 256.914L235.835 256.715C235.289 256.665 234.792 257.063 234.693 257.608L234.346 259.643L233.254 257.013L231.12 276.566C230.971 278.303 232.212 279.743 233.899 279.891Z" fill="#21BB91"/>
<path d="M233.899 279.891C236.778 280.14 241.443 280.288 246.902 279.246C248.688 278.899 249.78 277.112 249.284 275.375C247.845 270.512 245.264 261.331 241.492 257.211L240.748 259.594L239.358 257.41C239.16 257.112 238.862 256.914 238.515 256.914L235.835 256.715C235.289 256.665 234.792 257.063 234.693 257.608L234.346 259.643L233.254 257.013L231.12 276.566C230.971 278.303 232.212 279.743 233.899 279.891Z" stroke="#273152" stroke-width="1.5" stroke-miterlimit="10" stroke-linecap="round" stroke-linejoin="round"/>
<path d="M233.452 276.169C233.502 276.219 240.549 278.651 247.1 275.822" stroke="#273152" stroke-width="1.5" stroke-miterlimit="10" stroke-linecap="round" stroke-linejoin="round"/>
<path d="M243.676 269.072L235.785 269.221Z" fill="#273152"/>
<path d="M243.676 269.072L235.785 269.221" stroke="#273152" stroke-width="1.5" stroke-miterlimit="10" stroke-linecap="round" stroke-linejoin="round"/>
<path d="M209.135 247.187L208.837 261.976L200.648 262.373L199.507 247.683L209.135 247.187Z" fill="white"/>
<path d="M209.135 247.187L208.837 261.976L200.648 262.373L199.507 247.683L209.135 247.187Z" stroke="#273152" stroke-width="1.5" stroke-miterlimit="10" stroke-linecap="round" stroke-linejoin="round"/>
<path d="M214.246 270.214C214.346 271.603 213.452 272.894 212.112 273.291C207.447 274.631 196.926 277.608 193.899 278.204C189.978 278.998 185.065 278.005 182.881 275.822C180.698 273.638 187.149 267.782 190.276 265.598C194.891 262.373 199.159 256.268 201.045 255.921C202.931 255.574 206.802 260.933 206.802 260.933L212.509 258.204C212.509 258.154 213.75 263.117 214.246 270.214Z" fill="#21BB91"/>
<path d="M211.418 270.214C211.517 271.603 210.624 272.894 209.284 273.291C204.619 274.631 194.097 277.608 191.07 278.204C187.15 278.998 182.236 278.005 180.053 275.822C177.869 273.638 184.321 267.782 187.447 265.598C192.063 262.373 196.331 256.268 198.217 255.921C200.102 255.574 203.973 260.933 203.973 260.933L209.681 258.204C209.681 258.154 210.971 263.117 211.418 270.214Z" stroke="#273152" stroke-width="1.5" stroke-miterlimit="10" stroke-linecap="round" stroke-linejoin="round"/>
<path d="M182.286 274.035C188.539 279.693 208.738 269.271 208.936 269.172" stroke="#273152" stroke-width="1.5" stroke-miterlimit="10" stroke-linecap="round" stroke-linejoin="round"/>
<path d="M193.502 263.018L198.167 266.839" stroke="#273152" stroke-width="1.5" stroke-miterlimit="10" stroke-linecap="round" stroke-linejoin="round"/>
<path d="M238.614 149.27C238.614 149.27 243.477 195.275 245.611 211.107C247.745 226.938 244.569 252.794 244.569 252.794L231.864 252.745C231.864 252.745 229.433 221.677 228.043 213.092C228.043 213.092 222.088 201.628 219.954 191.305C217.82 180.933 211.567 164.704 211.567 164.704C211.567 164.704 211.318 247.285 211.219 253.787C211.219 253.787 201.294 254.73 197.621 252.645C197.621 252.645 189.78 222.918 189.879 206.541C189.978 190.164 186.901 149.617 186.901 149.617L238.614 149.27Z" fill="#273152"/>
<path d="M229.681 212.993L235.041 212.744" stroke="white" stroke-width="1.5" stroke-miterlimit="10" stroke-linecap="round" stroke-linejoin="round"/>
<path d="M194.693 216.715C195.09 217.261 204.172 230.561 204.718 238.303" stroke="white" stroke-width="1.5" stroke-miterlimit="10" stroke-linecap="round" stroke-linejoin="round"/>
<path d="M253.602 96.0686C253.602 96.0686 247.944 68.7731 232.559 62.7681C217.175 56.7631 193.155 60.1875 187.695 63.86C182.236 67.5324 174.147 84.6541 174.147 84.6541L185.958 99.4929C185.958 99.4929 185.462 148.228 188.44 160.982C188.44 160.982 202.931 161.925 208.887 159.245C214.892 156.516 234.743 152.148 244.569 156.069L239.706 94.6294L253.602 96.0686Z" fill="#596CD9"/>
<path d="M250.773 96.0686C250.773 96.0686 245.115 68.7731 229.73 62.7681C214.346 56.7631 190.326 60.1875 184.867 63.86C179.408 67.5324 171.318 84.6541 171.318 84.6541L183.13 99.4929C183.13 99.4929 182.633 148.228 185.611 160.982C185.611 160.982 200.102 161.925 206.058 159.245C212.063 156.516 231.914 152.148 241.74 156.069L236.877 94.5797L250.773 96.0686Z" stroke="#273152" stroke-width="1.5" stroke-miterlimit="10" stroke-linecap="round" stroke-linejoin="round"/>
<path d="M197.621 124.903C197.671 125.051 205.115 140.387 227.993 143.265" stroke="#273152" stroke-width="1.5" stroke-miterlimit="10" stroke-linecap="round" stroke-linejoin="round"/>
<path d="M185.164 118.65L214.445 117.161L203.626 84.9026L174.345 86.3914L185.164 118.65Z" fill="#273152"/>
<path d="M248.192 96.3168L233.056 90.4607C233.056 90.4607 236.43 115.473 205.81 105.399C205.81 105.399 206.753 102.123 206.405 98.3516C206.058 94.5798 203.973 98.3516 203.825 101.429C203.676 104.505 196.579 103.612 192.261 102.62C187.993 101.627 182.435 102.719 192.509 107.582C202.584 112.496 204.569 109.965 204.569 109.965C204.569 109.965 217.969 126.838 233.304 122.322C252.262 116.764 248.192 96.3168 248.192 96.3168Z" fill="white"/>
<path d="M248.192 96.3168L233.056 90.4607C233.056 90.4607 236.43 115.473 205.81 105.399C205.81 105.399 206.753 102.123 206.405 98.3516C206.058 94.5798 203.973 98.3516 203.825 101.429C203.676 104.505 196.579 103.612 192.261 102.62C187.993 101.627 182.435 102.719 192.509 107.582C202.584 112.496 204.569 109.965 204.569 109.965C204.569 109.965 217.969 126.838 233.304 122.322C252.262 116.764 248.192 96.3168 248.192 96.3168Z" stroke="#273152" stroke-width="1.5" stroke-miterlimit="10" stroke-linecap="round" stroke-linejoin="round"/>
<path d="M206.256 51.4036C207.596 52.4954 210.177 53.8354 212.063 52.7436C213.502 51.9495 214.197 50.014 214.048 47.8304C214.743 47.8304 215.586 47.7808 216.232 47.1852C217.175 46.2919 216.877 44.7038 216.827 43.6616C216.43 38.8477 219.16 38.004 218.316 34.7782C217.671 32.2472 215.586 30.808 215.189 30.5598C213.204 29.2199 211.964 29.7658 208.738 29.071C203.279 27.9295 203.031 25.6466 199.457 25.7955C199.259 25.7955 194.445 26.0933 192.956 29.5176C191.765 32.2968 193.502 35.5226 195.189 37.1604C197.373 39.2944 198.812 38.1033 200.996 39.8899C204.817 42.9172 202.286 48.1282 206.256 51.4036Z" fill="#273152"/>
<path d="M195.14 43.3632L195.338 43.1647C196.331 42.1721 197.423 41.0803 197.621 39.6907C198.514 33.785 203.775 31.4028 204.271 36.7627C204.42 38.1026 209.333 37.8049 208.837 39.2441C207.497 43.0158 207.398 42.0232 209.631 43.2639C209.879 43.2639 210.127 43.3136 210.376 43.4128C211.517 43.8595 211.964 45.3483 211.418 46.7379C211.07 47.5816 210.425 48.1771 209.73 48.3756L210.028 54.2318C210.127 56.4154 211.567 58.3509 213.651 59.0457L215.686 59.7405C215.686 59.7405 206.753 66.2417 197.075 60.0879L198.316 59.4427C200.45 58.3509 201.79 56.1176 201.74 53.6858L201.691 52.5444C201.045 52.6437 200.45 52.6437 199.904 52.4948C197.274 51.8496 196.232 48.8719 196.48 45.1498L195.388 44.6535C194.842 44.455 194.693 43.7602 195.14 43.3632Z" fill="white"/>
<path d="M195.14 43.3632L195.338 43.1647C196.331 42.1721 197.423 41.0803 197.621 39.6907C198.514 33.785 203.775 31.4028 204.271 36.7627C204.42 38.1026 209.333 37.8049 208.837 39.2441C207.497 43.0158 207.398 42.0232 209.631 43.2639C209.879 43.2639 210.127 43.3136 210.376 43.4128C211.517 43.8595 211.964 45.3483 211.418 46.7379C211.07 47.5816 210.425 48.1771 209.73 48.3756L210.028 54.2318C210.127 56.4154 211.567 58.3509 213.651 59.0457L215.686 59.7405C215.686 59.7405 206.753 66.2417 197.075 60.0879L198.316 59.4427C200.45 58.3509 201.79 56.1176 201.74 53.6858L201.691 52.5444C201.045 52.6437 200.45 52.6437 199.904 52.4948C197.274 51.8496 196.232 48.8719 196.48 45.1498L195.388 44.6535C194.842 44.455 194.693 43.7602 195.14 43.3632Z" stroke="#273152" stroke-width="1.5" stroke-miterlimit="10" stroke-linecap="round" stroke-linejoin="round"/>
<path d="M201.492 52.6438C204.42 52.0483 206.058 50.1624 206.753 49.2195" stroke="#273152" stroke-width="1.5" stroke-miterlimit="10" stroke-linecap="round" stroke-linejoin="round"/>
</svg>
