<svg width="80" height="80" viewBox="0 0 80 80" fill="none" xmlns="http://www.w3.org/2000/svg">
<path d="M79.5367 39.7683C79.5367 17.8048 61.7318 -8.15512e-05 39.7683 -8.05911e-05C17.8049 -7.96311e-05 -2.69838e-06 17.8048 -1.73833e-06 39.7683C-7.78277e-07 61.7317 17.8049 79.5366 39.7683 79.5366C61.7318 79.5366 79.5367 61.7317 79.5367 39.7683Z" fill="#273152"/>
<path d="M41.4435 77.1294C62.7376 77.1294 80 59.867 80 38.5729C80 17.2787 62.7376 0.0163574 41.4435 0.0163574C20.1493 0.0163574 2.88696 17.2787 2.88696 38.5729C2.88696 59.867 20.1493 77.1294 41.4435 77.1294Z" fill="#21BB91"/>
<path d="M41.4435 70.951C59.3254 70.951 73.8216 56.4548 73.8216 38.5729C73.8216 20.691 59.3254 6.19482 41.4435 6.19482C23.5616 6.19482 9.06543 20.691 9.06543 38.5729C9.06543 56.4548 23.5616 70.951 41.4435 70.951Z" fill="white"/>
<path d="M68.6599 56.717C68.5426 56.717 68.4253 56.6779 68.3471 56.6388C68.0733 56.4824 67.9951 56.0914 68.1906 55.8176C69.833 53.2759 71.1234 50.4995 71.9446 47.6058C72.0228 47.293 72.3748 47.1365 72.6876 47.2148C73.0004 47.293 73.1568 47.6449 73.0786 47.9577C72.1792 50.9687 70.8888 53.8624 69.1682 56.4824C69.0509 56.5997 68.8554 56.717 68.6599 56.717Z" fill="#273152"/>
<path d="M70.5759 25.0428C70.3412 25.0428 70.1457 24.9255 70.0284 24.73C64.6712 13.6635 53.6829 6.82034 41.4043 6.82034C31.3155 6.82034 21.735 11.6692 15.7521 19.842C15.5566 20.1157 15.2046 20.1548 14.9309 19.9593C14.6572 19.7637 14.6181 19.4118 14.8136 19.1381C20.992 10.6916 30.9635 5.64722 41.4043 5.64722C53.9567 5.64722 65.5706 12.9597 71.0842 24.2216C71.2406 24.4953 71.1233 24.8473 70.8105 25.0037C70.7714 25.0428 70.6541 25.0428 70.5759 25.0428Z" fill="#273152"/>
<path d="M41.4434 71.5374C23.2601 71.5374 8.47876 56.7561 8.47876 38.5727C8.47876 32.9418 9.92561 27.3499 12.6629 22.4619C12.8193 22.1882 13.1712 22.0709 13.445 22.2273C13.7187 22.3837 13.836 22.7356 13.6796 23.0094C11.0596 27.78 9.65188 33.1373 9.65188 38.5727C9.65188 56.0913 23.9248 70.3643 41.4434 70.3643C41.7562 70.3643 42.03 70.638 42.03 70.9508C42.03 71.2637 41.7562 71.5374 41.4434 71.5374Z" fill="#273152"/>
<path d="M30.8 55V48.904H38.384V29.464L32.576 32.872L29.744 27.448L40.544 21.16H45.824V48.904H52.928V55H30.8Z" fill="#21BB91"/>
</svg>
