<svg width="80" height="80" viewBox="0 0 80 80" fill="none" xmlns="http://www.w3.org/2000/svg">
<path d="M79.5367 39.7683C79.5367 17.8048 61.7318 -8.15512e-05 39.7683 -8.05911e-05C17.8049 -7.96311e-05 -2.69838e-06 17.8048 -1.73833e-06 39.7683C-7.78277e-07 61.7317 17.8049 79.5366 39.7683 79.5366C61.7318 79.5366 79.5367 61.7317 79.5367 39.7683Z" fill="#273152"/>
<path d="M41.4435 77.1294C62.7376 77.1294 80 59.867 80 38.5729C80 17.2787 62.7376 0.0163574 41.4435 0.0163574C20.1493 0.0163574 2.88696 17.2787 2.88696 38.5729C2.88696 59.867 20.1493 77.1294 41.4435 77.1294Z" fill="#21BB91"/>
<path d="M41.4435 70.951C59.3254 70.951 73.8216 56.4548 73.8216 38.5729C73.8216 20.691 59.3254 6.19482 41.4435 6.19482C23.5616 6.19482 9.06543 20.691 9.06543 38.5729C9.06543 56.4548 23.5616 70.951 41.4435 70.951Z" fill="white"/>
<path d="M68.6599 56.717C68.5426 56.717 68.4253 56.6779 68.3471 56.6388C68.0733 56.4824 67.9951 56.0914 68.1906 55.8176C69.833 53.2759 71.1234 50.4995 71.9446 47.6058C72.0228 47.293 72.3748 47.1365 72.6876 47.2148C73.0004 47.293 73.1568 47.6449 73.0786 47.9577C72.1792 50.9687 70.8888 53.8624 69.1682 56.4824C69.0509 56.5997 68.8554 56.717 68.6599 56.717Z" fill="#273152"/>
<path d="M70.5759 25.0428C70.3412 25.0428 70.1457 24.9255 70.0284 24.73C64.6712 13.6635 53.6829 6.82034 41.4043 6.82034C31.3155 6.82034 21.735 11.6692 15.7521 19.842C15.5566 20.1157 15.2046 20.1548 14.9309 19.9593C14.6572 19.7637 14.6181 19.4118 14.8136 19.1381C20.992 10.6916 30.9635 5.64722 41.4043 5.64722C53.9567 5.64722 65.5706 12.9597 71.0842 24.2216C71.2406 24.4953 71.1233 24.8473 70.8105 25.0037C70.7714 25.0428 70.6541 25.0428 70.5759 25.0428Z" fill="#273152"/>
<path d="M41.4434 71.5374C23.2601 71.5374 8.47876 56.7561 8.47876 38.5727C8.47876 32.9418 9.92561 27.3499 12.6629 22.4619C12.8193 22.1882 13.1712 22.0709 13.445 22.2273C13.7187 22.3837 13.836 22.7356 13.6796 23.0094C11.0596 27.78 9.65188 33.1373 9.65188 38.5727C9.65188 56.0913 23.9248 70.3643 41.4434 70.3643C41.7562 70.3643 42.03 70.638 42.03 70.9508C42.03 71.2637 41.7562 71.5374 41.4434 71.5374Z" fill="#273152"/>
<path d="M39.584 55.528C37.216 55.528 34.96 55.192 32.816 54.52C30.672 53.848 28.912 52.936 27.536 51.784L29.888 46.168C32.736 48.28 35.872 49.336 39.296 49.336C43.2 49.336 45.152 47.88 45.152 44.968C45.152 42.28 43.328 40.936 39.68 40.936H34.016V34.936H38.96C40.56 34.936 41.824 34.568 42.752 33.832C43.68 33.096 44.144 32.072 44.144 30.76C44.144 28.136 42.432 26.824 39.008 26.824C35.808 26.824 32.96 27.896 30.464 30.04L28.112 24.568C29.52 23.32 31.248 22.36 33.296 21.688C35.344 20.984 37.472 20.632 39.68 20.632C43.328 20.632 46.176 21.448 48.224 23.08C50.272 24.712 51.296 26.952 51.296 29.8C51.296 31.56 50.848 33.112 49.952 34.456C49.056 35.8 47.808 36.776 46.208 37.384C48.128 37.928 49.616 38.936 50.672 40.408C51.76 41.848 52.304 43.592 52.304 45.64C52.304 48.712 51.168 51.128 48.896 52.888C46.624 54.648 43.52 55.528 39.584 55.528Z" fill="#21BB91"/>
</svg>
